<svg version="1.1" xmlns="http://www.w3.org/2000/svg" xmlns:xlink="http://www.w3.org/1999/xlink" width="433.39736" height="630" viewBox="0,0,433.39736,630"><defs><linearGradient x1="205.34325" y1="341.02429" x2="257.69673" y2="307.81115" gradientUnits="userSpaceOnUse" id="color-1"><stop offset="0" stop-color="#ff6f00"/><stop offset="1" stop-color="#e2ff00"/></linearGradient><radialGradient cx="236.16321" cy="323.87436" r="41.5" gradientUnits="userSpaceOnUse" id="color-2"><stop offset="0" stop-color="#ff6f00"/><stop offset="1" stop-color="#ff6f00" stop-opacity="0"/></radialGradient><linearGradient x1="324.98316" y1="339.02429" x2="272.62967" y2="305.81115" gradientUnits="userSpaceOnUse" id="color-3"><stop offset="0" stop-color="#ff6f00"/><stop offset="1" stop-color="#e2ff00"/></linearGradient><radialGradient cx="294.1632" cy="321.87436" r="41.5" gradientUnits="userSpaceOnUse" id="color-4"><stop offset="0" stop-color="#ff6f00"/><stop offset="1" stop-color="#ff6f00" stop-opacity="0"/></radialGradient><linearGradient x1="260.5" y1="-92.5" x2="260.5" y2="455" gradientUnits="userSpaceOnUse" id="color-5"><stop offset="0" stop-color="#b03131"/><stop offset="1" stop-color="#490073"/></linearGradient><linearGradient x1="260.5" y1="-92.5" x2="260.5" y2="455" gradientUnits="userSpaceOnUse" id="color-6"><stop offset="0" stop-color="#ffffff"/><stop offset="1" stop-color="#b0b0b0"/></linearGradient><linearGradient x1="249.29109" y1="32.19387" x2="249.29109" y2="102.26936" gradientTransform="translate(-83.31028,-55.8146) scale(0.65858,0.65858)" gradientUnits="userSpaceOnUse" id="color-7"><stop offset="0" stop-color="#0089df"/><stop offset="1" stop-color="#010082"/></linearGradient><radialGradient cx="-30.46179" cy="92.1563" r="0.00125" gradientUnits="userSpaceOnUse" id="color-8"><stop offset="0" stop-color="#ff6f00"/><stop offset="1" stop-color="#ff6f00" stop-opacity="0"/></radialGradient><linearGradient x1="328.01051" y1="309.69433" x2="271.84985" y2="283.42686" gradientUnits="userSpaceOnUse" id="color-9"><stop offset="0" stop-color="#ff6f00"/><stop offset="1" stop-color="#e2ff00"/></linearGradient><radialGradient cx="295.25559" cy="296.61364" r="41.5" gradientUnits="userSpaceOnUse" id="color-10"><stop offset="0" stop-color="#ff6f00"/><stop offset="1" stop-color="#ff6f00" stop-opacity="0"/></radialGradient><linearGradient x1="314.27844" y1="231.11698" x2="263.22971" y2="266.3026" gradientUnits="userSpaceOnUse" id="color-11"><stop offset="0" stop-color="#ff6f00"/><stop offset="1" stop-color="#e2ff00"/></linearGradient><radialGradient cx="286.43738" cy="252.77029" r="41.5" gradientUnits="userSpaceOnUse" id="color-12"><stop offset="0" stop-color="#ff6f00"/><stop offset="1" stop-color="#ff6f00" stop-opacity="0"/></radialGradient><linearGradient x1="284.03919" y1="190.76892" x2="252.48224" y2="244.13707" gradientUnits="userSpaceOnUse" id="color-13"><stop offset="0" stop-color="#ff6f00"/><stop offset="1" stop-color="#e2ff00"/></linearGradient><radialGradient cx="267.86307" cy="222.11095" r="41.5" gradientUnits="userSpaceOnUse" id="color-14"><stop offset="0" stop-color="#ff6f00"/><stop offset="1" stop-color="#ff6f00" stop-opacity="0"/></radialGradient><linearGradient x1="193.72431" y1="306.69433" x2="249.88497" y2="280.42686" gradientUnits="userSpaceOnUse" id="color-15"><stop offset="0" stop-color="#ff6f00"/><stop offset="1" stop-color="#e2ff00"/></linearGradient><radialGradient cx="226.47924" cy="293.61364" r="41.5" gradientUnits="userSpaceOnUse" id="color-16"><stop offset="0" stop-color="#ff6f00"/><stop offset="1" stop-color="#ff6f00" stop-opacity="0"/></radialGradient><linearGradient x1="207.45639" y1="228.11698" x2="258.50511" y2="263.30261" gradientUnits="userSpaceOnUse" id="color-17"><stop offset="0" stop-color="#ff6f00"/><stop offset="1" stop-color="#e2ff00"/></linearGradient><radialGradient cx="235.29744" cy="249.77029" r="41.5" gradientUnits="userSpaceOnUse" id="color-18"><stop offset="0" stop-color="#ff6f00"/><stop offset="1" stop-color="#ff6f00" stop-opacity="0"/></radialGradient><linearGradient x1="237.69563" y1="187.76893" x2="269.25258" y2="241.13707" gradientUnits="userSpaceOnUse" id="color-19"><stop offset="0" stop-color="#ff6f00"/><stop offset="1" stop-color="#e2ff00"/></linearGradient><radialGradient cx="253.87176" cy="219.11096" r="41.5" gradientUnits="userSpaceOnUse" id="color-20"><stop offset="0" stop-color="#ff6f00"/><stop offset="1" stop-color="#ff6f00" stop-opacity="0"/></radialGradient><linearGradient x1="357.97611" y1="300.56291" x2="302.31448" y2="273.25389" gradientUnits="userSpaceOnUse" id="color-21"><stop offset="0" stop-color="#ff6f00"/><stop offset="1" stop-color="#e2ff00"/></linearGradient><radialGradient cx="325.47052" cy="286.87436" r="41.5" gradientUnits="userSpaceOnUse" id="color-22"><stop offset="0" stop-color="#ff6f00"/><stop offset="1" stop-color="#ff6f00" stop-opacity="0"/></radialGradient><linearGradient x1="345.71008" y1="221.74341" x2="294.01481" y2="255.97204" gradientUnits="userSpaceOnUse" id="color-23"><stop offset="0" stop-color="#ff6f00"/><stop offset="1" stop-color="#e2ff00"/></linearGradient><radialGradient cx="317.47052" cy="242.87436" r="41.5" gradientUnits="userSpaceOnUse" id="color-24"><stop offset="0" stop-color="#ff6f00"/><stop offset="1" stop-color="#ff6f00" stop-opacity="0"/></radialGradient><linearGradient x1="316.22765" y1="180.83908" x2="283.68208" y2="233.61016" gradientUnits="userSpaceOnUse" id="color-25"><stop offset="0" stop-color="#ff6f00"/><stop offset="1" stop-color="#e2ff00"/></linearGradient><radialGradient cx="299.47052" cy="211.87436" r="41.5" gradientUnits="userSpaceOnUse" id="color-26"><stop offset="0" stop-color="#ff6f00"/><stop offset="1" stop-color="#ff6f00" stop-opacity="0"/></radialGradient><linearGradient x1="159.65762" y1="298.56291" x2="215.31925" y2="271.25388" gradientUnits="userSpaceOnUse" id="color-27"><stop offset="0" stop-color="#ff6f00"/><stop offset="1" stop-color="#e2ff00"/></linearGradient><radialGradient cx="192.16321" cy="284.87436" r="41.5" gradientUnits="userSpaceOnUse" id="color-28"><stop offset="0" stop-color="#ff6f00"/><stop offset="1" stop-color="#ff6f00" stop-opacity="0"/></radialGradient><linearGradient x1="171.92365" y1="219.74341" x2="223.61892" y2="253.97204" gradientUnits="userSpaceOnUse" id="color-29"><stop offset="0" stop-color="#ff6f00"/><stop offset="1" stop-color="#e2ff00"/></linearGradient><radialGradient cx="200.16321" cy="240.87436" r="41.5" gradientUnits="userSpaceOnUse" id="color-30"><stop offset="0" stop-color="#ff6f00"/><stop offset="1" stop-color="#ff6f00" stop-opacity="0"/></radialGradient><linearGradient x1="201.40608" y1="178.83908" x2="233.95164" y2="231.61016" gradientUnits="userSpaceOnUse" id="color-31"><stop offset="0" stop-color="#ff6f00"/><stop offset="1" stop-color="#e2ff00"/></linearGradient><radialGradient cx="218.16321" cy="209.87436" r="41.5" gradientUnits="userSpaceOnUse" id="color-32"><stop offset="0" stop-color="#ff6f00"/><stop offset="1" stop-color="#ff6f00" stop-opacity="0"/></radialGradient><linearGradient x1="235.1973" y1="400.33334" x2="235.1973" y2="418.83334" gradientUnits="userSpaceOnUse" id="color-33"><stop offset="0" stop-color="#828282"/><stop offset="1" stop-color="#000000"/></linearGradient><linearGradient x1="235.1973" y1="400.33334" x2="235.1973" y2="418.83334" gradientUnits="userSpaceOnUse" id="color-34"><stop offset="0" stop-color="#828282"/><stop offset="1" stop-color="#000000"/></linearGradient><linearGradient x1="291.68973" y1="400.33334" x2="291.68973" y2="418.83334" gradientUnits="userSpaceOnUse" id="color-35"><stop offset="0" stop-color="#828282"/><stop offset="1" stop-color="#000000"/></linearGradient><linearGradient x1="291.68973" y1="400.33334" x2="291.68973" y2="418.83334" gradientUnits="userSpaceOnUse" id="color-36"><stop offset="0" stop-color="#828282"/><stop offset="1" stop-color="#000000"/></linearGradient><radialGradient cx="261" cy="187.66667" r="306.17647" gradientUnits="userSpaceOnUse" id="color-37"><stop offset="0" stop-color="#000000" stop-opacity="0"/><stop offset="1" stop-color="#000000"/></radialGradient></defs><g transform="translate(-8.66321,127.33333)"><g data-paper-data="{&quot;isPaintingLayer&quot;:true}" fill-rule="nonzero" stroke-linejoin="miter" stroke-miterlimit="10" stroke-dasharray="" stroke-dashoffset="0" style="mix-blend-mode: normal"><g stroke="#ff0000"><path d="M267.32202,318.87658c0,0 -12.39166,17.04765 -21.5407,25.03434c-9.14905,7.98669 -17.37488,7.70673 -17.37488,7.70673c0,0 8.38114,-7.06408 10.988,-10.04604c2.074,-2.37242 3.42332,-6.43892 3.42332,-6.43892l-13.86646,-0.20345l-1.30566,1.30202l-22.9988,3.69531l20.06429,-11.3077l11.42589,-9.61712l-13.37252,-2.41163l-13.59408,2.46597c0,0 5.07692,-14.066 11.55302,-12.77684c5.56776,1.10834 16.91175,5.37706 16.91175,5.37706l-15.44262,-13.88832l16.9535,8.42964l-7.70132,-10.27276c0,0 19.21146,9.95217 25.83418,14.18891c4.4427,2.84213 10.04308,8.76282 10.04308,8.76282z" fill="url(#color-1)" stroke-width="2" stroke-linecap="round"/><path d="M258.39458,358.91742c-18.20564,11.54969 -42.91756,5.22326 -55.19561,-14.13049c-12.27805,-19.35375 -7.47279,-44.40594 10.73286,-55.95563c18.20564,-11.54969 42.91756,-5.22326 55.19561,14.13049c12.27805,19.35375 7.47279,44.40594 -10.73286,55.95563z" fill="url(#color-2)" stroke-width="0" stroke-linecap="butt"/></g><g data-paper-data="{&quot;index&quot;:null}" stroke="#ff0000"><path d="M273.04746,308.11376c6.62273,-4.23674 25.83419,-14.18892 25.83419,-14.18892l-7.70132,10.27276l16.95349,-8.42964l-15.44261,13.88832c0,0 11.34398,-4.26872 16.91174,-5.37706c6.47611,-1.28915 11.55302,12.77685 11.55302,12.77685l-13.59407,-2.46598l-13.37252,2.41163l11.42589,9.61712l20.06429,11.3077l-22.9988,-3.69531l-1.30566,-1.30201l-13.86646,0.20345c0,0 1.34932,4.06649 3.42332,6.43892c2.60686,2.98196 10.988,10.04604 10.988,10.04604c0,0 -8.22583,0.27996 -17.37488,-7.70673c-9.14905,-7.98669 -21.5407,-25.03434 -21.5407,-25.03434c0,0 5.60037,-5.92069 10.04307,-8.76282z" fill="url(#color-3)" stroke-width="2" stroke-linecap="round"/><path d="M261.19897,300.96179c12.27805,-19.35375 36.98996,-25.68018 55.19561,-14.13049c18.20565,11.54969 23.01091,36.60188 10.73286,55.95563c-12.27805,19.35375 -36.98996,25.68018 -55.19561,14.13049c-18.20565,-11.54969 -23.01091,-36.60188 -10.73286,-55.95563z" fill="url(#color-4)" stroke-width="0" stroke-linecap="butt"/></g><path d="M88.5,455v-547.5h344v547.5z" fill="url(#color-5)" stroke="url(#color-6)" stroke-width="2" stroke-linecap="butt"/><text transform="translate(126.5,84.75) scale(1.51842,1.51842)" font-size="40" xml:space="preserve" fill="url(#color-7)" fill-rule="nonzero" stroke="none" stroke-width="1" stroke-linecap="butt" stroke-linejoin="miter" stroke-miterlimit="10" stroke-dasharray="" stroke-dashoffset="0" font-family="Marker" font-weight="normal" text-anchor="start" style="mix-blend-mode: normal"><tspan x="0" dy="0">HERO 69</tspan></text><text transform="translate(209.5,117.5) scale(0.5,0.5)" font-size="40" xml:space="preserve" fill="#ffea00" fill-rule="nonzero" stroke="none" stroke-width="1" stroke-linecap="butt" stroke-linejoin="miter" stroke-miterlimit="10" stroke-dasharray="" stroke-dashoffset="0" font-family="Marker" font-weight="normal" text-anchor="start" style="mix-blend-mode: normal"><tspan x="0" dy="0">STAFFEL 3</tspan></text><path d="M8.66321,122.91249z" fill="url(#color-8)" stroke="none" stroke-width="0" stroke-linecap="butt"/><g data-paper-data="{&quot;index&quot;:null}" stroke="#ff0000"><path d="M272.5578,285.65741c6.02853,-5.04651 23.81439,-17.36677 23.81439,-17.36677l-6.32878,11.17079l15.74044,-10.52228l-13.54595,15.74379c0,0 10.70719,-5.68015 16.08822,-7.48928c6.2589,-2.10429 13.08768,11.19966 13.08768,11.19966l-13.79753,-0.71272l-12.95593,4.09683l12.55876,8.08194l21.3422,8.6574l-23.28224,-0.733l-1.461,-1.12493l-13.72736,1.96965c0,0 1.85676,3.86129 4.2163,5.94993c2.96576,2.62527 12.17912,8.56318 12.17912,8.56318c0,0 -8.12301,1.3264 -18.21564,-5.42868c-10.09262,-6.75509 -24.55659,-22.08379 -24.55659,-22.08379c0,0 4.79984,-6.58638 8.84394,-9.97172z" fill="url(#color-9)" stroke-width="2" stroke-linecap="round"/><path d="M259.89417,280.07439c9.71042,-20.76117 33.41411,-30.18654 52.94368,-21.05216c19.52957,9.13437 27.48957,33.3695 17.77915,54.13067c-9.71042,20.76117 -33.41411,30.18654 -52.94367,21.05216c-19.52957,-9.13437 -27.48957,-33.3695 -17.77915,-54.13067z" fill="url(#color-10)" stroke-width="0" stroke-linecap="butt"/></g><g data-paper-data="{&quot;index&quot;:null}" stroke="#ff0000"><path d="M265.51222,266.81901c-1.30789,-7.75241 -2.95031,-29.3262 -2.95031,-29.3262l6.44076,11.10661l-1.12467,-18.90014l6.73935,19.64538c0,0 0.50986,-12.10983 1.66824,-17.66739c1.34737,-6.46425 16.27843,-5.63318 16.27843,-5.63318l-7.58804,11.54564l-3.01257,13.25007l13.32085,-6.75241l18.25641,-14.04077l-12.39895,19.71969l-1.70907,0.69217l-5.23798,12.8407c0,0 4.27026,0.34924 7.26502,-0.63123c3.76418,-1.23237 13.54424,-6.18161 13.54424,-6.18161c0,0 -2.96069,7.67964 -13.89026,12.97462c-10.92957,5.29497 -31.46648,10.02899 -31.46648,10.02899c0,0 -3.25759,-7.47041 -4.13497,-12.67093z" fill="url(#color-11)" stroke-width="2" stroke-linecap="round"/><path d="M254.29468,274.92483c-13.00723,-18.87142 -9.16089,-44.08863 8.59103,-56.32424c17.75192,-12.23561 42.68714,-6.85624 55.69437,12.01518c13.00723,18.87141 9.16089,44.08863 -8.59103,56.32424c-17.75192,12.23561 -42.68714,6.85624 -55.69437,-12.01517z" fill="url(#color-12)" stroke-width="0" stroke-linecap="butt"/></g><g data-paper-data="{&quot;index&quot;:null}" stroke="#ff0000"><path d="M254.77063,243.64736c-4.44212,-6.48676 -14.99117,-25.37706 -14.99117,-25.37706l10.50896,7.37576l-8.95654,-16.68114l14.36522,15.00001c0,0 -4.62196,-11.20471 -5.90415,-16.73503c-1.49138,-6.43255 12.40869,-11.94757 12.40869,-11.94757l-2.03895,13.66465l2.82932,13.29041l9.2545,-11.72152l10.67368,-20.40864l-2.97309,23.10326l-1.26048,1.34581l0.6377,13.85328c0,0 4.02225,-1.47604 6.32854,-3.62333c2.89884,-2.69898 9.69692,-11.29728 9.69692,-11.29728c0,0 0.53749,8.21303 -7.1587,17.60775c-7.69619,9.39472 -24.34732,22.3143 -24.34732,22.3143c0,0 -6.09322,-5.41217 -9.07311,-9.76367z" fill="url(#color-13)" stroke-width="2" stroke-linecap="round"/><path d="M247.99332,255.71407c-19.72884,-11.6658 -26.82624,-36.16742 -15.85248,-54.72591c10.97376,-18.55849 35.86314,-24.14612 55.59198,-12.48032c19.72884,11.6658 26.82623,36.16742 15.85247,54.72591c-10.97376,18.55849 -35.86313,24.14612 -55.59197,12.48032z" fill="url(#color-14)" stroke-width="0" stroke-linecap="butt"/></g><g stroke="#ff0000"><path d="M258.02097,292.62913c0,0 -14.46397,15.3287 -24.5566,22.08379c-10.09262,6.75509 -18.21563,5.42869 -18.21563,5.42869c0,0 9.21335,-5.93791 12.17911,-8.56318c2.35954,-2.08865 4.2163,-5.94994 4.2163,-5.94994l-13.72736,-1.96964l-1.461,1.12493l-23.28224,0.733l21.3422,-8.6574l12.55876,-8.08194l-12.95593,-4.09684l-13.79754,0.71272c0,0 6.82879,-13.30394 13.08768,-11.19966c5.38103,1.80914 16.08821,7.48928 16.08821,7.48928l-13.54595,-15.74379l15.74044,10.52228l-6.32878,-11.17079c0,0 17.78587,12.32025 23.81439,17.36677c4.0441,3.38534 8.84394,9.97173 8.84394,9.97173z" fill="url(#color-15)" stroke-width="2" stroke-linecap="round"/><path d="M244.0615,331.20506c-19.52957,9.13437 -43.23326,-0.291 -52.94368,-21.05216c-9.71042,-20.76117 -1.75042,-44.99629 17.77915,-54.13067c19.52957,-9.13438 43.23325,0.291 52.94367,21.05217c9.71042,20.76117 1.75042,44.99629 -17.77915,54.13067z" fill="url(#color-16)" stroke-width="0" stroke-linecap="butt"/></g><g stroke="#ff0000"><path d="M252.08763,276.48994c0,0 -20.53691,-4.73402 -31.46648,-10.029c-10.92957,-5.29497 -13.89026,-12.97461 -13.89026,-12.97461c0,0 9.78007,4.94923 13.54424,6.18161c2.99475,0.98047 7.26502,0.63122 7.26502,0.63122l-5.23798,-12.8407l-1.70907,-0.69217l-12.39895,-19.71969l18.25641,14.04077l13.32085,6.75241l-3.01257,-13.25007l-7.58804,-11.54564c0,0 14.93106,-0.83106 16.27843,5.63318c1.15839,5.55757 1.66824,17.6674 1.66824,17.6674l6.73934,-19.64539l-1.12467,18.90014l6.44076,-11.10661c0,0 -1.64241,21.57378 -2.95031,29.3262c-0.87738,5.20052 -4.13497,12.67093 -4.13497,12.67093z" fill="url(#color-17)" stroke-width="2" stroke-linecap="round"/><path d="M211.74577,283.94c-17.75192,-12.23562 -21.59825,-37.45283 -8.59103,-56.32425c13.00723,-18.87141 37.94245,-24.25079 55.69437,-12.01517c17.75192,12.23561 21.59825,37.45283 8.59103,56.32425c-13.00723,18.87141 -37.94245,24.25079 -55.69437,12.01518z" fill="url(#color-18)" stroke-width="0" stroke-linecap="butt"/></g><g stroke="#ff0000"><path d="M257.89108,250.41103c0,0 -16.65113,-12.91957 -24.34732,-22.3143c-7.69619,-9.39472 -7.1587,-17.60775 -7.1587,-17.60775c0,0 6.79808,8.5983 9.69692,11.29728c2.30629,2.1473 6.32854,3.62333 6.32854,3.62333l0.6377,-13.85328l-1.26048,-1.34581l-2.97309,-23.10326l10.67368,20.40864l9.2545,11.72152l2.82932,-13.29041l-2.03895,-13.66465c0,0 13.90007,5.51502 12.40869,11.94757c-1.2822,5.53032 -5.90415,16.73503 -5.90415,16.73503l14.36522,-15.00001l-8.95655,16.68114l10.50896,-7.37576c0,0 -10.54906,18.8903 -14.99117,25.37706c-2.97989,4.3515 -9.07311,9.76367 -9.07311,9.76367z" fill="url(#color-19)" stroke-width="2" stroke-linecap="round"/><path d="M218.14953,240.23375c-10.97376,-18.55849 -3.87637,-43.06011 15.85247,-54.72591c19.72884,-11.6658 44.61822,-6.07817 55.59198,12.48032c10.97376,18.55849 3.87637,43.06011 -15.85248,54.72591c-19.72884,11.6658 -44.61821,6.07817 -55.59197,-12.48032z" fill="url(#color-20)" stroke-width="0" stroke-linecap="butt"/></g><g data-paper-data="{&quot;index&quot;:null}" stroke="#ff0000"><path d="M302.98075,275.49724c6.12149,-4.93335 24.13376,-16.92016 24.13376,-16.92016l-6.53576,11.05097l15.93371,-10.22726l-13.83686,15.48874c0,0 10.81113,-5.47972 16.22492,-7.18831c6.29701,-1.98734 12.8768,11.44151 12.8768,11.44151l-13.78186,-0.9696l-13.02999,3.85479l12.40603,8.31447l21.17723,9.05344l-23.26455,-1.16655l-1.4398,-1.15195l-13.76167,1.71361c0,0 1.78451,3.89521 4.10474,6.02744c2.91634,2.68006 12.01749,8.78855 12.01749,8.78855c0,0 -8.14631,1.17486 -18.11136,-5.76705c-9.96504,-6.94191 -24.14097,-22.53737 -24.14097,-22.53737c0,0 4.92169,-6.49583 9.02814,-9.80525z" fill="url(#color-21)" stroke-width="2" stroke-linecap="round"/><path d="M290.42332,269.6793c10.09546,-20.57668 33.9706,-29.55889 53.32663,-20.06232c19.35604,9.49657 26.86323,33.87576 16.76777,54.45245c-10.09546,20.57668 -33.9706,29.5589 -53.32663,20.06232c-19.35604,-9.49657 -26.86322,-33.87576 -16.76777,-54.45245z" fill="url(#color-22)" stroke-width="0" stroke-linecap="butt"/></g><g data-paper-data="{&quot;index&quot;:null}" stroke="#ff0000"><path d="M296.28731,256.53087c-1.16327,-7.77543 -2.40353,-29.37607 -2.40353,-29.37607l6.23276,11.22465l-0.77242,-18.9178l6.37224,19.76751c0,0 0.73534,-12.09823 1.99705,-17.63325c1.46754,-6.43803 16.38054,-5.32898 16.38054,-5.32898l-7.80178,11.40228l-3.25886,13.19166l13.44432,-6.50312l18.51479,-13.69827l-12.76412,19.48531l-1.72166,0.66021l-5.47625,12.74091c0,0 4.26301,0.42872 7.27551,-0.49579c3.78647,-1.16204 13.65704,-5.92825 13.65704,-5.92825c0,0 -3.10323,7.62317 -14.12953,12.71363c-11.0263,5.09046 -31.64783,9.44113 -31.64783,9.44113c0,0 -3.11788,-7.52979 -3.89823,-12.74575z" fill="url(#color-23)" stroke-width="2" stroke-linecap="round"/><path d="M284.92073,264.42633c-12.65345,-19.11042 -8.33806,-44.25162 9.63869,-56.15444c17.97676,-11.90283 42.80744,-6.05991 55.46089,13.05051c12.65345,19.11042 8.33806,44.25162 -9.63869,56.15445c-17.97676,11.90283 -42.80744,6.05991 -55.46089,-13.05052z" fill="url(#color-24)" stroke-width="0" stroke-linecap="butt"/></g><g data-paper-data="{&quot;index&quot;:null}" stroke="#ff0000"><path d="M285.9792,233.16316c-4.32052,-6.56838 -14.51587,-25.65189 -14.51587,-25.65189l10.36975,7.57023l-8.64427,-16.84507l14.08333,15.26499c0,0 -4.41244,-11.28885 -5.59141,-16.84209c-1.3713,-6.45921 12.62909,-11.71436 12.62909,-11.71436l-2.29313,13.6243l2.58127,13.34081l9.47123,-11.54711l11.05197,-20.20628l-3.40292,23.04387l-1.28533,1.32209l0.37954,13.86275c0,0 4.04904,-1.40086 6.39493,-3.50482c2.9486,-2.64452 9.90567,-11.1147 9.90567,-11.1147c0,0 0.38441,8.22162 -7.48544,17.47136c-7.86985,9.24974 -24.75874,21.85691 -24.75874,21.85691c0,0 -5.99135,-5.52473 -8.88967,-9.93098z" fill="url(#color-25)" stroke-width="2" stroke-linecap="round"/><path d="M278.97829,245.10153c-19.50812,-12.03126 -26.14789,-36.66084 -14.83035,-55.0117c11.31754,-18.35086 36.30669,-23.4739 55.81481,-11.44264c19.50812,12.03126 26.14789,36.66084 14.83034,55.0117c-11.31754,18.35086 -36.30668,23.4739 -55.8148,11.44264z" fill="url(#color-26)" stroke-width="0" stroke-linecap="butt"/></g><g stroke="#ff0000"><path d="M223.68112,283.30249c0,0 -14.17593,15.59546 -24.14098,22.53737c-9.96505,6.94191 -18.11136,5.76705 -18.11136,5.76705c0,0 9.10115,-6.1085 12.01749,-8.78855c2.32022,-2.13223 4.10474,-6.02744 4.10474,-6.02744l-13.76167,-1.71361l-1.4398,1.15195l-23.26455,1.16655l21.17723,-9.05344l12.40604,-8.31447l-13.03,-3.85479l-13.78186,0.9696c0,0 6.57979,-13.42884 12.8768,-11.44151c5.41379,1.70859 16.22492,7.18831 16.22492,7.18831l-13.83686,-15.48874l15.93371,10.22726l-6.53576,-11.05097c0,0 18.01228,11.98682 24.13376,16.92016c4.10645,3.30942 9.02814,9.80526 9.02814,9.80526z" fill="url(#color-27)" stroke-width="2" stroke-linecap="round"/><path d="M210.44264,322.13175c-19.35603,9.49657 -43.23118,0.51436 -53.32663,-20.06232c-10.09545,-20.57668 -2.58826,-44.95588 16.76777,-54.45245c19.35603,-9.49657 43.23117,-0.51436 53.32663,20.06233c10.09546,20.57668 2.58827,44.95587 -16.76777,54.45245z" fill="url(#color-28)" stroke-width="0" stroke-linecap="butt"/></g><g stroke="#ff0000"><path d="M217.44819,267.27662c0,0 -20.62153,-4.35066 -31.64783,-9.44112c-11.02631,-5.09046 -14.12954,-12.71363 -14.12954,-12.71363c0,0 9.87056,4.7662 13.65704,5.92825c3.0125,0.92452 7.27552,0.49579 7.27552,0.49579l-5.47626,-12.7409l-1.72166,-0.66021l-12.76412,-19.48531l18.51478,13.69827l13.44431,6.50312l-3.25886,-13.19166l-7.80178,-11.40228c0,0 14.91299,-1.10904 16.38053,5.32898c1.26171,5.53502 1.99705,17.63325 1.99705,17.63325l6.37224,-19.76751l-0.77242,18.9178l6.23276,-11.22465c0,0 -1.24027,21.60064 -2.40353,29.37607c-0.78035,5.21597 -3.89823,12.74575 -3.89823,12.74575z" fill="url(#color-29)" stroke-width="2" stroke-linecap="round"/><path d="M177.25211,275.47684c-17.97675,-11.90283 -22.29215,-37.04402 -9.6387,-56.15445c12.65345,-19.11042 37.48414,-24.95334 55.46089,-13.05051c17.97676,11.90283 22.29215,37.04402 9.6387,56.15445c-12.65345,19.11042 -37.48414,24.95334 -55.4609,13.05052z" fill="url(#color-30)" stroke-width="0" stroke-linecap="butt"/></g><g stroke="#ff0000"><path d="M222.76486,241.09414c0,0 -16.88889,-12.60717 -24.75875,-21.85691c-7.86985,-9.24974 -7.48544,-17.47136 -7.48544,-17.47136c0,0 6.95707,8.47018 9.90568,11.1147c2.3459,2.10396 6.39493,3.50482 6.39493,3.50482l0.37954,-13.86275l-1.28533,-1.32209l-3.40292,-23.04387l11.05198,20.20628l9.47123,11.54711l2.58126,-13.34081l-2.29312,-13.6243c0,0 14.00038,5.25515 12.62908,11.71436c-1.17896,5.55324 -5.5914,16.8421 -5.5914,16.8421l14.08333,-15.26499l-8.64427,16.84507l10.36974,-7.57023c0,0 -10.19536,19.08352 -14.51587,25.65189c-2.89832,4.40625 -8.88966,9.93098 -8.88966,9.93098z" fill="url(#color-31)" stroke-width="2" stroke-linecap="round"/><path d="M182.84063,231.65889c-11.31754,-18.35086 -4.67777,-42.98044 14.83034,-55.0117c19.50812,-12.03126 44.49726,-6.90822 55.8148,11.44264c11.31754,18.35086 4.67778,42.98044 -14.83034,55.0117c-19.50812,12.03126 -44.49726,6.90822 -55.81481,-11.44264z" fill="url(#color-32)" stroke-width="0" stroke-linecap="butt"/></g><path d="M262.53893,227.0251l-4.25,20.5l-8.75,7.25l-7.75,-8l-2.25,-21.5" fill="none" stroke="#6e6e6e" stroke-width="0.5" stroke-linecap="round"/><path d="M240.53893,241.5251l-3,-3.25l-0.75,-7l5,3l4.25,-5.25l12,0.25l1.5,5.5l2,-0.75l3.5,-2l-1.75,7l-3.75,1.75" fill="none" stroke="#6e6e6e" stroke-width="0.5" stroke-linecap="round"/><path d="M237.28893,231.7751l-9.25,-3.25l6.5,-9.5l3.25,-9.25l5.75,1.75l5.5,-5l-6.5,6.25l8,-7.75l3.75,6.25l-1,-1.25l5.5,-1l1.25,6.5l6.5,-0.75l-2,7.5l6.5,4.75l-5,5.25l1.25,4h-5" fill="none" stroke="#6e6e6e" stroke-width="0.5" stroke-linecap="round"/><path d="M243.28893,240.0251l2,-1" fill="none" stroke="#6e6e6e" stroke-width="0.5" stroke-linecap="round"/><path d="M242.78893,238.0251l6,2l-5.5,1.5" fill="none" stroke="#6e6e6e" stroke-width="0.5" stroke-linecap="round"/><path d="M256.53893,241.0251l-3,-0.75l-2,-0.5l5,-1.75" fill="none" stroke="#6e6e6e" stroke-width="0.5" stroke-linecap="round"/><path d="M254.03893,239.2751l2.5,0.25" fill="none" stroke="#6e6e6e" stroke-width="0.5" stroke-linecap="round"/><path d="M249.53893,240.2751l-1,2.25" fill="none" stroke="#6e6e6e" stroke-width="0.5" stroke-linecap="round"/><g stroke-width="2"><path d="M260.36508,214.89887l12.71111,-4.52802l23.3037,0.36225l0.79445,3.26017l1.7213,0.81504l0.54989,0.12536c0.04545,0.71652 0.11459,1.4 0.11459,1.89227c-0.00002,1.4315 0.38732,3.52597 -0.0892,4.88048c-0.34034,0.9674 -1.24738,1.61817 -1.55873,2.49407c-0.62085,0.78486 -1.10261,2.02423 -1.61581,3.23528c0.58645,-1.07889 1.24104,-2.13609 1.95149,-3.05529c0.26545,-0.86796 1.25313,-1.57864 1.58308,-2.54971c0.48265,-1.42054 0.11005,-3.51064 0.11007,-5.00483c0,-0.42731 -0.07116,-1.09576 -0.12165,-1.80705l11.78738,2.68734v34.47056c-1.2367,0.02795 -2.47372,0.04682 -3.70994,0.07467c-2.67651,0.06029 -5.33204,0.11975 -7.99941,0.35403c-1.76363,0.15491 -3.47358,0.33896 -5.18635,0.66743l-3.63815,-18.18386c1.0129,-1.35649 2.30522,-2.4189 3.2113,-3.97504c0.72898,-0.36476 0.51238,-0.60348 0.7964,-1.22724c0.03112,-0.06835 0.06257,-0.13697 0.09435,-0.20585c-0.3344,0.50729 -0.70958,0.91618 -1.1509,1.15489c-0.90834,1.43498 -2.07573,2.49756 -3.05137,3.75229l-0.5511,-2.75448c0,0 -3.21435,10.72767 -4.69446,14.39733c-1.32808,3.29274 -3.77962,6.61267 -3.77962,6.61267c0,0 -1.09632,12.02402 -0.9358,18.33716c0.18815,7.39954 1.99505,23.32058 1.99505,23.32058l-41.84074,0.36225c0,0 2.10258,-16.3244 2.01009,-23.66246c-0.08303,-6.58744 -2.53973,-18.35753 -2.53973,-18.35753c0,0 -3.48179,-3.44871 -5.06398,-7.52267c-1.39555,-3.59337 -3.93971,-15.66077 -3.93971,-15.66077l-0.70056,3.5015c-0.54295,-0.63401 -1.07088,-1.31616 -1.64084,-1.83137c-0.77404,-0.69969 -1.86624,-1.09185 -2.3034,-2.24249c-0.9548,-2.38346 -3.332,-4.29127 -4.59189,-6.53622c-0.79667,-1.51961 -0.67626,-3.05704 -0.91736,-4.70893c-0.14374,-0.98487 -0.69195,-1.91035 -0.74793,-2.91184c-0.01706,-0.58362 -0.09918,-1.14444 -0.16807,-1.70415l2.59598,-0.59184l3.575,-2.08289l24.89258,-0.36225zM295.17496,229.68093c0.42175,-0.63981 0.77861,-1.43616 1.12144,-2.24516c-0.4082,0.75096 -0.78339,1.51242 -1.12144,2.24516z" fill="#00235d" stroke="#00235d" stroke-linecap="butt"/><path d="M249.7771,295.97549v-77.33017h19.9626v77.33017z" fill="#414141" stroke="#2b2b2b" stroke-linecap="butt"/><path d="M240.7304,213.15427l7.19959,18.21074l0.63527,17.36373l-18.21074,-34.30394c0,0 2.44354,-1.0383 3.72656,-1.4288c1.79116,-0.54513 6.64932,0.15827 6.64932,0.15827z" fill="#087d00" stroke="#087d00" stroke-linecap="round"/><path d="M289.64529,216.11881l-18.09435,30.92716l-0.53989,-16.31623l12.28166,-18.846z" fill="#087d00" stroke="#087d00" stroke-linecap="round"/></g><path d="M284.10221,302.22922l-0.51066,13.01381c-1.6844,1.5102 -5.70522,2.71946 -7.43867,3.32458c-1.96218,1.128 -5.44624,2.07415 -7.87455,2.14816l-0.00396,-1.02845l-8.06173,-0.64731l-0.03016,1.08007c-0.16074,0 -0.32149,0 -0.48223,0c-3.10404,0.00001 -6.62867,-2.05635 -9.38569,-3.4196c-2.16658,-1.02082 -4.70082,-3.14537 -6.94474,-3.94411l-0.02313,-11.82175z" data-paper-data="{&quot;index&quot;:null}" fill="#00235d" stroke="#00235d" stroke-width="2" stroke-linecap="butt"/><path d="M247.73831,348.05151c-0.27649,-0.23976 -4.17176,-0.15779 -4.33558,-0.42122c-2.402,-1.04221 -4.85976,-2.11355 -7.33202,-3.18301c-2.02988,-0.87808 -4.12363,-1.59437 -6.14651,-2.40407c0,0 4.66658,-15.27824 7.8329,-22.63737c3.40485,-7.91352 11.93265,-23.30147 11.93265,-23.30147c1.66779,1.61511 3.10941,4.48163 4.63902,6.21773c2.04088,2.40699 4.51303,5.73225 7.43635,6.99682c0.11696,0.0506 0.28756,0.12439 0.42978,0.18592c0,0 0.48815,13.01837 -2.67295,19.7999c-2.84708,6.10785 -11.78365,18.74677 -11.78365,18.74677z" data-paper-data="{&quot;index&quot;:null}" fill="#00235d" stroke="#00235d" stroke-width="2" stroke-linecap="butt"/><path d="M227.55134,250.0592c-2.45733,-0.52176 -4.48072,-0.80488 -6.82474,-2.03856c-2.66231,-0.58818 -5.10842,-1.2928 -7.68256,-2.15238c-0.80156,-0.26763 -1.68654,-0.53918 -2.59653,-0.77029v-29.56517l9.74364,-2.22139c0.06685,0.53715 0.14263,1.07572 0.15907,1.63668c0.06702,1.01726 0.60579,1.95104 0.75153,2.94962c0.24813,1.70014 0.13854,3.27009 0.95961,4.83583c1.24546,2.20414 3.67002,4.14033 4.57199,6.49351c0.48287,1.19766 1.60263,1.62696 2.39971,2.38327c0.62312,0.59127 1.19722,1.34446 1.80417,2.02565z" fill="#00235d" stroke="#00235d" stroke-width="2" stroke-linecap="butt"/><g><path d="M242.639,293.64843l8.83768,-0.0915" fill="none" stroke="#000000" stroke-width="2" stroke-linecap="round"/><path d="M242.02241,301.05996v-7.68603h42.03037v7.68603z" fill="#3e3e3e" stroke="#000000" stroke-width="2" stroke-linecap="butt"/><path d="M269.04928,297.30845c0,0 -2.87557,5.76452 -6.42273,5.76452c-3.54718,0 -6.42273,-5.76452 -6.42273,-5.76452c0,0 2.87555,-5.76452 6.42273,-5.76452c3.54718,0 6.42273,5.76452 6.42273,5.76452z" fill="#740000" stroke="#570000" stroke-width="2" stroke-linecap="butt"/><text transform="translate(258.25909,302.52397) scale(0.30829,0.2745)" font-size="40" xml:space="preserve" fill="#000000" fill-rule="nonzero" stroke="none" stroke-width="1" stroke-linecap="butt" stroke-linejoin="miter" stroke-miterlimit="10" stroke-dasharray="" stroke-dashoffset="0" font-family="Handwriting" font-weight="normal" text-anchor="start" style="mix-blend-mode: normal"><tspan x="0" dy="0">V</tspan></text></g><path d="M245.60911,213.20496l2.76405,-13.55702" fill="none" stroke="#1b1b1b" stroke-width="2" stroke-linecap="round"/><g><g stroke-width="2" stroke-linecap="round"><g stroke="#561400"><path d="M279.1183,155.09656c0,0 1.51454,10.02406 1.47342,15.36943c-0.04652,6.04813 -1.73836,19.07218 -1.73836,19.07218c0,0 -5.78909,7.98185 -9.29546,11.39715c-3.27828,3.19313 -8.19029,8.20807 -8.19029,8.20807h-5.29872c0,0 -8.47909,-6.99193 -11.22017,-10.21392c-2.14509,-2.52144 -5.20583,-7.8017 -5.20583,-7.8017c0,0 -1.96329,-12.86166 -2.14379,-18.81771c-0.1724,-5.68883 1.08406,-16.15378 1.08406,-16.15378c0,0 5.61704,-0.14685 9.789,-0.25591c7.39377,-0.1933 30.74614,-0.80382 30.74614,-0.80382z" fill="#691900"/><path d="M241.89484,213.09852l2.27087,-13.92804" fill="none"/></g><path d="M280.34835,179.18677l-0.30277,-9.23489l-5.75288,-5.29872l-0.30278,-2.42226h-28.15886l-0.86447,3.24197l-6.25094,5.38736l-1.81671,9.68907l-7.11542,0.45418l1.36253,-6.05567l-8.32654,-2.42226l-2.27088,-9.53768l0.45418,-1.05974l4.54175,-0.15139l1.36252,-12.41412l-0.45418,-0.90835l4.39036,1.36252l2.57366,-15.74474l11.95994,2.72505l11.50577,-6.66122l5.6015,3.6334l-2.42226,3.02783l7.72097,-5.4501l0.75696,-0.60557l3.48201,8.17516l8.62933,-1.96809l3.482,10.9002l7.41819,4.54175l2.87645,-2.72506l0.60556,-0.90835l0.15139,11.95995l-7.26679,3.48201l-2.87645,6.05567l5.90428,5.29872z" fill="#000000" stroke="#000000"/></g><g fill="#ffffff" stroke="#561400" stroke-width="2" stroke-linecap="round"><path d="M262.56611,175.46696c0,0 1.34375,-2.85104 3.03166,-3.2482c1.68791,-0.39716 11.69353,-0.21655 11.69353,-0.21655c0,0 0.75578,0.8499 1.00778,1.40117c0.31238,0.68334 0.7246,2.38841 0.7246,2.38841l-0.10827,4.8723c0,0 -4.77592,0.79752 -7.49711,0.708c-2.764,-0.09091 -8.96046,-1.24938 -8.96046,-1.24938" data-paper-data="{&quot;index&quot;:null}"/><path d="M256.37906,180.16913c0,0 -6.19646,1.15846 -8.96046,1.24938c-2.7212,0.08952 -7.49711,-0.708 -7.49711,-0.708l-0.10827,-4.8723c0,0 0.41221,-1.70507 0.7246,-2.38841c0.25201,-0.55127 1.00778,-1.40117 1.00778,-1.40117c0,0 10.00562,-0.18062 11.69353,0.21655c1.6879,0.39716 3.03166,3.2482 3.03166,3.2482"/></g><g fill="#000000" stroke="#561400" stroke-width="0" stroke-linecap="butt"><path d="M247.51608,177.94178c-0.69195,0 -1.25288,-0.54017 -1.25288,-1.20647c0,-0.66631 0.56094,-1.20647 1.25288,-1.20647c0.69195,0 1.25288,0.54016 1.25288,1.20647c0,0.66631 -0.56094,1.20647 -1.25288,1.20647z"/><path d="M270.53193,177.47776c-0.69195,0 -1.25288,-0.54017 -1.25288,-1.20647c0,-0.66631 0.56092,-1.20647 1.25288,-1.20647c0.69195,0 1.25288,0.54017 1.25288,1.20647c0,0.66631 -0.56094,1.20647 -1.25288,1.20647z"/></g><path d="M258.69934,187.21053l-1.21114,-1.36252l1.66531,-5.90428" fill="none" stroke="#561400" stroke-width="2" stroke-linecap="round"/><path d="M273.98989,196.74821l-0.15139,16.65309" fill="none" stroke="#561400" stroke-width="2" stroke-linecap="round"/><path d="M273.63666,202.40016l2.87645,18.01562" fill="none" stroke="#1b1b1b" stroke-width="2" stroke-linecap="round"/><g fill="#d8c586" stroke="#b8a872" stroke-width="2" stroke-linecap="butt"><path d="M232.36494,210.79109c0,0 -4.14318,-9.98571 0,-10.8394c4.14318,-0.85368 32.27768,2.90733 52.60719,0c13.46567,-1.92573 0,10.8394 0,10.8394z"/><path d="M288.50094,212.58561c-7.52571,2.73364 23.17524,6.32863 0,10.28538c-23.17524,3.95673 -58.91625,1.00906 -63.13344,0.28905c-4.21718,-0.72001 2.8905,-10.57443 2.8905,-10.57443c0,0 69.05265,-3.20003 60.24293,0z"/><path d="M286.85089,200.16232l2.67392,9.93172l-59.47225,12.48202l-1.3732,-6.75216z"/><path d="M282.6597,198.50642c0,2.47441 -14.68471,4.76934 -24.06344,4.76934c-9.37875,0 -23.48535,-0.84969 -23.48535,-3.32408c0,-1.61457 6.72877,-2.07668 13.50852,-3.20731c3.61051,-0.60211 6.7178,-4.30801 9.97683,-4.30801c4.60765,0 10.49596,3.73846 15.29447,4.45348c4.96872,0.74038 8.76897,0.35784 8.76897,1.61658z"/></g><path d="M280.14651,203.91407l-13.17108,4.84454" fill="none" stroke="#b8a872" stroke-width="2" stroke-linecap="round"/><path d="M254.4099,205.42798l-7.11542,0.15139l-12.8683,-3.33062" fill="none" stroke="#b8a872" stroke-width="2" stroke-linecap="round"/></g><g stroke-linecap="butt"><path d="M207.75256,248.95907l-24.39117,-19.40842l7.88747,-10.63507l39.95144,29.62988c-0.70047,0.56418 -1.41457,1.08591 -2.07204,1.54577c-2.21999,1.55283 -4.25717,3.0767 -6.29625,4.8824c-2.41229,1.13165 -3.85809,2.6281 -5.74941,4.30267z" fill="#00235d" stroke="#00235d" stroke-width="2"/><g><path d="M166.64132,216.46759c-1.75204,-3.36409 -5.18434,-7.154 -2.79045,-10.38181c3.35203,-4.51971 9.76759,-5.4409 14.32953,-2.05756c2.03046,1.5059 1.63958,4.00081 2.18492,6.2716c0.67989,2.83111 -1.34634,3.14775 -3.20642,5.6558c-1.96762,2.65306 -2.70149,4.8157 -5.78576,4.84609c-2.17003,0.02139 -3.1568,-1.63855 -5.0409,-3.03588c-1.30398,-0.9671 1.01035,0.04819 0.3091,-1.29826z" fill="#ffffff" stroke="#d6d6d6" stroke-width="0.5"/><path d="M182.86783,206.25989c0,0 3.99403,2.0548 6.1684,4.53757c0.91974,1.0502 -0.04556,2.96719 0.75016,3.55734c0.82432,0.61136 1.84732,-0.33362 3.09078,0.19961c2.79457,1.19834 6.05206,3.61737 6.05206,3.61737l-11.17448,15.0671l-16.06139,-11.91188z" fill="#3e3e3e" stroke="#424242" stroke-width="2"/><path d="M180.41738,209.24424l16.06139,11.91188l-11.17448,15.0671c0,0 -3.26048,-2.41499 -5.21845,-4.74138c-0.87122,-1.03514 -0.26391,-2.28839 -1.08823,-2.89974c-0.79573,-0.59015 -2.34995,0.89008 -3.62193,0.31481c-3.00706,-1.36001 -6.13278,-4.58557 -6.13278,-4.58557z" data-paper-data="{&quot;index&quot;:null}" fill="#202020" stroke="#202020" stroke-width="2"/></g></g><g stroke-linecap="butt"><path d="M311.60677,295.76923l-13.24074,-0.36225l-1.05925,-29.16042l-2.521,-12.60021c1.69909,-0.32577 3.39513,-0.50774 5.14497,-0.66144c2.65913,-0.23356 5.30639,-0.29257 7.97466,-0.35267c1.23336,-0.02777 2.46752,-0.04667 3.70136,-0.07452z" fill="#00235d" stroke="#00235d" stroke-width="2"/><g><path d="M298.85091,317.82846c0,-2.3457 -0.74546,-4.12709 0.5644,-5.85735c1.86171,-2.45921 4.03591,-1.76037 7.33899,-1.76037c3.12253,0 4.58388,-1.43887 6.45285,0.79371c1.49908,1.79072 3.73586,2.96297 3.73586,5.49092c0,5.67966 -4.56164,10.28393 -10.18871,10.28393c-4.01863,0 -5.01811,-5.0145 -6.67649,-8.42573c-0.66376,-1.36533 -1.2269,1.09837 -1.2269,-0.5251z" data-paper-data="{&quot;index&quot;:null}" fill="#ffffff" stroke="#d6d6d6" stroke-width="0.5"/><path d="M294.40231,310.25834c0,0 -0.7288,-4.43208 -0.02988,-7.65752c0.29564,-1.36434 2.41042,-1.73095 2.41042,-2.72163c0,-1.02628 -1.3684,-1.28505 -1.68084,-2.60145c-0.70219,-2.95848 -0.6997,-7.01593 -0.6997,-7.01593h18.75865v19.99653z" fill="#3e3e3e" stroke="#424242" stroke-width="2"/><path d="M298.2591,310.44878v-19.99653h18.75865c0,0 0.00251,4.05745 -0.6997,7.01593c-0.31245,1.3164 -1.68084,1.57516 -1.68084,2.60145c0,0.99069 2.11478,1.35729 2.41042,2.72163c0.69893,3.22545 -0.02988,7.65752 -0.02988,7.65752z" data-paper-data="{&quot;index&quot;:null}" fill="#202020" stroke="#202020" stroke-width="2"/></g></g><g><path d="M244.60603,400.52168l-13.68504,-0.24348c0,0 -4.71611,-24.59836 -4.73734,-35.44616c-0.01741,-8.89628 4.61914,-24.95485 4.61914,-24.95485c2.1785,-0.06001 4.38341,-0.23384 6.59504,-0.23384c2.65207,0 5.3087,0.12176 7.88207,-0.00616c0.27693,0.19679 0.62157,0.34896 1.01328,0.46594c0,0 1.21258,15.59464 0.95716,24.7413c-0.29982,10.73686 -2.64432,35.67725 -2.64432,35.67725z" data-paper-data="{&quot;index&quot;:null}" fill="#00235d" stroke="#00235d" stroke-width="2" stroke-linecap="butt"/><path d="M244.99827,400.83334c0,0 -1.8431,4.10049 -1.55262,6.34016c0.24384,1.88006 1.96436,3.47564 1.9506,4.82377c-0.024,2.35179 -1.23132,6.83607 -1.23132,6.83607h-17.83334l-1.33333,-7l5,-3.83333l-0.5,-7.66667z" fill="url(#color-33)" stroke="url(#color-34)" stroke-width="2.5" stroke-linecap="round"/></g><path d="M267.36507,329.30474c-3.1611,-6.78154 -2.67295,-19.7999 -2.67295,-19.7999c0.14222,-0.06152 0.31282,-0.13532 0.42978,-0.18592c2.92332,-1.26457 5.39547,-4.58982 7.43635,-6.99682c1.52961,-1.73609 2.97123,-4.60262 4.63902,-6.21773c0,0 8.5278,15.38795 11.93265,23.30147c3.16632,7.35913 7.8329,22.63737 7.8329,22.63737c-2.02288,0.80969 -4.11664,1.52598 -6.14652,2.40407c-2.47226,1.06946 -4.93001,2.14081 -7.33202,3.18301c-0.16382,0.26343 -4.05908,0.18146 -4.33558,0.42122c0,0 -8.93657,-12.63891 -11.78364,-18.74677z" data-paper-data="{&quot;index&quot;:null}" fill="#00235d" stroke="#00235d" stroke-width="2" stroke-linecap="butt"/><g data-paper-data="{&quot;index&quot;:null}"><path d="M279.63669,364.84443c-0.25542,-9.14666 0.95716,-24.7413 0.95716,-24.7413c0.39171,-0.11698 0.73635,-0.26915 1.01328,-0.46594c2.57337,0.12792 5.23,0.00616 7.88207,0.00616c2.21163,0 4.41654,0.17383 6.59504,0.23384c0,0 4.63655,16.05857 4.61914,24.95485c-0.02123,10.8478 -4.73734,35.44616 -4.73734,35.44616l-13.68504,0.24348c0,0 -2.34449,-24.94039 -2.64432,-35.67725z" data-paper-data="{&quot;index&quot;:null}" fill="#00235d" stroke="#00235d" stroke-width="2" stroke-linecap="butt"/><path d="M297.38876,400.33334l-0.5,7.66667l5,3.83333l-1.33333,7h-17.83333c0,0 -1.20732,-4.48429 -1.23132,-6.83607c-0.01376,-1.34813 1.70677,-2.94371 1.9506,-4.82377c0.29048,-2.23967 -1.55262,-6.34016 -1.55262,-6.34016z" fill="url(#color-35)" stroke="url(#color-36)" stroke-width="2.5" stroke-linecap="round"/></g><path d="M113.73948,462.61789l-27.44536,-13.13326l325.96641,-548.37678l27.44536,13.13326z" fill="#c94922" stroke="#ff6f00" stroke-width="0.5" stroke-linecap="butt"/><path d="M88.29412,-88.75889l27.44536,-13.13326l325.9664,548.37678l-27.44535,13.13326z" data-paper-data="{&quot;index&quot;:null}" fill="#c94922" stroke="#ff6f00" stroke-width="0.5" stroke-linecap="butt"/><path d="M87.5,502.66667v-630h347v630z" fill="url(#color-37)" stroke="none" stroke-width="0" stroke-linecap="butt"/></g></g></svg>