<svg version="1.1" xmlns="http://www.w3.org/2000/svg" xmlns:xlink="http://www.w3.org/1999/xlink" width="424.8368" height="550" viewBox="0,0,424.8368,550"><defs><linearGradient x1="260.5" y1="-92.5" x2="260.5" y2="455.5" gradientUnits="userSpaceOnUse" id="color-1"><stop offset="0" stop-color="#b03131"/><stop offset="1" stop-color="#490073"/></linearGradient><linearGradient x1="260.5" y1="-92.5" x2="260.5" y2="455.5" gradientUnits="userSpaceOnUse" id="color-2"><stop offset="0" stop-color="#ffffff"/><stop offset="1" stop-color="#b0b0b0"/></linearGradient><linearGradient x1="249.29005" y1="32.19375" x2="249.29005" y2="102.26896" gradientTransform="translate(-83.31028,-55.8146) scale(0.65858,0.65858)" gradientUnits="userSpaceOnUse" id="color-3"><stop offset="0" stop-color="#0089df"/><stop offset="1" stop-color="#010082"/></linearGradient><linearGradient x1="173.19174" y1="-62.3375" x2="173.19174" y2="-0.3375" gradientUnits="userSpaceOnUse" id="color-4"><stop offset="0" stop-color="#ff6f00"/><stop offset="1" stop-color="#e2ff00"/></linearGradient><radialGradient cx="171.16321" cy="-27.12564" r="41.5" gradientUnits="userSpaceOnUse" id="color-5"><stop offset="0" stop-color="#ff6f00"/><stop offset="1" stop-color="#ff6f00" stop-opacity="0"/></radialGradient><linearGradient x1="191.875" y1="192.375" x2="191.875" y2="210.125" gradientUnits="userSpaceOnUse" id="color-6"><stop offset="0" stop-color="#561400"/><stop offset="1" stop-color="#691900"/></linearGradient><linearGradient x1="357.54685" y1="233.892" x2="357.54685" y2="277.65382" gradientUnits="userSpaceOnUse" id="color-7"><stop offset="0" stop-color="#ffea00"/><stop offset="1" stop-color="#b1ca00"/></linearGradient><linearGradient x1="299.53257" y1="226.2969" x2="299.53257" y2="262.96356" gradientUnits="userSpaceOnUse" id="color-8"><stop offset="0" stop-color="#39961e"/><stop offset="1" stop-color="#215e10"/></linearGradient><linearGradient x1="299.53257" y1="226.2969" x2="299.53257" y2="262.96356" gradientUnits="userSpaceOnUse" id="color-9"><stop offset="0" stop-color="#39961e"/><stop offset="1" stop-color="#215e10"/></linearGradient><linearGradient x1="332.31034" y1="226.85245" x2="332.31034" y2="263.51912" gradientUnits="userSpaceOnUse" id="color-10"><stop offset="0" stop-color="#39961e"/><stop offset="1" stop-color="#215e10"/></linearGradient><linearGradient x1="332.31034" y1="226.85245" x2="332.31034" y2="263.51912" gradientUnits="userSpaceOnUse" id="color-11"><stop offset="0" stop-color="#39961e"/><stop offset="1" stop-color="#215e10"/></linearGradient><linearGradient x1="315.6034" y1="197.95592" x2="315.6034" y2="221.03092" gradientTransform="translate(-607.10679,-430.52434) scale(2,2)" gradientUnits="userSpaceOnUse" id="color-12"><stop offset="0" stop-color="#969696"/><stop offset="1" stop-color="#1a1a1a"/></linearGradient><linearGradient x1="322.3034" y1="126.51217" x2="322.3034" y2="149.25563" gradientUnits="userSpaceOnUse" id="color-13"><stop offset="0" stop-color="#ce9265"/><stop offset="1" stop-color="#ffc36f"/></linearGradient><linearGradient x1="322.3034" y1="126.51217" x2="322.3034" y2="149.25563" gradientUnits="userSpaceOnUse" id="color-14"><stop offset="0" stop-color="#ce9265"/><stop offset="1" stop-color="#ffc36f"/></linearGradient><radialGradient cx="-30.46179" cy="92.1563" r="0.00125" gradientUnits="userSpaceOnUse" id="color-15"><stop offset="0" stop-color="#ff6f00"/><stop offset="1" stop-color="#ff6f00" stop-opacity="0"/></radialGradient></defs><g transform="translate(-8.66321,93.5)"><g data-paper-data="{&quot;isPaintingLayer&quot;:true}" fill-rule="nonzero" stroke-linejoin="miter" stroke-miterlimit="10" stroke-dasharray="" stroke-dashoffset="0" style="mix-blend-mode: normal"><path d="M88.5,455.5v-548h344v548z" fill="url(#color-1)" stroke="url(#color-2)" stroke-width="2" stroke-linecap="butt"/><text transform="translate(126.5,84.75) scale(1.51842,1.51842)" font-size="40" xml:space="preserve" fill="url(#color-3)" fill-rule="nonzero" stroke="none" stroke-width="1" stroke-linecap="butt" stroke-linejoin="miter" stroke-miterlimit="10" stroke-dasharray="" stroke-dashoffset="0" font-family="Marker" font-weight="normal" text-anchor="start" style="mix-blend-mode: normal"><tspan x="0" dy="0">HERO 69</tspan></text><g stroke="#ff0000"><path d="M158.69174,1.8625c0,0 -7.75706,-19.59601 -9.6,-31.6c-1.84294,-12.00399 2.8,-18.8 2.8,-18.8c0,0 1.47525,10.86132 2.59676,14.66c0.89227,3.02221 3.60324,6.34 3.60324,6.34l7.6,-11.6l-0.4,-1.8l9.2,-21.4l-1.2,23l2,14.8l9.2,-10l5.2,-12.8c0,0 9.1578,11.8221 4.6,16.6c-3.91852,4.10775 -13.6,11.4 -13.6,11.4l20,-5.6l-16.2,9.8l12.8,-1c0,0 -18.69522,10.89103 -25.82054,14.21372c-4.77986,2.22895 -12.77946,3.78628 -12.77946,3.78628z" fill="url(#color-4)" stroke-width="2" stroke-linecap="round"/><path d="M129.66321,-27.12564c0,-21.56017 18.58018,-39.03814 41.5,-39.03814c22.91982,0 41.5,17.47797 41.5,39.03814c0,21.56017 -18.58018,39.03814 -41.5,39.03814c-22.91982,0 -41.5,-17.47797 -41.5,-39.03814z" fill="url(#color-5)" stroke-width="0" stroke-linecap="butt"/></g><path d="M263.42577,21.51588l63.61611,-31.51586l12.00551,-12.11774l-18.54406,-13.84461l59.36934,-32.10665l25.86321,-11.51255l-55.38792,47.96132l12.69793,10.2949l-22.20153,22.45394z" fill="#ffea00" stroke="#ffe42b" stroke-width="2.5" stroke-linecap="round"/><text transform="translate(209.5,117.5) scale(0.5,0.5)" font-size="40" xml:space="preserve" fill="#ffea00" fill-rule="nonzero" stroke="none" stroke-width="1" stroke-linecap="butt" stroke-linejoin="miter" stroke-miterlimit="10" stroke-dasharray="" stroke-dashoffset="0" font-family="Marker" font-weight="normal" text-anchor="start" style="mix-blend-mode: normal"><tspan x="0" dy="0">STAFFEL 1&amp;2</tspan></text><path d="M207.375,207.125l-16.25,3l-14.75,-3.25l2.5,-13.25l28,-1.25z" fill="url(#color-6)" stroke="#561400" stroke-width="2" stroke-linecap="round"/><path d="M317.74726,207.625l-4.25,20.5l-8.75,7.25l-7.75,-8l-2.25,-21.5" fill="none" stroke="#6e6e6e" stroke-width="0.5" stroke-linecap="round"/><path d="M295.74726,222.125l-3,-3.25l-0.75,-7l5,3l4.25,-5.25l12,0.25l1.5,5.5l2,-0.75l3.5,-2l-1.75,7l-3.75,1.75" fill="none" stroke="#6e6e6e" stroke-width="0.5" stroke-linecap="round"/><path d="M298.49726,220.625l2,-1" fill="none" stroke="#6e6e6e" stroke-width="0.5" stroke-linecap="round"/><path d="M297.99726,218.625l6,2l-5.5,1.5" fill="none" stroke="#6e6e6e" stroke-width="0.5" stroke-linecap="round"/><path d="M311.74726,221.625l-3,-0.75l-2,-0.5l5,-1.75" fill="none" stroke="#6e6e6e" stroke-width="0.5" stroke-linecap="round"/><path d="M309.24726,219.875l2.5,0.25" fill="none" stroke="#6e6e6e" stroke-width="0.5" stroke-linecap="round"/><path d="M303.74726,223.125l1,-2.25" fill="none" stroke="#6e6e6e" stroke-width="0.5" stroke-linecap="round"/><path d="M315.5734,195.49877l12.71111,-4.52802l23.3037,0.36225l0.79445,3.26017l1.7213,0.81504l0.54989,0.12536c0.04545,0.71652 0.11459,1.4 0.11459,1.89227c-0.00002,1.4315 0.38732,3.52597 -0.0892,4.88048c-0.34034,0.9674 -1.24738,1.61817 -1.55873,2.49407c-0.62085,0.78486 -1.10261,2.02423 -1.61581,3.23528c0.58645,-1.07889 1.24104,-2.13609 1.95149,-3.05529c0.26545,-0.86796 1.25313,-1.57864 1.58308,-2.54971c0.48265,-1.42054 0.11005,-3.51064 0.11007,-5.00483c0,-0.42731 -0.07116,-1.09576 -0.12165,-1.80705l11.78738,2.68734v34.47056c-1.2367,0.02795 -2.47372,0.04682 -3.70994,0.07467c-2.67651,0.06029 -5.33204,0.11975 -7.99941,0.35403c-1.76363,0.15491 -3.47358,0.33896 -5.18635,0.66743l-3.63815,-18.18386c1.0129,-1.35649 2.30522,-2.4189 3.2113,-3.97504c0.72898,-0.36476 0.51238,-0.60348 0.7964,-1.22724c0.03112,-0.06835 0.06257,-0.13697 0.09435,-0.20585c-0.3344,0.50729 -0.70958,0.91618 -1.1509,1.15489c-0.90834,1.43498 -2.07573,2.49756 -3.05137,3.75229l-0.5511,-2.75448c0,0 -3.21435,10.72767 -4.69446,14.39733c-1.32808,3.29274 -3.77962,6.61267 -3.77962,6.61267c0,0 -1.09632,12.02402 -0.9358,18.33716c0.18815,7.39954 1.99505,23.32058 1.99505,23.32058l-41.84074,0.36225c0,0 2.10258,-16.3244 2.01009,-23.66246c-0.08303,-6.58744 -2.53973,-18.35753 -2.53973,-18.35753c0,0 -3.48179,-3.44871 -5.06398,-7.52267c-1.39555,-3.59337 -3.93971,-15.66077 -3.93971,-15.66077l-0.70056,3.5015c-0.54295,-0.63401 -1.07088,-1.31616 -1.64084,-1.83137c-0.77404,-0.69969 -1.86624,-1.09185 -2.3034,-2.24249c-0.9548,-2.38346 -3.332,-4.29127 -4.59189,-6.53622c-0.79667,-1.51961 -0.67626,-3.05704 -0.91736,-4.70893c-0.14374,-0.98487 -0.69195,-1.91035 -0.74793,-2.91184c-0.01706,-0.58362 -0.09918,-1.14444 -0.16807,-1.70415l2.59598,-0.59184l3.575,-2.08289l24.89258,-0.36225zM350.38328,210.28083c0.42175,-0.63981 0.77861,-1.43616 1.12144,-2.24516c-0.4082,0.75096 -0.78339,1.51242 -1.12144,2.24516z" fill="#00235d" stroke="#00235d" stroke-width="2" stroke-linecap="butt"/><path d="M339.31053,282.82912l-0.51066,13.01381c-1.6844,1.5102 -5.70522,2.71946 -7.43867,3.32458c-1.96218,1.128 -5.44624,2.07415 -7.87455,2.14816l-0.00396,-1.02845l-8.06173,-0.64731l-0.03016,1.08007c-0.16074,0 -0.32149,0 -0.48223,0c-3.10404,0.00001 -6.62867,-2.05635 -9.38569,-3.4196c-2.16658,-1.02082 -4.70082,-3.14537 -6.94474,-3.94411l-0.02313,-11.82175z" data-paper-data="{&quot;index&quot;:null}" fill="#00235d" stroke="#00235d" stroke-width="2" stroke-linecap="butt"/><path d="M282.75966,230.6591c-2.45733,-0.52176 -4.48072,-0.80488 -6.82474,-2.03856c-2.66231,-0.58818 -5.10842,-1.2928 -7.68256,-2.15238c-0.80156,-0.26763 -1.68654,-0.53918 -2.59653,-0.77029v-29.56517l9.74364,-2.22139c0.06685,0.53715 0.14263,1.07572 0.15907,1.63668c0.06702,1.01726 0.60579,1.95104 0.75153,2.94962c0.24813,1.70014 0.13854,3.27009 0.95961,4.83583c1.24546,2.20414 3.67002,4.14033 4.57199,6.49351c0.48287,1.19766 1.60263,1.62696 2.39971,2.38327c0.62312,0.59127 1.19722,1.34446 1.80417,2.02565z" fill="#00235d" stroke="#00235d" stroke-width="2" stroke-linecap="butt"/><path d="M361.91445,277.65382l-13.13504,-1.70856l1.91539,-29.11672l-1.22493,-12.79142c1.72343,-0.15108 3.42919,-0.15941 5.18559,-0.13414c2.66909,0.03841 5.30859,0.24925 7.96912,0.46115c1.22978,0.09796 2.45943,0.20481 3.68971,0.30274z" data-paper-data="{&quot;index&quot;:null}" fill="url(#color-7)" stroke="#ffe42b" stroke-width="1.5" stroke-linecap="butt"/><path d="M281.31841,239.63184l2.79992,31.04475l-13.13917,1.6368l-6.14876,-49.35828c0.89174,0.1172 1.7622,0.27357 2.5488,0.4317c2.65605,0.53385 5.16494,0.95546 7.87903,1.18385c2.48414,0.96376 4.5649,0.97647 7.08211,1.18852z" data-paper-data="{&quot;index&quot;:null}" fill="#00235d" stroke="#00235d" stroke-width="2" stroke-linecap="butt"/><g><path d="M306.68499,274.15683l-8.83768,0.0915" fill="none" stroke="#000000" stroke-width="2" stroke-linecap="round"/><path d="M297.23073,281.65986v-7.68603h42.03037v7.68603z" fill="#3e3e3e" stroke="#000000" stroke-width="2" stroke-linecap="butt"/><path d="M324.2576,277.90835c0,0 -2.87557,5.76452 -6.42273,5.76452c-3.54718,0 -6.42273,-5.76452 -6.42273,-5.76452c0,0 2.87555,-5.76452 6.42273,-5.76452c3.54718,0 6.42273,5.76452 6.42273,5.76452z" fill="#740000" stroke="#570000" stroke-width="2" stroke-linecap="butt"/><text transform="translate(313.46741,283.12387) scale(0.30829,0.2745)" font-size="40" xml:space="preserve" fill="#000000" fill-rule="nonzero" stroke="none" stroke-width="1" stroke-linecap="butt" stroke-linejoin="miter" stroke-miterlimit="10" stroke-dasharray="" stroke-dashoffset="0" font-family="Handwriting" font-weight="normal" text-anchor="start" style="mix-blend-mode: normal"><tspan x="0" dy="0">V</tspan></text></g><g data-paper-data="{&quot;index&quot;:null}" stroke="#ffe42b" stroke-width="1.5" stroke-linecap="butt"><path d="M346.9788,298.29958c0.23884,-2.33351 -0.32136,-4.18155 1.15787,-5.76944c2.10243,-2.25687 4.19418,-1.34028 7.48009,-1.00395c3.10629,0.31794 4.70655,-0.96466 6.33849,1.44662c1.30896,1.93405 3.41475,3.32795 3.15735,5.84277c-0.57831,5.65015 -5.58505,9.766 -11.18288,9.19305c-3.99775,-0.40919 -4.48145,-5.49939 -5.78388,-9.06175c-0.52129,-1.42581 -1.33236,0.96774 -1.16705,-0.64729z" data-paper-data="{&quot;index&quot;:null}" fill="#d59768"/><path d="M343.32412,290.31585c0,0 -0.27373,-4.48326 0.74997,-7.62077c0.43302,-1.32716 2.57414,-1.47652 2.67501,-2.46206c0.10449,-1.02094 -1.23045,-1.4177 -1.40723,-2.75908c-0.3973,-3.0146 0.01831,-7.05071 0.01831,-7.05071l18.66115,1.91002l-2.03607,19.89261z" fill="#3e3e3e"/><path d="M347.14147,290.898l2.03607,-19.89261l18.66116,1.91003c0,0 -0.41064,4.03662 -1.41044,6.90822c-0.44486,1.27775 -1.83248,1.39582 -1.93699,2.41678c-0.10086,0.98554 1.9656,1.56557 2.12077,2.95292c0.36687,3.27985 -0.80942,7.61468 -0.80942,7.61468z" data-paper-data="{&quot;index&quot;:null}" fill="#202020"/></g><g data-paper-data="{&quot;index&quot;:null}" stroke-linecap="butt"><path d="M280.6141,300.99128c-5.58391,0.69561 -10.67973,-3.30945 -11.38184,-8.94554c-0.31251,-2.50857 1.76221,-3.94833 3.02842,-5.91062c1.57864,-2.44648 3.20666,-1.19932 6.30524,-1.58532c3.27775,-0.40833 5.34888,-1.37057 7.50032,0.83964c1.51371,1.55506 0.99418,3.41495 1.28415,5.74265c0.20068,1.61102 -0.6627,-0.76417 -1.15258,0.67275c-1.22397,3.59007 -1.59589,8.68966 -5.5837,9.18644z" fill="#d59768" stroke="#b7825a" stroke-width="0.5"/><path d="M267.61035,287.11406c0,0 -1.2711,-4.30799 -0.97627,-7.59509c0.12472,-1.39042 2.17796,-2.01565 2.05549,-2.99873c-0.12687,-1.01841 -1.51675,-1.10603 -1.98953,-2.37371c-1.06253,-2.84898 -1.56163,-6.87562 -1.56163,-6.87562l18.61477,-2.31892l2.47195,19.84314z" fill="#3e3e3e" stroke="#424242" stroke-width="2"/><path d="M271.46109,286.82627l-2.47194,-19.84315l18.61477,-2.31892c0,0 0.50407,4.02602 0.17297,7.04862c-0.14731,1.34492 -1.47322,1.77086 -1.34635,2.78928c0.12247,0.9831 2.26634,1.08545 2.72838,2.40278c1.0923,3.1143 0.91696,7.60247 0.91696,7.60247z" data-paper-data="{&quot;index&quot;:null}" fill="#202020" stroke="#202020" stroke-width="2"/></g><path d="M298.03258,251.96356l4.77778,-5.33333l-0.66667,-14.44444l-7.88889,-0.11111c0,0 -1.74393,-2.39322 -2.38594,-3.49667c-0.51492,-0.88501 -1.16962,-2.61445 -1.16962,-2.61445l15.44444,1.66667l1.66667,23l-10.66667,12.33333z" fill="url(#color-8)" stroke="url(#color-9)" stroke-width="2" stroke-linecap="round"/><path d="M337.03257,263.07467l-13,-11.88889l1.66666,-23l15.33333,-1.33334c0,0 -0.73849,1.90901 -1.29632,2.84472c-0.58866,0.98743 -2.14813,2.93306 -2.14813,2.93306l-7.88889,0.11111l-0.66666,14.44445l7.33333,4.88889z" data-paper-data="{&quot;index&quot;:null}" fill="url(#color-10)" stroke="url(#color-11)" stroke-width="2" stroke-linecap="round"/><text transform="translate(303.5534,215.26217) scale(0.5,0.5)" font-size="40" xml:space="preserve" fill="url(#color-12)" fill-rule="nonzero" stroke="none" stroke-width="1" stroke-linecap="butt" stroke-linejoin="miter" stroke-miterlimit="10" stroke-dasharray="" stroke-dashoffset="0" font-family="Marker" font-weight="normal" text-anchor="start" style="mix-blend-mode: normal"><tspan x="0" dy="0">69</tspan></text><path d="M331.1982,175.3481l-0.15139,16.65309l-9.53806,5.03777l-12.71428,-0.14286l-9.69129,-5.19768l2.27087,-13.92804" fill="#d59768" stroke="#b17e57" stroke-width="2" stroke-linecap="round"/><path d="M301.50876,183.46753v-7.14285h29.14286v7.14285c0,0 -10.72282,5.85715 -15.71429,5.85715c-4.706,0 -13.42857,-5.85715 -13.42857,-5.85715z" fill="#b7825a" stroke="#b17e57" stroke-width="2" stroke-linecap="butt"/><path d="M336.32662,133.69646c0,0 1.51454,10.02406 1.47342,15.36943c-0.04652,6.04813 -1.73836,19.07218 -1.73836,19.07218c0,0 -5.78909,7.98185 -9.29546,11.39715c-3.27828,3.19313 -8.19029,8.20807 -8.19029,8.20807h-5.29872c0,0 -8.47909,-6.99193 -11.22017,-10.21392c-2.14509,-2.52144 -5.20583,-7.8017 -5.20583,-7.8017c0,0 -1.96329,-12.86166 -2.14379,-18.81771c-0.1724,-5.68883 1.08406,-16.15378 1.08406,-16.15378c0,0 5.61704,-0.14685 9.789,-0.25591c7.39377,-0.1933 30.74614,-0.80382 30.74614,-0.80382z" fill="#d59768" stroke="#b7825a" stroke-width="2" stroke-linecap="round"/><g fill="#ffffff" stroke="#b7825a" stroke-width="2" stroke-linecap="round"><path d="M319.77443,154.06686c0,0 1.34375,-2.85104 3.03166,-3.2482c1.68791,-0.39716 11.69353,-0.21655 11.69353,-0.21655c0,0 0.75578,0.8499 1.00778,1.40117c0.31238,0.68334 0.7246,2.38841 0.7246,2.38841l-0.10827,4.8723c0,0 -4.77592,0.79752 -7.49711,0.708c-2.764,-0.09091 -8.96046,-1.24938 -8.96046,-1.24938" data-paper-data="{&quot;index&quot;:null}"/><path d="M313.58738,158.76903c0,0 -6.19646,1.15846 -8.96046,1.24938c-2.7212,0.08952 -7.49711,-0.708 -7.49711,-0.708l-0.10827,-4.8723c0,0 0.41221,-1.70507 0.7246,-2.38841c0.25201,-0.55127 1.00778,-1.40117 1.00778,-1.40117c0,0 10.00562,-0.18062 11.69353,0.21655c1.6879,0.39716 3.03166,3.2482 3.03166,3.2482"/></g><g fill="#000000" stroke="#561400" stroke-width="0" stroke-linecap="butt"><path d="M304.72442,156.54168c-0.69195,0 -1.25288,-0.54017 -1.25288,-1.20647c0,-0.66631 0.56094,-1.20647 1.25288,-1.20647c0.69195,0 1.25288,0.54016 1.25288,1.20647c0,0.66631 -0.56094,1.20647 -1.25288,1.20647z"/><path d="M327.74027,156.07766c-0.69195,0 -1.25288,-0.54017 -1.25288,-1.20647c0,-0.66631 0.56092,-1.20647 1.25288,-1.20647c0.69195,0 1.25288,0.54017 1.25288,1.20647c0,0.66631 -0.56094,1.20647 -1.25288,1.20647z"/></g><path d="M315.90765,165.81043l-1.21114,-1.36252l1.66531,-5.90428" fill="none" stroke="#b7825a" stroke-width="2" stroke-linecap="round"/><path d="M324.6784,126.51217l14,2.875c0,0 4.41606,1.01176 6.40196,1.91645c1.72816,0.78727 4.84804,3.20855 4.84804,3.20855c0,0 -2.16165,2.60091 -3.38464,3.46515c-1.72556,1.2194 -5.99036,3.15985 -5.99036,3.15985c0,0 2.51729,1.58526 3.54904,2.70482c0.9117,0.98928 2.32596,3.67018 2.32596,3.67018c0,0 -3.70828,1.35216 -5.37086,1.64823c-1.27499,0.22705 -3.75414,-0.02323 -3.75414,-0.02323l-14.25,-8.75l-8,0.625l-11.125,6.25l1.75,-6.125l-12.25,8.375l0.625,-17.625c0,0 0.78318,-4.33106 5.06916,-5.12804c5.4942,-1.02165 25.55584,-0.24695 25.55584,-0.24695z" fill="url(#color-13)" stroke="url(#color-14)" stroke-width="2" stroke-linecap="round"/><path d="M318.22305,172.18182l5.28571,-0.28572" fill="none" stroke="#b7825a" stroke-width="2" stroke-linecap="round"/><path d="M336.83942,345.80331c-2.5892,-0.19973 -5.17476,-0.40826 -7.75911,-0.6652c-1.79505,-0.17846 -3.61342,-0.43838 -5.42735,-0.59347l-0.1644,-42.734c2.51751,-0.10308 6.03785,-1.02223 8.08032,-2.18829c2.35955,-0.82588 4.3978,-2.07598 6.60076,-3.18022c0.20983,-0.10518 0.41869,-0.1512 0.61461,-0.20105z" data-paper-data="{&quot;index&quot;:null}" fill="#00235d" stroke="#00235d" stroke-width="2" stroke-linecap="butt"/><path d="M314.27671,333.55282c-0.34983,-0.10747 -0.66055,-0.24492 -0.91691,-0.4196c-2.6183,0.01819 -5.29937,0.03227 -7.99294,0.05394c-2.21159,0.0178 -4.41617,0.20941 -6.5937,0.28693l-0.50041,-50.00803c2.17848,0.8027 4.65618,2.84138 6.75721,3.81061c2.83994,1.37606 6.44566,3.41755 9.63067,3.39191c0.12743,-0.00102 0.3133,-0.00252 0.46825,-0.00377z" data-paper-data="{&quot;index&quot;:null}" fill="#00235d" stroke="#00235d" stroke-width="2" stroke-linecap="butt"/><path d="M312.48103,393.78825l-13.68504,-0.24348l-0.1182,-60.40101c2.1785,-0.06001 4.38341,-0.23384 6.59504,-0.23384c2.65207,0 5.3087,0.12176 7.88207,-0.00616c0.27693,0.19679 0.62157,0.34896 1.01328,0.46594z" data-paper-data="{&quot;index&quot;:null}" fill="#00235d" stroke="#00235d" stroke-width="2" stroke-linecap="butt"/><path d="M334.52915,393.39076l-10.64392,0.19749l-0.23081,-48.66163c1.80091,0.12569 3.60625,0.33526 5.3882,0.47896c2.59192,0.209 5.18506,0.37859 7.78185,0.54104z" data-paper-data="{&quot;index&quot;:null}" fill="#00235d" stroke="#00235d" stroke-width="2" stroke-linecap="butt"/><path d="M196.53893,221.0251l-4.25,20.5l-8.75,7.25l-7.75,-8l-2.25,-21.5" fill="none" stroke="#6e6e6e" stroke-width="0.5" stroke-linecap="round"/><path d="M174.53893,235.5251l-3,-3.25l-0.75,-7l5,3l4.25,-5.25l12,0.25l1.5,5.5l2,-0.75l3.5,-2l-1.75,7l-3.75,1.75" fill="none" stroke="#6e6e6e" stroke-width="0.5" stroke-linecap="round"/><path d="M179.28893,233.0251l-2,1" fill="none" stroke="#6e6e6e" stroke-width="0.5" stroke-linecap="round"/><path d="M176.78893,232.0251l6,2l-5.5,1.5" fill="none" stroke="#6e6e6e" stroke-width="0.5" stroke-linecap="round"/><path d="M190.53893,235.0251l-3,-0.75l-2,-0.5l5,-1.75" fill="none" stroke="#6e6e6e" stroke-width="0.5" stroke-linecap="round"/><path d="M188.03893,233.2751l2.5,0.25" fill="none" stroke="#6e6e6e" stroke-width="0.5" stroke-linecap="round"/><path d="M183.53893,234.2751l-1,2.25" fill="none" stroke="#6e6e6e" stroke-width="0.5" stroke-linecap="round"/><g stroke-width="2" stroke-linecap="butt"><path d="M194.36508,208.89887l12.71111,-4.52802l23.3037,0.36225l0.79445,3.26017l1.7213,0.81504l0.54989,0.12536c0.04545,0.71652 0.11459,1.4 0.11459,1.89227c-0.00002,1.4315 0.38732,3.52597 -0.0892,4.88048c-0.34034,0.9674 -1.24738,1.61817 -1.55873,2.49407c-0.62085,0.78486 -1.10261,2.02423 -1.61581,3.23528c0.58645,-1.07889 1.24104,-2.13609 1.95149,-3.05529c0.26545,-0.86796 1.25313,-1.57864 1.58308,-2.54971c0.48265,-1.42054 0.11005,-3.51064 0.11007,-5.00483c0,-0.42731 -0.07116,-1.09576 -0.12165,-1.80705l11.78738,2.68734v34.47056c-1.2367,0.02795 -2.47372,0.04682 -3.70994,0.07467c-2.67651,0.06029 -5.33204,0.11975 -7.99941,0.35403c-1.76363,0.15491 -3.47358,0.33896 -5.18635,0.66743l-3.63815,-18.18386c1.0129,-1.35649 2.30522,-2.4189 3.2113,-3.97504c0.72898,-0.36476 0.51238,-0.60348 0.7964,-1.22724c0.03112,-0.06835 0.06257,-0.13697 0.09435,-0.20585c-0.3344,0.50729 -0.70958,0.91618 -1.1509,1.15489c-0.90834,1.43498 -2.07573,2.49756 -3.05137,3.75229l-0.5511,-2.75448c0,0 -3.21435,10.72767 -4.69446,14.39733c-1.32808,3.29274 -3.77962,6.61267 -3.77962,6.61267c0,0 -1.09632,12.02402 -0.9358,18.33716c0.18815,7.39954 1.99505,23.32058 1.99505,23.32058l-41.84074,0.36225c0,0 2.10258,-16.3244 2.01009,-23.66246c-0.08303,-6.58744 -2.53973,-18.35753 -2.53973,-18.35753c0,0 -3.48179,-3.44871 -5.06398,-7.52267c-1.39555,-3.59337 -3.93971,-15.66077 -3.93971,-15.66077l-0.70056,3.5015c-0.54295,-0.63401 -1.07088,-1.31616 -1.64084,-1.83137c-0.77404,-0.69969 -1.86624,-1.09185 -2.3034,-2.24249c-0.9548,-2.38346 -3.332,-4.29127 -4.59189,-6.53622c-0.79667,-1.51961 -0.67626,-3.05704 -0.91736,-4.70893c-0.14374,-0.98487 -0.69195,-1.91035 -0.74793,-2.91184c-0.01706,-0.58362 -0.09918,-1.14444 -0.16807,-1.70415l2.59598,-0.59184l3.575,-2.08289l24.89258,-0.36225zM229.17496,223.68093c0.42175,-0.63981 0.77861,-1.43616 1.12144,-2.24516c-0.4082,0.75096 -0.78339,1.51242 -1.12144,2.24516z" fill="#00235d" stroke="#00235d"/><path d="M183.77709,289.97549l0.5,-86.33017c0,0 6.82142,4.56703 10.10222,4.6048c3.86163,0.04447 11.61038,-4.3548 11.61038,-4.3548l-2.25,86.08017z" fill="#414141" stroke="#2b2b2b"/></g><path d="M218.10221,296.22922l-0.51066,13.01381c-1.6844,1.5102 -5.70522,2.71946 -7.43867,3.32458c-1.96218,1.128 -5.44624,2.07415 -7.87455,2.14816l-0.00396,-1.02845l-8.06173,-0.64731l-0.03016,1.08007c-0.16074,0 -0.32149,0 -0.48223,0c-3.10404,0.00001 -6.62867,-2.05635 -9.38569,-3.4196c-2.16658,-1.02082 -4.70082,-3.14537 -6.94474,-3.94411l-0.02313,-11.82175z" data-paper-data="{&quot;index&quot;:null}" fill="#00235d" stroke="#00235d" stroke-width="2" stroke-linecap="butt"/><path d="M215.63108,359.2034c-2.5892,-0.19973 -5.17476,-0.40826 -7.75911,-0.6652c-1.79505,-0.17846 -3.61342,-0.43838 -5.42735,-0.59347l-0.1644,-42.734c2.51751,-0.10308 6.03785,-1.02223 8.08032,-2.18829c2.35955,-0.82588 4.3978,-2.07598 6.60076,-3.18022c0.20983,-0.10518 0.41869,-0.1512 0.61461,-0.20105z" data-paper-data="{&quot;index&quot;:null}" fill="#00235d" stroke="#00235d" stroke-width="2" stroke-linecap="butt"/><path d="M193.06837,346.9529c-0.34983,-0.10747 -0.66055,-0.24492 -0.91691,-0.4196c-2.6183,0.01819 -5.29937,0.03227 -7.99294,0.05394c-2.21159,0.0178 -4.41617,0.20941 -6.5937,0.28693l-0.50041,-50.00803c2.17848,0.8027 4.65618,2.84138 6.75721,3.81061c2.83994,1.37606 6.44566,3.41755 9.63067,3.39191c0.12743,-0.00102 0.3133,-0.00252 0.46825,-0.00377z" data-paper-data="{&quot;index&quot;:null}" fill="#00235d" stroke="#00235d" stroke-width="2" stroke-linecap="butt"/><path d="M191.2727,407.18834l-13.68504,-0.24348l-0.1182,-60.40101c2.1785,-0.06001 4.38341,-0.23384 6.59504,-0.23384c2.65207,0 5.3087,0.12176 7.88207,-0.00616c0.27693,0.19679 0.62157,0.34896 1.01328,0.46594z" data-paper-data="{&quot;index&quot;:null}" fill="#00235d" stroke="#00235d" stroke-width="2" stroke-linecap="butt"/><path d="M213.32082,406.79085l-10.64392,0.19749l-0.23081,-48.66163c1.80091,0.12569 3.60625,0.33526 5.3882,0.47896c2.59192,0.209 5.18506,0.37859 7.78185,0.54104z" data-paper-data="{&quot;index&quot;:null}" fill="#00235d" stroke="#00235d" stroke-width="2" stroke-linecap="butt"/><path d="M161.55133,244.0592c-2.45733,-0.52176 -4.48072,-0.80488 -6.82474,-2.03856c-2.66231,-0.58818 -5.10842,-1.2928 -7.68256,-2.15238c-0.80156,-0.26763 -1.68654,-0.53918 -2.59653,-0.77029v-29.56517l9.74364,-2.22139c0.06685,0.53715 0.14263,1.07572 0.15907,1.63668c0.06702,1.01726 0.60579,1.95104 0.75153,2.94962c0.24813,1.70014 0.13854,3.27009 0.95961,4.83583c1.24546,2.20414 3.67002,4.14033 4.57199,6.49351c0.48287,1.19766 1.60263,1.62696 2.39971,2.38327c0.62312,0.59127 1.19722,1.34446 1.80417,2.02565z" fill="#00235d" stroke="#00235d" stroke-width="2" stroke-linecap="butt"/><g><path d="M176.639,287.64843l8.83768,-0.0915" fill="none" stroke="#000000" stroke-width="2" stroke-linecap="round"/><path d="M176.02241,295.05996v-7.68603h42.03037v7.68603z" fill="#3e3e3e" stroke="#000000" stroke-width="2" stroke-linecap="butt"/><path d="M203.04928,291.30845c0,0 -2.87557,5.76452 -6.42273,5.76452c-3.54718,0 -6.42273,-5.76452 -6.42273,-5.76452c0,0 2.87555,-5.76452 6.42273,-5.76452c3.54718,0 6.42273,5.76452 6.42273,5.76452z" fill="#740000" stroke="#570000" stroke-width="2" stroke-linecap="butt"/><text transform="translate(192.25909,296.52397) scale(0.30829,0.2745)" font-size="40" xml:space="preserve" fill="#000000" fill-rule="nonzero" stroke="none" stroke-width="1" stroke-linecap="butt" stroke-linejoin="miter" stroke-miterlimit="10" stroke-dasharray="" stroke-dashoffset="0" font-family="Handwriting" font-weight="normal" text-anchor="start" style="mix-blend-mode: normal"><tspan x="0" dy="0">V</tspan></text></g><g><g stroke-width="2" stroke-linecap="round"><g stroke="#561400"><path d="M213.11829,149.09656c0,0 1.51454,10.02406 1.47342,15.36943c-0.04652,6.04813 -1.73836,19.07218 -1.73836,19.07218c0,0 -5.78909,7.98185 -9.29546,11.39715c-3.27828,3.19313 -8.19029,8.20807 -8.19029,8.20807h-5.29872c0,0 -8.47909,-6.99193 -11.22017,-10.21392c-2.14509,-2.52144 -5.20583,-7.8017 -5.20583,-7.8017c0,0 -1.96329,-12.86166 -2.14379,-18.81771c-0.1724,-5.68883 1.08406,-16.15378 1.08406,-16.15378c0,0 5.61704,-0.14685 9.789,-0.25591c7.39377,-0.1933 30.74614,-0.80382 30.74614,-0.80382z" fill="#691900"/><path d="M175.89484,207.09852l2.27087,-13.92804" fill="none"/></g><path d="M214.34835,173.18677l-0.30277,-9.23489l-5.75288,-5.29872l-0.30278,-2.42226h-28.15886l-0.86447,3.24197l-6.25094,5.38736l-1.81671,9.68907l-7.11542,0.45418l1.36253,-6.05567l-8.32654,-2.42226l-4.02088,-5.03768l4.95418,-2.05974l1.79175,-3.65139c0,0 -2.3637,-6.24451 -2.38748,-10.41412c-0.02378,-4.16961 2.29582,-5.65835 2.29582,-5.65835l5.39036,4.11252l-1.42634,-14.74474c0,0 4.45162,-1.01884 6.9101,-0.75311c2.81348,0.3041 9.04984,2.47816 9.04984,2.47816l11.50577,-6.66122l5.6015,3.6334l-2.42226,3.02783l7.72097,-1.2001c0,0 0.24702,-7.53802 0.75696,-4.85557c0.35817,1.8841 3.48201,8.17516 3.48201,8.17516l8.62933,-1.96809l3.482,10.9002c0,0 7.15245,11.18632 7.93449,13.93488c0.60697,2.13326 -2.38291,6.68341 -2.38291,6.68341l-1.76679,-4.26799l-2.87645,6.05567l5.90428,5.29872z" fill="#000000" stroke="#000000"/></g><g fill="#ffffff" stroke="#561400" stroke-width="2" stroke-linecap="round"><path d="M196.56611,169.46696c0,0 1.34375,-2.85104 3.03166,-3.2482c1.68791,-0.39716 11.69353,-0.21655 11.69353,-0.21655c0,0 0.75578,0.8499 1.00778,1.40117c0.31238,0.68334 0.7246,2.38841 0.7246,2.38841l-0.10827,4.8723c0,0 -4.77592,0.79752 -7.49711,0.708c-2.764,-0.09091 -8.96046,-1.24938 -8.96046,-1.24938" data-paper-data="{&quot;index&quot;:null}"/><path d="M190.37905,174.16913c0,0 -6.19646,1.15846 -8.96046,1.24938c-2.7212,0.08952 -7.49711,-0.708 -7.49711,-0.708l-0.10827,-4.8723c0,0 0.41221,-1.70507 0.7246,-2.38841c0.25201,-0.55127 1.00778,-1.40117 1.00778,-1.40117c0,0 10.00562,-0.18062 11.69353,0.21655c1.6879,0.39716 3.03166,3.2482 3.03166,3.2482"/></g><g fill="#000000" stroke="#561400" stroke-width="0" stroke-linecap="butt"><path d="M181.51608,171.94178c-0.69195,0 -1.25288,-0.54017 -1.25288,-1.20647c0,-0.66631 0.56094,-1.20647 1.25288,-1.20647c0.69195,0 1.25288,0.54016 1.25288,1.20647c0,0.66631 -0.56094,1.20647 -1.25288,1.20647z"/><path d="M204.53193,171.47776c-0.69195,0 -1.25288,-0.54017 -1.25288,-1.20647c0,-0.66631 0.56092,-1.20647 1.25288,-1.20647c0.69195,0 1.25288,0.54017 1.25288,1.20647c0,0.66631 -0.56094,1.20647 -1.25288,1.20647z"/></g><path d="M192.69934,181.21053l-1.21114,-1.36252l1.66531,-5.90428" fill="none" stroke="#561400" stroke-width="2" stroke-linecap="round"/><path d="M207.98989,190.74821l-0.15139,16.65309" fill="none" stroke="#561400" stroke-width="2" stroke-linecap="round"/><path d="M207.63666,196.40016l2.87645,18.01562" fill="none" stroke="#1b1b1b" stroke-width="2" stroke-linecap="round"/><g fill="none" stroke="none" stroke-width="1" stroke-linecap="butt" font-family="sans-serif" font-weight="normal" font-size="12" text-anchor="start"/></g><g stroke-linecap="butt"><path d="M156.73732,258.3973l-4.2385,30.88124l-13.17136,-1.35362l5.08498,-49.47919c0.8427,0.31434 1.65586,0.66207 2.38691,0.99269c2.4685,1.1163 4.81878,2.0902 7.41238,2.92186c2.20449,1.49666 4.22931,1.97602 6.63473,2.74756z" fill="#00235d" stroke="#00235d" stroke-width="2"/><g><path d="M149.78369,310.33454c-1.99843,3.22382 -3.50531,8.10987 -7.50289,7.69904c-5.59759,-0.57526 -9.66462,-5.62177 -9.08399,-11.27165c0.25844,-2.5147 2.60335,-3.45214 4.27763,-5.08023c2.08741,-2.02981 3.39401,-0.44909 6.50018,-0.12987c3.28577,0.33767 5.52002,-0.13523 7.12057,2.50142c1.12611,1.85509 0.20244,3.55095 -0.03736,5.88437c-0.16597,1.61496 -0.47431,-0.8934 -1.27416,0.39692z" fill="#ffffff" stroke="#d6d6d6" stroke-width="0.5"/><path d="M132.72305,301.59203c0,0 -0.27188,-4.48336 0.75312,-7.62046c0.43357,-1.32697 2.57474,-1.47546 2.67603,-2.46095c0.10492,-1.02091 -1.22986,-1.41821 -1.40608,-2.75966c-0.39607,-3.01476 0.02122,-7.0507 0.02122,-7.0507l18.66036,1.91773l-2.04427,19.89176z" fill="#3e3e3e" stroke="#424242" stroke-width="2"/><path d="M136.54016,302.17577l2.04427,-19.89176l18.66036,1.91773c0,0 -0.4123,4.03645 -1.41329,6.90764c-0.4454,1.27756 -1.83307,1.39507 -1.93798,2.41598c-0.10128,0.9855 1.96494,1.56637 2.11956,2.95379c0.36552,3.28 -0.81257,7.61435 -0.81257,7.61435z" data-paper-data="{&quot;index&quot;:null}" fill="#202020" stroke="#202020" stroke-width="2"/></g></g><g stroke-linecap="butt"><path d="M245.60677,289.76923l-13.24074,-0.36225l-1.05925,-29.16042l-2.521,-12.60021c1.69909,-0.32577 3.39513,-0.50774 5.14497,-0.66144c2.65913,-0.23356 5.30639,-0.29257 7.97466,-0.35267c1.23336,-0.02777 2.46752,-0.04667 3.70136,-0.07452z" fill="#00235d" stroke="#00235d" stroke-width="2"/><g><path d="M232.85091,311.82846c0,-2.3457 -0.74546,-4.12709 0.5644,-5.85735c1.86171,-2.45921 4.03591,-1.76037 7.33899,-1.76037c3.12253,0 4.58388,-1.43887 6.45285,0.79371c1.49908,1.79072 3.73586,2.96297 3.73586,5.49092c0,5.67966 -4.56164,10.28393 -10.18871,10.28393c-4.01863,0 -5.01811,-5.0145 -6.67649,-8.42573c-0.66376,-1.36533 -1.2269,1.09837 -1.2269,-0.5251z" data-paper-data="{&quot;index&quot;:null}" fill="#ffffff" stroke="#d6d6d6" stroke-width="0.5"/><path d="M228.40231,304.25834c0,0 -0.7288,-4.43208 -0.02988,-7.65752c0.29564,-1.36434 2.41042,-1.73095 2.41042,-2.72163c0,-1.02628 -1.3684,-1.28505 -1.68084,-2.60145c-0.70219,-2.95848 -0.6997,-7.01593 -0.6997,-7.01593h18.75865v19.99653z" fill="#3e3e3e" stroke="#424242" stroke-width="2"/><path d="M232.2591,304.44878v-19.99653h18.75865c0,0 0.00251,4.05745 -0.6997,7.01593c-0.31245,1.3164 -1.68084,1.57516 -1.68084,2.60145c0,0.99069 2.11478,1.35729 2.41042,2.72163c0.69893,3.22545 -0.02988,7.65752 -0.02988,7.65752z" data-paper-data="{&quot;index&quot;:null}" fill="#202020" stroke="#202020" stroke-width="2"/></g></g><path d="M8.66321,122.91249z" fill="url(#color-15)" stroke="none" stroke-width="0" stroke-linecap="butt"/><path d="M184.625,185.375l1.75,2.75l6.75,1" fill="none" stroke="#561400" stroke-width="2" stroke-linecap="round"/><path d="M179.375,162.875h8" fill="none" stroke="#561400" stroke-width="2" stroke-linecap="round"/><path d="M197.375,162.125l8.25,0.25" fill="none" stroke="#561400" stroke-width="2" stroke-linecap="round"/></g></g></svg>