<svg version="1.1" xmlns="http://www.w3.org/2000/svg" xmlns:xlink="http://www.w3.org/1999/xlink" width="425.83679" height="630.00002" viewBox="0,0,425.83679,630.00002"><defs><linearGradient x1="205.34326" y1="341.02429" x2="257.69674" y2="307.81115" gradientUnits="userSpaceOnUse" id="color-1"><stop offset="0" stop-color="#ff6f00"/><stop offset="1" stop-color="#e2ff00"/></linearGradient><radialGradient cx="236.16322" cy="323.87436" r="41.5" gradientUnits="userSpaceOnUse" id="color-2"><stop offset="0" stop-color="#ff6f00"/><stop offset="1" stop-color="#ff6f00" stop-opacity="0"/></radialGradient><linearGradient x1="324.98317" y1="339.02429" x2="272.62965" y2="305.81115" gradientUnits="userSpaceOnUse" id="color-3"><stop offset="0" stop-color="#ff6f00"/><stop offset="1" stop-color="#e2ff00"/></linearGradient><radialGradient cx="294.16319" cy="321.87436" r="41.5" gradientUnits="userSpaceOnUse" id="color-4"><stop offset="0" stop-color="#ff6f00"/><stop offset="1" stop-color="#ff6f00" stop-opacity="0"/></radialGradient><linearGradient x1="260.50001" y1="-92.5" x2="260.50001" y2="455" gradientUnits="userSpaceOnUse" id="color-5"><stop offset="0" stop-color="#b03131"/><stop offset="1" stop-color="#490073"/></linearGradient><linearGradient x1="260.50001" y1="-92.5" x2="260.50001" y2="455" gradientUnits="userSpaceOnUse" id="color-6"><stop offset="0" stop-color="#ffffff"/><stop offset="1" stop-color="#b0b0b0"/></linearGradient><linearGradient x1="249.29287" y1="32.19408" x2="249.29287" y2="102.27006" gradientTransform="translate(-83.31029,-55.8146) scale(0.65858,0.65858)" gradientUnits="userSpaceOnUse" id="color-7"><stop offset="0" stop-color="#0089df"/><stop offset="1" stop-color="#010082"/></linearGradient><radialGradient cx="-30.46178" cy="92.1563" r="0.00125" gradientUnits="userSpaceOnUse" id="color-8"><stop offset="0" stop-color="#ff6f00"/><stop offset="1" stop-color="#ff6f00" stop-opacity="0"/></radialGradient><radialGradient cx="261.00001" cy="187.66667" r="306.17647" gradientUnits="userSpaceOnUse" id="color-9"><stop offset="0" stop-color="#000000" stop-opacity="0"/><stop offset="1" stop-color="#000000"/></radialGradient><radialGradient cx="254.1875" cy="217.25" r="18.69646" gradientUnits="userSpaceOnUse" id="color-10"><stop offset="0" stop-color="#fdff33"/><stop offset="1" stop-color="#e8a700"/></radialGradient><radialGradient cx="228.9375" cy="224.875" r="18.69646" gradientUnits="userSpaceOnUse" id="color-11"><stop offset="0" stop-color="#fdff33"/><stop offset="1" stop-color="#e8a700"/></radialGradient><radialGradient cx="258.29439" cy="220.53493" r="17.6481" gradientUnits="userSpaceOnUse" id="color-12"><stop offset="0" stop-color="#fdff33"/><stop offset="1" stop-color="#e8a700"/></radialGradient><radialGradient cx="244.8125" cy="220.375" r="17.6481" gradientUnits="userSpaceOnUse" id="color-13"><stop offset="0" stop-color="#fdff33"/><stop offset="1" stop-color="#e8a700"/></radialGradient><radialGradient cx="260.60429" cy="266.26769" r="18.69646" gradientUnits="userSpaceOnUse" id="color-14"><stop offset="0" stop-color="#fdff33"/><stop offset="1" stop-color="#e8a700"/></radialGradient><radialGradient cx="259.58971" cy="239.91103" r="18.69646" gradientUnits="userSpaceOnUse" id="color-15"><stop offset="0" stop-color="#fdff33"/><stop offset="1" stop-color="#e8a700"/></radialGradient><radialGradient cx="235.37906" cy="266.51769" r="18.69647" gradientUnits="userSpaceOnUse" id="color-16"><stop offset="0" stop-color="#fdff33"/><stop offset="1" stop-color="#e8a700"/></radialGradient><radialGradient cx="236.39365" cy="240.16103" r="18.69647" gradientUnits="userSpaceOnUse" id="color-17"><stop offset="0" stop-color="#fdff33"/><stop offset="1" stop-color="#e8a700"/></radialGradient><radialGradient cx="261" cy="187.66667" r="306.17647" gradientUnits="userSpaceOnUse" id="color-18"><stop offset="0" stop-color="#000000" stop-opacity="0"/><stop offset="1" stop-color="#000000"/></radialGradient></defs><g transform="translate(-8.66322,127.33333)"><g data-paper-data="{&quot;isPaintingLayer&quot;:true}" fill-rule="nonzero" stroke-linejoin="miter" stroke-miterlimit="10" stroke-dasharray="" stroke-dashoffset="0" style="mix-blend-mode: normal"><g stroke="#ff0000"><path d="M267.32201,318.87658c0,0 -12.39166,17.04765 -21.5407,25.03434c-9.14905,7.98669 -17.37488,7.70673 -17.37488,7.70673c0,0 8.38114,-7.06408 10.988,-10.04604c2.074,-2.37242 3.42332,-6.43893 3.42332,-6.43893l-13.86646,-0.20344l-1.30566,1.30202l-22.9988,3.69531l20.06429,-11.3077l11.42589,-9.61712l-13.37252,-2.41163l-13.59408,2.46597c0,0 5.07692,-14.066 11.55302,-12.77684c5.56776,1.10834 16.91175,5.37706 16.91175,5.37706l-15.44262,-13.88832l16.9535,8.42964l-7.70132,-10.27276c0,0 19.21146,9.95217 25.83418,14.18891c4.4427,2.84213 10.04308,8.76282 10.04308,8.76282z" fill="url(#color-1)" stroke-width="2" stroke-linecap="round"/><path d="M258.39458,358.91742c-18.20564,11.54969 -42.91756,5.22326 -55.19561,-14.13049c-12.27805,-19.35375 -7.47279,-44.40594 10.73286,-55.95563c18.20564,-11.54969 42.91756,-5.22326 55.19561,14.13049c12.27805,19.35375 7.47279,44.40594 -10.73286,55.95563z" fill="url(#color-2)" stroke-width="0" stroke-linecap="butt"/></g><g data-paper-data="{&quot;index&quot;:null}" stroke="#ff0000"><path d="M273.04747,308.11376c6.62273,-4.23674 25.83419,-14.18892 25.83419,-14.18892l-7.70132,10.27276l16.95349,-8.42964l-15.44261,13.88832c0,0 11.34398,-4.26872 16.91174,-5.37706c6.47611,-1.28915 11.55302,12.77685 11.55302,12.77685l-13.59407,-2.46598l-13.37252,2.41163l11.42589,9.61712l20.06429,11.3077l-22.9988,-3.69531l-1.30566,-1.30201l-13.86646,0.20345c0,0 1.34932,4.06649 3.42332,6.43892c2.60686,2.98196 10.988,10.04604 10.988,10.04604c0,0 -8.22583,0.27996 -17.37488,-7.70673c-9.14905,-7.98669 -21.5407,-25.03434 -21.5407,-25.03434c0,0 5.60037,-5.92069 10.04307,-8.76282z" fill="url(#color-3)" stroke-width="2" stroke-linecap="round"/><path d="M261.19898,300.96179c12.27805,-19.35375 36.98996,-25.68018 55.19561,-14.13049c18.20565,11.54969 23.01091,36.60188 10.73286,55.95563c-12.27805,19.35375 -36.98996,25.68018 -55.19561,14.13049c-18.20565,-11.54969 -23.01091,-36.60188 -10.73286,-55.95563z" fill="url(#color-4)" stroke-width="0" stroke-linecap="butt"/></g><path d="M88.50001,455v-547.5h344v547.5z" fill="url(#color-5)" stroke="url(#color-6)" stroke-width="2" stroke-linecap="butt"/><text transform="translate(126.50001,84.75) scale(1.51842,1.51842)" font-size="40" xml:space="preserve" fill="url(#color-7)" fill-rule="nonzero" stroke="none" stroke-width="1" stroke-linecap="butt" stroke-linejoin="miter" stroke-miterlimit="10" stroke-dasharray="" stroke-dashoffset="0" font-family="Marker" font-weight="normal" text-anchor="start" style="mix-blend-mode: normal"><tspan x="0" dy="0">HERO 69</tspan></text><text transform="translate(209.50001,117.5) scale(0.5,0.5)" font-size="40" xml:space="preserve" fill="#ffea00" fill-rule="nonzero" stroke="none" stroke-width="1" stroke-linecap="butt" stroke-linejoin="miter" stroke-miterlimit="10" stroke-dasharray="" stroke-dashoffset="0" font-family="Marker" font-weight="normal" text-anchor="start" style="mix-blend-mode: normal"><tspan x="0" dy="0">STAFFEL 4</tspan></text><path d="M8.66322,122.91249z" fill="url(#color-8)" stroke="none" stroke-width="0" stroke-linecap="butt"/><path d="M245.28894,239.0251l-2,1" fill="none" stroke="#6e6e6e" stroke-width="0.5" stroke-linecap="round"/><path d="M434.46033,445.38889c0,-0.43946 0.01524,-0.87816 0.03968,-1.31645v6.31367c-0.25802,-1.55455 -0.04394,-3.43288 -0.03968,-4.99722z" fill="url(#color-9)" stroke="none" stroke-width="0" stroke-linecap="butt"/><path d="M249.74726,207.625l-4.25,20.5l-8.75,7.25l-7.75,-8l-2.25,-21.5" fill="none" stroke="#6e6e6e" stroke-width="0.5" stroke-linecap="round"/><path d="M227.74726,222.125l-3,-3.25l-0.75,-7l5,3l4.25,-5.25l12,0.25l1.5,5.5l2,-0.75l3.5,-2l-1.75,7l-3.75,1.75" fill="none" stroke="#6e6e6e" stroke-width="0.5" stroke-linecap="round"/><path d="M232.49726,219.625l-2,1" fill="none" stroke="#6e6e6e" stroke-width="0.5" stroke-linecap="round"/><path d="M229.99726,218.625l6,2l-5.5,1.5" fill="none" stroke="#6e6e6e" stroke-width="0.5" stroke-linecap="round"/><path d="M243.74726,221.625l-3,-0.75l-2,-0.5l5,-1.75" fill="none" stroke="#6e6e6e" stroke-width="0.5" stroke-linecap="round"/><path d="M241.24726,219.875l2.5,0.25" fill="none" stroke="#6e6e6e" stroke-width="0.5" stroke-linecap="round"/><path d="M236.74726,220.875l-1,2.25" fill="none" stroke="#6e6e6e" stroke-width="0.5" stroke-linecap="round"/><path d="M247.5734,195.49877l12.71111,-4.52802l23.3037,0.36225l0.79445,3.26017l1.7213,0.81504l0.54989,0.12536c0.04545,0.71652 0.11459,1.4 0.11459,1.89227c-0.00002,1.4315 0.38732,3.52597 -0.0892,4.88048c-0.34034,0.9674 -1.24738,1.61817 -1.55873,2.49407c-0.62085,0.78486 -1.10261,2.02423 -1.61581,3.23528c0.58645,-1.07889 1.24104,-2.13609 1.95149,-3.05529c0.26545,-0.86796 1.25313,-1.57864 1.58308,-2.54971c0.48265,-1.42054 0.11005,-3.51064 0.11007,-5.00483c0,-0.42731 -0.07116,-1.09576 -0.12165,-1.80705l11.78738,2.68734v34.47056c-1.2367,0.02795 -2.47372,0.04682 -3.70994,0.07467c-2.67651,0.06029 -5.33204,0.11975 -7.99941,0.35403c-1.76363,0.15491 -3.47358,0.33896 -5.18635,0.66743l-3.63815,-18.18386c1.0129,-1.35649 2.30522,-2.4189 3.2113,-3.97504c0.72898,-0.36476 0.51238,-0.60348 0.7964,-1.22724c0.03112,-0.06835 0.06257,-0.13697 0.09435,-0.20585c-0.3344,0.50729 -0.70958,0.91618 -1.1509,1.15489c-0.90834,1.43498 -2.07573,2.49756 -3.05137,3.75229l-0.5511,-2.75448c0,0 -3.21435,10.72767 -4.69446,14.39733c-1.32808,3.29274 -3.77962,6.61267 -3.77962,6.61267c0,0 -1.09632,12.02402 -0.9358,18.33716c0.18815,7.39954 1.99505,23.32058 1.99505,23.32058l-41.84074,0.36225c0,0 2.10258,-16.3244 2.01009,-23.66246c-0.08303,-6.58744 -2.53973,-18.35753 -2.53973,-18.35753c0,0 -3.48179,-3.44871 -5.06398,-7.52267c-1.39555,-3.59337 -3.93971,-15.66077 -3.93971,-15.66077l-0.70056,3.5015c-0.54295,-0.63401 -1.07088,-1.31616 -1.64084,-1.83137c-0.77404,-0.69969 -1.86624,-1.09185 -2.3034,-2.24249c-0.9548,-2.38346 -3.332,-4.29127 -4.59189,-6.53622c-0.79667,-1.51961 -0.67626,-3.05704 -0.91736,-4.70893c-0.14374,-0.98487 -0.69195,-1.91035 -0.74793,-2.91184c-0.01706,-0.58362 -0.09918,-1.14444 -0.16807,-1.70415l2.59598,-0.59184l3.575,-2.08289l24.89258,-0.36225zM282.38328,210.28083c0.42175,-0.63981 0.77861,-1.43616 1.12144,-2.24516c-0.4082,0.75096 -0.78339,1.51242 -1.12144,2.24516z" fill="#00235d" stroke="#00235d" stroke-width="2" stroke-linecap="butt"/><path d="M271.31053,282.82912l-0.51066,13.01381c-1.6844,1.5102 -5.70522,2.71946 -7.43867,3.32458c-1.96218,1.128 -5.44624,2.07415 -7.87455,2.14816l-0.00396,-1.02845l-8.06173,-0.64731l-0.03016,1.08007c-0.16074,0 -0.32149,0 -0.48223,0c-3.10404,0.00001 -6.62867,-2.05635 -9.38569,-3.4196c-2.16658,-1.02082 -4.70082,-3.14537 -6.94474,-3.94411l-0.02313,-11.82175z" data-paper-data="{&quot;index&quot;:null}" fill="#00235d" stroke="#00235d" stroke-width="2" stroke-linecap="butt"/><path d="M214.75966,230.6591c-2.45733,-0.52176 -4.48072,-0.80488 -6.82474,-2.03856c-2.66231,-0.58818 -5.10842,-1.2928 -7.68256,-2.15238c-0.80156,-0.26763 -1.68654,-0.53918 -2.59653,-0.77029v-29.56517l9.74364,-2.22139c0.06685,0.53715 0.14263,1.07572 0.15907,1.63668c0.06702,1.01726 0.60579,1.95104 0.75153,2.94962c0.24813,1.70014 0.13854,3.27009 0.95961,4.83583c1.24546,2.20414 3.67002,4.14033 4.57199,6.49351c0.48287,1.19766 1.60263,1.62696 2.39971,2.38327c0.62312,0.59127 1.19722,1.34446 1.80417,2.02565z" fill="#00235d" stroke="#00235d" stroke-width="2" stroke-linecap="butt"/><path d="M293.91445,277.65382l-13.13504,-1.70856l1.91539,-29.11672l-1.22493,-12.79142c1.72343,-0.15108 3.42919,-0.15941 5.18559,-0.13414c2.66909,0.03841 5.30859,0.24925 7.96912,0.46115c1.22978,0.09796 2.45943,0.20481 3.68971,0.30274z" data-paper-data="{&quot;index&quot;:null}" fill="#00235d" stroke="#00235d" stroke-width="1.5" stroke-linecap="butt"/><path d="M213.31841,239.63184l2.79992,31.04475l-13.13917,1.6368l-6.14876,-49.35828c0.89174,0.1172 1.7622,0.27357 2.5488,0.4317c2.65605,0.53385 5.16494,0.95546 7.87903,1.18385c2.48414,0.96376 4.5649,0.97647 7.08211,1.18852z" data-paper-data="{&quot;index&quot;:null}" fill="#00235d" stroke="#00235d" stroke-width="2" stroke-linecap="butt"/><g><path d="M229.84732,274.24833l8.83768,-0.0915" fill="none" stroke="#000000" stroke-width="2" stroke-linecap="round"/><path d="M229.23073,281.65986v-7.68603h42.03037v7.68603z" fill="#3e3e3e" stroke="#000000" stroke-width="2" stroke-linecap="butt"/><path d="M256.25759,277.90835c0,0 -2.87557,5.76452 -6.42273,5.76452c-3.54718,0 -6.42273,-5.76452 -6.42273,-5.76452c0,0 2.87555,-5.76452 6.42273,-5.76452c3.54718,0 6.42273,5.76452 6.42273,5.76452z" fill="#740000" stroke="#570000" stroke-width="2" stroke-linecap="butt"/><text transform="translate(245.46741,283.12387) scale(0.30829,0.2745)" font-size="40" xml:space="preserve" fill="#000000" fill-rule="nonzero" stroke="none" stroke-width="1" stroke-linecap="butt" stroke-linejoin="miter" stroke-miterlimit="10" stroke-dasharray="" stroke-dashoffset="0" font-family="Handwriting" font-weight="normal" text-anchor="start" style="mix-blend-mode: normal"><tspan x="0" dy="0">V</tspan></text></g><g data-paper-data="{&quot;index&quot;:null}" stroke-linecap="butt"><path d="M212.6141,300.99128c-5.58391,0.69561 -10.67973,-3.30945 -11.38184,-8.94554c-0.31251,-2.50857 1.76221,-3.94833 3.02842,-5.91062c1.57864,-2.44648 3.20666,-1.19932 6.30524,-1.58532c3.27775,-0.40833 5.34888,-1.37057 7.50032,0.83964c1.51371,1.55506 0.99418,3.41495 1.28415,5.74265c0.20068,1.61102 -0.6627,-0.76417 -1.15258,0.67275c-1.22397,3.59007 -1.59589,8.68966 -5.5837,9.18644z" fill="#d59768" stroke="#b7825a" stroke-width="0.5"/><path d="M199.61035,287.11406c0,0 -1.2711,-4.30799 -0.97627,-7.59509c0.12472,-1.39042 2.17796,-2.01565 2.05549,-2.99873c-0.12687,-1.01841 -1.51675,-1.10603 -1.98953,-2.37371c-1.06253,-2.84898 -1.56163,-6.87562 -1.56163,-6.87562l18.61477,-2.31892l2.47195,19.84314z" fill="#3e3e3e" stroke="#424242" stroke-width="2"/><path d="M203.46109,286.82627l-2.47194,-19.84315l18.61477,-2.31892c0,0 0.50407,4.02602 0.17297,7.04862c-0.14731,1.34492 -1.47322,1.77086 -1.34635,2.78928c0.12247,0.9831 2.26634,1.08545 2.72838,2.40278c1.0923,3.1143 0.91696,7.60247 0.91696,7.60247z" data-paper-data="{&quot;index&quot;:null}" fill="#202020" stroke="#202020" stroke-width="2"/></g><path d="M258.29946,213.9392l-9.09611,13.53328l-22.00439,5.43716c0,0 -3.84882,-5.20521 -4.72658,-7.44526c-0.99632,-2.54263 -2.44085,-8.2681 -2.44085,-8.2681c0,0 2.71571,0.42712 3.70495,0.69132c1.2334,0.32941 4.00084,1.383 4.00084,1.383l2.18069,7.58232l14.11181,-3.15329l3.89004,-6.01159z" data-paper-data="{&quot;index&quot;:null}" fill="url(#color-10)" stroke="url(#color-11)" stroke-width="2" stroke-linecap="round"/><path d="M250.69974,213.57903l1.97965,8.58836l13.74685,4.48451l2.89373,-7.33984c0,0 2.37139,-0.77065 3.50319,-0.97209c1.07252,-0.19088 3.11933,-0.20656 3.11933,-0.20656c0,0 -1.20739,5.36072 -2.36115,7.76022c-1.0618,2.20826 -3.68347,6.61079 -3.68347,6.61079l-22.7282,-7.07468l-6.52338,-16.36433z" data-paper-data="{&quot;index&quot;:null}" fill="url(#color-12)" stroke="url(#color-13)" stroke-width="2" stroke-linecap="round"/><path d="M263.1982,175.3481l-0.15139,16.65309l-9.53806,5.03777l-12.71428,-0.14286l-9.69129,-5.19768l2.27087,-13.92804" fill="#000a64" stroke="#000a64" stroke-width="2" stroke-linecap="round"/><path d="M233.50876,183.46753v-7.14285h29.14286v7.14285c0,0 -10.72282,5.85715 -15.71429,5.85715c-4.706,0 -13.42857,-5.85715 -13.42857,-5.85715z" fill="#000e87" stroke="#000e87" stroke-width="2" stroke-linecap="butt"/><path d="M269.34844,141.82008c0.26186,2.55526 0.46708,5.23243 0.45159,7.24581c-0.04652,6.04813 -1.73836,19.07218 -1.73836,19.07218c0,0 -5.78909,7.98185 -9.29546,11.39715c-3.27828,3.19313 -8.19029,8.20807 -8.19029,8.20807h-5.29872c0,0 -8.47909,-6.99193 -11.22017,-10.21392c-2.14509,-2.52144 -5.20583,-7.8017 -5.20583,-7.8017c0,0 -1.96329,-12.86166 -2.14379,-18.81771c-0.07294,-2.40682 0.10988,-5.66854 0.3451,-8.63098c0.1501,-1.89042 2.70235,-5.54315 6.90546,-7.3074c4.77855,-2.00579 11.36179,-2.00943 13.08928,-2.0546c2.62462,-0.06862 9.30917,0.59166 14.45094,2.62094c4.51876,1.7834 7.70367,4.8518 7.85025,6.28215z" fill="#000a64" stroke="#5a64b8" stroke-width="2" stroke-linecap="round"/><g data-paper-data="{&quot;index&quot;:null}" fill="#ffffff" stroke="#5a64b8" stroke-width="2" stroke-linecap="round"><path d="M250.54116,155.23895c0,0 7.94646,-3.03347 10.71046,-3.12438c2.72119,-0.08952 6.87211,-0.792 6.87211,-0.792l0.10827,4.8723c0,0 -0.41222,1.70507 -0.7246,2.38841c-0.252,0.55127 -1.00778,1.40117 -1.00778,1.40117c0,0 -10.00562,0.18061 -11.69353,-0.21655c-1.68791,-0.39716 -3.03166,-3.2482 -3.03166,-3.2482" data-paper-data="{&quot;index&quot;:null}"/><path d="M245.47911,156.47328c0,0 -1.34376,2.85104 -3.03166,3.2482c-1.68791,0.39717 -11.69353,0.21655 -11.69353,0.21655c0,0 -0.75577,-0.8499 -1.00778,-1.40117c-0.31239,-0.68334 -0.7246,-2.38841 -0.7246,-2.38841l0.10827,-4.8723c0,0 3.65091,0.70248 6.37211,0.792c2.764,0.09092 10.96046,3.37438 10.96046,3.37438"/></g><g fill="#000000" stroke="#561400" stroke-width="0" stroke-linecap="butt"><path d="M236.72442,156.54168c-0.69195,0 -1.25288,-0.54017 -1.25288,-1.20647c0,-0.66631 0.56094,-1.20647 1.25288,-1.20647c0.69195,0 1.25288,0.54016 1.25288,1.20647c0,0.66631 -0.56094,1.20647 -1.25288,1.20647z"/><path d="M259.74027,156.07766c-0.69195,0 -1.25288,-0.54017 -1.25288,-1.20647c0,-0.66631 0.56092,-1.20647 1.25288,-1.20647c0.69195,0 1.25288,0.54017 1.25288,1.20647c0,0.66631 -0.56094,1.20647 -1.25288,1.20647z"/></g><path d="M247.90765,165.81043l-1.21114,-1.36252l1.66531,-5.90428" fill="none" stroke="#5a64b8" stroke-width="2" stroke-linecap="round"/><path d="M88.01634,-88.75889l27.44536,-13.13326l318.759,536.25169c-0.04207,1.48405 -0.1461,2.95093 -0.14927,4.4738c0.00885,2.19996 -0.38889,4.36091 -0.38889,6.55556c0.00367,1.52348 -0.17083,3.25634 0.01018,4.7973l-19.70997,9.43169z" data-paper-data="{&quot;index&quot;:null}" fill="#c94922" stroke="#ff6f00" stroke-width="0.5" stroke-linecap="butt"/><path d="M268.83939,345.80331c-2.5892,-0.19973 -5.17476,-0.40826 -7.75911,-0.6652c-1.79505,-0.17846 -3.61342,-0.43838 -5.42735,-0.59347l-0.1644,-42.734c2.51751,-0.10308 6.03785,-1.02223 8.08032,-2.18829c2.35955,-0.82588 4.3978,-2.07598 6.60076,-3.18022c0.20983,-0.10518 0.41869,-0.1512 0.61461,-0.20105z" data-paper-data="{&quot;index&quot;:null}" fill="#00235d" stroke="#00235d" stroke-width="2" stroke-linecap="butt"/><path d="M246.27671,333.55282c-0.34983,-0.10747 -0.66055,-0.24492 -0.91691,-0.4196c-2.6183,0.01819 -5.29937,0.03227 -7.99294,0.05394c-2.21159,0.0178 -4.41617,0.20941 -6.5937,0.28693l-0.50041,-50.00803c2.17848,0.8027 4.65618,2.84138 6.75721,3.81061c2.83994,1.37606 6.44566,3.41755 9.63067,3.39191c0.12743,-0.00102 0.3133,-0.00252 0.46825,-0.00377z" data-paper-data="{&quot;index&quot;:null}" fill="#00235d" stroke="#00235d" stroke-width="2" stroke-linecap="butt"/><path d="M244.48103,393.78825l-13.68504,-0.24348l-0.1182,-60.40101c2.1785,-0.06001 4.38341,-0.23384 6.59504,-0.23384c2.65207,0 5.3087,0.12176 7.88207,-0.00616c0.27693,0.19679 0.62157,0.34896 1.01328,0.46594z" data-paper-data="{&quot;index&quot;:null}" fill="#00235d" stroke="#00235d" stroke-width="2" stroke-linecap="butt"/><path d="M266.52914,393.39076l-10.64392,0.19749l-0.23081,-48.66163c1.80091,0.12569 3.60625,0.33526 5.3882,0.47896c2.59192,0.209 5.18506,0.37859 7.78185,0.54104z" data-paper-data="{&quot;index&quot;:null}" fill="#00235d" stroke="#00235d" stroke-width="2" stroke-linecap="butt"/><path d="M262.77178,271.08138l-10.80369,-12.21348l0.28456,-22.6644c0,0 6.00725,-2.41259 8.39621,-2.69741c2.71167,-0.32329 8.61638,-0.27808 8.61638,-0.27808c0,0 -1.09782,2.52038 -1.60283,3.41108c-0.62965,1.11055 -2.34676,3.52309 -2.34676,3.52309l-7.88716,0.19917l-0.50538,14.45098l4.83702,5.27966z" data-paper-data="{&quot;index&quot;:null}" fill="url(#color-14)" stroke="url(#color-15)" stroke-width="2" stroke-linecap="round"/><path d="M234.22321,260.34199l4.83702,-5.27966l-0.50538,-14.45098l-7.88716,-0.19917c0,0 -1.71711,-2.41254 -2.34676,-3.52309c-0.50501,-0.8907 -1.60283,-3.41108 -1.60283,-3.41108c0,0 5.90471,-0.04521 8.61638,0.27808c2.38896,0.28482 8.39621,2.6974 8.39621,2.6974l0.28456,22.66441l-10.80369,12.21348z" data-paper-data="{&quot;index&quot;:null}" fill="url(#color-16)" stroke="url(#color-17)" stroke-width="2" stroke-linecap="round"/><path d="M200.7353,290.5168l2,-2.64706l16.05882,-1.88235l0.47059,2l-1.76471,0.88235l-0.23529,5.35294c0,0 -5.56628,0.83685 -8.24338,0.72778c-2.61559,-0.10656 -7.63898,-1.37483 -7.63898,-1.37483z" fill="#000000" stroke="#000000" stroke-width="0.5" stroke-linecap="round"/><path d="M243.21429,394.68045l1,4.20301c0,0 0.13366,3.55402 -1.25904,4.77411c-1.54404,1.35268 -7.5981,2.98529 -7.5981,2.98529c0,0 -4.09486,-2.11838 -5.10285,-3.8008c-0.87908,-1.46725 -0.61144,-5.7368 -0.61144,-5.7368l3.28571,-2.74812" fill="#000000" stroke="#000000" stroke-width="0.5" stroke-linecap="round"/><path d="M265.89369,393.92857l3.28571,2.74812c0,0 0.26764,4.26955 -0.61144,5.7368c-1.00799,1.68241 -5.10285,3.80079 -5.10285,3.80079c0,0 -6.05405,-1.63262 -7.5981,-2.98529c-1.3927,-1.22009 -1.25904,-4.7741 -1.25904,-4.7741l1,-4.20301" data-paper-data="{&quot;index&quot;:null}" fill="#000000" stroke="#000000" stroke-width="0.5" stroke-linecap="round"/><path d="M156.12687,302.30274l68.50178,14.11764l16.66981,-2.12578l-5.99926,-21.99523l65.56323,11.08326l27.06086,6.74897l-72.08847,3.63994l3.61371,15.69371l-30.85433,3.96599z" fill="#ffea00" stroke="#ffe42b" stroke-width="2.5" stroke-linecap="round"/><g data-paper-data="{&quot;index&quot;:null}" stroke="none" stroke-width="0" stroke-linecap="butt"><path d="M278.9788,298.29958c0.23884,-2.33351 -0.32136,-4.18155 1.15787,-5.76944c2.10243,-2.25687 4.19418,-1.34028 7.48009,-1.00395c3.10629,0.31794 4.70655,-0.96466 6.33849,1.44662c1.30896,1.93405 3.41475,3.32795 3.15735,5.84277c-0.57831,5.65015 -5.58505,9.766 -11.18288,9.19305c-3.99775,-0.40919 -4.48145,-5.49939 -5.78388,-9.06175c-0.52129,-1.42581 -1.33236,0.96774 -1.16705,-0.64729z" data-paper-data="{&quot;index&quot;:null}" fill="#d59768"/><path d="M275.32412,290.31585c0,0 -0.27373,-4.48326 0.74997,-7.62077c0.43302,-1.32716 2.57414,-1.47652 2.67501,-2.46206c0.10449,-1.02094 -1.23045,-1.4177 -1.40723,-2.75908c-0.3973,-3.0146 0.01831,-7.05071 0.01831,-7.05071l18.66115,1.91002l-2.03607,19.89261z" fill="#3e3e3e"/><path d="M279.14147,290.898l2.03607,-19.89261l18.66116,1.91003c0,0 -0.41064,4.03662 -1.41044,6.90822c-0.44486,1.27775 -1.83248,1.39582 -1.93699,2.41678c-0.10086,0.98554 1.9656,1.56557 2.12077,2.95292c0.36687,3.27985 -0.80942,7.61468 -0.80942,7.61468z" data-paper-data="{&quot;index&quot;:null}" fill="#202020"/></g><path d="M297.08822,298.57563c0,0 -5.02339,1.26828 -7.63898,1.37484c-2.6771,0.10906 -8.24337,-0.72778 -8.24337,-0.72778l-0.2353,-5.35294l-1.7647,-0.88236l0.47059,-2l16.05882,1.88236l2,2.64705z" data-paper-data="{&quot;index&quot;:null}" fill="#000000" stroke="#000000" stroke-width="0.5" stroke-linecap="round"/><path d="M113.4617,462.61789l-27.44536,-13.13326l325.96641,-548.37678l22.14442,10.59664c0.00099,1.69884 0.00544,3.39011 -0.00018,5.0733c0,0.44061 0.0166,0.88245 0.04339,1.32467c-0.18422,1.70375 -0.34674,3.58363 -0.15463,5.24393z" fill="#c94922" stroke="#ff6f00" stroke-width="0.5" stroke-linecap="butt"/><path d="M87.5,502.66667v-630h347v38.24079c-0.09524,0.07228 -0.09524,0.20366 -0.09524,0.20366c0,1.89848 0.00628,3.78762 0,5.66667c0,0.44061 0.0166,0.88245 0.04339,1.32467c-0.18465,1.70772 -0.3475,3.59238 -0.15329,5.25552c0.01943,0.16643 0.08253,0.32675 0.16942,0.45894c0,0.45818 0,0.92235 0,1.39738l0.03571,0.02273v509.06775c-0.04102,1.50274 -0.14759,2.98696 -0.15079,4.52857c0.00885,2.19996 -0.38889,4.36091 -0.38889,6.55556c0.00395,1.64165 -0.19897,3.5264 0.05896,5.15221l-0.0034,0.12557c0,0 0,0.25 0.25,0.25c0.15027,0 0.21021,-0.09032 0.23413,-0.16238v51.91238z" fill="url(#color-18)" stroke="none" stroke-width="0" stroke-linecap="butt"/><text transform="translate(180.5,182.5) scale(0.5,0.5)" font-size="40" xml:space="preserve" fill="#ffffff" fill-rule="nonzero" stroke="none" stroke-width="1" stroke-linecap="butt" stroke-linejoin="miter" stroke-miterlimit="10" stroke-dasharray="" stroke-dashoffset="0" font-family="Marker" font-weight="normal" text-anchor="start" style="mix-blend-mode: normal"><tspan x="0" dy="0">COMING SOON</tspan></text><text transform="translate(-144.5,139.5) scale(0.5,0.5)" font-size="40" xml:space="preserve" fill="#ffffff" fill-rule="nonzero" stroke="none" stroke-width="1" stroke-linecap="butt" stroke-linejoin="miter" stroke-miterlimit="10" stroke-dasharray="" stroke-dashoffset="0" font-family="Marker" font-weight="normal" text-anchor="start" style="mix-blend-mode: normal"><tspan x="0" dy="0"> </tspan></text></g></g></svg>