<svg version="1.1" xmlns="http://www.w3.org/2000/svg" xmlns:xlink="http://www.w3.org/1999/xlink" width="697.54506" height="446.79916" viewBox="0,0,697.54506,446.79916"><defs><linearGradient x1="242.35367" y1="-37.39564" x2="242.35367" y2="407.40352" gradientUnits="userSpaceOnUse" id="color-1"><stop offset="0" stop-color="#66ffd9"/><stop offset="1" stop-color="#66ffd9" stop-opacity="0"/></linearGradient><linearGradient x1="295.47324" y1="189.23217" x2="620.15679" y2="241.28014" gradientUnits="userSpaceOnUse" id="color-2"><stop offset="0" stop-color="#07d100"/><stop offset="1" stop-color="#07d100" stop-opacity="0"/></linearGradient></defs><g transform="translate(53.97857,38.39564)"><g data-paper-data="{&quot;isPaintingLayer&quot;:true}" fill-rule="nonzero" stroke-linejoin="miter" stroke-miterlimit="10" stroke-dasharray="" stroke-dashoffset="0" style="mix-blend-mode: normal"><path d="M-52.97857,407.40352v-444.79916h590.66448v444.79916z" fill="url(#color-1)" stroke="#000000" stroke-width="2" stroke-linecap="butt"/><path d="M300.58942,110.57734l12.12029,-3.45477l37.47775,2.9715l0.91179,36.09895c-0.83808,7.78969 -2.03786,18.44203 -3.04098,25.41533c-1.89956,13.20497 -7.78522,46.4953 -7.78522,46.4953l-54.57046,-7.0599c0,0 3.59415,-33.41502 5.58187,-47.84346c0.49482,-3.59187 1.18892,-7.9728 1.91849,-12.34778l2.76953,-15.99954z" fill="#07d100" stroke="#07b700" stroke-width="4" stroke-linecap="round"/><path d="M295.72345,130.12648c-8.90381,3.11454 -20.25355,7.69853 -25.71171,12.40779c-9.05677,7.81411 -18.34628,32.34781 -18.34628,32.34781l-24.03324,1.36937c0,0 13.15179,-28.39151 26.44748,-39.83346c9.18981,-7.90854 20.57239,-11.07092 24.91086,-14.11299c5.60637,-3.93111 13.53343,-8.448 17.91628,-10.87433z" fill="#07d100" stroke="#07b700" stroke-width="4" stroke-linecap="round"/><path d="M353.46321,112.91936l6.303,0.75273l20.03424,11.13893l52.00655,70.69386l-16.0505,13.4073c0,0 -24.6088,-32.96832 -24.86919,-33.40946c-4.10736,-6.95881 -12.14702,-15.4831 -14.84958,-19.5179c-5.01388,-7.48554 -16.37198,-16.60229 -16.37198,-16.60229l-12.00676,-5.0674z" data-paper-data="{&quot;index&quot;:null}" fill="#07d100" stroke="#07b700" stroke-width="4" stroke-linecap="round"/><path d="M339.71163,217.65731l25.75267,25.65246c-2.67161,0.58714 -5.3438,1.17364 -7.98513,1.87454c-4.04908,1.07445 -8.03026,2.42447 -12.12809,3.29473c-1.49179,0.31681 -2.98582,-0.62883 -4.49166,-0.87022c0,0 -1.33666,-0.21427 -2.92858,0.13345l-21.54395,-13.04351l-18.37858,-3.28375l-14.72009,15.61902c-0.9009,0.05453 -1.80229,0.09555 -2.70449,0.11361c-6.39405,0.12801 -12.86317,-0.58949 -19.29558,-1.56554l23.81785,-34.76528z" fill="#07d100" stroke="#07b700" stroke-width="4" stroke-linecap="butt"/><path d="M346.05365,313.88015l-14.38882,-5.0073l11.93206,-57.30151c2.75535,-0.52903 5.93046,-1.53099 11.40594,-2.91807c3.05473,-0.77384 6.13805,-1.44384 9.21392,-2.13983z" fill="#07d100" stroke="#07b700" stroke-width="4" stroke-linecap="butt"/><path d="M278.08134,336.7692l-12.39561,-2.69976l-5.22881,-85.106c5.87304,0.89861 11.77832,1.61841 17.6534,1.78309z" fill="#07d100" stroke="#07b700" stroke-width="4" stroke-linecap="butt"/><path d="M345.00687,336.49304c-12.20782,-4.02256 -20.21076,-13.02978 -17.87508,-20.11819c2.33569,-7.08841 14.12551,-9.57376 26.33333,-5.5512c12.20782,4.02256 24.03546,20.6137 21.69978,27.70211c-2.33568,7.08841 -17.95021,1.98984 -30.15803,-2.03271z" fill="#000000" stroke="#000000" stroke-width="4" stroke-linecap="butt"/><path d="M234.80379,354.54396c-0.00299,-7.46331 18.61355,-23.73616 31.46702,-23.7413c12.85348,-0.00514 23.2757,6.0409 23.27868,13.50419c0.00298,7.46331 -10.41439,13.51769 -23.26786,13.52283c-12.85348,0.00514 -31.47486,4.17757 -31.47784,-3.28573z" data-paper-data="{&quot;index&quot;:null}" fill="#000000" stroke="#000000" stroke-width="4" stroke-linecap="butt"/><path d="M326.24593,115.84464c-19.85241,-3.18242 -32.96194,-24.37718 -29.93571,-43.25525c3.02622,-18.87806 21.57302,-31.6019 41.42544,-28.41948c19.85241,3.18242 33.49274,21.06596 30.46651,39.94403c-3.02622,18.87806 -22.10382,34.91312 -41.95624,31.7307z" fill="#07d100" stroke="#07b700" stroke-width="4" stroke-linecap="butt"/><path d="M298.28994,89.87133c0,0 -1.51657,-10.45917 -0.97113,-15.30393c0.52068,-4.62491 4.17294,-13.1357 4.17294,-13.1357l64.83507,10.3933c0,0 1.32337,9.69816 0.20945,14.31154c-1.12929,4.67707 -6.9397,13.56246 -6.9397,13.56246z" fill="#07b700" stroke="#07b700" stroke-width="4" stroke-linecap="butt"/><text transform="translate(312.65319,175.72759) rotate(9.10711) scale(0.5,0.5)" font-size="40" xml:space="preserve" fill="#07d100" fill-rule="nonzero" stroke="#07b700" stroke-width="2" stroke-linecap="butt" stroke-linejoin="miter" stroke-miterlimit="10" stroke-dasharray="" stroke-dashoffset="0" font-family="Sans Serif" font-weight="normal" text-anchor="start" style="mix-blend-mode: normal"><tspan x="0" dy="0">C</tspan></text><path d="M348.16136,306.40627l14.1242,-67.00644l-21.76354,-23.77024c0,0 -2.3541,-64.2718 11.65071,-78.02489c12.36473,-12.14248 63.73498,72.79184 63.73498,72.79184l16.85209,-14.16873c0,0 -56.68131,-63.97309 -55.12836,-73.66063c0.71094,-4.43497 -69.28231,-13.65684 -68.7303,-17.10041c0.95839,-5.97857 14.4697,12.08389 29.96482,9.26893c15.82705,-2.87526 30.67879,-27.09823 31.60152,-32.85439c1.05486,-6.5804 -4.23,-25.03054 -16.87396,-32.61206c-14.91416,-8.94276 -34.71058,-6.07056 -34.71058,-6.07056l324.68355,52.04797l-46.81941,292.06694c0,0 -168.65657,-30.75925 -211.98695,-44.86202c-9.50283,-3.09289 -6.7854,-9.39137 -12.24178,-16.9757c-6.17897,-8.58873 -24.357,-19.06962 -24.357,-19.06962z" fill="url(#color-2)" stroke="none" stroke-width="0" stroke-linecap="butt"/></g></g></svg>