<svg version="1.1" xmlns="http://www.w3.org/2000/svg" xmlns:xlink="http://www.w3.org/1999/xlink" width="610.47704" height="472" viewBox="0,0,610.47704,472"><g transform="translate(43.97704,45)"><g data-paper-data="{&quot;isPaintingLayer&quot;:true}" fill-rule="nonzero" stroke-linejoin="miter" stroke-miterlimit="10" stroke-dasharray="" stroke-dashoffset="0" style="mix-blend-mode: normal"><path d="M-34.5,427v-472h601v472z" fill="#0f0084" stroke="none" stroke-width="0" stroke-linecap="butt"/><path d="M212.56089,162.00391c-0.23874,-5.27516 -2.0327,-44.9135 -2.27144,-50.18866c5.16424,0.37594 9.47557,1.0884 9.52067,2.08496c0.03624,0.80065 0.07513,1.65993 0.11182,2.47078c0.03166,0.69953 0.06169,1.36302 0.08697,1.92172c0.05654,1.24931 1.69583,37.47017 1.77264,39.16749c0.09924,2.19279 0.18637,4.11796 0.18637,4.11796z" data-paper-data="{&quot;index&quot;:null}" fill="#00b7ff" stroke="none" stroke-width="0" stroke-linecap="butt"/><path d="M181.72505,111.59992c5.3981,0 13.37403,0 21.22673,0c2.53933,0 5.06578,0.04752 7.48799,0.13368c0.03035,9.76636 0.56659,81.86198 0.84435,91.62823h-13.36418c-0.73929,-0.08813 -1.80349,-0.14984 -3.33494,-0.14134c-1.33078,0.00738 -2.27934,0.06369 -2.95531,0.14134h-23.93107c0,-9.54474 0,-81.42281 0,-90.96755c4.95569,-0.50385 10.00376,-0.79436 14.02644,-0.79436z" fill="#00b7ff" stroke="none" stroke-width="0" stroke-linecap="butt"/><path d="M150.80259,157.31619c0,0 0.71592,-1.78923 1.53137,-3.82718c0.63118,-1.57746 14.10084,-35.2406 14.56543,-36.4017c0.20776,-0.51924 0.4545,-1.13589 0.71463,-1.78602c0.30154,-0.7536 0.62108,-1.55219 0.91882,-2.2963c0.3706,-0.92619 4.6762,-0.17992 9.67644,1.16484c-1.96171,4.90265 -16.70221,41.74195 -18.66392,46.6446z" fill="#00b7ff" stroke="none" stroke-width="0" stroke-linecap="butt"/><path d="M213.8901,191.37384c-0.18267,-4.03617 -1.55527,-34.36455 -1.73794,-38.40072c5.15777,0.23304 9.45947,0.73277 9.49398,1.49526c0.02772,0.6126 0.05748,1.27006 0.08556,1.89046c0.02422,0.53523 0.0472,1.04288 0.06655,1.47036c0.04326,0.95588 1.29752,28.66946 1.3563,29.96812c0.07593,1.67776 0.1426,3.15077 0.1426,3.15077z" data-paper-data="{&quot;index&quot;:null}" fill="#00b7ff" stroke="none" stroke-width="0" stroke-linecap="butt"/><path d="M218.55281,205.93507c-4.57928,0.20725 -8.45386,-3.21185 -8.65412,-7.63677c-0.20027,-4.42492 3.34962,-8.18003 7.9289,-8.38728c4.57928,-0.20725 8.45386,3.21185 8.65412,7.63677c0.20027,4.42492 -3.34962,8.18003 -7.9289,8.38728z" fill="#00b7ff" stroke="none" stroke-width="0" stroke-linecap="butt"/><path d="M189.10644,119.34387c-14.08326,0 -24.66049,-16.14994 -24.66049,-30.11729c0,-13.96734 11.41674,-25.29011 25.5,-25.29011c14.08326,0 25.5,11.32277 25.5,25.29012c0,13.96735 -12.25625,30.11729 -26.33951,30.11729z" fill="#00e5ff" stroke="none" stroke-width="0" stroke-linecap="butt"/><path d="M169.19804,85.4493l11.7255,-0.42403l-2.21236,11.41208l6.32366,1.40116l-10.28747,1.56709l2.21236,-11.15397z" fill="none" stroke="#fffb00" stroke-width="2" stroke-linecap="round"/><path d="M201.35648,88.09421l2.21237,11.15398l-10.28747,-1.56708l6.32366,-1.40116l-2.21236,-11.41209l11.72549,0.42404z" data-paper-data="{&quot;index&quot;:null}" fill="none" stroke="#fffb00" stroke-width="2" stroke-linecap="round"/><g fill="#00b7ff" stroke="none" stroke-width="0" stroke-linecap="butt"><path d="M126.8933,138.44494c0,0 1.39798,0.46884 2.9903,1.00287c1.23253,0.41336 27.5347,9.23442 28.4419,9.53868c0.40571,0.13606 0.88751,0.29765 1.39548,0.46801c0.5888,0.19747 1.21277,0.40674 1.79418,0.60172c0.72367,0.24269 0.02215,4.51613 -1.17102,9.5394c-3.83061,-1.28469 -32.61443,-10.93803 -36.44504,-12.22271z"/><path d="M111.72957,138.27394c1.45756,-4.34607 6.04355,-6.72749 10.24312,-5.31906c4.19957,1.40842 6.4224,6.07335 4.96485,10.41942c-1.45756,4.34607 -6.04355,6.72749 -10.24313,5.31907c-4.19957,-1.40842 -6.4224,-6.07336 -4.96485,-10.41942z"/></g><path d="M-12.80196,66.49761l68.36578,-2.47234l-12.89921,66.53837l36.87023,8.1695l-59.98131,9.13692l12.89921,-65.03346z" fill="none" stroke="#fffb00" stroke-width="12" stroke-linecap="round"/><path d="M156.45,117.5c0,-0.13807 0.11193,-0.25 0.25,-0.25c0.13807,0 0.25,0.11193 0.25,0.25c0,0.13807 -0.11193,0.25 -0.25,0.25c-0.13807,0 -0.25,-0.11193 -0.25,-0.25z" fill="#ffffff" stroke="none" stroke-width="0.5" stroke-linecap="butt"/><path d="M135,300c-33.41323,0 -60.5,-15.67003 -60.5,-35c0,-19.32997 27.08677,-35 60.5,-35c33.41323,0 60.5,15.67003 60.5,35c0,19.32997 -27.08677,35 -60.5,35z" fill="#eeeeee" stroke="none" stroke-width="0" stroke-linecap="butt"/><path d="M144.5,248c0,-27.61424 24.40048,-50 54.5,-50c30.09952,0 54.5,22.38576 54.5,50c0,27.61424 -24.40048,50 -54.5,50c-30.09952,0 -54.5,-22.38576 -54.5,-50z" fill="#eeeeee" stroke="none" stroke-width="0" stroke-linecap="butt"/><path d="M259.5,253c33.68937,0 61,10.07359 61,22.5c0,12.42641 -27.31063,22.5 -61,22.5c-33.68937,0 -61,-10.07359 -61,-22.5c0,-12.42641 27.31063,-22.5 61,-22.5z" fill="#eeeeee" stroke="none" stroke-width="0" stroke-linecap="butt"/><path d="M257.5,177c22.09139,0 40,23.05734 40,51.5c0,28.44266 -17.90861,51.5 -40,51.5c-22.09139,0 -40,-23.05734 -40,-51.5c0,-28.44266 17.90861,-51.5 40,-51.5z" fill="#eeeeee" stroke="none" stroke-width="0" stroke-linecap="butt"/><path d="M128.5,278c-39.21222,0 -71,-20.14719 -71,-45c0,-24.85281 31.78778,-45 71,-45c39.21222,0 71,20.14719 71,45c0,24.85281 -31.78778,45 -71,45z" fill="#eeeeee" stroke="none" stroke-width="0" stroke-linecap="butt"/><path d="M302.5,208c32.5848,0 59,14.7746 59,33c0,18.2254 -26.4152,33 -59,33c-32.5848,0 -59,-14.7746 -59,-33c0,-18.2254 26.4152,-33 59,-33z" fill="#eeeeee" stroke="none" stroke-width="0" stroke-linecap="butt"/><path d="M155,315c-35.07008,0 -63.5,-14.7746 -63.5,-33c0,-18.2254 28.42992,-33 63.5,-33c35.07008,0 63.5,14.7746 63.5,33c0,18.2254 -28.42992,33 -63.5,33z" fill="#eeeeee" stroke="none" stroke-width="0" stroke-linecap="butt"/><path d="M181.5,282c0,-13.80712 27.9822,-25 62.5,-25c34.5178,0 62.5,11.19288 62.5,25c0,13.80712 -27.9822,25 -62.5,25c-34.5178,0 -62.5,-11.19288 -62.5,-25z" fill="#eeeeee" stroke="none" stroke-width="0" stroke-linecap="butt"/></g></g></svg>