<svg version="1.1" xmlns="http://www.w3.org/2000/svg" xmlns:xlink="http://www.w3.org/1999/xlink" width="987.97297" height="676.72854" viewBox="0,0,987.97297,676.72854"><defs><radialGradient cx="219" cy="128.85156" r="158.5" gradientUnits="userSpaceOnUse" id="color-1"><stop offset="0" stop-color="#faa500"/><stop offset="1" stop-color="#faa500" stop-opacity="0"/></radialGradient><radialGradient cx="101.39564" cy="246.37943" r="100.6006" gradientUnits="userSpaceOnUse" id="color-2"><stop offset="0" stop-color="#ffa000"/><stop offset="1" stop-color="#ffa000" stop-opacity="0"/></radialGradient><radialGradient cx="275.05931" cy="248.39145" r="100.6006" gradientUnits="userSpaceOnUse" id="color-3"><stop offset="0" stop-color="#ffa000"/><stop offset="1" stop-color="#ffa000" stop-opacity="0"/></radialGradient><radialGradient cx="450.22447" cy="247.40045" r="100.6006" gradientUnits="userSpaceOnUse" id="color-4"><stop offset="0" stop-color="#ffa000"/><stop offset="1" stop-color="#ffa000" stop-opacity="0"/></radialGradient><radialGradient cx="364.14339" cy="250.89895" r="100.6006" gradientUnits="userSpaceOnUse" id="color-5"><stop offset="0" stop-color="#ffa000"/><stop offset="1" stop-color="#ffa000" stop-opacity="0"/></radialGradient><radialGradient cx="188.97822" cy="250.38844" r="100.6006" gradientUnits="userSpaceOnUse" id="color-6"><stop offset="0" stop-color="#ffa000"/><stop offset="1" stop-color="#ffa000" stop-opacity="0"/></radialGradient><radialGradient cx="5.29955" cy="243.37642" r="100.6006" gradientUnits="userSpaceOnUse" id="color-7"><stop offset="0" stop-color="#ffa000"/><stop offset="1" stop-color="#ffa000" stop-opacity="0"/></radialGradient><radialGradient cx="48.39564" cy="277.37943" r="100.6006" gradientUnits="userSpaceOnUse" id="color-8"><stop offset="0" stop-color="#ffa000"/><stop offset="1" stop-color="#ffa000" stop-opacity="0"/></radialGradient><radialGradient cx="222.05931" cy="279.39144" r="100.6006" gradientUnits="userSpaceOnUse" id="color-9"><stop offset="0" stop-color="#ffa000"/><stop offset="1" stop-color="#ffa000" stop-opacity="0"/></radialGradient><radialGradient cx="397.22447" cy="278.40044" r="100.6006" gradientUnits="userSpaceOnUse" id="color-10"><stop offset="0" stop-color="#ffa000"/><stop offset="1" stop-color="#ffa000" stop-opacity="0"/></radialGradient><radialGradient cx="311.14339" cy="281.89895" r="100.6006" gradientUnits="userSpaceOnUse" id="color-11"><stop offset="0" stop-color="#ffa000"/><stop offset="1" stop-color="#ffa000" stop-opacity="0"/></radialGradient><radialGradient cx="135.97822" cy="281.38844" r="100.6006" gradientUnits="userSpaceOnUse" id="color-12"><stop offset="0" stop-color="#ffa000"/><stop offset="1" stop-color="#ffa000" stop-opacity="0"/></radialGradient><radialGradient cx="-47.70045" cy="274.3764" r="100.6006" gradientUnits="userSpaceOnUse" id="color-13"><stop offset="0" stop-color="#ffa000"/><stop offset="1" stop-color="#ffa000" stop-opacity="0"/></radialGradient><radialGradient cx="187.39564" cy="318.37943" r="100.6006" gradientUnits="userSpaceOnUse" id="color-14"><stop offset="0" stop-color="#ffa000"/><stop offset="1" stop-color="#ffa000" stop-opacity="0"/></radialGradient><radialGradient cx="361.05931" cy="320.39144" r="100.6006" gradientUnits="userSpaceOnUse" id="color-15"><stop offset="0" stop-color="#ffa000"/><stop offset="1" stop-color="#ffa000" stop-opacity="0"/></radialGradient><radialGradient cx="536.22447" cy="319.40044" r="100.6006" gradientUnits="userSpaceOnUse" id="color-16"><stop offset="0" stop-color="#ffa000"/><stop offset="1" stop-color="#ffa000" stop-opacity="0"/></radialGradient><radialGradient cx="450.14339" cy="322.89895" r="100.6006" gradientUnits="userSpaceOnUse" id="color-17"><stop offset="0" stop-color="#ffa000"/><stop offset="1" stop-color="#ffa000" stop-opacity="0"/></radialGradient><radialGradient cx="274.97822" cy="322.38844" r="100.6006" gradientUnits="userSpaceOnUse" id="color-18"><stop offset="0" stop-color="#ffa000"/><stop offset="1" stop-color="#ffa000" stop-opacity="0"/></radialGradient><radialGradient cx="91.29955" cy="315.3764" r="100.6006" gradientUnits="userSpaceOnUse" id="color-19"><stop offset="0" stop-color="#ffa000"/><stop offset="1" stop-color="#ffa000" stop-opacity="0"/></radialGradient><radialGradient cx="134.39564" cy="349.37943" r="100.6006" gradientUnits="userSpaceOnUse" id="color-20"><stop offset="0" stop-color="#ffa000"/><stop offset="1" stop-color="#ffa000" stop-opacity="0"/></radialGradient><radialGradient cx="308.05931" cy="351.39145" r="100.6006" gradientUnits="userSpaceOnUse" id="color-21"><stop offset="0" stop-color="#ffa000"/><stop offset="1" stop-color="#ffa000" stop-opacity="0"/></radialGradient><radialGradient cx="483.22447" cy="350.40044" r="100.6006" gradientUnits="userSpaceOnUse" id="color-22"><stop offset="0" stop-color="#ffa000"/><stop offset="1" stop-color="#ffa000" stop-opacity="0"/></radialGradient><radialGradient cx="397.14339" cy="353.89895" r="100.6006" gradientUnits="userSpaceOnUse" id="color-23"><stop offset="0" stop-color="#ffa000"/><stop offset="1" stop-color="#ffa000" stop-opacity="0"/></radialGradient><radialGradient cx="221.97822" cy="353.38844" r="100.6006" gradientUnits="userSpaceOnUse" id="color-24"><stop offset="0" stop-color="#ffa000"/><stop offset="1" stop-color="#ffa000" stop-opacity="0"/></radialGradient><radialGradient cx="38.29955" cy="346.37643" r="100.6006" gradientUnits="userSpaceOnUse" id="color-25"><stop offset="0" stop-color="#ffa000"/><stop offset="1" stop-color="#ffa000" stop-opacity="0"/></radialGradient><radialGradient cx="96.39564" cy="241.37943" r="100.6006" gradientUnits="userSpaceOnUse" id="color-26"><stop offset="0" stop-color="#ffa000"/><stop offset="1" stop-color="#ffa000" stop-opacity="0"/></radialGradient><radialGradient cx="270.05931" cy="243.39145" r="100.6006" gradientUnits="userSpaceOnUse" id="color-27"><stop offset="0" stop-color="#ffa000"/><stop offset="1" stop-color="#ffa000" stop-opacity="0"/></radialGradient><radialGradient cx="445.22447" cy="242.40045" r="100.6006" gradientUnits="userSpaceOnUse" id="color-28"><stop offset="0" stop-color="#ffa000"/><stop offset="1" stop-color="#ffa000" stop-opacity="0"/></radialGradient><radialGradient cx="359.14339" cy="245.89895" r="100.6006" gradientUnits="userSpaceOnUse" id="color-29"><stop offset="0" stop-color="#ffa000"/><stop offset="1" stop-color="#ffa000" stop-opacity="0"/></radialGradient><radialGradient cx="183.97822" cy="245.38844" r="100.6006" gradientUnits="userSpaceOnUse" id="color-30"><stop offset="0" stop-color="#ffa000"/><stop offset="1" stop-color="#ffa000" stop-opacity="0"/></radialGradient><radialGradient cx="0.29955" cy="238.37641" r="100.6006" gradientUnits="userSpaceOnUse" id="color-31"><stop offset="0" stop-color="#ffa000"/><stop offset="1" stop-color="#ffa000" stop-opacity="0"/></radialGradient><radialGradient cx="43.39564" cy="272.37943" r="100.6006" gradientUnits="userSpaceOnUse" id="color-32"><stop offset="0" stop-color="#ffa000"/><stop offset="1" stop-color="#ffa000" stop-opacity="0"/></radialGradient><radialGradient cx="217.05931" cy="274.39144" r="100.6006" gradientUnits="userSpaceOnUse" id="color-33"><stop offset="0" stop-color="#ffa000"/><stop offset="1" stop-color="#ffa000" stop-opacity="0"/></radialGradient><radialGradient cx="392.22447" cy="273.40044" r="100.6006" gradientUnits="userSpaceOnUse" id="color-34"><stop offset="0" stop-color="#ffa000"/><stop offset="1" stop-color="#ffa000" stop-opacity="0"/></radialGradient><radialGradient cx="306.14339" cy="276.89895" r="100.6006" gradientUnits="userSpaceOnUse" id="color-35"><stop offset="0" stop-color="#ffa000"/><stop offset="1" stop-color="#ffa000" stop-opacity="0"/></radialGradient><radialGradient cx="130.97822" cy="276.38844" r="100.6006" gradientUnits="userSpaceOnUse" id="color-36"><stop offset="0" stop-color="#ffa000"/><stop offset="1" stop-color="#ffa000" stop-opacity="0"/></radialGradient><radialGradient cx="-52.70045" cy="269.3764" r="100.6006" gradientUnits="userSpaceOnUse" id="color-37"><stop offset="0" stop-color="#ffa000"/><stop offset="1" stop-color="#ffa000" stop-opacity="0"/></radialGradient><radialGradient cx="182.39564" cy="313.37943" r="100.6006" gradientUnits="userSpaceOnUse" id="color-38"><stop offset="0" stop-color="#ffa000"/><stop offset="1" stop-color="#ffa000" stop-opacity="0"/></radialGradient><radialGradient cx="356.05931" cy="315.39144" r="100.6006" gradientUnits="userSpaceOnUse" id="color-39"><stop offset="0" stop-color="#ffa000"/><stop offset="1" stop-color="#ffa000" stop-opacity="0"/></radialGradient><radialGradient cx="531.22447" cy="314.40044" r="100.6006" gradientUnits="userSpaceOnUse" id="color-40"><stop offset="0" stop-color="#ffa000"/><stop offset="1" stop-color="#ffa000" stop-opacity="0"/></radialGradient><radialGradient cx="445.14339" cy="317.89895" r="100.6006" gradientUnits="userSpaceOnUse" id="color-41"><stop offset="0" stop-color="#ffa000"/><stop offset="1" stop-color="#ffa000" stop-opacity="0"/></radialGradient><radialGradient cx="269.97822" cy="317.38844" r="100.6006" gradientUnits="userSpaceOnUse" id="color-42"><stop offset="0" stop-color="#ffa000"/><stop offset="1" stop-color="#ffa000" stop-opacity="0"/></radialGradient><radialGradient cx="86.29955" cy="310.3764" r="100.6006" gradientUnits="userSpaceOnUse" id="color-43"><stop offset="0" stop-color="#ffa000"/><stop offset="1" stop-color="#ffa000" stop-opacity="0"/></radialGradient><radialGradient cx="129.39564" cy="344.37943" r="100.6006" gradientUnits="userSpaceOnUse" id="color-44"><stop offset="0" stop-color="#ffa000"/><stop offset="1" stop-color="#ffa000" stop-opacity="0"/></radialGradient><radialGradient cx="303.05931" cy="346.39145" r="100.6006" gradientUnits="userSpaceOnUse" id="color-45"><stop offset="0" stop-color="#ffa000"/><stop offset="1" stop-color="#ffa000" stop-opacity="0"/></radialGradient><radialGradient cx="478.22447" cy="345.40044" r="100.6006" gradientUnits="userSpaceOnUse" id="color-46"><stop offset="0" stop-color="#ffa000"/><stop offset="1" stop-color="#ffa000" stop-opacity="0"/></radialGradient><radialGradient cx="392.14339" cy="348.89895" r="100.6006" gradientUnits="userSpaceOnUse" id="color-47"><stop offset="0" stop-color="#ffa000"/><stop offset="1" stop-color="#ffa000" stop-opacity="0"/></radialGradient><radialGradient cx="216.97822" cy="348.38844" r="100.6006" gradientUnits="userSpaceOnUse" id="color-48"><stop offset="0" stop-color="#ffa000"/><stop offset="1" stop-color="#ffa000" stop-opacity="0"/></radialGradient><radialGradient cx="33.29955" cy="341.37643" r="100.6006" gradientUnits="userSpaceOnUse" id="color-49"><stop offset="0" stop-color="#ffa000"/><stop offset="1" stop-color="#ffa000" stop-opacity="0"/></radialGradient><radialGradient cx="453.79762" cy="23.59833" r="6.32143" gradientUnits="userSpaceOnUse" id="color-50"><stop offset="0" stop-color="#ffb8b8"/><stop offset="1" stop-color="#ffb8b8" stop-opacity="0"/></radialGradient><radialGradient cx="474.08333" cy="23.24119" r="6.32143" gradientUnits="userSpaceOnUse" id="color-51"><stop offset="0" stop-color="#ffb8b8"/><stop offset="1" stop-color="#ffb8b8" stop-opacity="0"/></radialGradient><linearGradient x1="464.19048" y1="61.8905" x2="464.19048" y2="64.95716" gradientUnits="userSpaceOnUse" id="color-52"><stop offset="0" stop-color="#000000"/><stop offset="1" stop-color="#000000" stop-opacity="0"/></linearGradient><radialGradient cx="-30.76952" cy="372.56682" r="189.18919" gradientUnits="userSpaceOnUse" id="color-53"><stop offset="0" stop-color="#ffa000"/><stop offset="1" stop-color="#ffa000" stop-opacity="0"/></radialGradient><radialGradient cx="131.88814" cy="400.08935" r="189.18919" gradientUnits="userSpaceOnUse" id="color-54"><stop offset="0" stop-color="#ffa000"/><stop offset="1" stop-color="#ffa000" stop-opacity="0"/></radialGradient><radialGradient cx="284.03529" cy="411.09536" r="189.18919" gradientUnits="userSpaceOnUse" id="color-55"><stop offset="0" stop-color="#ffa000"/><stop offset="1" stop-color="#ffa000" stop-opacity="0"/></radialGradient><radialGradient cx="454.20045" cy="416.09535" r="189.18919" gradientUnits="userSpaceOnUse" id="color-56"><stop offset="0" stop-color="#ffa000"/><stop offset="1" stop-color="#ffa000" stop-opacity="0"/></radialGradient><radialGradient cx="578.82507" cy="390.56983" r="189.18919" gradientUnits="userSpaceOnUse" id="color-57"><stop offset="0" stop-color="#ffa000"/><stop offset="1" stop-color="#ffa000" stop-opacity="0"/></radialGradient></defs><g transform="translate(219.95871,88.89688)"><g data-paper-data="{&quot;isPaintingLayer&quot;:true}" fill-rule="nonzero" stroke-linejoin="miter" stroke-miterlimit="10" stroke-dasharray="" stroke-dashoffset="0" style="mix-blend-mode: normal"><path d="M-101.10769,476.7855v-565.68238h700.05589v565.68238z" fill="#002aaa" stroke="none" stroke-width="NaN" stroke-linecap="butt"/><path d="M377.5,128.85156c0,-62.13203 -70.96287,-112.5 -158.5,-112.5c-87.53713,0 -158.5,50.36797 -158.5,112.5c0,62.13203 70.96287,112.5 158.5,112.5c87.53713,0 158.5,-50.36797 158.5,-112.5z" fill="url(#color-1)" stroke="none" stroke-width="0" stroke-linecap="butt"/><path d="M26.33444,144.66359c0,-2.74225 2.22303,-4.96528 4.96528,-4.96528c2.74225,0 4.96528,2.22303 4.96528,4.96528c0,2.74225 -2.22303,4.96528 -4.96528,4.96528c-2.74225,0 -4.96528,-2.22303 -4.96528,-4.96528z" fill="#e4e4e4" stroke="none" stroke-width="0.5" stroke-linecap="butt"/><path d="M178.60296,213.07408c0,-2.74225 2.22303,-4.96528 4.96528,-4.96528c2.74225,0 4.96528,2.22303 4.96528,4.96528c0,2.74225 -2.22303,4.96528 -4.96528,4.96528c-2.74225,0 -4.96528,-2.22303 -4.96528,-4.96528z" fill="#e4e4e4" stroke="none" stroke-width="0.5" stroke-linecap="butt"/><path d="M200.67086,167.83489c0,-2.74225 2.22303,-4.96528 4.96528,-4.96528c2.74225,0 4.96528,2.22303 4.96528,4.96528c0,2.74225 -2.22303,4.96528 -4.96528,4.96528c-2.74225,0 -4.96528,-2.22303 -4.96528,-4.96528z" fill="#e4e4e4" stroke="none" stroke-width="0.5" stroke-linecap="butt"/><path d="M98.05512,163.4213c0,-2.74225 2.22303,-4.96528 4.96528,-4.96528c2.74225,0 4.96528,2.22303 4.96528,4.96528c0,2.74225 -2.22303,4.96528 -4.96528,4.96528c-2.74225,0 -4.96528,-2.22303 -4.96528,-4.96528z" fill="#e4e4e4" stroke="none" stroke-width="0.5" stroke-linecap="butt"/><path d="M104.67549,87.28705c0,-2.74225 2.22303,-4.96528 4.96528,-4.96528c2.74225,0 4.96528,2.22303 4.96528,4.96528c0,2.74225 -2.22303,4.96528 -4.96528,4.96528c-2.74225,0 -4.96528,-2.22303 -4.96528,-4.96528z" fill="#e4e4e4" stroke="none" stroke-width="0.5" stroke-linecap="butt"/><path d="M347.4224,172.24847c0,-2.74225 2.22303,-4.96528 4.96528,-4.96528c2.74225,0 4.96528,2.22303 4.96528,4.96528c0,2.74225 -2.22303,4.96528 -4.96528,4.96528c-2.74225,0 -4.96528,-2.22303 -4.96528,-4.96528z" fill="#e4e4e4" stroke="none" stroke-width="0.5" stroke-linecap="butt"/><path d="M390.45481,416.09878c0,-2.74225 2.22303,-4.96528 4.96528,-4.96528c2.74225,0 4.96528,2.22303 4.96528,4.96528c0,2.74225 -2.22303,4.96528 -4.96528,4.96528c-2.74225,0 -4.96528,-2.22303 -4.96528,-4.96528z" fill="#e4e4e4" stroke="none" stroke-width="0.5" stroke-linecap="butt"/><path d="M340.80203,250.58952c0,-2.74225 2.22303,-4.96528 4.96528,-4.96528c2.74225,0 4.96528,2.22303 4.96528,4.96528c0,2.74225 -2.22303,4.96528 -4.96528,4.96528c-2.74225,0 -4.96528,-2.22303 -4.96528,-4.96528z" fill="#e4e4e4" stroke="none" stroke-width="0.5" stroke-linecap="butt"/><path d="M209.49802,270.45063c0,-2.74225 2.22303,-4.96528 4.96528,-4.96528c2.74225,0 4.96528,2.22303 4.96528,4.96528c0,2.74225 -2.22303,4.96528 -4.96528,4.96528c-2.74225,0 -4.96528,-2.22303 -4.96528,-4.96528z" fill="#e4e4e4" stroke="none" stroke-width="0.5" stroke-linecap="butt"/><path d="M91.43475,219.69445c0,-2.74225 2.22303,-4.96528 4.96528,-4.96528c2.74225,0 4.96528,2.22303 4.96528,4.96528c0,2.74225 -2.22303,4.96528 -4.96528,4.96528c-2.74225,0 -4.96528,-2.22303 -4.96528,-4.96528z" fill="#e4e4e4" stroke="none" stroke-width="0.5" stroke-linecap="butt"/><path d="M250.32364,109.35495c0,-2.74225 2.22303,-4.96528 4.96528,-4.96528c2.74225,0 4.96528,2.22303 4.96528,4.96528c0,2.74225 -2.22303,4.96528 -4.96528,4.96528c-2.74225,0 -4.96528,-2.22303 -4.96528,-4.96528z" fill="#e4e4e4" stroke="none" stroke-width="0.5" stroke-linecap="butt"/><path d="M372.80049,104.94137c0,-2.74225 2.22303,-4.96528 4.96528,-4.96528c2.74225,0 4.96528,2.22303 4.96528,4.96528c0,2.74225 -2.22303,4.96528 -4.96528,4.96528c-2.74225,0 -4.96528,-2.22303 -4.96528,-4.96528z" fill="#e4e4e4" stroke="none" stroke-width="0.5" stroke-linecap="butt"/><path d="M474.31284,281.48458c0,-2.74225 2.22303,-4.96528 4.96528,-4.96528c2.74225,0 4.96528,2.22303 4.96528,4.96528c0,2.74225 -2.22303,4.96528 -4.96528,4.96528c-2.74225,0 -4.96528,-2.22303 -4.96528,-4.96528z" fill="#e4e4e4" stroke="none" stroke-width="0.5" stroke-linecap="butt"/><path d="M192.94709,81.77007c0,-2.74225 2.22303,-4.96528 4.96528,-4.96528c2.74225,0 4.96528,2.22303 4.96528,4.96528c0,2.74225 -2.22303,4.96528 -4.96528,4.96528c-2.74225,0 -4.96528,-2.22303 -4.96528,-4.96528z" fill="#e4e4e4" stroke="none" stroke-width="0.5" stroke-linecap="butt"/><path d="M313.21716,100.52779c0,-2.74225 2.22303,-4.96528 4.96528,-4.96528c2.74225,0 4.96528,2.22303 4.96528,4.96528c0,2.74225 -2.22303,4.96528 -4.96528,4.96528c-2.74225,0 -4.96528,-2.22303 -4.96528,-4.96528z" fill="#e4e4e4" stroke="none" stroke-width="0.5" stroke-linecap="butt"/><path d="M331.97487,51.97841c0,-2.74225 2.22303,-4.96528 4.96528,-4.96528c2.74225,0 4.96528,2.22303 4.96528,4.96528c0,2.74225 -2.22303,4.96528 -4.96528,4.96528c-2.74225,0 -4.96528,-2.22303 -4.96528,-4.96528z" fill="#e4e4e4" stroke="none" stroke-width="0.5" stroke-linecap="butt"/><path d="M465.48568,68.52933c0,-2.74225 2.22303,-4.96528 4.96528,-4.96528c2.74225,0 4.96528,2.22303 4.96528,4.96528c0,2.74225 -2.22303,4.96528 -4.96528,4.96528c-2.74225,0 -4.96528,-2.22303 -4.96528,-4.96528z" fill="#e4e4e4" stroke="none" stroke-width="0.5" stroke-linecap="butt"/><path d="M61.64308,65.21915c0,-2.74225 2.22303,-4.96528 4.96528,-4.96528c2.74225,0 4.96528,2.22303 4.96528,4.96528c0,2.74225 -2.22303,4.96528 -4.96528,4.96528c-2.74225,0 -4.96528,-2.22303 -4.96528,-4.96528z" fill="#e4e4e4" stroke="none" stroke-width="0.5" stroke-linecap="butt"/><path d="M-118.76201,498.85341v-125.78704h715v125.78704z" fill="#a8a8a8" stroke="none" stroke-width="0" stroke-linecap="butt"/><g><g data-paper-data="{&quot;index&quot;:null}"><path d="M0.79504,246.37943c0,-50.4347 45.04042,-91.3201 100.6006,-91.3201c55.56018,0 100.6006,40.8854 100.6006,91.3201c0,50.4347 -45.04042,91.3201 -100.6006,91.3201c-55.56018,0 -100.6006,-40.8854 -100.6006,-91.3201z" fill="url(#color-2)" stroke="none" stroke-width="0" stroke-linecap="butt"/><path d="M102.25873,233.50738" fill="none" stroke="#ff00f7" stroke-width="4.5" stroke-linecap="round"/><path d="M67.54892,275.55295c0,0 -2.33343,-20.20417 -2.33343,-31.32291c0,-12.66249 2.33343,-40.62459 2.33343,-40.62459l15.16731,27.61228l10.26201,-35.10653l13.34074,22.78186l14.1914,-27.43124l8.06305,30.34098l9.17291,-18.19734c0,0 1.55562,29.86648 1.55562,42.76357c0,10.65434 -1.55562,29.18392 -1.55562,29.18392z" fill="#fbff00" stroke="#fbff00" stroke-width="6" stroke-linecap="butt"/></g><g data-paper-data="{&quot;index&quot;:null}"><path d="M275.05931,339.71155c-55.56018,0 -100.6006,-40.8854 -100.6006,-91.3201c0,-50.4347 45.04042,-91.3201 100.6006,-91.3201c55.56018,0 100.6006,40.8854 100.6006,91.3201c0,50.4347 -45.04042,91.3201 -100.6006,91.3201z" fill="url(#color-3)" stroke="none" stroke-width="0" stroke-linecap="butt"/><path d="M274.19622,235.5194" fill="none" stroke="#ff00f7" stroke-width="4.5" stroke-linecap="round"/><path d="M238.70861,277.56495c0,0 -1.55563,-18.52958 -1.55563,-29.18392c0,-12.89709 1.55563,-42.76357 1.55563,-42.76357l9.17291,18.19734l8.06305,-30.34098l14.1914,27.43124l13.34074,-22.78186l10.26201,35.10653l15.16731,-27.61228c0,0 2.33343,27.9621 2.33343,40.62459c0,11.11874 -2.33343,31.32291 -2.33343,31.32291z" fill="#fbff00" stroke="#fbff00" stroke-width="6" stroke-linecap="butt"/></g><g data-paper-data="{&quot;index&quot;:null}"><path d="M450.22447,338.72055c-55.56018,0 -100.6006,-40.8854 -100.6006,-91.3201c0,-50.4347 45.04042,-91.3201 100.6006,-91.3201c55.56018,0 100.6006,40.8854 100.6006,91.3201c0,50.4347 -45.04042,91.3201 -100.6006,91.3201z" fill="url(#color-4)" stroke="none" stroke-width="0" stroke-linecap="butt"/><path d="M449.36138,234.5284" fill="none" stroke="#ff00f7" stroke-width="4.5" stroke-linecap="round"/><path d="M413.87377,276.57394c0,0 -1.55562,-18.52958 -1.55562,-29.18393c0,-12.8971 1.55562,-42.76357 1.55562,-42.76357l9.17291,18.19735l8.06305,-30.34098l14.1914,27.43124l13.34074,-22.78186l10.26201,35.10653l15.16731,-27.61228c0,0 2.33343,27.9621 2.33343,40.62459c0,11.11874 -2.33343,31.32291 -2.33343,31.32291z" fill="#fbff00" stroke="#fbff00" stroke-width="6" stroke-linecap="butt"/></g><g data-paper-data="{&quot;index&quot;:null}"><path d="M364.14339,342.21904c-55.56018,0 -100.6006,-40.8854 -100.6006,-91.3201c0,-50.4347 45.04042,-91.3201 100.6006,-91.3201c55.56018,0 100.6006,40.8854 100.6006,91.3201c0,50.4347 -45.04042,91.3201 -100.6006,91.3201z" fill="url(#color-5)" stroke="none" stroke-width="0" stroke-linecap="butt"/><path d="M363.2803,238.0269" fill="none" stroke="#ff00f7" stroke-width="4.5" stroke-linecap="round"/><path d="M327.7927,280.07248c0,0 -1.55563,-18.52959 -1.55563,-29.18393c0,-12.8971 1.55563,-42.76357 1.55563,-42.76357l9.1729,18.19734l8.06305,-30.34098l14.1914,27.43124l13.34074,-22.78186l10.26201,35.10653l15.16731,-27.61228c0,0 2.33343,27.96209 2.33343,40.62458c0,11.11874 -2.33343,31.32291 -2.33343,31.32291z" fill="#fbff00" stroke="#fbff00" stroke-width="6" stroke-linecap="butt"/></g><g data-paper-data="{&quot;index&quot;:null}"><path d="M188.97822,341.70854c-55.56018,0 -100.6006,-40.8854 -100.6006,-91.3201c0,-50.4347 45.04042,-91.3201 100.6006,-91.3201c55.56018,0 100.6006,40.8854 100.6006,91.3201c0,50.4347 -45.04042,91.3201 -100.6006,91.3201z" fill="url(#color-6)" stroke="none" stroke-width="0" stroke-linecap="butt"/><path d="M188.11514,237.51639" fill="none" stroke="#ff00f7" stroke-width="4.5" stroke-linecap="round"/><path d="M152.62751,279.56192c0,0 -1.55562,-18.52958 -1.55562,-29.18392c0,-12.89709 1.55562,-42.76357 1.55562,-42.76357l9.17291,18.19735l8.06305,-30.34098l14.1914,27.43124l13.34075,-22.78186l10.26201,35.10653l15.16731,-27.61228c0,0 2.33343,27.9621 2.33343,40.62459c0,11.11874 -2.33343,31.32291 -2.33343,31.32291z" fill="#fbff00" stroke="#fbff00" stroke-width="6" stroke-linecap="butt"/></g><g data-paper-data="{&quot;index&quot;:null}"><path d="M5.29955,334.69651c-55.56018,0 -100.6006,-40.8854 -100.6006,-91.3201c0,-50.4347 45.04042,-91.3201 100.6006,-91.3201c55.56018,0 100.6006,40.8854 100.6006,91.3201c0,50.4347 -45.04042,91.3201 -100.6006,91.3201z" fill="url(#color-7)" stroke="none" stroke-width="0" stroke-linecap="butt"/><path d="M4.43646,230.50436" fill="none" stroke="#ff00f7" stroke-width="4.5" stroke-linecap="round"/><path d="M-31.05114,272.54992c0,0 -1.55562,-18.52958 -1.55562,-29.18392c0,-12.89709 1.55562,-42.76357 1.55562,-42.76357l9.1729,18.19734l8.06305,-30.34098l14.1914,27.43124l13.34074,-22.78186l10.26201,35.10653l15.16731,-27.61228c0,0 2.33343,27.9621 2.33343,40.62459c0,11.11874 -2.33343,31.32291 -2.33343,31.32291z" fill="#fbff00" stroke="#fbff00" stroke-width="6" stroke-linecap="butt"/></g><g data-paper-data="{&quot;index&quot;:null}"><path d="M-52.20496,277.37943c0,-50.4347 45.04042,-91.3201 100.6006,-91.3201c55.56018,0 100.6006,40.8854 100.6006,91.3201c0,50.4347 -45.04042,91.3201 -100.6006,91.3201c-55.56018,0 -100.6006,-40.8854 -100.6006,-91.3201z" fill="url(#color-8)" stroke="none" stroke-width="0" stroke-linecap="butt"/><path d="M49.25873,264.50738" fill="none" stroke="#ff00f7" stroke-width="4.5" stroke-linecap="round"/><path d="M14.54892,306.55295c0,0 -2.33343,-20.20417 -2.33343,-31.32291c0,-12.66249 2.33343,-40.62459 2.33343,-40.62459l15.16731,27.61228l10.26201,-35.10653l13.34074,22.78186l14.1914,-27.43124l8.06305,30.34098l9.17291,-18.19734c0,0 1.55562,29.86648 1.55562,42.76357c0,10.65434 -1.55562,29.18392 -1.55562,29.18392z" fill="#fbff00" stroke="#fbff00" stroke-width="6" stroke-linecap="butt"/></g><g data-paper-data="{&quot;index&quot;:null}"><path d="M222.05931,370.71155c-55.56018,0 -100.6006,-40.8854 -100.6006,-91.3201c0,-50.4347 45.04042,-91.3201 100.6006,-91.3201c55.56018,0 100.6006,40.8854 100.6006,91.3201c0,50.4347 -45.04042,91.3201 -100.6006,91.3201z" fill="url(#color-9)" stroke="none" stroke-width="0" stroke-linecap="butt"/><path d="M221.19622,266.51939" fill="none" stroke="#ff00f7" stroke-width="4.5" stroke-linecap="round"/><path d="M185.70861,308.56495c0,0 -1.55563,-18.52958 -1.55563,-29.18392c0,-12.89709 1.55563,-42.76357 1.55563,-42.76357l9.17291,18.19734l8.06305,-30.34098l14.1914,27.43124l13.34074,-22.78186l10.26201,35.10653l15.16731,-27.61228c0,0 2.33343,27.9621 2.33343,40.62459c0,11.11874 -2.33343,31.32291 -2.33343,31.32291z" fill="#fbff00" stroke="#fbff00" stroke-width="6" stroke-linecap="butt"/></g><g data-paper-data="{&quot;index&quot;:null}"><path d="M397.22447,369.72055c-55.56018,0 -100.6006,-40.8854 -100.6006,-91.3201c0,-50.4347 45.04042,-91.3201 100.6006,-91.3201c55.56018,0 100.6006,40.8854 100.6006,91.3201c0,50.4347 -45.04042,91.3201 -100.6006,91.3201z" fill="url(#color-10)" stroke="none" stroke-width="0" stroke-linecap="butt"/><path d="M396.36138,265.5284" fill="none" stroke="#ff00f7" stroke-width="4.5" stroke-linecap="round"/><path d="M360.87377,307.57394c0,0 -1.55562,-18.52958 -1.55562,-29.18393c0,-12.8971 1.55562,-42.76357 1.55562,-42.76357l9.17291,18.19735l8.06305,-30.34098l14.1914,27.43124l13.34074,-22.78186l10.26201,35.10653l15.16731,-27.61228c0,0 2.33343,27.9621 2.33343,40.62459c0,11.11874 -2.33343,31.32291 -2.33343,31.32291z" fill="#fbff00" stroke="#fbff00" stroke-width="6" stroke-linecap="butt"/></g><g data-paper-data="{&quot;index&quot;:null}"><path d="M311.14339,373.21904c-55.56018,0 -100.6006,-40.8854 -100.6006,-91.3201c0,-50.4347 45.04042,-91.3201 100.6006,-91.3201c55.56018,0 100.6006,40.8854 100.6006,91.3201c0,50.4347 -45.04042,91.3201 -100.6006,91.3201z" fill="url(#color-11)" stroke="none" stroke-width="0" stroke-linecap="butt"/><path d="M310.2803,269.0269" fill="none" stroke="#ff00f7" stroke-width="4.5" stroke-linecap="round"/><path d="M274.7927,311.07248c0,0 -1.55563,-18.52959 -1.55563,-29.18393c0,-12.8971 1.55563,-42.76357 1.55563,-42.76357l9.1729,18.19734l8.06305,-30.34098l14.1914,27.43124l13.34074,-22.78186l10.26201,35.10653l15.16731,-27.61228c0,0 2.33343,27.96209 2.33343,40.62458c0,11.11874 -2.33343,31.32291 -2.33343,31.32291z" fill="#fbff00" stroke="#fbff00" stroke-width="6" stroke-linecap="butt"/></g><g data-paper-data="{&quot;index&quot;:null}"><path d="M135.97822,372.70854c-55.56018,0 -100.6006,-40.8854 -100.6006,-91.3201c0,-50.4347 45.04042,-91.3201 100.6006,-91.3201c55.56018,0 100.6006,40.8854 100.6006,91.3201c0,50.4347 -45.04042,91.3201 -100.6006,91.3201z" fill="url(#color-12)" stroke="none" stroke-width="0" stroke-linecap="butt"/><path d="M135.11514,268.51639" fill="none" stroke="#ff00f7" stroke-width="4.5" stroke-linecap="round"/><path d="M99.62751,310.56192c0,0 -1.55562,-18.52958 -1.55562,-29.18392c0,-12.89709 1.55562,-42.76357 1.55562,-42.76357l9.17291,18.19735l8.06305,-30.34098l14.1914,27.43124l13.34075,-22.78186l10.26201,35.10653l15.16731,-27.61228c0,0 2.33343,27.9621 2.33343,40.62459c0,11.11874 -2.33343,31.32291 -2.33343,31.32291z" fill="#fbff00" stroke="#fbff00" stroke-width="6" stroke-linecap="butt"/></g><g data-paper-data="{&quot;index&quot;:null}"><path d="M-47.70045,365.69653c-55.56018,0 -100.6006,-40.8854 -100.6006,-91.3201c0,-50.4347 45.04042,-91.3201 100.6006,-91.3201c55.56018,0 100.6006,40.8854 100.6006,91.3201c0,50.4347 -45.04042,91.3201 -100.6006,91.3201z" fill="url(#color-13)" stroke="none" stroke-width="0" stroke-linecap="butt"/><path d="M-48.56354,261.50435" fill="none" stroke="#ff00f7" stroke-width="4.5" stroke-linecap="round"/><path d="M-84.05114,303.54992c0,0 -1.55562,-18.52958 -1.55562,-29.18392c0,-12.89709 1.55562,-42.76357 1.55562,-42.76357l9.1729,18.19734l8.06305,-30.34098l14.1914,27.43124l13.34074,-22.78186l10.26201,35.10653l15.16731,-27.61228c0,0 2.33343,27.9621 2.33343,40.62459c0,11.11874 -2.33343,31.32291 -2.33343,31.32291z" fill="#fbff00" stroke="#fbff00" stroke-width="6" stroke-linecap="butt"/></g><g data-paper-data="{&quot;index&quot;:null}"><path d="M86.79504,318.37943c0,-50.4347 45.04042,-91.3201 100.6006,-91.3201c55.56018,0 100.6006,40.8854 100.6006,91.3201c0,50.4347 -45.04042,91.3201 -100.6006,91.3201c-55.56018,0 -100.6006,-40.8854 -100.6006,-91.3201z" fill="url(#color-14)" stroke="none" stroke-width="0" stroke-linecap="butt"/><path d="M188.25873,305.50738" fill="none" stroke="#ff00f7" stroke-width="4.5" stroke-linecap="round"/><path d="M153.54892,347.55295c0,0 -2.33343,-20.20417 -2.33343,-31.32291c0,-12.66249 2.33343,-40.62459 2.33343,-40.62459l15.16731,27.61228l10.26201,-35.10653l13.34074,22.78186l14.1914,-27.43124l8.06305,30.34098l9.17291,-18.19734c0,0 1.55562,29.86648 1.55562,42.76357c0,10.65434 -1.55562,29.18392 -1.55562,29.18392z" fill="#fbff00" stroke="#fbff00" stroke-width="6" stroke-linecap="butt"/></g><g data-paper-data="{&quot;index&quot;:null}"><path d="M361.05931,411.71154c-55.56018,0 -100.6006,-40.8854 -100.6006,-91.3201c0,-50.4347 45.04042,-91.3201 100.6006,-91.3201c55.56018,0 100.6006,40.8854 100.6006,91.3201c0,50.4347 -45.04042,91.3201 -100.6006,91.3201z" fill="url(#color-15)" stroke="none" stroke-width="0" stroke-linecap="butt"/><path d="M360.19622,307.51939" fill="none" stroke="#ff00f7" stroke-width="4.5" stroke-linecap="round"/><path d="M324.70861,349.56496c0,0 -1.55563,-18.52958 -1.55563,-29.18392c0,-12.89709 1.55563,-42.76357 1.55563,-42.76357l9.17291,18.19734l8.06305,-30.34098l14.1914,27.43124l13.34074,-22.78186l10.26201,35.10653l15.16731,-27.61228c0,0 2.33343,27.9621 2.33343,40.62459c0,11.11874 -2.33343,31.32291 -2.33343,31.32291z" fill="#fbff00" stroke="#fbff00" stroke-width="6" stroke-linecap="butt"/></g><g data-paper-data="{&quot;index&quot;:null}"><path d="M536.22447,410.72054c-55.56018,0 -100.6006,-40.8854 -100.6006,-91.3201c0,-50.4347 45.04042,-91.3201 100.6006,-91.3201c55.56018,0 100.6006,40.8854 100.6006,91.3201c0,50.4347 -45.04042,91.3201 -100.6006,91.3201z" fill="url(#color-16)" stroke="none" stroke-width="0" stroke-linecap="butt"/><path d="M535.36138,306.5284" fill="none" stroke="#ff00f7" stroke-width="4.5" stroke-linecap="round"/><path d="M499.87377,348.57397c0,0 -1.55562,-18.52958 -1.55562,-29.18393c0,-12.8971 1.55562,-42.76357 1.55562,-42.76357l9.17291,18.19735l8.06305,-30.34098l14.1914,27.43124l13.34074,-22.78186l10.26201,35.10653l15.16731,-27.61228c0,0 2.33343,27.9621 2.33343,40.62459c0,11.11874 -2.33343,31.32291 -2.33343,31.32291z" fill="#fbff00" stroke="#fbff00" stroke-width="6" stroke-linecap="butt"/></g><g data-paper-data="{&quot;index&quot;:null}"><path d="M450.14339,414.21904c-55.56018,0 -100.6006,-40.8854 -100.6006,-91.3201c0,-50.4347 45.04042,-91.3201 100.6006,-91.3201c55.56018,0 100.6006,40.8854 100.6006,91.3201c0,50.4347 -45.04042,91.3201 -100.6006,91.3201z" fill="url(#color-17)" stroke="none" stroke-width="0" stroke-linecap="butt"/><path d="M449.2803,310.0269" fill="none" stroke="#ff00f7" stroke-width="4.5" stroke-linecap="round"/><path d="M413.7927,352.07249c0,0 -1.55563,-18.52959 -1.55563,-29.18393c0,-12.8971 1.55563,-42.76357 1.55563,-42.76357l9.1729,18.19734l8.06305,-30.34098l14.1914,27.43124l13.34074,-22.78186l10.26201,35.10653l15.16731,-27.61228c0,0 2.33343,27.96209 2.33343,40.62458c0,11.11874 -2.33343,31.32291 -2.33343,31.32291z" fill="#fbff00" stroke="#fbff00" stroke-width="6" stroke-linecap="butt"/></g><g data-paper-data="{&quot;index&quot;:null}"><path d="M274.97822,413.70854c-55.56018,0 -100.6006,-40.8854 -100.6006,-91.3201c0,-50.4347 45.04042,-91.3201 100.6006,-91.3201c55.56018,0 100.6006,40.8854 100.6006,91.3201c0,50.4347 -45.04042,91.3201 -100.6006,91.3201z" fill="url(#color-18)" stroke="none" stroke-width="0" stroke-linecap="butt"/><path d="M274.11514,309.51639" fill="none" stroke="#ff00f7" stroke-width="4.5" stroke-linecap="round"/><path d="M238.62751,351.56195c0,0 -1.55562,-18.52958 -1.55562,-29.18392c0,-12.89709 1.55562,-42.76357 1.55562,-42.76357l9.17291,18.19735l8.06305,-30.34098l14.1914,27.43124l13.34075,-22.78186l10.26201,35.10653l15.16731,-27.61228c0,0 2.33343,27.9621 2.33343,40.62459c0,11.11874 -2.33343,31.32291 -2.33343,31.32291z" fill="#fbff00" stroke="#fbff00" stroke-width="6" stroke-linecap="butt"/></g><g data-paper-data="{&quot;index&quot;:null}"><path d="M91.29955,406.69653c-55.56018,0 -100.6006,-40.8854 -100.6006,-91.3201c0,-50.4347 45.04042,-91.3201 100.6006,-91.3201c55.56018,0 100.6006,40.8854 100.6006,91.3201c0,50.4347 -45.04042,91.3201 -100.6006,91.3201z" fill="url(#color-19)" stroke="none" stroke-width="0" stroke-linecap="butt"/><path d="M90.43646,302.50435" fill="none" stroke="#ff00f7" stroke-width="4.5" stroke-linecap="round"/><path d="M54.94886,344.54994c0,0 -1.55562,-18.52958 -1.55562,-29.18392c0,-12.89709 1.55562,-42.76357 1.55562,-42.76357l9.1729,18.19734l8.06305,-30.34098l14.1914,27.43124l13.34074,-22.78186l10.26201,35.10653l15.16731,-27.61228c0,0 2.33343,27.9621 2.33343,40.62459c0,11.11874 -2.33343,31.32291 -2.33343,31.32291z" fill="#fbff00" stroke="#fbff00" stroke-width="6" stroke-linecap="butt"/></g><g data-paper-data="{&quot;index&quot;:null}"><path d="M33.79504,349.37943c0,-50.4347 45.04042,-91.3201 100.6006,-91.3201c55.56018,0 100.6006,40.8854 100.6006,91.3201c0,50.4347 -45.04042,91.3201 -100.6006,91.3201c-55.56018,0 -100.6006,-40.8854 -100.6006,-91.3201z" fill="url(#color-20)" stroke="none" stroke-width="0" stroke-linecap="butt"/><path d="M135.25873,336.50738" fill="none" stroke="#ff00f7" stroke-width="4.5" stroke-linecap="round"/><path d="M100.54892,378.55295c0,0 -2.33343,-20.20417 -2.33343,-31.32291c0,-12.66249 2.33343,-40.62459 2.33343,-40.62459l15.16731,27.61228l10.26201,-35.10653l13.34074,22.78186l14.1914,-27.43124l8.06305,30.34098l9.17291,-18.19734c0,0 1.55562,29.86648 1.55562,42.76357c0,10.65434 -1.55562,29.18392 -1.55562,29.18392z" fill="#fbff00" stroke="#fbff00" stroke-width="6" stroke-linecap="butt"/></g><g data-paper-data="{&quot;index&quot;:null}"><path d="M308.05931,442.71154c-55.56018,0 -100.6006,-40.8854 -100.6006,-91.3201c0,-50.4347 45.04042,-91.3201 100.6006,-91.3201c55.56018,0 100.6006,40.8854 100.6006,91.3201c0,50.4347 -45.04042,91.3201 -100.6006,91.3201z" fill="url(#color-21)" stroke="none" stroke-width="0" stroke-linecap="butt"/><path d="M307.19622,338.5194" fill="none" stroke="#ff00f7" stroke-width="4.5" stroke-linecap="round"/><path d="M271.70861,380.56496c0,0 -1.55563,-18.52958 -1.55563,-29.18392c0,-12.89709 1.55563,-42.76357 1.55563,-42.76357l9.17291,18.19734l8.06305,-30.34098l14.1914,27.43124l13.34074,-22.78186l10.26201,35.10653l15.16731,-27.61228c0,0 2.33343,27.9621 2.33343,40.62459c0,11.11874 -2.33343,31.32291 -2.33343,31.32291z" fill="#fbff00" stroke="#fbff00" stroke-width="6" stroke-linecap="butt"/></g><g data-paper-data="{&quot;index&quot;:null}"><path d="M483.22447,441.72054c-55.56018,0 -100.6006,-40.8854 -100.6006,-91.3201c0,-50.4347 45.04042,-91.3201 100.6006,-91.3201c55.56018,0 100.6006,40.8854 100.6006,91.3201c0,50.4347 -45.04042,91.3201 -100.6006,91.3201z" fill="url(#color-22)" stroke="none" stroke-width="0" stroke-linecap="butt"/><path d="M482.36138,337.5284" fill="none" stroke="#ff00f7" stroke-width="4.5" stroke-linecap="round"/><path d="M446.87377,379.57397c0,0 -1.55562,-18.52958 -1.55562,-29.18393c0,-12.8971 1.55562,-42.76357 1.55562,-42.76357l9.17291,18.19735l8.06305,-30.34098l14.1914,27.43124l13.34074,-22.78186l10.26201,35.10653l15.16731,-27.61228c0,0 2.33343,27.9621 2.33343,40.62459c0,11.11874 -2.33343,31.32291 -2.33343,31.32291z" fill="#fbff00" stroke="#fbff00" stroke-width="6" stroke-linecap="butt"/></g><g data-paper-data="{&quot;index&quot;:null}"><path d="M397.14339,445.21904c-55.56018,0 -100.6006,-40.8854 -100.6006,-91.3201c0,-50.4347 45.04042,-91.3201 100.6006,-91.3201c55.56018,0 100.6006,40.8854 100.6006,91.3201c0,50.4347 -45.04042,91.3201 -100.6006,91.3201z" fill="url(#color-23)" stroke="none" stroke-width="0" stroke-linecap="butt"/><path d="M396.2803,341.0269" fill="none" stroke="#ff00f7" stroke-width="4.5" stroke-linecap="round"/><path d="M360.7927,383.07249c0,0 -1.55563,-18.52959 -1.55563,-29.18393c0,-12.8971 1.55563,-42.76357 1.55563,-42.76357l9.1729,18.19734l8.06305,-30.34098l14.1914,27.43124l13.34074,-22.78186l10.26201,35.10653l15.16731,-27.61228c0,0 2.33343,27.96209 2.33343,40.62458c0,11.11874 -2.33343,31.32291 -2.33343,31.32291z" fill="#fbff00" stroke="#fbff00" stroke-width="6" stroke-linecap="butt"/></g><g data-paper-data="{&quot;index&quot;:null}"><path d="M221.97822,444.70854c-55.56018,0 -100.6006,-40.8854 -100.6006,-91.3201c0,-50.4347 45.04042,-91.3201 100.6006,-91.3201c55.56018,0 100.6006,40.8854 100.6006,91.3201c0,50.4347 -45.04042,91.3201 -100.6006,91.3201z" fill="url(#color-24)" stroke="none" stroke-width="0" stroke-linecap="butt"/><path d="M221.11514,340.51639" fill="none" stroke="#ff00f7" stroke-width="4.5" stroke-linecap="round"/><path d="M185.62751,382.56195c0,0 -1.55562,-18.52958 -1.55562,-29.18392c0,-12.89709 1.55562,-42.76357 1.55562,-42.76357l9.17291,18.19735l8.06305,-30.34098l14.1914,27.43124l13.34075,-22.78186l10.26201,35.10653l15.16731,-27.61228c0,0 2.33343,27.9621 2.33343,40.62459c0,11.11874 -2.33343,31.32291 -2.33343,31.32291z" fill="#fbff00" stroke="#fbff00" stroke-width="6" stroke-linecap="butt"/></g><g data-paper-data="{&quot;index&quot;:null}"><path d="M38.29955,437.69653c-55.56018,0 -100.6006,-40.8854 -100.6006,-91.3201c0,-50.4347 45.04042,-91.3201 100.6006,-91.3201c55.56018,0 100.6006,40.8854 100.6006,91.3201c0,50.4347 -45.04042,91.3201 -100.6006,91.3201z" fill="url(#color-25)" stroke="none" stroke-width="0" stroke-linecap="butt"/><path d="M37.43646,333.50435" fill="none" stroke="#ff00f7" stroke-width="4.5" stroke-linecap="round"/><path d="M1.94886,375.54994c0,0 -1.55562,-18.52958 -1.55562,-29.18392c0,-12.89709 1.55562,-42.76357 1.55562,-42.76357l9.1729,18.19734l8.06305,-30.34098l14.1914,27.43124l13.34074,-22.78186l10.26201,35.10653l15.16731,-27.61228c0,0 2.33343,27.9621 2.33343,40.62459c0,11.11874 -2.33343,31.32291 -2.33343,31.32291z" fill="#fbff00" stroke="#fbff00" stroke-width="6" stroke-linecap="butt"/></g></g><g data-paper-data="{&quot;index&quot;:null}"><path d="M-4.20496,241.37943c0,-50.4347 45.04042,-91.3201 100.6006,-91.3201c55.56018,0 100.6006,40.8854 100.6006,91.3201c0,50.4347 -45.04042,91.3201 -100.6006,91.3201c-55.56018,0 -100.6006,-40.8854 -100.6006,-91.3201z" fill="url(#color-26)" stroke="none" stroke-width="0" stroke-linecap="butt"/><path d="M97.25873,228.50738" fill="none" stroke="#ff00f7" stroke-width="4.5" stroke-linecap="round"/><path d="M62.54892,270.55295c0,0 -2.33343,-20.20417 -2.33343,-31.32291c0,-12.66249 2.33343,-40.62459 2.33343,-40.62459l15.16731,27.61228l10.26201,-35.10653l13.34074,22.78186l14.1914,-27.43124l8.06305,30.34098l9.17291,-18.19734c0,0 1.55562,29.86648 1.55562,42.76357c0,10.65434 -1.55562,29.18392 -1.55562,29.18392z" fill="#fbff00" stroke="#fbff00" stroke-width="6" stroke-linecap="butt"/></g><g data-paper-data="{&quot;index&quot;:null}"><path d="M270.05931,334.71154c-55.56018,0 -100.6006,-40.8854 -100.6006,-91.3201c0,-50.4347 45.04042,-91.3201 100.6006,-91.3201c55.56018,0 100.6006,40.8854 100.6006,91.3201c0,50.4347 -45.04042,91.3201 -100.6006,91.3201z" fill="url(#color-27)" stroke="none" stroke-width="0" stroke-linecap="butt"/><path d="M269.19622,230.5194" fill="none" stroke="#ff00f7" stroke-width="4.5" stroke-linecap="round"/><path d="M233.70861,272.56495c0,0 -1.55563,-18.52958 -1.55563,-29.18392c0,-12.89709 1.55563,-42.76357 1.55563,-42.76357l9.17291,18.19734l8.06305,-30.34098l14.1914,27.43124l13.34074,-22.78186l10.26201,35.10653l15.16731,-27.61228c0,0 2.33343,27.9621 2.33343,40.62459c0,11.11874 -2.33343,31.32291 -2.33343,31.32291z" fill="#fbff00" stroke="#fbff00" stroke-width="6" stroke-linecap="butt"/></g><g data-paper-data="{&quot;index&quot;:null}"><path d="M445.22447,333.72055c-55.56018,0 -100.6006,-40.8854 -100.6006,-91.3201c0,-50.4347 45.04042,-91.3201 100.6006,-91.3201c55.56018,0 100.6006,40.8854 100.6006,91.3201c0,50.4347 -45.04042,91.3201 -100.6006,91.3201z" fill="url(#color-28)" stroke="none" stroke-width="0" stroke-linecap="butt"/><path d="M444.36138,229.5284" fill="none" stroke="#ff00f7" stroke-width="4.5" stroke-linecap="round"/><path d="M408.87377,271.57394c0,0 -1.55562,-18.52958 -1.55562,-29.18393c0,-12.8971 1.55562,-42.76357 1.55562,-42.76357l9.17291,18.19735l8.06305,-30.34098l14.1914,27.43124l13.34074,-22.78186l10.26201,35.10653l15.16731,-27.61228c0,0 2.33343,27.9621 2.33343,40.62459c0,11.11874 -2.33343,31.32291 -2.33343,31.32291z" fill="#fbff00" stroke="#fbff00" stroke-width="6" stroke-linecap="butt"/></g><g data-paper-data="{&quot;index&quot;:null}"><path d="M359.14339,337.21904c-55.56018,0 -100.6006,-40.8854 -100.6006,-91.3201c0,-50.4347 45.04042,-91.3201 100.6006,-91.3201c55.56018,0 100.6006,40.8854 100.6006,91.3201c0,50.4347 -45.04042,91.3201 -100.6006,91.3201z" fill="url(#color-29)" stroke="none" stroke-width="0" stroke-linecap="butt"/><path d="M358.2803,233.0269" fill="none" stroke="#ff00f7" stroke-width="4.5" stroke-linecap="round"/><path d="M322.7927,275.07247c0,0 -1.55563,-18.52959 -1.55563,-29.18393c0,-12.8971 1.55563,-42.76357 1.55563,-42.76357l9.1729,18.19734l8.06305,-30.34098l14.1914,27.43124l13.34074,-22.78186l10.26201,35.10653l15.16731,-27.61228c0,0 2.33343,27.96209 2.33343,40.62458c0,11.11874 -2.33343,31.32291 -2.33343,31.32291z" fill="#fbff00" stroke="#fbff00" stroke-width="6" stroke-linecap="butt"/></g><g data-paper-data="{&quot;index&quot;:null}"><path d="M183.97822,336.70854c-55.56018,0 -100.6006,-40.8854 -100.6006,-91.3201c0,-50.4347 45.04042,-91.3201 100.6006,-91.3201c55.56018,0 100.6006,40.8854 100.6006,91.3201c0,50.4347 -45.04042,91.3201 -100.6006,91.3201z" fill="url(#color-30)" stroke="none" stroke-width="0" stroke-linecap="butt"/><path d="M183.11514,232.51639" fill="none" stroke="#ff00f7" stroke-width="4.5" stroke-linecap="round"/><path d="M147.62751,274.56192c0,0 -1.55562,-18.52958 -1.55562,-29.18392c0,-12.89709 1.55562,-42.76357 1.55562,-42.76357l9.17291,18.19735l8.06305,-30.34098l14.1914,27.43124l13.34075,-22.78186l10.26201,35.10653l15.16731,-27.61228c0,0 2.33343,27.9621 2.33343,40.62459c0,11.11874 -2.33343,31.32291 -2.33343,31.32291z" fill="#fbff00" stroke="#fbff00" stroke-width="6" stroke-linecap="butt"/></g><g data-paper-data="{&quot;index&quot;:null}"><path d="M0.29955,329.69651c-55.56018,0 -100.6006,-40.8854 -100.6006,-91.3201c0,-50.4347 45.04042,-91.3201 100.6006,-91.3201c55.56018,0 100.6006,40.8854 100.6006,91.3201c0,50.4347 -45.04042,91.3201 -100.6006,91.3201z" fill="url(#color-31)" stroke="none" stroke-width="0" stroke-linecap="butt"/><path d="M-0.56354,225.50436" fill="none" stroke="#ff00f7" stroke-width="4.5" stroke-linecap="round"/><path d="M-36.05114,267.54992c0,0 -1.55562,-18.52958 -1.55562,-29.18392c0,-12.89709 1.55562,-42.76357 1.55562,-42.76357l9.1729,18.19734l8.06305,-30.34098l14.1914,27.43124l13.34074,-22.78186l10.26201,35.10653l15.16731,-27.61228c0,0 2.33343,27.9621 2.33343,40.62459c0,11.11874 -2.33343,31.32291 -2.33343,31.32291z" fill="#fbff00" stroke="#fbff00" stroke-width="6" stroke-linecap="butt"/></g><g data-paper-data="{&quot;index&quot;:null}"><path d="M-57.20496,272.37943c0,-50.4347 45.04042,-91.3201 100.6006,-91.3201c55.56018,0 100.6006,40.8854 100.6006,91.3201c0,50.4347 -45.04042,91.3201 -100.6006,91.3201c-55.56018,0 -100.6006,-40.8854 -100.6006,-91.3201z" fill="url(#color-32)" stroke="none" stroke-width="0" stroke-linecap="butt"/><path d="M44.25873,259.50738" fill="none" stroke="#ff00f7" stroke-width="4.5" stroke-linecap="round"/><path d="M9.54892,301.55295c0,0 -2.33343,-20.20417 -2.33343,-31.32291c0,-12.66249 2.33343,-40.62459 2.33343,-40.62459l15.16731,27.61228l10.26201,-35.10653l13.34074,22.78186l14.1914,-27.43124l8.06305,30.34098l9.17291,-18.19734c0,0 1.55562,29.86648 1.55562,42.76357c0,10.65434 -1.55562,29.18392 -1.55562,29.18392z" fill="#fbff00" stroke="#fbff00" stroke-width="6" stroke-linecap="butt"/></g><g data-paper-data="{&quot;index&quot;:null}"><path d="M217.05931,365.71155c-55.56018,0 -100.6006,-40.8854 -100.6006,-91.3201c0,-50.4347 45.04042,-91.3201 100.6006,-91.3201c55.56018,0 100.6006,40.8854 100.6006,91.3201c0,50.4347 -45.04042,91.3201 -100.6006,91.3201z" fill="url(#color-33)" stroke="none" stroke-width="0" stroke-linecap="butt"/><path d="M216.19622,261.51939" fill="none" stroke="#ff00f7" stroke-width="4.5" stroke-linecap="round"/><path d="M180.70861,303.56495c0,0 -1.55563,-18.52958 -1.55563,-29.18392c0,-12.89709 1.55563,-42.76357 1.55563,-42.76357l9.17291,18.19734l8.06305,-30.34098l14.1914,27.43124l13.34074,-22.78186l10.26201,35.10653l15.16731,-27.61228c0,0 2.33343,27.9621 2.33343,40.62459c0,11.11874 -2.33343,31.32291 -2.33343,31.32291z" fill="#fbff00" stroke="#fbff00" stroke-width="6" stroke-linecap="butt"/></g><g data-paper-data="{&quot;index&quot;:null}"><path d="M392.22447,364.72055c-55.56018,0 -100.6006,-40.8854 -100.6006,-91.3201c0,-50.4347 45.04042,-91.3201 100.6006,-91.3201c55.56018,0 100.6006,40.8854 100.6006,91.3201c0,50.4347 -45.04042,91.3201 -100.6006,91.3201z" fill="url(#color-34)" stroke="none" stroke-width="0" stroke-linecap="butt"/><path d="M391.36138,260.5284" fill="none" stroke="#ff00f7" stroke-width="4.5" stroke-linecap="round"/><path d="M355.87377,302.57394c0,0 -1.55562,-18.52958 -1.55562,-29.18393c0,-12.8971 1.55562,-42.76357 1.55562,-42.76357l9.17291,18.19735l8.06305,-30.34098l14.1914,27.43124l13.34074,-22.78186l10.26201,35.10653l15.16731,-27.61228c0,0 2.33343,27.9621 2.33343,40.62459c0,11.11874 -2.33343,31.32291 -2.33343,31.32291z" fill="#fbff00" stroke="#fbff00" stroke-width="6" stroke-linecap="butt"/></g><g data-paper-data="{&quot;index&quot;:null}"><path d="M306.14339,368.21904c-55.56018,0 -100.6006,-40.8854 -100.6006,-91.3201c0,-50.4347 45.04042,-91.3201 100.6006,-91.3201c55.56018,0 100.6006,40.8854 100.6006,91.3201c0,50.4347 -45.04042,91.3201 -100.6006,91.3201z" fill="url(#color-35)" stroke="none" stroke-width="0" stroke-linecap="butt"/><path d="M305.2803,264.0269" fill="none" stroke="#ff00f7" stroke-width="4.5" stroke-linecap="round"/><path d="M269.7927,306.07248c0,0 -1.55563,-18.52959 -1.55563,-29.18393c0,-12.8971 1.55563,-42.76357 1.55563,-42.76357l9.1729,18.19734l8.06305,-30.34098l14.1914,27.43124l13.34074,-22.78186l10.26201,35.10653l15.16731,-27.61228c0,0 2.33343,27.96209 2.33343,40.62458c0,11.11874 -2.33343,31.32291 -2.33343,31.32291z" fill="#fbff00" stroke="#fbff00" stroke-width="6" stroke-linecap="butt"/></g><g data-paper-data="{&quot;index&quot;:null}"><path d="M130.97822,367.70854c-55.56018,0 -100.6006,-40.8854 -100.6006,-91.3201c0,-50.4347 45.04042,-91.3201 100.6006,-91.3201c55.56018,0 100.6006,40.8854 100.6006,91.3201c0,50.4347 -45.04042,91.3201 -100.6006,91.3201z" fill="url(#color-36)" stroke="none" stroke-width="0" stroke-linecap="butt"/><path d="M130.11514,263.51639" fill="none" stroke="#ff00f7" stroke-width="4.5" stroke-linecap="round"/><path d="M94.62751,305.56192c0,0 -1.55562,-18.52958 -1.55562,-29.18392c0,-12.89709 1.55562,-42.76357 1.55562,-42.76357l9.17291,18.19735l8.06305,-30.34098l14.1914,27.43124l13.34075,-22.78186l10.26201,35.10653l15.16731,-27.61228c0,0 2.33343,27.9621 2.33343,40.62459c0,11.11874 -2.33343,31.32291 -2.33343,31.32291z" fill="#fbff00" stroke="#fbff00" stroke-width="6" stroke-linecap="butt"/></g><g data-paper-data="{&quot;index&quot;:null}"><path d="M-52.70045,360.69653c-55.56018,0 -100.6006,-40.8854 -100.6006,-91.3201c0,-50.4347 45.04042,-91.3201 100.6006,-91.3201c55.56018,0 100.6006,40.8854 100.6006,91.3201c0,50.4347 -45.04042,91.3201 -100.6006,91.3201z" fill="url(#color-37)" stroke="none" stroke-width="0" stroke-linecap="butt"/><path d="M-53.56354,256.50435" fill="none" stroke="#ff00f7" stroke-width="4.5" stroke-linecap="round"/><path d="M-89.05114,298.54992c0,0 -1.55562,-18.52958 -1.55562,-29.18392c0,-12.89709 1.55562,-42.76357 1.55562,-42.76357l9.1729,18.19734l8.06305,-30.34098l14.1914,27.43124l13.34074,-22.78186l10.26201,35.10653l15.16731,-27.61228c0,0 2.33343,27.9621 2.33343,40.62459c0,11.11874 -2.33343,31.32291 -2.33343,31.32291z" fill="#fbff00" stroke="#fbff00" stroke-width="6" stroke-linecap="butt"/></g><g data-paper-data="{&quot;index&quot;:null}"><path d="M81.79504,313.37943c0,-50.4347 45.04042,-91.3201 100.6006,-91.3201c55.56018,0 100.6006,40.8854 100.6006,91.3201c0,50.4347 -45.04042,91.3201 -100.6006,91.3201c-55.56018,0 -100.6006,-40.8854 -100.6006,-91.3201z" fill="url(#color-38)" stroke="none" stroke-width="0" stroke-linecap="butt"/><path d="M183.25873,300.50738" fill="none" stroke="#ff00f7" stroke-width="4.5" stroke-linecap="round"/><path d="M148.54892,342.55295c0,0 -2.33343,-20.20417 -2.33343,-31.32291c0,-12.66249 2.33343,-40.62459 2.33343,-40.62459l15.16731,27.61228l10.26201,-35.10653l13.34074,22.78186l14.1914,-27.43124l8.06305,30.34098l9.17291,-18.19734c0,0 1.55562,29.86648 1.55562,42.76357c0,10.65434 -1.55562,29.18392 -1.55562,29.18392z" fill="#fbff00" stroke="#fbff00" stroke-width="6" stroke-linecap="butt"/></g><g data-paper-data="{&quot;index&quot;:null}"><path d="M356.05931,406.71154c-55.56018,0 -100.6006,-40.8854 -100.6006,-91.3201c0,-50.4347 45.04042,-91.3201 100.6006,-91.3201c55.56018,0 100.6006,40.8854 100.6006,91.3201c0,50.4347 -45.04042,91.3201 -100.6006,91.3201z" fill="url(#color-39)" stroke="none" stroke-width="0" stroke-linecap="butt"/><path d="M355.19622,302.51939" fill="none" stroke="#ff00f7" stroke-width="4.5" stroke-linecap="round"/><path d="M319.70861,344.56496c0,0 -1.55563,-18.52958 -1.55563,-29.18392c0,-12.89709 1.55563,-42.76357 1.55563,-42.76357l9.17291,18.19734l8.06305,-30.34098l14.1914,27.43124l13.34074,-22.78186l10.26201,35.10653l15.16731,-27.61228c0,0 2.33343,27.9621 2.33343,40.62459c0,11.11874 -2.33343,31.32291 -2.33343,31.32291z" fill="#fbff00" stroke="#fbff00" stroke-width="6" stroke-linecap="butt"/></g><g data-paper-data="{&quot;index&quot;:null}"><path d="M531.22447,405.72054c-55.56018,0 -100.6006,-40.8854 -100.6006,-91.3201c0,-50.4347 45.04042,-91.3201 100.6006,-91.3201c55.56018,0 100.6006,40.8854 100.6006,91.3201c0,50.4347 -45.04042,91.3201 -100.6006,91.3201z" fill="url(#color-40)" stroke="none" stroke-width="0" stroke-linecap="butt"/><path d="M530.36138,301.5284" fill="none" stroke="#ff00f7" stroke-width="4.5" stroke-linecap="round"/><path d="M494.87377,343.57397c0,0 -1.55562,-18.52958 -1.55562,-29.18393c0,-12.8971 1.55562,-42.76357 1.55562,-42.76357l9.17291,18.19735l8.06305,-30.34098l14.1914,27.43124l13.34074,-22.78186l10.26201,35.10653l15.16731,-27.61228c0,0 2.33343,27.9621 2.33343,40.62459c0,11.11874 -2.33343,31.32291 -2.33343,31.32291z" fill="#fbff00" stroke="#fbff00" stroke-width="6" stroke-linecap="butt"/></g><g data-paper-data="{&quot;index&quot;:null}"><path d="M445.14339,409.21904c-55.56018,0 -100.6006,-40.8854 -100.6006,-91.3201c0,-50.4347 45.04042,-91.3201 100.6006,-91.3201c55.56018,0 100.6006,40.8854 100.6006,91.3201c0,50.4347 -45.04042,91.3201 -100.6006,91.3201z" fill="url(#color-41)" stroke="none" stroke-width="0" stroke-linecap="butt"/><path d="M444.2803,305.0269" fill="none" stroke="#ff00f7" stroke-width="4.5" stroke-linecap="round"/><path d="M408.7927,347.07249c0,0 -1.55563,-18.52959 -1.55563,-29.18393c0,-12.8971 1.55563,-42.76357 1.55563,-42.76357l9.1729,18.19734l8.06305,-30.34098l14.1914,27.43124l13.34074,-22.78186l10.26201,35.10653l15.16731,-27.61228c0,0 2.33343,27.96209 2.33343,40.62458c0,11.11874 -2.33343,31.32291 -2.33343,31.32291z" fill="#fbff00" stroke="#fbff00" stroke-width="6" stroke-linecap="butt"/></g><g data-paper-data="{&quot;index&quot;:null}"><path d="M269.97822,408.70854c-55.56018,0 -100.6006,-40.8854 -100.6006,-91.3201c0,-50.4347 45.04042,-91.3201 100.6006,-91.3201c55.56018,0 100.6006,40.8854 100.6006,91.3201c0,50.4347 -45.04042,91.3201 -100.6006,91.3201z" fill="url(#color-42)" stroke="none" stroke-width="0" stroke-linecap="butt"/><path d="M269.11514,304.51639" fill="none" stroke="#ff00f7" stroke-width="4.5" stroke-linecap="round"/><path d="M233.62751,346.56195c0,0 -1.55562,-18.52958 -1.55562,-29.18392c0,-12.89709 1.55562,-42.76357 1.55562,-42.76357l9.17291,18.19735l8.06305,-30.34098l14.1914,27.43124l13.34075,-22.78186l10.26201,35.10653l15.16731,-27.61228c0,0 2.33343,27.9621 2.33343,40.62459c0,11.11874 -2.33343,31.32291 -2.33343,31.32291z" fill="#fbff00" stroke="#fbff00" stroke-width="6" stroke-linecap="butt"/></g><g data-paper-data="{&quot;index&quot;:null}"><path d="M86.29955,401.69653c-55.56018,0 -100.6006,-40.8854 -100.6006,-91.3201c0,-50.4347 45.04042,-91.3201 100.6006,-91.3201c55.56018,0 100.6006,40.8854 100.6006,91.3201c0,50.4347 -45.04042,91.3201 -100.6006,91.3201z" fill="url(#color-43)" stroke="none" stroke-width="0" stroke-linecap="butt"/><path d="M85.43646,297.50435" fill="none" stroke="#ff00f7" stroke-width="4.5" stroke-linecap="round"/><path d="M49.94886,339.54994c0,0 -1.55562,-18.52958 -1.55562,-29.18392c0,-12.89709 1.55562,-42.76357 1.55562,-42.76357l9.1729,18.19734l8.06305,-30.34098l14.1914,27.43124l13.34074,-22.78186l10.26201,35.10653l15.16731,-27.61228c0,0 2.33343,27.9621 2.33343,40.62459c0,11.11874 -2.33343,31.32291 -2.33343,31.32291z" fill="#fbff00" stroke="#fbff00" stroke-width="6" stroke-linecap="butt"/></g><g data-paper-data="{&quot;index&quot;:null}"><path d="M28.79504,344.37943c0,-50.4347 45.04042,-91.3201 100.6006,-91.3201c55.56018,0 100.6006,40.8854 100.6006,91.3201c0,50.4347 -45.04042,91.3201 -100.6006,91.3201c-55.56018,0 -100.6006,-40.8854 -100.6006,-91.3201z" fill="url(#color-44)" stroke="none" stroke-width="0" stroke-linecap="butt"/><path d="M130.25873,331.50738" fill="none" stroke="#ff00f7" stroke-width="4.5" stroke-linecap="round"/><path d="M95.54892,373.55295c0,0 -2.33343,-20.20417 -2.33343,-31.32291c0,-12.66249 2.33343,-40.62459 2.33343,-40.62459l15.16731,27.61228l10.26201,-35.10653l13.34074,22.78186l14.1914,-27.43124l8.06305,30.34098l9.17291,-18.19734c0,0 1.55562,29.86648 1.55562,42.76357c0,10.65434 -1.55562,29.18392 -1.55562,29.18392z" fill="#fbff00" stroke="#fbff00" stroke-width="6" stroke-linecap="butt"/></g><g data-paper-data="{&quot;index&quot;:null}"><path d="M303.05931,437.71154c-55.56018,0 -100.6006,-40.8854 -100.6006,-91.3201c0,-50.4347 45.04042,-91.3201 100.6006,-91.3201c55.56018,0 100.6006,40.8854 100.6006,91.3201c0,50.4347 -45.04042,91.3201 -100.6006,91.3201z" fill="url(#color-45)" stroke="none" stroke-width="0" stroke-linecap="butt"/><path d="M302.19622,333.51939" fill="none" stroke="#ff00f7" stroke-width="4.5" stroke-linecap="round"/><path d="M266.70861,375.56496c0,0 -1.55563,-18.52958 -1.55563,-29.18392c0,-12.89709 1.55563,-42.76357 1.55563,-42.76357l9.17291,18.19734l8.06305,-30.34098l14.1914,27.43124l13.34074,-22.78186l10.26201,35.10653l15.16731,-27.61228c0,0 2.33343,27.9621 2.33343,40.62459c0,11.11874 -2.33343,31.32291 -2.33343,31.32291z" fill="#fbff00" stroke="#fbff00" stroke-width="6" stroke-linecap="butt"/></g><path d="" fill="none" stroke="#ff00f7" stroke-width="4.5" stroke-linecap="round"/><path d="" fill="none" stroke="#ff00f7" stroke-width="4.5" stroke-linecap="round"/><path d="" fill="none" stroke="#ff00f7" stroke-width="4.5" stroke-linecap="round"/><g data-paper-data="{&quot;index&quot;:null}"><path d="M478.22447,436.72054c-55.56018,0 -100.6006,-40.8854 -100.6006,-91.3201c0,-50.4347 45.04042,-91.3201 100.6006,-91.3201c55.56018,0 100.6006,40.8854 100.6006,91.3201c0,50.4347 -45.04042,91.3201 -100.6006,91.3201z" fill="url(#color-46)" stroke="none" stroke-width="0" stroke-linecap="butt"/><path d="M477.36138,332.5284" fill="none" stroke="#ff00f7" stroke-width="4.5" stroke-linecap="round"/><path d="M441.87377,374.57397c0,0 -1.55562,-18.52958 -1.55562,-29.18393c0,-12.8971 1.55562,-42.76357 1.55562,-42.76357l9.17291,18.19735l8.06305,-30.34098l14.1914,27.43124l13.34074,-22.78186l10.26201,35.10653l15.16731,-27.61228c0,0 2.33343,27.9621 2.33343,40.62459c0,11.11874 -2.33343,31.32291 -2.33343,31.32291z" fill="#fbff00" stroke="#fbff00" stroke-width="6" stroke-linecap="butt"/></g><g data-paper-data="{&quot;index&quot;:null}"><path d="M392.14339,440.21904c-55.56018,0 -100.6006,-40.8854 -100.6006,-91.3201c0,-50.4347 45.04042,-91.3201 100.6006,-91.3201c55.56018,0 100.6006,40.8854 100.6006,91.3201c0,50.4347 -45.04042,91.3201 -100.6006,91.3201z" fill="url(#color-47)" stroke="none" stroke-width="0" stroke-linecap="butt"/><path d="M391.2803,336.0269" fill="none" stroke="#ff00f7" stroke-width="4.5" stroke-linecap="round"/><path d="M355.7927,378.07249c0,0 -1.55563,-18.52959 -1.55563,-29.18393c0,-12.8971 1.55563,-42.76357 1.55563,-42.76357l9.1729,18.19734l8.06305,-30.34098l14.1914,27.43124l13.34074,-22.78186l10.26201,35.10653l15.16731,-27.61228c0,0 2.33343,27.96209 2.33343,40.62458c0,11.11874 -2.33343,31.32291 -2.33343,31.32291z" fill="#fbff00" stroke="#fbff00" stroke-width="6" stroke-linecap="butt"/></g><g data-paper-data="{&quot;index&quot;:null}"><path d="M216.97822,439.70854c-55.56018,0 -100.6006,-40.8854 -100.6006,-91.3201c0,-50.4347 45.04042,-91.3201 100.6006,-91.3201c55.56018,0 100.6006,40.8854 100.6006,91.3201c0,50.4347 -45.04042,91.3201 -100.6006,91.3201z" fill="url(#color-48)" stroke="none" stroke-width="0" stroke-linecap="butt"/><path d="M216.11514,335.51639" fill="none" stroke="#ff00f7" stroke-width="4.5" stroke-linecap="round"/><path d="M180.62751,377.56195c0,0 -1.55562,-18.52958 -1.55562,-29.18392c0,-12.89709 1.55562,-42.76357 1.55562,-42.76357l9.17291,18.19735l8.06305,-30.34098l14.1914,27.43124l13.34075,-22.78186l10.26201,35.10653l15.16731,-27.61228c0,0 2.33343,27.9621 2.33343,40.62459c0,11.11874 -2.33343,31.32291 -2.33343,31.32291z" fill="#fbff00" stroke="#fbff00" stroke-width="6" stroke-linecap="butt"/></g><g data-paper-data="{&quot;index&quot;:null}"><path d="M33.29955,432.69653c-55.56018,0 -100.6006,-40.8854 -100.6006,-91.3201c0,-50.4347 45.04042,-91.3201 100.6006,-91.3201c55.56018,0 100.6006,40.8854 100.6006,91.3201c0,50.4347 -45.04042,91.3201 -100.6006,91.3201z" fill="url(#color-49)" stroke="none" stroke-width="0" stroke-linecap="butt"/><path d="M32.43646,328.50435" fill="none" stroke="#ff00f7" stroke-width="4.5" stroke-linecap="round"/><path d="M-3.05114,370.54994c0,0 -1.55562,-18.52958 -1.55562,-29.18392c0,-12.89709 1.55562,-42.76357 1.55562,-42.76357l9.1729,18.19734l8.06305,-30.34098l14.1914,27.43124l13.34074,-22.78186l10.26201,35.10653l15.16731,-27.61228c0,0 2.33343,27.9621 2.33343,40.62459c0,11.11874 -2.33343,31.32291 -2.33343,31.32291z" fill="#fbff00" stroke="#fbff00" stroke-width="6" stroke-linecap="butt"/></g><g><path d="M495.08196,78.6333c-1.84993,-4.94591 -15.75065,-42.11023 -17.60059,-47.05614c2.59955,-0.63623 6.81787,1.38392 10.03972,5.07713c3.0116,3.4522 5.07196,8.44537 6.36384,11.89928c3.7511,10.02875 8.22528,21.99076 8.5728,22.91985c0.76899,2.05593 1.44413,3.86094 1.44413,3.86094z" data-paper-data="{&quot;index&quot;:null}" fill="#800000" stroke="none" stroke-width="0" stroke-linecap="butt"/><path d="M442.83335,220.58399v-53.38023c7.3754,-0.01156 14.75126,-0.02818 22.12714,-0.03814c-0.07167,23.73696 -0.05894,47.03581 0.59748,53.41837z" fill="#800000" stroke="none" stroke-width="0" stroke-linecap="butt"/><path d="M442.83913,115.63336h21.98157c0.36144,6.23899 0.24283,28.57191 0.16343,51.69907c-7.38183,0.00993 -14.76365,0.02651 -22.145,0.03804c0,0 -0.16666,-8.92688 -0.16666,-15.98712c0,-4.33146 -2.16666,-13.49153 -2.16666,-20.16667c0,-7.91659 2.33333,-15.58333 2.33333,-15.58333z" fill="#ff8800" stroke="none" stroke-width="0" stroke-linecap="butt"/><path d="M485.33573,220.18584h-16.92808c-0.73681,-6.58335 -1.01052,-29.86295 -1.19865,-53.52629c6.0424,-0.0048 12.08473,-0.00316 18.12674,0.01136z" fill="#800000" stroke="none" stroke-width="0" stroke-linecap="butt"/><path d="M485.67339,115.96669c0,0 3.83334,7.12101 3.83334,16.75c0,6.4711 -3.83334,20.02108 -3.83334,23.83334c0,6.2217 0,10.78766 0,10.78766c-6.05613,-0.01449 -12.11258,-0.01609 -18.1691,-0.01125c-0.17165,-22.89682 -0.29039,-44.96685 -0.69983,-51.35974z" fill="#ff8800" stroke="none" stroke-width="0" stroke-linecap="butt"/><path d="M442.5899,128.72305v-13.12302h43.36563v13.12302z" fill="#ff8800" stroke="none" stroke-width="0" stroke-linecap="butt"/><path d="M403.229,50.21459c0,0 1.73304,-0.84288 3.707,-1.80293c1.01707,-0.49466 15.80462,-7.68668 25.91102,-12.602c5.07631,-2.46889 16.88381,-3.45809 19.68046,0.89961c-4.7487,2.30956 -40.4312,19.66399 -45.1799,21.97355z" fill="#800000" stroke="none" stroke-width="0" stroke-linecap="butt"/><path d="M456.40976,32.54287c5.3981,0 13.37403,0 21.22673,0c2.53933,0 5.06578,0.04337 7.48799,0.12203c0.00741,2.17669 3.90213,8.00604 3.95873,15.3101c0.03467,4.47363 -3.78066,9.33751 -3.73428,14.73269c0.0797,9.26841 -3.62708,19.51764 -3.53329,28.45314c0.12755,12.15197 4.05615,22.02927 4.15319,25.14396h-13.36418c-0.73929,-0.08044 -1.80349,-0.13678 -3.33494,-0.12902c-1.33078,0.00673 -2.27934,0.05814 -2.95531,0.12902h-23.93107c0,-3.21296 1.8,-12.88584 1.8,-25.86751c0,-8.90973 -1.8,-20.05402 -1.8,-29.03196c0,-5.35922 -3.85714,-9.88025 -3.85714,-14.21388c0,-6.51245 3.85714,-11.94531 3.85714,-13.92346c4.95569,-0.45992 10.00376,-0.72511 14.02644,-0.72511z" fill="#800000" stroke="#000000" stroke-width="0.5" stroke-linecap="butt"/><path d="M376.79014,63.07331c0,0 1.32601,-0.64491 2.83633,-1.37946c1.16906,-0.56859 26.11686,-12.70212 26.97736,-13.12063c0.38482,-0.18716 0.8418,-0.40942 1.32361,-0.64375c0.55849,-0.27162 1.15033,-0.55947 1.7018,-0.82769c0.6864,-0.33384 3.17987,3.20693 5.84788,7.62718c-3.63336,1.76711 -30.93503,15.04546 -34.56839,16.81257z" fill="#ff8800" stroke="none" stroke-width="0" stroke-linecap="butt"/><path d="M505.24572,106.21406c-1.41544,-3.78425 -12.05125,-32.21969 -13.46669,-36.00394c4.97934,-1.36492 9.22618,-2.21274 9.49357,-1.49784c0.21483,0.57437 0.44539,1.19079 0.66296,1.77247c0.1877,0.50182 0.36573,0.97778 0.51565,1.37858c0.33521,0.89622 10.05405,26.88006 10.50948,28.09766c0.58837,1.57305 1.10494,2.95412 1.10494,2.95412z" data-paper-data="{&quot;index&quot;:null}" fill="#ff8800" stroke="none" stroke-width="0" stroke-linecap="butt"/><path d="M442.9,116.10003c0,0 0.8,-20.2603 0.8,-32c0,-5.13584 -0.94086,-12.69169 -1.12604,-20.40658c-0.14183,-5.90854 -3.51851,-12.51035 -3.43927,-17.58977c0.11929,-7.64717 3.76531,-12.60366 3.76531,-12.60366l12.2,35.2l-12.2,47.4z" fill="#ff8800" stroke="#ff8800" stroke-width="0.5" stroke-linecap="round"/><path d="M361.30865,73.85988c0.79934,-1.7101 4.23383,-4.13215 5.47105,-5.69771c0.33194,-0.42003 -1.93194,0.09931 -2.82444,-0.12378c-1.12869,-0.28211 -0.96048,-1.27087 -0.51277,-1.51916c2.34143,-1.29853 6.71251,-2.97821 7.11194,-3.21322c3.24919,-1.91178 7.80388,0.13129 9.78235,3.49382c1.97847,3.36254 0.94835,7.6382 -2.30083,9.54998c-3.24919,1.91178 -13.16889,5.50769 -15.14737,2.14515c-0.71349,-1.21261 -2.55684,-2.54507 -1.57992,-4.6351z" data-paper-data="{&quot;index&quot;:null}" fill="#ffd4a2" stroke="none" stroke-width="0" stroke-linecap="butt"/><path d="M485.33332,116.70002l-12.2,-47.4l12.2,-35.2c0,0 3.64602,4.9565 3.76531,12.60366c0.07923,5.07942 -3.29744,11.68123 -3.43928,17.58977c-0.18518,7.71489 -1.12604,15.27074 -1.12604,20.40657c0,11.73971 0.8,32 0.8,32z" data-paper-data="{&quot;index&quot;:null}" fill="#ff8800" stroke="#ff8800" stroke-width="0.5" stroke-linecap="round"/><path d="M515.59117,123.59594c-3.7568,1.05233 -8.4144,-8.41539 -9.43126,-12.04556c-1.01686,-3.63017 1.2043,-7.42608 4.96109,-8.47841c3.7568,-1.05233 8.45596,0.63209 9.47283,4.26226c0.125,0.44627 2.11139,4.68676 2.89902,7.2457c0.15061,0.4893 -0.41351,1.31859 -1.42261,0.73958c-0.79795,-0.45785 -2.06977,-2.40138 -2.12164,-1.86854c-0.19338,1.98603 0.60335,6.11243 -0.00583,7.89914c-0.74452,2.18365 -2.9968,1.86635 -4.3516,2.24585z" data-paper-data="{&quot;index&quot;:null}" fill="#ffd4a2" stroke="none" stroke-width="0" stroke-linecap="butt"/><path d="M465.45279,31.71383c0,0 -0.73398,0.16218 -1.15666,0.16515c-0.4942,0.00348 -1.62765,-0.14554 -1.62765,-0.14554" fill="none" stroke="#ffc480" stroke-width="0.5" stroke-linecap="round"/><path d="M481.97619,61.80955c0,0 -4.04809,1.26552 -9.28555,1.24457c-3.00582,-0.01202 -7.07401,-1.31001 -9.28615,-1.31886c-2.55912,-0.01023 -6.17572,1.26102 -9.42785,1.24801c-4.1548,-0.01662 -7.71473,-1.31658 -7.71473,-1.31658" fill="none" stroke="#000000" stroke-width="0.5" stroke-linecap="round"/><path d="M464.73919,36.05002c-12.90583,0 -23.36807,-13.78916 -23.36807,-26.56329c0,-12.77413 10.46225,-23.12962 23.36807,-23.12962c12.90584,0 23.36807,10.35549 23.36807,23.12962c0,12.77414 -10.46225,26.56329 -23.36807,26.56329z" fill="#000000" stroke="#000000" stroke-width="0.5" stroke-linecap="butt"/><path d="M464.03256,33.55776c-10.90283,0 -19.7413,-11.64904 -19.7413,-22.4406c0,-10.79156 8.83848,-19.53986 19.7413,-19.53986c10.90283,0 19.7413,8.74829 19.7413,19.53986c0,10.79156 -8.83849,22.4406 -19.7413,22.4406z" fill="#ffd4a2" stroke="#000000" stroke-width="0.5" stroke-linecap="butt"/><path d="M445.34573,-1.98892c0,0 -4.56971,-7.24337 -7.44054,-11.22066c-3.04478,-4.2183 -14.22587,-4.89026 -14.22587,-4.89026c0,0 11.37803,-4.02828 14.39059,-2.05231c2.69197,1.76569 7.64618,5.01524 7.64618,5.01524l9.07396,-29.25891l11.11097,23.51823l26.66635,-26.85152c0,0 -8.06705,10.9626 -9.22888,19.28909c-1.04876,7.51613 2.5623,28.48811 2.5623,28.48811c0,0 -2.67228,-5.75634 -7.20639,-9.50236c-1.88185,-1.55477 -0.75108,19.85761 -0.75108,19.85761c0,0 -10.56387,-24.69581 -12.2287,-24.77361c-0.20473,-0.00956 -9.38132,17.78737 -9.38132,17.78737c0,0 -2.40429,-14.77929 -6.026,-11.99277c-4.35407,3.34999 -4.96159,6.58675 -4.96159,6.58675z" fill="#ff8800" stroke="#ff8800" stroke-width="1" stroke-linecap="round"/><path d="M432.65128,1.69175c-4.54696,-2.52783 -14.95675,1.6079 -14.95675,1.6079c0,0 8.5938,-8.47545 12.16015,-7.96442c3.18682,0.45665 9.05176,1.29708 9.05176,1.29708l-4.19807,-30.34463l20.04012,16.58176l-7.8661,-29.4439l26.55789,20.88985l8.29725,19.01664c0,0 -4.86224,-4.07861 -10.55741,-5.54686c-5.1329,-1.32329 -10.98377,-0.12295 -13.83933,1.05585c-2.91644,1.20393 -11.84262,6.7018 -14.08551,11.0438c-2.52129,4.88093 -2.26247,8.58521 -2.26247,8.58521c0,0 -4.05436,-4.39488 -8.34153,-6.77829z" fill="#ff8800" stroke="#ff8800" stroke-width="1" stroke-linecap="round"/><path d="M455.34494,19.23135c-3.81095,0 -6.90035,-1.57002 -6.90035,-3.50673c0,-0.986 3.57704,-2.58111 7.08891,-2.56314c3.38619,0.01732 6.7118,1.61243 6.7118,2.56314c0,1.93671 -3.08939,3.50673 -6.90035,3.50673z" fill="#ffffff" stroke="#4d0b0b" stroke-width="0" stroke-linecap="butt"/><path d="M473.4442,19.00512c-3.81095,0 -6.90035,-1.57002 -6.90035,-3.50673c0,-0.99038 3.54672,-3.14531 7.07355,-3.12279c3.36993,0.02153 6.72713,2.17646 6.72713,3.12279c0,1.93671 -3.08939,3.50673 -6.90035,3.50673z" fill="#ffffff" stroke="#4d0b0b" stroke-width="0" stroke-linecap="butt"/><path d="M456.36952,18.69213c-0.64974,0 -1.17646,-0.74618 -1.17646,-1.66664c0,-0.92046 0.52671,-1.66665 1.17646,-1.66665c0.64974,0 1.17646,0.74618 1.17646,1.66665c0,0.92046 -0.52672,1.66664 -1.17646,1.66664z" fill="#000000" stroke="#000000" stroke-width="1" stroke-linecap="butt"/><path d="M472.18588,18.47249c-0.64974,0 -1.17645,-0.74618 -1.17645,-1.66664c0,-0.92046 0.52671,-1.66664 1.17645,-1.66664c0.64974,0 1.17645,0.74618 1.17645,1.66664c0,0.92046 -0.52671,1.66664 -1.17645,1.66664z" fill="#000000" stroke="#000000" stroke-width="1" stroke-linecap="butt"/><path d="M468.7999,27.08479c0.50103,0 -2.98197,0.94732 -4.25683,0.94732c-1.34955,0 -3.32628,-1.32703 -4.38473,-1.13077c-0.56064,0.10395 8.64156,0.18345 8.64156,0.18345z" fill="#ab0000" stroke="#ab0000" stroke-width="0.5" stroke-linecap="round"/><path d="M462.52777,23.23643c0,-0.12885 0.75014,-0.23329 1.67547,-0.23329c0.92533,0 1.67546,0.10445 1.67546,0.23329c0,0.12885 -0.75013,0.23329 -1.67546,0.23329c-0.92533,0 -1.67547,-0.10444 -1.67547,-0.23329z" fill="none" stroke="#ffc480" stroke-width="0.5" stroke-linecap="butt"/><path d="M449.04762,22.81261c0,-2.83204 1.25877,-4.34216 4.75,-4.34216c3.49123,0 6.32143,2.29583 6.32143,5.12788c0,2.83204 -1.68735,4.98502 -5.17858,4.98502c-3.49123,0 -5.89285,-2.93868 -5.89285,-5.77073z" fill="url(#color-50)" stroke="none" stroke-width="NaN" stroke-linecap="butt"/><path d="M467.76191,23.24119c0,-2.83204 2.8302,-5.12788 6.32143,-5.12788c3.49123,0 5.101,4.60473 5.08895,4.73409c-0.13191,1.41576 -1.05421,2.68115 -1.99351,3.75201c-0.81817,0.93276 -1.54582,1.76964 -3.09545,1.76964c-3.49123,0 -6.32143,-2.29583 -6.32143,-5.12787z" fill="url(#color-51)" stroke="none" stroke-width="NaN" stroke-linecap="butt"/><path d="M462.42881,15.74509c0,0 -1.38169,-1.24112 -3.49419,-2.04079c-1.09647,-0.41506 -2.89564,-0.64521 -3.72819,-0.66105c-0.96082,-0.01828 -2.70313,0.25171 -3.98624,0.74789c-1.79092,0.69255 -3.02973,1.68303 -3.02973,1.68303l-1.63686,0.0099l0.10545,-1.56122l1.63004,0.14964c0,0 1.32943,-0.86506 3.1793,-1.37981c1.32535,-0.36879 3.08567,-0.46772 4.04015,-0.35591c0.82704,0.09689 2.59522,0.50124 3.64603,1.02117c2.02452,1.0017 3.27872,2.37154 3.27872,2.37154" fill="#000000" stroke="#000000" stroke-width="0.5" stroke-linecap="round"/><path d="M466.35645,12.46278c0,0 1.23283,-1.38909 3.24161,-2.42202c1.04264,-0.53613 2.80435,-0.96783 3.62979,-1.07751c0.95263,-0.12658 2.71427,-0.0549 4.04517,0.29333c1.85762,0.48605 3.20029,1.33042 3.20029,1.33042l2.45115,-0.23947l0.08613,1.95331l-2.46251,-0.03863c0,0 -1.23882,-0.99049 -3.02973,-1.68303c-1.28311,-0.49618 -3.02542,-0.76617 -3.98624,-0.74789c-0.83254,0.01584 -2.63172,0.246 -3.72819,0.66106c-2.1125,0.79967 -3.49419,2.04078 -3.49419,2.04078" data-paper-data="{&quot;index&quot;:null}" fill="#000000" stroke="#000000" stroke-width="0.5" stroke-linecap="round"/><path d="M455.91257,18.17787c0,-0.13807 0.11193,-0.25 0.25,-0.25c0.13807,0 0.25,0.11193 0.25,0.25c0,0.13807 -0.11193,0.25 -0.25,0.25c-0.13807,0 -0.25,-0.11193 -0.25,-0.25z" fill="#ffffff" stroke="none" stroke-width="0.5" stroke-linecap="butt"/><path d="M471.45103,17.9471c0,-0.13807 0.11193,-0.25 0.25,-0.25c0.13807,0 0.25,0.11193 0.25,0.25c0,0.13807 -0.11193,0.25 -0.25,0.25c-0.13807,0 -0.25,-0.11193 -0.25,-0.25z" fill="#ffffff" stroke="none" stroke-width="0.5" stroke-linecap="butt"/><path d="M456.87411,16.10095c0,-0.13807 0.11193,-0.25 0.25,-0.25c0.13807,0 0.25,0.11193 0.25,0.25c0,0.13807 -0.11193,0.25 -0.25,0.25c-0.13807,0 -0.25,-0.11193 -0.25,-0.25z" fill="#ffffff" stroke="none" stroke-width="0.5" stroke-linecap="butt"/><path d="M472.37411,15.90865c0,-0.13807 0.11193,-0.25 0.25,-0.25c0.13807,0 0.25,0.11193 0.25,0.25c0,0.13807 -0.11193,0.25 -0.25,0.25c-0.13807,0 -0.25,-0.11193 -0.25,-0.25z" fill="#ffffff" stroke="none" stroke-width="0.5" stroke-linecap="butt"/><path d="M358.45,12.50002c0,-0.13807 0.11193,-0.25 0.25,-0.25c0.13807,0 0.25,0.11193 0.25,0.25c0,0.13807 -0.11193,0.25 -0.25,0.25c-0.13807,0 -0.25,-0.11193 -0.25,-0.25z" fill="#ffffff" stroke="none" stroke-width="0.5" stroke-linecap="butt"/><path d="M446.12381,64.95716v-3.06667c0,0 4.50222,1.26667 8.26667,1.26667c1.90633,0 4.70218,-1.03896 8.18897,-1.18922c3.06866,-0.13223 7.25686,1.28681 10.34441,1.28022c5.55289,-0.01186 9.33328,-1.35767 9.33328,-1.35767v3.06667z" fill="url(#color-52)" stroke="#ff8800" stroke-width="0" stroke-linecap="butt"/></g><g data-paper-data="{&quot;index&quot;:null}"><path d="M-30.76952,544.30313c-104.48631,0 -189.18919,-76.88896 -189.18919,-171.73631c0,-94.84735 84.70288,-171.73631 189.18919,-171.73631c104.48631,0 189.18919,76.88896 189.18919,171.73631c0,94.84735 -84.70288,171.73631 -189.18919,171.73631z" fill="url(#color-53)" stroke="none" stroke-width="0" stroke-linecap="butt"/><path d="M-32.39264,348.35965" fill="none" stroke="#ff00f7" stroke-width="4.5" stroke-linecap="round"/><path d="M-99.13052,427.43044c0,0 -2.92549,-34.84667 -2.92549,-54.88319c0,-24.25423 2.92549,-80.42104 2.92549,-80.42104l17.25053,34.22186l15.16335,-57.05916l26.6883,51.58711l25.08856,-42.8435l19.29871,66.02124l28.5236,-51.92757c0,0 4.38824,52.58544 4.38824,76.39848c0,20.90987 -4.38824,58.90577 -4.38824,58.90577z" fill="#fbff00" stroke="#fbff00" stroke-width="6" stroke-linecap="butt"/></g><g data-paper-data="{&quot;index&quot;:null}"><path d="M131.88814,571.82565c-104.48631,0 -189.18919,-76.88896 -189.18919,-171.73631c0,-94.84735 84.70288,-171.73631 189.18919,-171.73631c104.48631,0 189.18919,76.88896 189.18919,171.73631c0,94.84735 -84.70288,171.73631 -189.18919,171.73631z" fill="url(#color-54)" stroke="none" stroke-width="0" stroke-linecap="butt"/><path d="M130.26501,375.88217" fill="none" stroke="#ff00f7" stroke-width="4.5" stroke-linecap="round"/><path d="M63.52714,454.95296c0,0 -2.92549,-34.84668 -2.92549,-54.88319c0,-24.25423 2.92549,-80.42104 2.92549,-80.42104l17.25053,34.22186l15.16335,-57.05916l26.6883,51.58711l25.08856,-42.8435l19.29871,66.02124l28.5236,-51.92757c0,0 4.38824,52.58544 4.38824,76.39848c0,20.90987 -4.38824,58.90577 -4.38824,58.90577z" fill="#fbff00" stroke="#fbff00" stroke-width="6" stroke-linecap="butt"/></g><g data-paper-data="{&quot;index&quot;:null}"><path d="M284.03529,582.83166c-104.48631,0 -189.18919,-76.88896 -189.18919,-171.7363c0,-94.84735 84.70288,-171.73631 189.18919,-171.73631c104.48631,0 189.18919,76.88897 189.18919,171.73631c0,94.84734 -84.70288,171.7363 -189.18919,171.7363z" fill="url(#color-55)" stroke="none" stroke-width="0" stroke-linecap="butt"/><path d="M282.41216,386.88818" fill="none" stroke="#ff00f7" stroke-width="4.5" stroke-linecap="round"/><path d="M215.67429,465.95897c0,0 -2.9255,-34.84668 -2.9255,-54.88319c0,-24.25423 2.9255,-80.42104 2.9255,-80.42104l17.25053,34.22186l15.16335,-57.05916l26.6883,51.58711l25.08856,-42.8435l19.2987,66.02123l28.5236,-51.92757c0,0 4.38825,52.58544 4.38825,76.39848c0,20.90987 -4.38825,58.90577 -4.38825,58.90577z" fill="#fbff00" stroke="#fbff00" stroke-width="6" stroke-linecap="butt"/></g><g data-paper-data="{&quot;index&quot;:null}"><path d="M454.20045,587.83166c-104.48631,0 -189.18919,-76.88896 -189.18919,-171.73631c0,-94.84735 84.70288,-171.73631 189.18919,-171.73631c104.48631,0 189.18919,76.88896 189.18919,171.73631c0,94.84735 -84.70288,171.73631 -189.18919,171.73631z" fill="url(#color-56)" stroke="none" stroke-width="0" stroke-linecap="butt"/><path d="M452.57733,391.88817" fill="none" stroke="#ff00f7" stroke-width="4.5" stroke-linecap="round"/><path d="M385.83945,470.95897c0,0 -2.92549,-34.84668 -2.92549,-54.88319c0,-24.25423 2.92549,-80.42104 2.92549,-80.42104l17.25053,34.22186l15.16335,-57.05916l26.6883,51.58711l25.08856,-42.8435l19.2987,66.02123l28.5236,-51.92757c0,0 4.38825,52.58544 4.38825,76.39848c0,20.90987 -4.38825,58.90577 -4.38825,58.90577z" fill="#fbff00" stroke="#fbff00" stroke-width="6" stroke-linecap="butt"/></g><g data-paper-data="{&quot;index&quot;:null}"><path d="M578.82507,562.30613c-104.48631,0 -189.18919,-76.88896 -189.18919,-171.73631c0,-94.84735 84.70288,-171.73631 189.18919,-171.73631c104.48631,0 189.18919,76.88896 189.18919,171.73631c0,94.84735 -84.70288,171.73631 -189.18919,171.73631z" fill="url(#color-57)" stroke="none" stroke-width="0" stroke-linecap="butt"/><path d="M577.20195,366.36265" fill="none" stroke="#ff00f7" stroke-width="4.5" stroke-linecap="round"/><path d="M510.46407,445.43344c0,0 -2.9255,-34.84668 -2.9255,-54.88319c0,-24.25423 2.9255,-80.42104 2.9255,-80.42104l17.25053,34.22186l15.16335,-57.05916l26.6883,51.58711l25.08856,-42.8435l19.29871,66.02123l28.52359,-51.92757c0,0 4.38825,52.58544 4.38825,76.39848c0,20.90987 -4.38825,58.90577 -4.38825,58.90577z" fill="#fbff00" stroke="#fbff00" stroke-width="6" stroke-linecap="butt"/></g><path d="M44,-33.64844c0,-1.38071 1.11929,-2.5 2.5,-2.5c1.38071,0 2.5,1.11929 2.5,2.5c0,1.38071 -1.11929,2.5 -2.5,2.5c-1.38071,0 -2.5,-1.11929 -2.5,-2.5z" fill="#e4e4e4" stroke="none" stroke-width="0.5" stroke-linecap="butt"/><path d="M149,-35.64844c0,-1.38071 1.11929,-2.5 2.5,-2.5c1.38071,0 2.5,1.11929 2.5,2.5c0,1.38071 -1.11929,2.5 -2.5,2.5c-1.38071,0 -2.5,-1.11929 -2.5,-2.5z" fill="#e4e4e4" stroke="none" stroke-width="0.5" stroke-linecap="butt"/><path d="M317,-21.64844c0,-1.38071 1.11929,-2.5 2.5,-2.5c1.38071,0 2.5,1.11929 2.5,2.5c0,1.38071 -1.11929,2.5 -2.5,2.5c-1.38071,0 -2.5,-1.11929 -2.5,-2.5z" fill="#e4e4e4" stroke="none" stroke-width="0.5" stroke-linecap="butt"/><path d="M295,0.35156c0,-1.38071 1.11929,-2.5 2.5,-2.5c1.38071,0 2.5,1.11929 2.5,2.5c0,1.38071 -1.11929,2.5 -2.5,2.5c-1.38071,0 -2.5,-1.11929 -2.5,-2.5z" fill="#e4e4e4" stroke="none" stroke-width="0.5" stroke-linecap="butt"/><path d="M239,-32.64844c0,-1.38071 1.11929,-2.5 2.5,-2.5c1.38071,0 2.5,1.11929 2.5,2.5c0,1.38071 -1.11929,2.5 -2.5,2.5c-1.38071,0 -2.5,-1.11929 -2.5,-2.5z" fill="#e4e4e4" stroke="none" stroke-width="0.5" stroke-linecap="butt"/><path d="M101,28.35156c0,-1.38071 1.11929,-2.5 2.5,-2.5c1.38071,0 2.5,1.11929 2.5,2.5c0,1.38071 -1.11929,2.5 -2.5,2.5c-1.38071,0 -2.5,-1.11929 -2.5,-2.5z" fill="#e4e4e4" stroke="none" stroke-width="0.5" stroke-linecap="butt"/><path d="M63,4.35156c0,-1.38071 1.11929,-2.5 2.5,-2.5c1.38071,0 2.5,1.11929 2.5,2.5c0,1.38071 -1.11929,2.5 -2.5,2.5c-1.38071,0 -2.5,-1.11929 -2.5,-2.5z" fill="#e4e4e4" stroke="none" stroke-width="0.5" stroke-linecap="butt"/><path d="M-74,14.35156c0,-1.38071 1.11929,-2.5 2.5,-2.5c1.38071,0 2.5,1.11929 2.5,2.5c0,1.38071 -1.11929,2.5 -2.5,2.5c-1.38071,0 -2.5,-1.11929 -2.5,-2.5z" fill="#e4e4e4" stroke="none" stroke-width="0.5" stroke-linecap="butt"/><path d="M-26,-32.64844c0,-1.38071 1.11929,-2.5 2.5,-2.5c1.38071,0 2.5,1.11929 2.5,2.5c0,1.38071 -1.11929,2.5 -2.5,2.5c-1.38071,0 -2.5,-1.11929 -2.5,-2.5z" fill="#e4e4e4" stroke="none" stroke-width="0.5" stroke-linecap="butt"/><path d="M204,-36.64844c0,-1.38071 1.11929,-2.5 2.5,-2.5c1.38071,0 2.5,1.11929 2.5,2.5c0,1.38071 -1.11929,2.5 -2.5,2.5c-1.38071,0 -2.5,-1.11929 -2.5,-2.5z" fill="#e4e4e4" stroke="none" stroke-width="0.5" stroke-linecap="butt"/><path d="M407,-46.64844c0,-1.38071 1.11929,-2.5 2.5,-2.5c1.38071,0 2.5,1.11929 2.5,2.5c0,1.38071 -1.11929,2.5 -2.5,2.5c-1.38071,0 -2.5,-1.11929 -2.5,-2.5z" fill="#e4e4e4" stroke="none" stroke-width="0.5" stroke-linecap="butt"/><path d="M519,-2.64844c0,-1.38071 1.11929,-2.5 2.5,-2.5c1.38071,0 2.5,1.11929 2.5,2.5c0,1.38071 -1.11929,2.5 -2.5,2.5c-1.38071,0 -2.5,-1.11929 -2.5,-2.5z" fill="#e4e4e4" stroke="none" stroke-width="0.5" stroke-linecap="butt"/><text transform="translate(178.5,129.35156) scale(0.5,0.5)" font-size="40" xml:space="preserve" fill="#fbed00" fill-rule="nonzero" stroke="none" stroke-width="1" stroke-linecap="butt" stroke-linejoin="miter" stroke-miterlimit="10" stroke-dasharray="" stroke-dashoffset="0" font-family="&quot;Microsoft YaHei&quot;, &quot;&quot;, STXihei, &quot;&quot;" font-weight="normal" text-anchor="start" style="mix-blend-mode: normal"><tspan x="0" dy="0">Blaze Fire</tspan></text></g></g></svg>