<svg version="1.1" xmlns="http://www.w3.org/2000/svg" xmlns:xlink="http://www.w3.org/1999/xlink" width="731" height="495.02281" viewBox="0,0,731,495.02281"><g transform="translate(130.5,40.5)"><g data-paper-data="{&quot;isPaintingLayer&quot;:true}" fill-rule="nonzero" stroke-linejoin="miter" stroke-miterlimit="10" stroke-dasharray="" stroke-dashoffset="0" style="mix-blend-mode: normal"><path d="M-121,183.5v-223h717v223z" fill="#cf00ff" stroke="#2100ff" stroke-width="2" stroke-linecap="butt"/><path d="M-66.5,451.5l7,-269h90l-6,267z" fill="#3a3a3a" stroke="#3a3a3a" stroke-width="2" stroke-linecap="round"/><path d="M21.5,451.5v-120h315v120z" fill="#3a3a3a" stroke="#3a3a3a" stroke-width="2" stroke-linecap="butt"/><path d="M334.5,451.5l-6,-267h90l7,269z" data-paper-data="{&quot;index&quot;:null}" fill="#3a3a3a" stroke="#3a3a3a" stroke-width="2" stroke-linecap="round"/><path d="M29.5,331.5v-152h301v152z" fill="#cf00ff" stroke="#cf00ff" stroke-width="2" stroke-linecap="butt"/><path d="M-129.5,451.5v-275h70v275z" fill="#cf00ff" stroke="#cf00ff" stroke-width="2" stroke-linecap="butt"/><path d="M419.5,447.5v-270h180v270z" fill="#cf00ff" stroke="#cf00ff" stroke-width="2" stroke-linecap="butt"/><path d="M275.5,179.5c-71.79702,0 -130,-45.66696 -130,-102c0,-56.33304 58.20298,-102 130,-102c71.79702,0 130,45.66696 130,102c0,56.33304 -58.20298,102 -130,102z" fill="#2f00ff" stroke="#ff00cd" stroke-width="27.5" stroke-linecap="butt"/><path d="M166.5,80.5l103,-1l-5,98" fill="none" stroke="#ff00cd" stroke-width="27.5" stroke-linecap="round"/><path d="M261.5,164.5l14,-87l114,-5" fill="none" stroke="#ff00cd" stroke-width="27.5" stroke-linecap="round"/><path d="M264.5,-2.5l-3,84" fill="none" stroke="#ff00cd" stroke-width="27.5" stroke-linecap="round"/><path d="M143.68447,228.77509l-2.29126,101.96117l-17.94821,0.38187l2.29126,-73.32039l-16.03883,-0.76375l-1.52752,74.46602l-26.34951,-0.38188l0.76375,-101.19741z" fill="#1dff00" stroke="#000000" stroke-width="2" stroke-linecap="round"/><path d="M119.24434,138.27022l0.76376,6.49191l3.05502,2.29126l13.3657,0.38187l54.99029,-20.23949l9.54692,17.56634l-59.19094,25.58576l2.67314,58.42718l-63.39158,0.38187l-0.38188,-59.19093l-48.88026,13.74757l-5.72816,-21.38512l62.62784,-16.03883h11.83818l6.49191,-1.90939l0.76376,-6.49191" fill="#005fff" stroke="#000000" stroke-width="2" stroke-linecap="round"/><path d="M132.68641,106.49806c0,0 3.65822,13.59747 -0.68738,20.16311c-4.3456,6.56563 -11.2889,12.80858 -20.39223,11.68544c-9.10333,-1.12314 -11.93049,-7.65378 -14.8932,-16.03883c-2.96272,-8.38506 -1.7851,-12.69431 2.74951,-18.3301c4.53461,-5.63578 13.59634,-8.51916 18.55124,-8.14328c0.32384,0.02456 5.55486,2.20128 9.1213,4.84546c3.60839,2.67528 5.55077,5.81821 5.55077,5.81821z" fill="#0047ff" stroke="#000000" stroke-width="2" stroke-linecap="round"/><path d="M208.75631,143.38738c-6.70678,0 -12.14369,-4.77012 -12.14369,-10.65437c0,-5.88425 5.43691,-10.65437 12.14369,-10.65437c6.70678,0 12.14369,4.77012 12.14369,10.65437c0,5.88425 -5.43691,10.65437 -12.14369,10.65437z" fill="#1dff00" stroke="#000000" stroke-width="2" stroke-linecap="butt"/><path d="M18.35243,186.00485c-5.44135,0 -9.85243,-4.71883 -9.85243,-10.53981c0,-5.82097 4.41108,-10.53981 9.85243,-10.53981c5.44135,0 9.85243,4.71883 9.85243,10.53981c0,5.82097 -4.41108,10.53981 -9.85243,10.53981z" fill="#00ff08" stroke="#000000" stroke-width="2" stroke-linecap="butt"/><path d="M130.8534,128.03592l-31.61942,0.45825c0,0 -3.35838,-5.08822 -3.89529,-7.02708c-0.75924,-2.74175 -0.22898,-7.86612 -0.22898,-7.86612l37.34757,-0.22913c0,0 1.74742,4.2849 1.4783,6.74549c-0.26545,2.42699 -3.08217,7.91859 -3.08217,7.91859z" fill="#000000" stroke="#000000" stroke-width="2" stroke-linecap="round"/><text transform="translate(105.87864,192.87864) scale(0.57282,0.57282)" font-size="40" xml:space="preserve" fill="#5dff00" fill-rule="nonzero" stroke="none" stroke-width="1" stroke-linecap="butt" stroke-linejoin="miter" stroke-miterlimit="10" stroke-dasharray="" stroke-dashoffset="0" font-family="Sans Serif" font-weight="normal" text-anchor="start" style="mix-blend-mode: normal"><tspan x="0" dy="0">c</tspan></text><path d="M99.23398,130.21262l30.47379,-1.37476c0,0 -8.18557,9.92909 -15.35146,10.08155c-7.1659,0.15246 -15.12233,-8.7068 -15.12233,-8.7068z" fill="#29ff00" stroke="#000000" stroke-width="2" stroke-linecap="round"/><path d="M81.59126,228.50777l-1.60388,-58.42718l-46.74175,11.45631l-1.83301,-6.64466l46.74175,-13.9767l20.62136,15.80971l-0.45825,52.69903z" fill="#00ff2d" stroke="#00ff08" stroke-width="2" stroke-linecap="round"/><path d="M124.43786,227.59126l-0.45825,-52.69903l20.62136,-15.80971l48.57476,-23.37087l5.2699,8.24854l-55.67767,24.28738l-1.60388,58.42718z" data-paper-data="{&quot;index&quot;:null}" fill="#00ff2d" stroke="#00ff08" stroke-width="2" stroke-linecap="round"/><path d="M82.73255,231.96999l25.43647,40.23061l-2.06241,57.5185l-23.1449,0.33025z" fill="#2100ff" stroke="#2100ff" stroke-width="2" stroke-linecap="round"/><path d="M125.58497,327.88583l0.22916,-55.68524l15.81186,-41.60555l-0.22916,98.76682z" fill="#2100ff" stroke="#2100ff" stroke-width="2" stroke-linecap="round"/><path d="M9.31944,169.18056l-22.69444,5.44444l14,5.25l-7,13.5l11,-0.75l0.25,7.75l16.02778,-13.58333c0,0 -9.90117,-1.06713 -11.91667,-4.44444c-2.0155,-3.37732 0.33333,-13.16667 0.33333,-13.16667z" fill="#eb94ff" stroke="#eb94ff" stroke-width="0.5" stroke-linecap="round"/><path d="M-12.125,167.375l-24,-28" fill="none" stroke="#eb94ff" stroke-width="0.5" stroke-linecap="round"/><path d="M-19.625,191.125l-23.75,15.75" fill="none" stroke="#eb94ff" stroke-width="0.5" stroke-linecap="round"/><path d="M9.375,205.125l14.5,21" fill="none" stroke="#eb94ff" stroke-width="0.5" stroke-linecap="round"/><path d="M-5.625,212.625l-19.25,15" fill="none" stroke="#eb94ff" stroke-width="0.5" stroke-linecap="round"/><path d="M-25.125,176.625l-37.5,-9.25" fill="none" stroke="#eb94ff" stroke-width="0.5" stroke-linecap="round"/><text transform="translate(-76.05641,140.30219) scale(0.17383,-0.17383)" font-size="40" xml:space="preserve" fill="#4d005e" fill-rule="nonzero" stroke="none" stroke-width="1" stroke-linecap="butt" stroke-linejoin="miter" stroke-miterlimit="10" stroke-dasharray="" stroke-dashoffset="0" font-family="Sans Serif" font-weight="normal" text-anchor="start" style="mix-blend-mode: normal"><tspan x="0" dy="0">!¡𝙹∷ℸ ̣ ᔑꖎ ⨅⚍∴∴╎⨅ᔑ!¡╎↸╎ ↸∷ ∴ᒷ╎∷↸</tspan></text><text transform="translate(-58.13738,224.82557) rotate(13.28174) scale(0.21506,-0.21506)" font-size="40" xml:space="preserve" fill="#4d005e" fill-rule="nonzero" stroke="none" stroke-width="1" stroke-linecap="butt" stroke-linejoin="miter" stroke-miterlimit="10" stroke-dasharray="" stroke-dashoffset="0" font-family="Sans Serif" font-weight="normal" text-anchor="start" style="mix-blend-mode: normal"><tspan x="0" dy="0">ʖᔑリᔑリᔑ ↸ᔑリᓵᒷ</tspan></text><text transform="translate(-83.38629,205.8433) rotate(-14.46472) scale(0.21506,-0.21506)" font-size="40" xml:space="preserve" fill="#4d005e" fill-rule="nonzero" stroke="none" stroke-width="1" stroke-linecap="butt" stroke-linejoin="miter" stroke-miterlimit="10" stroke-dasharray="" stroke-dashoffset="0" font-family="Sans Serif" font-weight="normal" text-anchor="start" style="mix-blend-mode: normal"><tspan x="0" dy="0">ʖᔑリᔑリᔑ ↸ᔑリᓵᒷ</tspan></text></g></g></svg>