<svg version="1.1" xmlns="http://www.w3.org/2000/svg" xmlns:xlink="http://www.w3.org/1999/xlink" width="187.4" height="207.75089" viewBox="0,0,187.4,207.75089"><g transform="translate(-136.5,-42.76341)"><g data-paper-data="{&quot;isPaintingLayer&quot;:true}" fill-rule="nonzero" stroke-linejoin="miter" stroke-miterlimit="10" stroke-dasharray="" stroke-dashoffset="0" style="mix-blend-mode: normal"><path d="M255.5,159.83334l-2,89l-15.66666,0.33333l2,-64l-14,-0.66666l-1.33334,65l-23,-0.33334l0.66666,-88.33333z" fill="#1dff00" stroke="#000000" stroke-width="2" stroke-linecap="round"/><path d="M234.16667,80.83333l0.66667,5.66667l2.66667,2l11.66667,0.33333l48,-17.66667l8.33333,15.33333l-51.66667,22.33333l2.33333,51l-55.33333,0.33333l-0.33334,-51.66666l-42.66667,12l-5,-18.66667l54.66667,-14h10.33333l5.66667,-1.66667l0.66667,-5.66667" fill="#005fff" stroke="#000000" stroke-width="2" stroke-linecap="round"/><path d="M245.9,53.1c0,0 3.19319,11.86898 -0.6,17.6c-3.79319,5.73102 -9.85387,11.18037 -17.8,10.2c-7.94613,-0.98037 -10.4139,-6.68084 -13,-14c-2.5861,-7.31916 -1.55818,-11.08063 2.4,-16c3.95818,-4.91937 11.86799,-7.43622 16.19303,-7.10812c0.28267,0.02144 4.84873,1.92146 7.96181,4.22951c3.1497,2.3352 4.84516,5.07861 4.84516,5.07861z" fill="#0047ff" stroke="#000000" stroke-width="2" stroke-linecap="round"/><path d="M312.3,85.3c-5.85422,0 -10.6,-4.16375 -10.6,-9.3c0,-5.13625 4.74578,-9.3 10.6,-9.3c5.85422,0 10.6,4.16375 10.6,9.3c0,5.13625 -4.74578,9.3 -10.6,9.3z" fill="#1dff00" stroke="#000000" stroke-width="2" stroke-linecap="butt"/><path d="M146.1,122.5c-4.74965,0 -8.6,-4.11898 -8.6,-9.2c0,-5.08102 3.85035,-9.2 8.6,-9.2c4.74965,0 8.6,4.11898 8.6,9.2c0,5.08102 -3.85035,9.2 -8.6,9.2z" fill="#00ff08" stroke="#000000" stroke-width="2" stroke-linecap="butt"/><path d="M244.3,71.9l-27.6,0.4c0,0 -2.93147,-4.44141 -3.40013,-6.13381c-0.66273,-2.39322 -0.19987,-6.86619 -0.19987,-6.86619l32.6,-0.2c0,0 1.52529,3.74021 1.29038,5.88801c-0.23171,2.11847 -2.69037,6.91199 -2.69037,6.91199z" fill="#000000" stroke="#000000" stroke-width="2" stroke-linecap="round"/><text transform="translate(222.5,128.5) scale(0.5,0.5)" font-size="40" xml:space="preserve" fill="#5dff00" fill-rule="nonzero" stroke="none" stroke-width="1" stroke-linecap="butt" stroke-linejoin="miter" stroke-miterlimit="10" stroke-dasharray="" stroke-dashoffset="0" font-family="Sans Serif" font-weight="normal" text-anchor="start" style="mix-blend-mode: normal"><tspan x="0" dy="0">c</tspan></text><path d="M216.7,73.8l26.6,-1.2c0,0 -7.14503,8.66692 -13.4,8.8c-6.25498,0.13308 -13.2,-7.6 -13.2,-7.6z" fill="#29ff00" stroke="#000000" stroke-width="2" stroke-linecap="round"/><path d="M201.3,159.6l-1.4,-51l-40.8,10l-1.6,-5.8l40.8,-12.2l18,13.8l-0.4,46z" fill="#00ff2d" stroke="#00ff08" stroke-width="2" stroke-linecap="round"/><path d="M238.7,158.8l-0.4,-46l18,-13.8l42.4,-20.4l4.6,7.2l-48.6,21.2l-1.4,51z" data-paper-data="{&quot;index&quot;:null}" fill="#00ff2d" stroke="#00ff08" stroke-width="2" stroke-linecap="round"/><path d="M202.29621,162.62211l22.20302,35.11655l-1.80024,50.20683l-20.20275,0.28827z" fill="#2100ff" stroke="#2100ff" stroke-width="2" stroke-linecap="round"/><path d="M239.70129,246.34526l0.20003,-48.60661l13.80188,-36.31671l-0.20003,86.21172z" fill="#2100ff" stroke="#2100ff" stroke-width="2" stroke-linecap="round"/></g></g></svg>