<svg version="1.1" xmlns="http://www.w3.org/2000/svg" xmlns:xlink="http://www.w3.org/1999/xlink" width="664" height="512" viewBox="0,0,664,512"><g transform="translate(65.5,96.5)"><g data-paper-data="{&quot;isPaintingLayer&quot;:true}" fill-rule="nonzero" stroke-width="2" stroke-linejoin="miter" stroke-miterlimit="10" stroke-dasharray="" stroke-dashoffset="0" style="mix-blend-mode: normal"><path d="M-64.5,414.5v-510h662v510z" fill="#ff0000" stroke="#000000" stroke-linecap="butt"/><path d="M255.5,159.83334l-2,89l-15.66666,0.33333l2,-64l-14,-0.66666l-1.33334,65l-23,-0.33334l0.66666,-88.33333z" fill="#575757" stroke="#575757" stroke-linecap="round"/><path d="M234.16667,80.83334l0.66667,5.66666l2.66666,2l11.66666,0.33334l4.66667,20.00001l2.33333,51l-55.33333,0.33333l-0.33334,-51.66666l-42.66666,12l-5,-18.66666l54.66666,-14h10.33334l5.66666,-1.66667l0.66666,-5.66666" fill="#000000" stroke="#000000" stroke-linecap="round"/><path d="M312.05,102.8c-5.85422,0 -10.6,-4.16375 -10.6,-9.3c0,-5.13625 4.74578,-9.3 10.6,-9.3c5.85422,0 10.6,4.16375 10.6,9.3c0,5.13625 -4.74578,9.3 -10.6,9.3z" fill="#575757" stroke="#000000" stroke-linecap="butt"/><path d="M146.1,122.5c-4.74965,0 -8.6,-4.11898 -8.6,-9.2c0,-5.08102 3.85035,-9.2 8.6,-9.2c4.74965,0 8.6,4.11898 8.6,9.2c0,5.08102 -3.85035,9.2 -8.6,9.2z" fill="#575757" stroke="#000000" stroke-linecap="butt"/><path d="M206.1,79.9v-38.8h46.8v38.8z" fill="#ffea00" stroke="#000000" stroke-linecap="butt"/><path d="M223.025,41.25v20.25l-16.5,5l0.5,-23.75" fill="#ffffff" stroke="#d5f100" stroke-linecap="round"/><path d="M252.775,41.75l0.5,23.75l-16.5,-5v-20.25" data-paper-data="{&quot;index&quot;:null}" fill="#ffffff" stroke="#d5f100" stroke-linecap="round"/><path d="M250.025,88.25l50.75,1.75c0,0 -1.08156,3.62373 0.25,6.75c1.33156,3.12627 7.25,6 7.25,6l-55.25,5.75" fill="#000000" stroke="#000000" stroke-linecap="round"/></g></g></svg>