<svg version="1.1" xmlns="http://www.w3.org/2000/svg" xmlns:xlink="http://www.w3.org/1999/xlink" width="674.08962" height="502" viewBox="0,0,674.08962,502"><defs><linearGradient x1="308.5" y1="-79.5" x2="308.5" y2="389.5" gradientUnits="userSpaceOnUse" id="color-1"><stop offset="0" stop-color="#ff0000"/><stop offset="1" stop-color="#ffa300"/></linearGradient><linearGradient x1="202" y1="185.5" x2="202" y2="420.5" gradientUnits="userSpaceOnUse" id="color-2"><stop offset="0" stop-color="#ff0000"/><stop offset="1" stop-color="#ffa300"/></linearGradient></defs><g transform="translate(38.58962,80.5)"><g data-paper-data="{&quot;isPaintingLayer&quot;:true}" fill-rule="nonzero" stroke-width="2" stroke-linejoin="miter" stroke-miterlimit="10" stroke-dasharray="" stroke-dashoffset="0" style="mix-blend-mode: normal"><path d="M-17.5,389.5v-469h652v469z" fill="#000000" stroke="url(#color-1)" stroke-linecap="butt"/><path d="M-29.5,420.5l-8,-216l87,82l102,-78l37,79l89,-87l17,77l83,-92l5,85l59,-76l-8,222" fill="#ff7b00" stroke="url(#color-2)" stroke-linecap="round"/><path d="M277.5,148l7.4,19l-10,30l-9.4,-5.2l7.8,-27.4l-8.2,-0.2v33l-12.2,0.4l-0.4,-47.8z" fill="#d10000" stroke="#d10000" stroke-linecap="round"/><path d="M252.3,149.2l-2,-36.4l27,2.4l-0.2,32z" fill="#d17900" stroke="#d10000" stroke-linecap="butt"/><path d="M248.9,113.40001l1.6,9.4l-5.8,6.2l6,10.8l-6.8,5.6c0,0 -8.73672,-10.74804 -7.6,-17c1.13672,-6.25196 12.6,-15 12.6,-15z" fill="#ff7b00" stroke="#ff7b00" stroke-linecap="round"/><path d="M259.69999,112.60001l0.2,-3.6" fill="none" stroke="#000000" stroke-linecap="round"/><path d="M268.29999,114l0.4,-3.4" fill="none" stroke="#000000" stroke-linecap="round"/><path d="M278.29999,117.00001l5.6,9.8l1.4,-13.4l8.6,1.2l-3.2,23l-4.2,4l-9.4,-15.6z" fill="#ff7b00" stroke="#ff7b00" stroke-linecap="round"/><path d="M264.9,110.20001c-6.95879,0 -12.6,-6.89964 -12.6,-15.41077c0,-8.51113 5.64121,-15.41077 12.6,-15.41077c6.95879,0 12.6,6.89964 12.6,15.41077c0,8.51113 -5.64121,15.41077 -12.6,15.41077z" fill="#ff2121" stroke="#ff2121" stroke-linecap="butt"/><path d="M244.7,78.60001l13.8,-5.4l5.8,-3.4l11,9.2l14,-3.8l-8.2,18.4l-11.2,0.6l-3.4,-3l-3.2,2.6l-3.4,-1.6l-11.6,4.2l4.6,-11.2z" fill="#ff8822" stroke="#ff8822" stroke-linecap="round"/><path d="M262.5,138.20001l-0.4,-13.2" fill="none" stroke="#d00000" stroke-linecap="round"/><path d="M259.1,130.40001l6.2,-1.6" fill="none" stroke="#d00000" stroke-linecap="round"/><path d="M260.5,133.60001h4.2" fill="none" stroke="#d00000" stroke-linecap="round"/><path d="M250.1,122.80001l-5.8,6l5.6,11l-3.4,1.4l-6.8,-13.2l8.8,-10.4z" fill="#d10000" stroke="#d10000" stroke-linecap="round"/><path d="M279.7,119l4.4,8.2l1.6,-13.4l2.2,1.2l-2.8,19l-6.6,-11.4l-0.4,-6z" fill="#ff0000" stroke="#d10000" stroke-linecap="round"/><path d="M256.90807,93.20034l4.8125,2.59134l4.4423,-4.8125l3.70192,3.33173l-0.37019,9.99519l-8.14423,4.07211l-5.18269,-5.18269l-1.85096,-8.88461z" fill="#ffdf9c" stroke="#ff2121" stroke-linecap="round"/><path d="M256.81552,94.39685l0.93209,4.97115" fill="none" stroke="#ff2121" stroke-linecap="round"/><path d="M264.58295,99.0573l-0.3107,-5.59254" fill="none" stroke="#ff2121" stroke-linecap="round"/><path d="M259.92249,101.54288h2.17488" fill="none" stroke="#ff2121" stroke-linecap="round"/><path d="M275.50811,198.60206l2.6321,13.57609l-14.26875,-8.45043l1.93944,-10.11281z" fill="#ff7b00" stroke="#d10000" stroke-linecap="round"/><path d="M263.17881,199.01765l-0.41559,9.14308l-17.31645,0.69266l6.64952,-10.80546z" fill="#ff7b00" stroke="#d10000" stroke-linecap="round"/></g></g></svg>