<svg version="1.1" xmlns="http://www.w3.org/2000/svg" xmlns:xlink="http://www.w3.org/1999/xlink" width="627.33333" height="403.5" viewBox="0,0,627.33333,403.5"><g transform="translate(56.5,19.5)"><g data-paper-data="{&quot;isPaintingLayer&quot;:true}" fill-rule="nonzero" stroke-linejoin="miter" stroke-miterlimit="10" stroke-dasharray="" stroke-dashoffset="0" style="mix-blend-mode: normal"><path d="M-52.5,379.5v-399h623v399z" fill="#ff0000" stroke="none" stroke-width="0" stroke-linecap="butt"/><path d="M120.34982,183.23718c-4.87591,9.77167 -10.01479,-1.59142 -19.53071,-5.73378c-2.68326,-1.16805 -8.29943,9.27616 -11.83551,10.09217c-4.11744,0.95016 -6.21526,-7.59557 -9.98359,-7.59557c-2.25585,0 -9.22497,13.58944 -11.397,13.27889c-8.03248,-1.14845 -5.48933,-13.3389 -11.47271,-19.67272c-5.44572,-5.76467 -13.66086,61.15456 -18.35668,54.33868c-4.97386,-7.21945 -6.27362,-88.23315 -6.27362,-96.44485c0,-26.78581 21.26647,-48.5 47.5,-48.5c26.23353,0 47.5,21.71419 47.5,48.5c0,7.91503 -2.85691,45.13722 -6.15018,51.73718z" fill="#000000" stroke="none" stroke-width="0" stroke-linecap="butt"/><path d="M254.40977,137.47618c5.3981,0 13.37403,0 21.22673,0c2.53933,0 5.06578,0.04752 7.48799,0.13368c0.03035,9.76636 0.56659,81.86198 0.84435,91.62823h-13.36418c-0.73929,-0.08813 -1.80349,-0.14984 -3.33494,-0.14134c-1.33078,0.00738 -2.27934,0.06369 -2.95531,0.14134h-23.93107c0,-9.54474 0,-81.42281 0,-90.96755c4.95569,-0.50385 10.00376,-0.79436 14.02644,-0.79436z" fill="#000000" stroke="none" stroke-width="0" stroke-linecap="butt"/><path d="M260.53522,341.68481l-24.84883,-47.24388c6.52218,-3.44353 13.04241,-6.89174 19.56575,-10.33408c10.98627,21.04163 21.8433,41.65623 25.39538,46.99951z" fill="#000000" stroke="none" stroke-width="0" stroke-linecap="butt"/><path d="M243.12568,234.02011l21.67499,3.6584c-0.68196,6.21213 -4.51579,28.21384 -8.44314,51.00524c-7.28053,-1.21877 -14.56215,-2.43098 -21.84248,-3.64809z" fill="#000000" stroke="none" stroke-width="0" stroke-linecap="butt"/><path d="M240.8155,248.66668v-19.66666h43.68452v19.66666z" fill="#000000" stroke="none" stroke-width="0" stroke-linecap="butt"/><path d="M262.60839,144.55001c-13.83011,0 -25.04162,-14.77669 -25.04162,-28.46567c0,-13.68898 11.21152,-24.78609 25.04162,-24.78609c13.83011,0 25.04162,11.09711 25.04162,24.78609c0,13.68898 -11.21152,28.46567 -25.04162,28.46567z" fill="#000000" stroke="#000000" stroke-width="0.5" stroke-linecap="butt"/><path d="M224.98848,188.00662c0,0 0.10662,-1.92563 0.22805,-4.11895c0.09399,-1.69772 2.09991,-37.92726 2.1691,-39.17688c0.03094,-0.55883 0.06768,-1.22248 0.10642,-1.92218c0.0449,-0.81105 0.09249,-1.67053 0.13683,-2.47137c0.05519,-0.9968 6.07699,-1.73358 13.29386,-2.13867c-0.29214,5.27642 -2.48732,44.92426 -2.77946,50.20068z" fill="#000000" stroke="none" stroke-width="0" stroke-linecap="butt"/><path d="M223.36197,217.38359c0,0 0.08157,-1.47336 0.17449,-3.15152c0.07191,-1.29898 1.6067,-29.01919 1.65963,-29.97531c0.02367,-0.42758 0.05178,-0.93535 0.08142,-1.47071c0.03437,-0.62055 0.07077,-1.27817 0.10468,-1.89092c0.04222,-0.76268 6.05226,-1.28668 13.2612,-1.54884c-0.22352,4.03713 -1.90312,34.37279 -2.12664,38.40992z" fill="#000000" stroke="none" stroke-width="0" stroke-linecap="butt"/><path d="M286.03141,187.88017c-0.32133,-5.27516 -2.73591,-44.9135 -3.05724,-50.18866c6.9508,0.37594 12.75363,1.0884 12.81433,2.08496c0.04877,0.80065 0.10112,1.65993 0.15051,2.47078c0.04262,0.69953 0.08303,1.36302 0.11706,1.92172c0.0761,1.24931 2.2825,37.47017 2.38588,39.16749c0.13357,2.19279 0.25085,4.11796 0.25085,4.11796z" data-paper-data="{&quot;index&quot;:null}" fill="#000000" stroke="none" stroke-width="0" stroke-linecap="butt"/><path d="M287.82047,217.25011c-0.24586,-4.03617 -2.09331,-34.36455 -2.33918,-38.40072c6.94209,0.23304 12.73196,0.73277 12.77841,1.49526c0.03731,0.6126 0.07736,1.27006 0.11516,1.89046c0.0326,0.53523 0.06352,1.04288 0.08957,1.47036c0.05822,0.95588 1.7464,28.66946 1.82551,29.96812c0.1022,1.67776 0.19194,3.15077 0.19194,3.15077z" data-paper-data="{&quot;index&quot;:null}" fill="#000000" stroke="none" stroke-width="0" stroke-linecap="butt"/><path d="M228.97895,232.66439c-4.58038,-0.1814 -8.15141,-3.91641 -7.97613,-8.34239c0.17528,-4.42598 4.0305,-7.86689 8.61087,-7.6855c4.58038,0.1814 8.15141,3.91641 7.97613,8.34239c-0.17528,4.42598 -4.0305,7.86689 -8.61087,7.6855z" fill="#000000" stroke="none" stroke-width="0" stroke-linecap="butt"/><path d="M294.73753,231.81134c-4.57928,0.20725 -8.45386,-3.21185 -8.65412,-7.63677c-0.20027,-4.42492 3.34962,-8.18003 7.9289,-8.38728c4.57928,-0.20725 8.45386,3.21185 8.65412,7.63677c0.20027,4.42492 -3.34962,8.18003 -7.9289,8.38728z" fill="#000000" stroke="none" stroke-width="0" stroke-linecap="butt"/><path d="M249.25406,279.0806c0.0951,0.18081 0.16807,0.3674 0.21986,0.55665l0.70518,2.3909l-0.11473,0.03384c0.09631,0.2463 0.17353,0.50032 0.22699,0.7639c0.51068,2.5175 -1.36544,4.97126 -1.68256,7.52038l-0.06298,0.10464l0.04122,0.00881l-0.81171,3.79837c-0.16056,0.77819 -0.65541,1.48097 -1.41352,1.87972c-1.34419,0.707 -3.00701,0.19046 -3.71401,-1.15373c-0.01475,-0.02805 -0.02897,-0.05624 -0.04266,-0.08455c-0.43613,0.25221 -0.92249,0.43088 -1.40377,0.5503c-1.67324,0.4152 -3.62775,1.50855 -5.12945,0.66177c-1.43162,-0.80726 -1.4205,-2.98786 -1.82204,-4.58159c-1.09068,-4.32896 0.71528,-7.99659 2.49405,-11.74484l-0.03688,0.02557c0,0 0.56166,-1.80805 2.25311,-1.95771c0.58594,-1.44362 1.24491,-2.8597 1.9914,-4.24025l1.78397,-1.55505c0,0 2.87639,-1.5129 4.38929,1.3635c1.09776,2.08712 -0.11543,3.45636 -0.86389,4.05064c-0.038,0.07377 -0.07571,0.14768 -0.11315,0.22172c1.20347,-0.30445 2.50293,0.23991 3.10629,1.38703z" fill="#000000" stroke="none" stroke-width="0.5" stroke-linecap="butt"/><path d="M317.3561,333.05395c-2.15505,-6.04349 -12.17315,-27.07856 -22.45603,-48.47274c6.66177,-3.16615 13.32639,-6.32628 19.98842,-9.49077l22.9789,48.18111z" data-paper-data="{&quot;index&quot;:null}" fill="#000000" stroke="none" stroke-width="0" stroke-linecap="butt"/><path d="M314.7751,275.53441c-5.87684,4.46623 -11.75711,8.92874 -17.63336,13.39653c-14.08542,-18.34319 -27.72045,-36.03102 -31.2158,-41.21158l17.48033,-13.32769z" data-paper-data="{&quot;index&quot;:null}" fill="#000000" stroke="none" stroke-width="0" stroke-linecap="butt"/><path d="M301.06185,274.45142c-0.06759,-0.04811 -0.13537,-0.09596 -0.20335,-0.14356c-0.93905,-0.17756 -2.65018,-0.82465 -2.65018,-3.18286c0,-3.25 3.25,-3.25 3.25,-3.25l2.30277,0.54584c1.30333,0.87435 2.54574,1.82089 3.73634,2.8258c1.56669,-0.65492 2.90543,0.68382 2.90543,0.68382l-0.04455,-0.00545c3.31912,2.48934 6.62479,4.89467 7.67465,9.23371c0.38651,1.59744 1.41142,3.52218 0.52016,4.90308c-0.93489,1.44849 -3.17367,1.39068 -4.84785,1.80211c-0.48154,0.11834 -0.99517,0.18661 -1.49856,0.16641c0.00106,0.03143 0.0016,0.063 0.0016,0.0947c0,1.51878 -1.23122,2.75 -2.75,2.75c-0.85659,0 -1.62171,-0.39164 -2.12606,-1.00563l-2.48656,-2.98387l0.03238,-0.02698l-0.10444,-0.06329c-1.4673,-2.10847 -4.26999,-3.40681 -4.98993,-5.87263c-0.07538,-0.25817 -0.12528,-0.51893 -0.1547,-0.78175l-0.11729,0.02346l-0.48887,-2.44432c-0.04226,-0.1916 -0.06454,-0.3907 -0.06454,-0.595c0,-1.29612 0.89667,-2.38281 2.10352,-2.67359z" data-paper-data="{&quot;index&quot;:null}" fill="#000000" stroke="none" stroke-width="0.5" stroke-linecap="butt"/><path d="M239.30682,126.25c0,0 -1.86136,-6.59205 -1.86136,-9.51402c0,-1.74666 -0.21023,-5.47221 0.46926,-7.10111c0.38328,-0.91881 1.12619,-1.98032 1.12619,-1.98032c0,0 20.41633,7.09089 20.61415,7.09089c1.37045,0 10.26952,-7.71134 12.49769,-7.71134c7.19181,0 13.59725,2.2159 13.59725,2.2159c0,0 1.50681,0.71431 1.50681,1.45872c0,0.97869 0.73054,5.5517 0.43855,8.4415c-0.43294,4.28474 -1.94536,7.09977 -1.94536,7.09977z" fill="#ffffff" stroke="none" stroke-width="0.5" stroke-linecap="butt"/><path d="M281.25,138.95l-20.6,38.2l-19.4,-37.6907" fill="none" stroke="#000000" stroke-width="1.5" stroke-linecap="round"/><text transform="translate(51.5,141) scale(0.5,0.5)" font-size="40" xml:space="preserve" fill="#ffffff" fill-rule="nonzero" stroke="none" stroke-width="1" stroke-linecap="butt" stroke-linejoin="miter" stroke-miterlimit="10" stroke-dasharray="" stroke-dashoffset="0" font-family="Curly" font-weight="normal" text-anchor="start" style="mix-blend-mode: normal"><tspan x="0" dy="0">Shadow</tspan></text><path d="M-56.5,384v-39h627.33333v39z" fill="#8e0000" stroke="none" stroke-width="0" stroke-linecap="butt"/></g></g></svg>