<svg version="1.1" xmlns="http://www.w3.org/2000/svg" xmlns:xlink="http://www.w3.org/1999/xlink" width="474.83678" height="550" viewBox="0,0,474.83678,550"><defs><linearGradient x1="224.5" y1="-91.5" x2="224.5" y2="456.5" gradientUnits="userSpaceOnUse" id="color-1"><stop offset="0" stop-color="#b03131"/><stop offset="1" stop-color="#490073"/></linearGradient><linearGradient x1="224.5" y1="-91.5" x2="224.5" y2="456.5" gradientUnits="userSpaceOnUse" id="color-2"><stop offset="0" stop-color="#ffffff"/><stop offset="1" stop-color="#b0b0b0"/></linearGradient><linearGradient x1="288.78033" y1="148.16498" x2="288.78033" y2="184.83163" gradientUnits="userSpaceOnUse" id="color-3"><stop offset="0" stop-color="#39961e"/><stop offset="1" stop-color="#215e10"/></linearGradient><linearGradient x1="288.78033" y1="148.16498" x2="288.78033" y2="184.83163" gradientUnits="userSpaceOnUse" id="color-4"><stop offset="0" stop-color="#39961e"/><stop offset="1" stop-color="#215e10"/></linearGradient><linearGradient x1="321.55811" y1="148.72053" x2="321.55811" y2="185.3872" gradientUnits="userSpaceOnUse" id="color-5"><stop offset="0" stop-color="#39961e"/><stop offset="1" stop-color="#215e10"/></linearGradient><linearGradient x1="321.55811" y1="148.72053" x2="321.55811" y2="185.3872" gradientUnits="userSpaceOnUse" id="color-6"><stop offset="0" stop-color="#39961e"/><stop offset="1" stop-color="#215e10"/></linearGradient><linearGradient x1="304.85118" y1="119.824" x2="304.85118" y2="142.899" gradientTransform="translate(-585.60233,-274.2605) scale(2,2)" gradientUnits="userSpaceOnUse" id="color-7"><stop offset="0" stop-color="#969696"/><stop offset="1" stop-color="#1a1a1a"/></linearGradient><linearGradient x1="305.89844" y1="99.71617" x2="305.89844" y2="121.40703" gradientUnits="userSpaceOnUse" id="color-8"><stop offset="0" stop-color="#291d91"/><stop offset="1" stop-color="#121c59"/></linearGradient><linearGradient x1="305.89844" y1="99.71617" x2="305.89844" y2="121.40703" gradientUnits="userSpaceOnUse" id="color-9"><stop offset="0" stop-color="#291d91"/><stop offset="1" stop-color="#121c59"/></linearGradient><linearGradient x1="306.82794" y1="100.69274" x2="306.82794" y2="113.69274" gradientUnits="userSpaceOnUse" id="color-10"><stop offset="0" stop-color="#001c67"/><stop offset="1" stop-color="#443c96"/></linearGradient><linearGradient x1="306.82794" y1="100.69274" x2="306.82794" y2="113.69274" gradientUnits="userSpaceOnUse" id="color-11"><stop offset="0" stop-color="#001c67"/><stop offset="1" stop-color="#443c96"/></linearGradient><linearGradient x1="306.99377" y1="58.06452" x2="306.99377" y2="112.11136" gradientUnits="userSpaceOnUse" id="color-12"><stop offset="0" stop-color="#291d91"/><stop offset="1" stop-color="#121c59"/></linearGradient><linearGradient x1="306.99377" y1="58.06452" x2="306.99377" y2="112.11136" gradientUnits="userSpaceOnUse" id="color-13"><stop offset="0" stop-color="#291d91"/><stop offset="1" stop-color="#121c59"/></linearGradient><linearGradient x1="306.04983" y1="85.5117" x2="306.04983" y2="90.1785" gradientUnits="userSpaceOnUse" id="color-14"><stop offset="0" stop-color="#1a135e"/><stop offset="1" stop-color="#070a22"/></linearGradient><linearGradient x1="292.76928" y1="71.77835" x2="292.76928" y2="94.56807" gradientUnits="userSpaceOnUse" id="color-15"><stop offset="0" stop-color="#37911d"/><stop offset="1" stop-color="#175812"/></linearGradient><linearGradient x1="292.76928" y1="71.77835" x2="292.76928" y2="94.56807" gradientUnits="userSpaceOnUse" id="color-16"><stop offset="0" stop-color="#37911d"/><stop offset="1" stop-color="#175812"/></linearGradient><linearGradient x1="321.16928" y1="73.57835" x2="321.16928" y2="96.36807" gradientUnits="userSpaceOnUse" id="color-17"><stop offset="0" stop-color="#37911d"/><stop offset="1" stop-color="#175812"/></linearGradient><linearGradient x1="321.16928" y1="73.57835" x2="321.16928" y2="96.36807" gradientUnits="userSpaceOnUse" id="color-18"><stop offset="0" stop-color="#37911d"/><stop offset="1" stop-color="#175812"/></linearGradient><linearGradient x1="155.78034" y1="157.16498" x2="155.78034" y2="193.83163" gradientUnits="userSpaceOnUse" id="color-19"><stop offset="0" stop-color="#39961e"/><stop offset="1" stop-color="#215e10"/></linearGradient><linearGradient x1="155.78034" y1="157.16498" x2="155.78034" y2="193.83163" gradientUnits="userSpaceOnUse" id="color-20"><stop offset="0" stop-color="#39961e"/><stop offset="1" stop-color="#215e10"/></linearGradient><linearGradient x1="188.55811" y1="157.72053" x2="188.55811" y2="194.3872" gradientUnits="userSpaceOnUse" id="color-21"><stop offset="0" stop-color="#39961e"/><stop offset="1" stop-color="#215e10"/></linearGradient><linearGradient x1="188.55811" y1="157.72053" x2="188.55811" y2="194.3872" gradientUnits="userSpaceOnUse" id="color-22"><stop offset="0" stop-color="#39961e"/><stop offset="1" stop-color="#215e10"/></linearGradient><linearGradient x1="171.85117" y1="128.824" x2="171.85117" y2="151.899" gradientTransform="translate(-319.60231,-292.2605) scale(2,2)" gradientUnits="userSpaceOnUse" id="color-23"><stop offset="0" stop-color="#969696"/><stop offset="1" stop-color="#1a1a1a"/></linearGradient><linearGradient x1="171.61928" y1="57.31807" x2="171.61928" y2="92.21807" gradientUnits="userSpaceOnUse" id="color-24"><stop offset="0" stop-color="#000000"/><stop offset="1" stop-color="#484848"/></linearGradient><linearGradient x1="171.61928" y1="57.31807" x2="171.61928" y2="92.21807" gradientUnits="userSpaceOnUse" id="color-25"><stop offset="0" stop-color="#000000"/><stop offset="1" stop-color="#484848"/></linearGradient><linearGradient x1="178.01052" y1="254.69433" x2="121.84986" y2="228.42686" gradientUnits="userSpaceOnUse" id="color-26"><stop offset="0" stop-color="#ff6f00"/><stop offset="1" stop-color="#e2ff00"/></linearGradient><radialGradient cx="145.2556" cy="241.61364" r="41.5" gradientUnits="userSpaceOnUse" id="color-27"><stop offset="0" stop-color="#ff6f00"/><stop offset="1" stop-color="#ff6f00" stop-opacity="0"/></radialGradient><linearGradient x1="164.27844" y1="176.11698" x2="113.22971" y2="211.30261" gradientUnits="userSpaceOnUse" id="color-28"><stop offset="0" stop-color="#ff6f00"/><stop offset="1" stop-color="#e2ff00"/></linearGradient><radialGradient cx="136.43738" cy="197.77029" r="41.5" gradientUnits="userSpaceOnUse" id="color-29"><stop offset="0" stop-color="#ff6f00"/><stop offset="1" stop-color="#ff6f00" stop-opacity="0"/></radialGradient><linearGradient x1="134.0392" y1="135.76893" x2="102.48225" y2="189.13707" gradientUnits="userSpaceOnUse" id="color-30"><stop offset="0" stop-color="#ff6f00"/><stop offset="1" stop-color="#e2ff00"/></linearGradient><radialGradient cx="117.86308" cy="167.11095" r="41.5" gradientUnits="userSpaceOnUse" id="color-31"><stop offset="0" stop-color="#ff6f00"/><stop offset="1" stop-color="#ff6f00" stop-opacity="0"/></radialGradient><linearGradient x1="43.72431" y1="251.69433" x2="99.88497" y2="225.42686" gradientUnits="userSpaceOnUse" id="color-32"><stop offset="0" stop-color="#ff6f00"/><stop offset="1" stop-color="#e2ff00"/></linearGradient><radialGradient cx="76.47924" cy="238.61364" r="41.5" gradientUnits="userSpaceOnUse" id="color-33"><stop offset="0" stop-color="#ff6f00"/><stop offset="1" stop-color="#ff6f00" stop-opacity="0"/></radialGradient><linearGradient x1="57.45639" y1="173.11698" x2="108.50511" y2="208.3026" gradientUnits="userSpaceOnUse" id="color-34"><stop offset="0" stop-color="#ff6f00"/><stop offset="1" stop-color="#e2ff00"/></linearGradient><radialGradient cx="85.29744" cy="194.77029" r="41.5" gradientUnits="userSpaceOnUse" id="color-35"><stop offset="0" stop-color="#ff6f00"/><stop offset="1" stop-color="#ff6f00" stop-opacity="0"/></radialGradient><linearGradient x1="87.69563" y1="132.76892" x2="119.25258" y2="186.13707" gradientUnits="userSpaceOnUse" id="color-36"><stop offset="0" stop-color="#ff6f00"/><stop offset="1" stop-color="#e2ff00"/></linearGradient><radialGradient cx="103.87176" cy="164.11096" r="41.5" gradientUnits="userSpaceOnUse" id="color-37"><stop offset="0" stop-color="#ff6f00"/><stop offset="1" stop-color="#ff6f00" stop-opacity="0"/></radialGradient><linearGradient x1="207.97612" y1="245.56291" x2="152.31448" y2="218.25389" gradientUnits="userSpaceOnUse" id="color-38"><stop offset="0" stop-color="#ff6f00"/><stop offset="1" stop-color="#e2ff00"/></linearGradient><radialGradient cx="175.47053" cy="231.87436" r="41.5" gradientUnits="userSpaceOnUse" id="color-39"><stop offset="0" stop-color="#ff6f00"/><stop offset="1" stop-color="#ff6f00" stop-opacity="0"/></radialGradient><linearGradient x1="195.71008" y1="166.74341" x2="144.01481" y2="200.97204" gradientUnits="userSpaceOnUse" id="color-40"><stop offset="0" stop-color="#ff6f00"/><stop offset="1" stop-color="#e2ff00"/></linearGradient><radialGradient cx="167.47052" cy="187.87436" r="41.5" gradientUnits="userSpaceOnUse" id="color-41"><stop offset="0" stop-color="#ff6f00"/><stop offset="1" stop-color="#ff6f00" stop-opacity="0"/></radialGradient><linearGradient x1="166.22766" y1="125.83908" x2="133.6821" y2="178.61016" gradientUnits="userSpaceOnUse" id="color-42"><stop offset="0" stop-color="#ff6f00"/><stop offset="1" stop-color="#e2ff00"/></linearGradient><radialGradient cx="149.47053" cy="156.87436" r="41.5" gradientUnits="userSpaceOnUse" id="color-43"><stop offset="0" stop-color="#ff6f00"/><stop offset="1" stop-color="#ff6f00" stop-opacity="0"/></radialGradient><linearGradient x1="9.65761" y1="243.56291" x2="65.31925" y2="216.25388" gradientUnits="userSpaceOnUse" id="color-44"><stop offset="0" stop-color="#ff6f00"/><stop offset="1" stop-color="#e2ff00"/></linearGradient><radialGradient cx="42.16321" cy="229.87436" r="41.5" gradientUnits="userSpaceOnUse" id="color-45"><stop offset="0" stop-color="#ff6f00"/><stop offset="1" stop-color="#ff6f00" stop-opacity="0"/></radialGradient><linearGradient x1="21.92364" y1="164.74341" x2="73.61892" y2="198.97203" gradientUnits="userSpaceOnUse" id="color-46"><stop offset="0" stop-color="#ff6f00"/><stop offset="1" stop-color="#e2ff00"/></linearGradient><radialGradient cx="50.16322" cy="185.87436" r="41.5" gradientUnits="userSpaceOnUse" id="color-47"><stop offset="0" stop-color="#ff6f00"/><stop offset="1" stop-color="#ff6f00" stop-opacity="0"/></radialGradient><linearGradient x1="51.40607" y1="123.83908" x2="83.95164" y2="176.61015" gradientUnits="userSpaceOnUse" id="color-48"><stop offset="0" stop-color="#ff6f00"/><stop offset="1" stop-color="#e2ff00"/></linearGradient><radialGradient cx="68.16321" cy="154.87436" r="41.5" gradientUnits="userSpaceOnUse" id="color-49"><stop offset="0" stop-color="#ff6f00"/><stop offset="1" stop-color="#ff6f00" stop-opacity="0"/></radialGradient><radialGradient cx="-72.46179" cy="20.1563" r="0.00125" gradientUnits="userSpaceOnUse" id="color-50"><stop offset="0" stop-color="#ff6f00"/><stop offset="1" stop-color="#ff6f00" stop-opacity="0"/></radialGradient><linearGradient x1="85.1973" y1="345.33333" x2="85.1973" y2="363.83333" gradientUnits="userSpaceOnUse" id="color-51"><stop offset="0" stop-color="#828282"/><stop offset="1" stop-color="#000000"/></linearGradient><linearGradient x1="85.1973" y1="345.33333" x2="85.1973" y2="363.83333" gradientUnits="userSpaceOnUse" id="color-52"><stop offset="0" stop-color="#828282"/><stop offset="1" stop-color="#000000"/></linearGradient><linearGradient x1="141.68973" y1="345.33333" x2="141.68973" y2="363.83334" gradientUnits="userSpaceOnUse" id="color-53"><stop offset="0" stop-color="#828282"/><stop offset="1" stop-color="#000000"/></linearGradient><linearGradient x1="141.68973" y1="345.33333" x2="141.68973" y2="363.83334" gradientUnits="userSpaceOnUse" id="color-54"><stop offset="0" stop-color="#828282"/><stop offset="1" stop-color="#000000"/></linearGradient><radialGradient cx="368.86266" cy="168.25" r="18.69646" gradientUnits="userSpaceOnUse" id="color-55"><stop offset="0" stop-color="#fdff33"/><stop offset="1" stop-color="#e8a700"/></radialGradient><radialGradient cx="394.11266" cy="175.875" r="18.69646" gradientUnits="userSpaceOnUse" id="color-56"><stop offset="0" stop-color="#fdff33"/><stop offset="1" stop-color="#e8a700"/></radialGradient><radialGradient cx="364.75577" cy="171.53493" r="17.6481" gradientUnits="userSpaceOnUse" id="color-57"><stop offset="0" stop-color="#fdff33"/><stop offset="1" stop-color="#e8a700"/></radialGradient><radialGradient cx="378.23766" cy="171.375" r="17.6481" gradientUnits="userSpaceOnUse" id="color-58"><stop offset="0" stop-color="#fdff33"/><stop offset="1" stop-color="#e8a700"/></radialGradient><radialGradient cx="362.44587" cy="217.26769" r="18.69646" gradientUnits="userSpaceOnUse" id="color-59"><stop offset="0" stop-color="#fdff33"/><stop offset="1" stop-color="#e8a700"/></radialGradient><radialGradient cx="363.46045" cy="190.91103" r="18.69646" gradientUnits="userSpaceOnUse" id="color-60"><stop offset="0" stop-color="#fdff33"/><stop offset="1" stop-color="#e8a700"/></radialGradient><radialGradient cx="387.6711" cy="217.51769" r="18.69647" gradientUnits="userSpaceOnUse" id="color-61"><stop offset="0" stop-color="#fdff33"/><stop offset="1" stop-color="#e8a700"/></radialGradient><radialGradient cx="386.65651" cy="191.16103" r="18.69647" gradientUnits="userSpaceOnUse" id="color-62"><stop offset="0" stop-color="#fdff33"/><stop offset="1" stop-color="#e8a700"/></radialGradient><linearGradient x1="209.4345" y1="-87.80675" x2="209.4345" y2="-23.35613" gradientTransform="translate(-69.09934,28.26171) scale(0.71606,0.71606)" gradientUnits="userSpaceOnUse" id="color-63"><stop offset="0" stop-color="#9966ff"/><stop offset="1" stop-color="#66ebff"/></linearGradient><linearGradient x1="199.07064" y1="-29.74923" x2="198.92936" y2="-23.25077" gradientUnits="userSpaceOnUse" id="color-64"><stop offset="0" stop-color="#927aff"/><stop offset="1" stop-color="#70d0ff"/></linearGradient></defs><g transform="translate(33.33678,92.5)"><g data-paper-data="{&quot;isPaintingLayer&quot;:true}" fill-rule="nonzero" stroke-linejoin="miter" stroke-miterlimit="10" stroke-dasharray="" stroke-dashoffset="0" style="mix-blend-mode: normal"><path d="M8.49999,456.5v-548h432v548z" fill="url(#color-1)" stroke="url(#color-2)" stroke-width="2" stroke-linecap="butt"/><path d="M306.99503,129.49308l-4.25,20.5l-8.75,7.25l-7.75,-8l-2.25,-21.5" fill="none" stroke="#6e6e6e" stroke-width="0.5" stroke-linecap="round"/><path d="M284.99503,143.99308l-3,-3.25l-0.75,-7l5,3l4.25,-5.25l12,0.25l1.5,5.5l2,-0.75l3.5,-2l-1.75,7l-3.75,1.75" fill="none" stroke="#6e6e6e" stroke-width="0.5" stroke-linecap="round"/><path d="M287.74503,142.49308l2,-1" fill="none" stroke="#6e6e6e" stroke-width="0.5" stroke-linecap="round"/><path d="M287.24503,140.49308l6,2l-5.5,1.5" fill="none" stroke="#6e6e6e" stroke-width="0.5" stroke-linecap="round"/><path d="M300.99503,143.49308l-3,-0.75l-2,-0.5l5,-1.75" fill="none" stroke="#6e6e6e" stroke-width="0.5" stroke-linecap="round"/><path d="M300.99503,141.99308l-2.5,-0.25" fill="none" stroke="#6e6e6e" stroke-width="0.5" stroke-linecap="round"/><path d="M293.99503,142.74308l-1,2.25" fill="none" stroke="#6e6e6e" stroke-width="0.5" stroke-linecap="round"/><path d="M304.82117,117.36685l12.71111,-4.52802l23.3037,0.36225l0.79445,3.26017l1.7213,0.81504l0.54989,0.12536c0.04545,0.71652 0.11459,1.4 0.11459,1.89227c-0.00002,1.4315 0.38732,3.52597 -0.0892,4.88048c-0.34034,0.9674 -1.24738,1.61817 -1.55873,2.49407c-0.62085,0.78486 -1.10261,2.02423 -1.61581,3.23528c0.58645,-1.07889 1.24104,-2.13609 1.95149,-3.05529c0.26545,-0.86796 1.25313,-1.57864 1.58308,-2.54971c0.48265,-1.42054 0.11005,-3.51064 0.11007,-5.00483c0,-0.42731 -0.07116,-1.09576 -0.12165,-1.80705l11.78738,2.68734v34.47056c-1.2367,0.02795 -2.47372,0.04682 -3.70994,0.07467c-2.67651,0.06029 -5.33204,0.11975 -7.99941,0.35403c-1.76363,0.15491 -3.47358,0.33896 -5.18635,0.66743l-3.63815,-18.18386c1.0129,-1.35649 2.30522,-2.4189 3.2113,-3.97504c0.72898,-0.36476 0.51238,-0.60348 0.7964,-1.22724c0.03112,-0.06835 0.06257,-0.13697 0.09435,-0.20585c-0.3344,0.50729 -0.70958,0.91618 -1.1509,1.15489c-0.90834,1.43498 -2.07573,2.49756 -3.05137,3.75229l-0.5511,-2.75448c0,0 -3.21435,10.72767 -4.69446,14.39733c-1.32808,3.29274 -3.77962,6.61267 -3.77962,6.61267c0,0 -1.09632,12.02402 -0.9358,18.33716c0.18815,7.39954 1.99505,23.32058 1.99505,23.32058l-41.84074,0.36225c0,0 2.10258,-16.3244 2.01009,-23.66246c-0.08303,-6.58744 -2.53973,-18.35753 -2.53973,-18.35753c0,0 -3.48179,-3.44871 -5.06398,-7.52267c-1.39555,-3.59337 -3.93971,-15.66077 -3.93971,-15.66077l-0.70056,3.5015c-0.54295,-0.63401 -1.07088,-1.31616 -1.64084,-1.83137c-0.77404,-0.69969 -1.86624,-1.09185 -2.3034,-2.24249c-0.9548,-2.38346 -3.332,-4.29127 -4.59189,-6.53622c-0.79667,-1.51961 -0.67626,-3.05704 -0.91736,-4.70893c-0.14374,-0.98487 -0.69195,-1.91035 -0.74793,-2.91184c-0.01706,-0.58362 -0.09918,-1.14444 -0.16807,-1.70415l2.59598,-0.59184l3.575,-2.08289l24.89258,-0.36225zM339.63105,132.14891c0.42175,-0.63981 0.77861,-1.43616 1.12144,-2.24516c-0.4082,0.75096 -0.78339,1.51242 -1.12144,2.24516z" fill="#00235d" stroke="#00235d" stroke-width="2" stroke-linecap="butt"/><path d="M328.5583,204.6972l-0.51066,13.01381c-1.6844,1.5102 -5.70522,2.71946 -7.43867,3.32458c-1.96218,1.128 -5.44624,2.07415 -7.87455,2.14816l-0.00396,-1.02845l-8.06173,-0.64731l-0.03016,1.08007c-0.16074,0 -0.32149,0 -0.48223,0c-3.10404,0.00001 -6.62867,-2.05635 -9.38569,-3.4196c-2.16658,-1.02082 -4.70082,-3.14537 -6.94474,-3.94411l-0.02313,-11.82175z" data-paper-data="{&quot;index&quot;:null}" fill="#00235d" stroke="#00235d" stroke-width="2" stroke-linecap="butt"/><path d="M272.00743,152.52718c-2.45733,-0.52176 -4.48072,-0.80488 -6.82474,-2.03856c-2.66231,-0.58818 -5.10842,-1.2928 -7.68256,-2.15238c-0.80156,-0.26763 -1.68654,-0.53918 -2.59653,-0.77029v-29.56517l9.74364,-2.22139c0.06685,0.53715 0.14263,1.07572 0.15907,1.63668c0.06702,1.01726 0.60579,1.95104 0.75153,2.94962c0.24813,1.70014 0.13854,3.27009 0.95961,4.83583c1.24546,2.20414 3.67002,4.14033 4.57199,6.49351c0.48287,1.19766 1.60263,1.62696 2.39971,2.38327c0.62312,0.59127 1.19722,1.34446 1.80417,2.02565z" fill="#00235d" stroke="#00235d" stroke-width="2" stroke-linecap="butt"/><path d="M340.27208,155.23296c1.20588,-0.26267 2.40996,-0.53411 3.61535,-0.79675c2.60778,-0.56817 5.19486,-1.13246 7.83447,-1.52989c1.73701,-0.26152 3.42835,-0.48291 5.15642,-0.56525l0.5084,12.83988l5.81812,28.59374l-12.78541,3.46144z" data-paper-data="{&quot;index&quot;:null}" fill="#00235d" stroke="#00235d" stroke-width="2" stroke-linecap="butt"/><path d="M270.31604,165.55348l0.76092,31.16147l-13.21816,0.77285l-2.90328,-49.65499c0.88216,0.17535 1.7405,0.38839 2.51505,0.59769c2.61539,0.70664 5.09129,1.29164 7.78459,1.69728c2.4157,1.12437 4.49115,1.27332 6.98908,1.64976z" data-paper-data="{&quot;index&quot;:null}" fill="#00235d" stroke="#00235d" stroke-width="2" stroke-linecap="butt"/><g stroke="#000000" stroke-width="2"><path d="M287.09509,196.11641l8.83768,-0.0915" fill="none" stroke-linecap="round"/><path d="M286.4785,203.52794v-7.68603h42.03037v7.68603z" fill="#3e3e3e" stroke-linecap="butt"/></g><g data-paper-data="{&quot;index&quot;:null}" stroke-linecap="butt"><path d="M378.77792,206.84416c1.00658,1.27375 -0.96279,-0.31008 -0.63704,1.17269c0.81387,3.70463 3.13878,8.25863 -0.01418,10.75026c-4.41493,3.48888 -10.84866,2.70474 -14.37016,-1.75146c-1.56738,-1.9834 -0.53924,-4.28997 -0.47336,-6.6244c0.08213,-2.91045 2.12081,-2.6876 4.5707,-4.62363c2.59156,-2.04796 3.86411,-3.94431 6.84955,-3.16914c2.1005,0.54541 2.6201,2.40526 4.07448,4.24567z" data-paper-data="{&quot;index&quot;:null}" fill="#740000" stroke="#740000" stroke-width="0.5"/><path d="M362.85681,209.77722l-12.39821,-15.68903l14.7178,-11.63071c0,0 2.51764,3.18188 3.80102,5.93843c0.57106,1.22654 -0.34214,2.27801 0.29417,3.08321c0.61424,0.77727 2.50076,-0.24629 3.57863,0.64086c2.5482,2.0973 4.72436,6.02652 4.72436,6.02652z" fill="#3e3e3e" stroke="#424242" stroke-width="2"/><path d="M359.94889,212.31792c0,0 -3.31978,-3.02546 -4.77124,-5.98946c-0.61397,-1.25375 0.81797,-2.85259 0.20373,-3.62986c-0.63632,-0.80522 -1.87038,-0.15981 -2.93171,-0.99891c-2.38527,-1.88581 -4.89898,-5.07078 -4.89898,-5.07078l14.7178,-11.6307l12.39821,15.68903z" data-paper-data="{&quot;index&quot;:null}" fill="#202020" stroke="#202020" stroke-width="2"/></g><g data-paper-data="{&quot;index&quot;:null}" stroke-linecap="butt"><path d="M265.59506,226.73508c-5.61748,0.32844 -10.44008,-4.00172 -10.7716,-9.67169c-0.14756,-2.52365 2.01698,-3.82445 3.40898,-5.69962c1.73546,-2.33785 3.27831,-0.98675 6.39552,-1.16901c3.29745,-0.1928 5.42716,-1.01735 7.42923,1.329c1.40863,1.65084 0.76841,3.47272 0.90533,5.81442c0.09475,1.6207 -0.61123,-0.80593 -1.19416,0.59582c-1.45644,3.50221 -2.16152,8.56651 -6.1733,8.80107z" fill="#740000" stroke="#740000" stroke-width="0.5"/><path d="M253.52799,212.03609c0,0 -0.98625,-4.38198 -0.4768,-7.64272c0.21551,-1.37927 2.30528,-1.8687 2.24745,-2.85768c-0.0599,-1.02453 -1.44107,-1.20299 -1.82982,-2.49891c-0.87368,-2.91245 -1.10803,-6.96312 -1.10803,-6.96312l18.72667,-1.09494l1.16719,19.96243z" fill="#3e3e3e" stroke="#424242" stroke-width="2"/><path d="M257.3893,212.00109l-1.16718,-19.96244l18.72667,-1.09493c0,0 0.23934,4.05039 -0.28899,7.04481c-0.23508,1.33239 -1.58603,1.67058 -1.52613,2.69512c0.05782,0.98901 2.19039,1.23154 2.56517,2.5763c0.88601,3.17915 0.41714,7.6462 0.41714,7.6462z" data-paper-data="{&quot;index&quot;:null}" fill="#202020" stroke="#202020" stroke-width="2"/></g><path d="M287.28035,173.83163l4.77778,-5.33333l-0.66667,-14.44444l-7.88889,-0.11111c0,0 -1.74393,-2.39322 -2.38594,-3.49667c-0.51492,-0.88501 -1.16962,-2.61445 -1.16962,-2.61445l15.44444,1.66667l1.66667,23l-10.66667,12.33333z" fill="url(#color-3)" stroke="url(#color-4)" stroke-width="2" stroke-linecap="round"/><path d="M326.28033,184.94275l-13,-11.88889l1.66666,-23l15.33333,-1.33334c0,0 -0.73849,1.90901 -1.29632,2.84472c-0.58866,0.98743 -2.14813,2.93306 -2.14813,2.93306l-7.88889,0.11111l-0.66666,14.44445l7.33333,4.88889z" data-paper-data="{&quot;index&quot;:null}" fill="url(#color-5)" stroke="url(#color-6)" stroke-width="2" stroke-linecap="round"/><text transform="translate(292.80117,137.13025) scale(0.5,0.5)" font-size="40" xml:space="preserve" fill="url(#color-7)" fill-rule="nonzero" stroke="none" stroke-width="1" stroke-linecap="butt" stroke-linejoin="miter" stroke-miterlimit="10" stroke-dasharray="" stroke-dashoffset="0" font-family="Marker" font-weight="normal" text-anchor="start" style="mix-blend-mode: normal"><tspan x="0" dy="0">69</tspan></text><path d="M326.08718,267.67139c-2.5892,-0.19973 -5.17476,-0.40826 -7.75911,-0.6652c-1.79505,-0.17846 -3.61342,-0.43838 -5.42735,-0.59347l-0.1644,-42.734c2.51751,-0.10308 6.03785,-1.02223 8.08032,-2.18829c2.35955,-0.82588 4.3978,-2.07598 6.60076,-3.18022c0.20983,-0.10518 0.41869,-0.1512 0.61461,-0.20105z" data-paper-data="{&quot;index&quot;:null}" fill="#00235d" stroke="#00235d" stroke-width="2" stroke-linecap="butt"/><path d="M303.52448,255.4209c-0.34983,-0.10747 -0.66055,-0.24492 -0.91691,-0.4196c-2.6183,0.01819 -5.29937,0.03227 -7.99294,0.05394c-2.21159,0.0178 -4.41617,0.20941 -6.5937,0.28693l-0.50041,-50.00803c2.17848,0.8027 4.65618,2.84138 6.75721,3.81061c2.83994,1.37606 6.44566,3.41755 9.63067,3.39191c0.12743,-0.00102 0.3133,-0.00252 0.46825,-0.00377z" data-paper-data="{&quot;index&quot;:null}" fill="#00235d" stroke="#00235d" stroke-width="2" stroke-linecap="butt"/><path d="M301.7288,315.65633l-13.68504,-0.24348l-0.1182,-60.40101c2.1785,-0.06001 4.38341,-0.23384 6.59504,-0.23384c2.65207,0 5.3087,0.12176 7.88207,-0.00616c0.27693,0.19679 0.62157,0.34896 1.01328,0.46594z" data-paper-data="{&quot;index&quot;:null}" fill="#00235d" stroke="#00235d" stroke-width="2" stroke-linecap="butt"/><path d="M323.77691,315.25884l-10.64392,0.19749l-0.23081,-48.66163c1.80091,0.12569 3.60625,0.33526 5.3882,0.47896c2.59192,0.209 5.18506,0.37859 7.78185,0.54104z" data-paper-data="{&quot;index&quot;:null}" fill="#00235d" stroke="#00235d" stroke-width="2" stroke-linecap="butt"/><path d="M321.94595,99.71617l-0.15139,16.65309l-9.53806,5.03777l-12.71428,-0.14286l-9.69129,-5.19768l2.27087,-13.92804" fill="url(#color-8)" stroke="url(#color-9)" stroke-width="2" stroke-linecap="round"/><path d="M292.25651,107.8356v-7.14286h29.14286v7.14286c0,0 -10.72282,5.85714 -15.71429,5.85714c-4.706,0 -13.42857,-5.85714 -13.42857,-5.85714z" fill="url(#color-10)" stroke="url(#color-11)" stroke-width="2" stroke-linecap="butt"/><path d="M327.07437,58.06453c0,0 1.51454,10.02406 1.47342,15.36943c-0.04652,6.04813 -1.73836,19.07218 -1.73836,19.07218c0,0 -5.78909,7.98185 -9.29546,11.39715c-3.27828,3.19313 -8.19029,8.20807 -8.19029,8.20807h-5.29872c0,0 -8.47909,-6.99193 -11.22017,-10.21392c-2.14509,-2.52144 -5.20583,-7.8017 -5.20583,-7.8017c0,0 -1.96329,-12.86166 -2.14379,-18.81771c-0.1724,-5.68883 1.08406,-16.15378 1.08406,-16.15378c0,0 11.17022,-4.71817 17.63186,-4.8871c7.00599,-0.18316 22.90328,3.82737 22.90328,3.82737z" fill="url(#color-12)" stroke="url(#color-13)" stroke-width="2" stroke-linecap="round"/><path d="M306.6554,90.1785l-1.21114,-1.36252l0.76531,-3.30428z" fill="none" stroke="url(#color-14)" stroke-width="2" stroke-linecap="round"/><path d="M284.96928,72.16807c0,0 5.77763,-0.67242 8.51849,-0.25075c2.41875,0.37211 7.0815,2.65075 7.0815,2.65075l-0.63673,15l-8.91429,5l-4.45714,-3.6z" fill="url(#color-15)" stroke="url(#color-16)" stroke-width="0.5" stroke-linecap="round"/><path d="M327.37745,92.76807l-4.45715,3.6l-8.91429,-5l-0.63673,-15c0,0 4.66275,-2.27864 7.0815,-2.65075c2.74086,-0.42167 8.5185,0.25075 8.5185,0.25075z" data-paper-data="{&quot;index&quot;:null}" fill="url(#color-17)" stroke="url(#color-18)" stroke-width="0.5" stroke-linecap="round"/><path d="M173.99504,138.49308l-4.25,20.5l-8.75,7.25l-7.75,-8l-2.25,-21.5" fill="none" stroke="#6e6e6e" stroke-width="0.5" stroke-linecap="round"/><path d="M151.99504,152.99308l-3,-3.25l-0.75,-7l5,3l4.25,-5.25l12,0.25l1.5,5.5l2,-0.75l3.5,-2l-1.75,7l-3.75,1.75" fill="none" stroke="#6e6e6e" stroke-width="0.5" stroke-linecap="round"/><path d="M156.74504,150.49308l-2,1" fill="none" stroke="#6e6e6e" stroke-width="0.5" stroke-linecap="round"/><path d="M154.24504,149.49308l6,2l-5.5,1.5" fill="none" stroke="#6e6e6e" stroke-width="0.5" stroke-linecap="round"/><path d="M167.99504,152.49308l-3,-0.75l-2,-0.5l5,-1.75" fill="none" stroke="#6e6e6e" stroke-width="0.5" stroke-linecap="round"/><path d="M167.99504,150.99308l-2.5,-0.25" fill="none" stroke="#6e6e6e" stroke-width="0.5" stroke-linecap="round"/><path d="M160.99504,151.74308l-1,2.25" fill="none" stroke="#6e6e6e" stroke-width="0.5" stroke-linecap="round"/><path d="M171.82116,126.36685l12.71111,-4.52802l23.3037,0.36225l0.79445,3.26017l1.7213,0.81504l0.54989,0.12536c0.04545,0.71652 0.11459,1.4 0.11459,1.89227c-0.00002,1.4315 0.38732,3.52597 -0.0892,4.88048c-0.34034,0.9674 -1.24738,1.61817 -1.55873,2.49407c-0.62085,0.78486 -1.10261,2.02423 -1.61581,3.23528c0.58645,-1.07889 1.24104,-2.13609 1.95149,-3.05529c0.26545,-0.86796 1.25313,-1.57864 1.58308,-2.54971c0.48265,-1.42054 0.11005,-3.51064 0.11007,-5.00483c0,-0.42731 -0.07116,-1.09576 -0.12165,-1.80705l11.78738,2.68734v34.47056c-1.2367,0.02795 -2.47372,0.04682 -3.70994,0.07467c-2.67651,0.06029 -5.33204,0.11975 -7.99941,0.35403c-1.76363,0.15491 -3.47358,0.33896 -5.18635,0.66743l-3.63815,-18.18386c1.0129,-1.35649 2.30522,-2.4189 3.2113,-3.97504c0.72898,-0.36476 0.51238,-0.60348 0.7964,-1.22724c0.03112,-0.06835 0.06257,-0.13697 0.09435,-0.20585c-0.3344,0.50729 -0.70958,0.91618 -1.1509,1.15489c-0.90834,1.43498 -2.07573,2.49756 -3.05137,3.75229l-0.5511,-2.75448c0,0 -3.21435,10.72767 -4.69446,14.39733c-1.32808,3.29274 -3.77962,6.61267 -3.77962,6.61267c0,0 -1.09632,12.02402 -0.9358,18.33716c0.18815,7.39954 1.99505,23.32058 1.99505,23.32058l-41.84074,0.36225c0,0 2.10258,-16.3244 2.01009,-23.66246c-0.08303,-6.58744 -2.53973,-18.35753 -2.53973,-18.35753c0,0 -3.48179,-3.44871 -5.06398,-7.52267c-1.39555,-3.59337 -3.93971,-15.66077 -3.93971,-15.66077l-0.70056,3.5015c-0.54295,-0.63401 -1.07088,-1.31616 -1.64084,-1.83137c-0.77404,-0.69969 -1.86624,-1.09185 -2.3034,-2.24249c-0.9548,-2.38346 -3.332,-4.29127 -4.59189,-6.53622c-0.79667,-1.51961 -0.67626,-3.05704 -0.91736,-4.70893c-0.14374,-0.98487 -0.69195,-1.91035 -0.74793,-2.91184c-0.01706,-0.58362 -0.09918,-1.14444 -0.16807,-1.70415l2.59598,-0.59184l3.575,-2.08289l24.89258,-0.36225zM206.63105,141.14891c0.42175,-0.63981 0.77861,-1.43616 1.12144,-2.24516c-0.4082,0.75096 -0.78339,1.51242 -1.12144,2.24516z" fill="#00235d" stroke="#00235d" stroke-width="2" stroke-linecap="butt"/><path d="M195.55829,213.6972l-0.51066,13.01381c-1.6844,1.5102 -5.70522,2.71946 -7.43867,3.32458c-1.96218,1.128 -5.44624,2.07415 -7.87455,2.14816l-0.00396,-1.02845l-8.06173,-0.64731l-0.03016,1.08007c-0.16074,0 -0.32149,0 -0.48223,0c-3.10404,0.00001 -6.62867,-2.05635 -9.38569,-3.4196c-2.16658,-1.02082 -4.70082,-3.14537 -6.94474,-3.94411l-0.02313,-11.82175z" data-paper-data="{&quot;index&quot;:null}" fill="#00235d" stroke="#00235d" stroke-width="2" stroke-linecap="butt"/><path d="M139.00743,161.52718c-2.45733,-0.52176 -4.48072,-0.80488 -6.82474,-2.03856c-2.66231,-0.58818 -5.10842,-1.2928 -7.68256,-2.15238c-0.80156,-0.26763 -1.68654,-0.53918 -2.59653,-0.77029v-29.56517l9.74364,-2.22139c0.06685,0.53715 0.14263,1.07572 0.15907,1.63668c0.06702,1.01726 0.60579,1.95104 0.75153,2.94962c0.24813,1.70014 0.13854,3.27009 0.95961,4.83583c1.24546,2.20414 3.67002,4.14033 4.57199,6.49351c0.48287,1.19766 1.60263,1.62696 2.39971,2.38327c0.62312,0.59127 1.19722,1.34446 1.80417,2.02565z" fill="#00235d" stroke="#00235d" stroke-width="2" stroke-linecap="butt"/><path d="M206.79883,161.60879c1.23401,-0.01878 2.46801,-0.0465 3.70153,-0.06535c2.66864,-0.04073 5.31624,-0.08176 7.98229,0.05118c1.75441,0.08749 3.4561,0.20527 5.16628,0.46663l-2.04325,12.68645l0.04301,29.17963l-13.2176,0.86214z" data-paper-data="{&quot;index&quot;:null}" fill="#00235d" stroke="#00235d" stroke-width="2" stroke-linecap="butt"/><path d="M137.31605,174.55348l0.76092,31.16147l-13.21816,0.77285l-2.90328,-49.65499c0.88216,0.17535 1.7405,0.38839 2.51505,0.59769c2.61539,0.70664 5.09129,1.29164 7.78459,1.69728c2.4157,1.12437 4.49115,1.27332 6.98908,1.64976z" data-paper-data="{&quot;index&quot;:null}" fill="#00235d" stroke="#00235d" stroke-width="2" stroke-linecap="butt"/><g><path d="M154.09507,205.11641l8.83768,-0.0915" fill="none" stroke="#000000" stroke-width="2" stroke-linecap="round"/><path d="M153.4785,212.52794v-7.68603h42.03037v7.68603z" fill="#3e3e3e" stroke="#000000" stroke-width="2" stroke-linecap="butt"/><path d="M180.50537,208.77643c0,0 -2.87557,5.76452 -6.42273,5.76452c-3.54718,0 -6.42273,-5.76452 -6.42273,-5.76452c0,0 2.87555,-5.76452 6.42273,-5.76452c3.54718,0 6.42273,5.76452 6.42273,5.76452z" fill="#740000" stroke="#570000" stroke-width="2" stroke-linecap="butt"/><text transform="translate(169.71518,213.99195) scale(0.30829,0.2745)" font-size="40" xml:space="preserve" fill="#000000" fill-rule="nonzero" stroke="none" stroke-width="1" stroke-linecap="butt" stroke-linejoin="miter" stroke-miterlimit="10" stroke-dasharray="" stroke-dashoffset="0" font-family="Handwriting" font-weight="normal" text-anchor="start" style="mix-blend-mode: normal"><tspan x="0" dy="0">V</tspan></text></g><g data-paper-data="{&quot;index&quot;:null}" stroke-linecap="butt"><path d="M222.52247,228.47719c0.02644,1.62326 -0.57675,-0.83095 -1.21819,0.54501c-1.60261,3.43778 -2.52029,8.46789 -6.53839,8.53334c-5.62632,0.09163 -10.26233,-4.43773 -10.35483,-10.11665c-0.04116,-2.52762 2.17622,-3.73613 3.64594,-5.55102c1.83236,-2.26272 3.31696,-0.84784 6.43907,-0.8987c3.30264,-0.05378 5.46517,-0.78795 7.36668,1.64062c1.33786,1.70871 0.62151,3.502 0.65971,5.84739z" data-paper-data="{&quot;index&quot;:null}" fill="#d59768" stroke="#b7825a" stroke-width="0.5"/><path d="M208.09103,221.1411l-0.32564,-19.99388l18.75616,-0.30549c0,0 0.06856,4.05687 -0.58536,7.02639c-0.29095,1.32131 -1.65496,1.60233 -1.63826,2.62847c0.01613,0.99055 2.1366,1.32267 2.45441,2.68201c0.75135,3.21363 0.09483,7.65699 0.09483,7.65699z" fill="#3e3e3e" stroke="#424242" stroke-width="2"/><path d="M204.23785,221.39432c0,0 -0.80089,-4.41961 -0.15458,-7.65601c0.27338,-1.36898 2.38191,-1.76997 2.36578,-2.76052c-0.01671,-1.02616 -1.38914,-1.2626 -1.72299,-2.57373c-0.7503,-2.94666 -0.81386,-7.0036 -0.81386,-7.0036l18.75616,-0.30549l0.32564,19.99388z" data-paper-data="{&quot;index&quot;:null}" fill="#202020" stroke="#202020" stroke-width="2"/></g><g data-paper-data="{&quot;index&quot;:null}" stroke-linecap="butt"><path d="M132.59506,235.73508c-5.61748,0.32844 -10.44008,-4.00172 -10.7716,-9.67169c-0.14756,-2.52365 2.01698,-3.82445 3.40898,-5.69962c1.73546,-2.33785 3.27831,-0.98675 6.39552,-1.16901c3.29745,-0.1928 5.42716,-1.01735 7.42923,1.329c1.40863,1.65084 0.76841,3.47272 0.90533,5.81442c0.09475,1.6207 -0.61123,-0.80593 -1.19416,0.59582c-1.45644,3.50221 -2.16152,8.56651 -6.1733,8.80107z" fill="#d59768" stroke="#b7825a" stroke-width="0.5"/><path d="M120.52799,221.03609c0,0 -0.98625,-4.38198 -0.4768,-7.64272c0.21551,-1.37927 2.30528,-1.8687 2.24745,-2.85768c-0.0599,-1.02453 -1.44107,-1.20299 -1.82982,-2.49891c-0.87368,-2.91245 -1.10803,-6.96312 -1.10803,-6.96312l18.72667,-1.09494l1.16719,19.96243z" fill="#3e3e3e" stroke="#424242" stroke-width="2"/><path d="M124.3893,221.00109l-1.16718,-19.96244l18.72667,-1.09493c0,0 0.23934,4.05039 -0.28899,7.04481c-0.23508,1.33239 -1.58603,1.67058 -1.52613,2.69512c0.05782,0.98901 2.19039,1.23154 2.56517,2.5763c0.88601,3.17915 0.41714,7.6462 0.41714,7.6462z" data-paper-data="{&quot;index&quot;:null}" fill="#202020" stroke="#202020" stroke-width="2"/></g><path d="M154.28035,182.83163l4.77778,-5.33333l-0.66667,-14.44444l-7.88889,-0.11111c0,0 -1.74393,-2.39322 -2.38594,-3.49667c-0.51492,-0.88501 -1.16962,-2.61445 -1.16962,-2.61445l15.44444,1.66667l1.66667,23l-10.66667,12.33333z" fill="url(#color-19)" stroke="url(#color-20)" stroke-width="2" stroke-linecap="round"/><path d="M193.28033,193.94275l-13,-11.88889l1.66666,-23l15.33333,-1.33334c0,0 -0.73849,1.90901 -1.29632,2.84472c-0.58866,0.98743 -2.14813,2.93306 -2.14813,2.93306l-7.88889,0.11111l-0.66666,14.44445l7.33333,4.88889z" data-paper-data="{&quot;index&quot;:null}" fill="url(#color-21)" stroke="url(#color-22)" stroke-width="2" stroke-linecap="round"/><text transform="translate(159.80116,146.13025) scale(0.5,0.5)" font-size="40" xml:space="preserve" fill="url(#color-23)" fill-rule="nonzero" stroke="none" stroke-width="1" stroke-linecap="butt" stroke-linejoin="miter" stroke-miterlimit="10" stroke-dasharray="" stroke-dashoffset="0" font-family="Marker" font-weight="normal" text-anchor="start" style="mix-blend-mode: normal"><tspan x="0" dy="0">69</tspan></text><path d="M193.08718,276.67139c-2.5892,-0.19973 -5.17476,-0.40826 -7.75911,-0.6652c-1.79505,-0.17846 -3.61342,-0.43838 -5.42735,-0.59347l-0.1644,-42.734c2.51751,-0.10308 6.03785,-1.02223 8.08032,-2.18829c2.35955,-0.82588 4.3978,-2.07598 6.60076,-3.18022c0.20983,-0.10518 0.41869,-0.1512 0.61461,-0.20105z" data-paper-data="{&quot;index&quot;:null}" fill="#00235d" stroke="#00235d" stroke-width="2" stroke-linecap="butt"/><path d="M170.52447,264.4209c-0.34983,-0.10747 -0.66055,-0.24492 -0.91691,-0.4196c-2.6183,0.01819 -5.29937,0.03227 -7.99294,0.05394c-2.21159,0.0178 -4.41617,0.20941 -6.5937,0.28693l-0.50041,-50.00803c2.17848,0.8027 4.65618,2.84138 6.75721,3.81061c2.83994,1.37606 6.44566,3.41755 9.63067,3.39191c0.12743,-0.00102 0.3133,-0.00252 0.46825,-0.00377z" data-paper-data="{&quot;index&quot;:null}" fill="#00235d" stroke="#00235d" stroke-width="2" stroke-linecap="butt"/><path d="M168.72879,324.65633l-13.68504,-0.24348l-0.1182,-60.40101c2.1785,-0.06001 4.38341,-0.23384 6.59504,-0.23384c2.65207,0 5.3087,0.12176 7.88207,-0.00616c0.27693,0.19679 0.62157,0.34896 1.01328,0.46594z" data-paper-data="{&quot;index&quot;:null}" fill="#00235d" stroke="#00235d" stroke-width="2" stroke-linecap="butt"/><path d="M190.77692,324.25884l-10.64392,0.19749l-0.23081,-48.66163c1.80091,0.12569 3.60625,0.33526 5.3882,0.47896c2.59192,0.209 5.18506,0.37859 7.78185,0.54104z" data-paper-data="{&quot;index&quot;:null}" fill="#00235d" stroke="#00235d" stroke-width="2" stroke-linecap="butt"/><path d="M188.94594,108.71617l-0.15139,16.65309l-9.53806,5.03777l-12.71428,-0.14286l-9.69129,-5.19768l2.27087,-13.92804" fill="#d59768" stroke="#b17e57" stroke-width="2" stroke-linecap="round"/><path d="M159.25651,116.8356v-7.14286h29.14286v7.14286c0,0 -10.72282,5.85714 -15.71429,5.85714c-4.706,0 -13.42857,-5.85714 -13.42857,-5.85714z" fill="#b7825a" stroke="#b17e57" stroke-width="2" stroke-linecap="butt"/><path d="M194.07437,67.06453c0,0 1.51454,10.02406 1.47342,15.36943c-0.04652,6.04813 -1.73836,19.07218 -1.73836,19.07218c0,0 -5.78909,7.98185 -9.29546,11.39715c-3.27828,3.19313 -8.19029,8.20807 -8.19029,8.20807h-5.29872c0,0 -8.47909,-6.99193 -11.22017,-10.21392c-2.14509,-2.52144 -5.20583,-7.8017 -5.20583,-7.8017c0,0 -1.96329,-12.86166 -2.14379,-18.81771c-0.1724,-5.68883 1.08406,-16.15378 1.08406,-16.15378c0,0 5.61704,-0.14685 9.789,-0.25591c7.39377,-0.1933 30.74614,-0.80382 30.74614,-0.80382z" fill="#d59768" stroke="#b7825a" stroke-width="2" stroke-linecap="round"/><g fill="#ffffff" stroke="#b7825a" stroke-width="2" stroke-linecap="round"><path d="M177.52217,87.43493c0,0 1.34375,-2.85104 3.03166,-3.2482c1.68791,-0.39716 11.69353,-0.21655 11.69353,-0.21655c0,0 0.75578,0.8499 1.00778,1.40117c0.31238,0.68334 0.7246,2.38841 0.7246,2.38841l-0.10827,4.8723c0,0 -4.77592,0.79752 -7.49711,0.708c-2.764,-0.09091 -8.96046,-1.24938 -8.96046,-1.24938" data-paper-data="{&quot;index&quot;:null}"/><path d="M171.33512,92.1371c0,0 -6.19646,1.15846 -8.96046,1.24938c-2.7212,0.08952 -7.49711,-0.708 -7.49711,-0.708l-0.10827,-4.8723c0,0 0.41221,-1.70507 0.7246,-2.38841c0.25201,-0.55127 1.00778,-1.40117 1.00778,-1.40117c0,0 10.00562,-0.18062 11.69353,0.21655c1.6879,0.39716 3.03166,3.2482 3.03166,3.2482"/></g><g fill="#000000" stroke="#561400" stroke-width="0" stroke-linecap="butt"><path d="M162.47216,89.90975c-0.69195,0 -1.25288,-0.54017 -1.25288,-1.20647c0,-0.66631 0.56094,-1.20647 1.25288,-1.20647c0.69195,0 1.25288,0.54016 1.25288,1.20647c0,0.66631 -0.56094,1.20647 -1.25288,1.20647z"/><path d="M185.48802,89.44573c-0.69195,0 -1.25288,-0.54017 -1.25288,-1.20647c0,-0.66631 0.56092,-1.20647 1.25288,-1.20647c0.69195,0 1.25288,0.54017 1.25288,1.20647c0,0.66631 -0.56094,1.20647 -1.25288,1.20647z"/></g><path d="M173.65541,99.1785l-1.21114,-1.36252l0.76531,-3.30428z" fill="none" stroke="#b7825a" stroke-width="2" stroke-linecap="round"/><path d="M169.7708,107.04989l5.28571,-0.28572" fill="none" stroke="#b7825a" stroke-width="2" stroke-linecap="round"/><path d="M157.71928,97.71807l2,-3.6" fill="none" stroke="#b7825a" stroke-width="2" stroke-linecap="round"/><path d="M160.41928,98.11807l1.5,-3.9" fill="none" stroke="#b7825a" stroke-width="2" stroke-linecap="round"/><path d="M163.51928,83.11807l1.7,-2.7" fill="none" stroke="#b7825a" stroke-width="2" stroke-linecap="round"/><path d="M166.32246,83.60421l1.29362,-2.57227" fill="none" stroke="#b7825a" stroke-width="2" stroke-linecap="round"/><path d="M165.21928,101.01807c0,0 -3.25512,1.18457 -4.69385,1.13193c-1.27471,-0.04664 -3.50615,-1.43193 -3.50615,-1.43193" fill="none" stroke="#b7825a" stroke-width="2" stroke-linecap="round"/><path d="M158.91928,103.41807l0.5,-3" fill="none" stroke="#b7825a" stroke-width="2" stroke-linecap="round"/><path d="M161.71928,99.51807l0.7,3.7" fill="none" stroke="#b7825a" stroke-width="2" stroke-linecap="round"/><path d="M195.31928,75.81807l1.3,2.8l-3,13.6l-1.9,-8l-8.4,-8.7l-8.1,8.7l-3.1,-0.5l-7.2,-8.7l-3,3.5l-2.5,-1.3l-2.6,-2.6l-4.3,5.8l-3.6,3.1l-0.6,-7.8l0.6,-1.4l-5.1,-6.1l5.2,-2.5l3.3,-5.2l0.9,1.8l8.6,-5l-0.5,2.4l5.4,-1.1l0.6,2.7l12.8,-2.6l0.3,3.2l11.6,-0.9l0.1,3.7l7.3,-1.3l-3.4,4.9l3.1,1.6z" fill="url(#color-24)" stroke="url(#color-25)" stroke-width="2" stroke-linecap="round"/><g data-paper-data="{&quot;index&quot;:null}" stroke="#ff0000"><path d="M122.5578,230.65741c6.02853,-5.04651 23.81439,-17.36677 23.81439,-17.36677l-6.32878,11.17079l15.74044,-10.52228l-13.54595,15.7438c0,0 10.70719,-5.68015 16.08821,-7.48928c6.2589,-2.10429 13.08769,11.19966 13.08769,11.19966l-13.79754,-0.71272l-12.95593,4.09683l12.55876,8.08194l21.3422,8.6574l-23.28224,-0.733l-1.461,-1.12493l-13.72736,1.96964c0,0 1.85676,3.86129 4.2163,5.94994c2.96576,2.62527 12.17911,8.56318 12.17911,8.56318c0,0 -8.12301,1.3264 -18.21563,-5.42869c-10.09262,-6.75509 -24.5566,-22.08379 -24.5566,-22.08379c0,0 4.79984,-6.58638 8.84394,-9.97172z" fill="url(#color-26)" stroke-width="2" stroke-linecap="round"/><path d="M109.89418,225.07439c9.71042,-20.76117 33.41411,-30.18654 52.94367,-21.05216c19.52957,9.13438 27.48957,33.3695 17.77915,54.13067c-9.71042,20.76117 -33.41411,30.18654 -52.94367,21.05217c-19.52957,-9.13437 -27.48957,-33.3695 -17.77915,-54.13067z" fill="url(#color-27)" stroke-width="0" stroke-linecap="butt"/></g><g data-paper-data="{&quot;index&quot;:null}" stroke="#ff0000"><path d="M115.51222,211.81901c-1.30789,-7.75242 -2.95031,-29.3262 -2.95031,-29.3262l6.44076,11.10661l-1.12467,-18.90014l6.73934,19.64539c0,0 0.50986,-12.10983 1.66824,-17.66739c1.34737,-6.46425 16.27843,-5.63318 16.27843,-5.63318l-7.58804,11.54564l-3.01257,13.25007l13.32085,-6.75241l18.25641,-14.04077l-12.39895,19.71969l-1.70907,0.69217l-5.23798,12.8407c0,0 4.27026,0.34924 7.26502,-0.63123c3.76418,-1.23237 13.54424,-6.18161 13.54424,-6.18161c0,0 -2.96069,7.67964 -13.89026,12.97462c-10.92957,5.29497 -31.46648,10.02899 -31.46648,10.02899c0,0 -3.25759,-7.47041 -4.13497,-12.67093z" fill="url(#color-28)" stroke-width="2" stroke-linecap="round"/><path d="M104.29468,219.92483c-13.00723,-18.87142 -9.16089,-44.08863 8.59103,-56.32424c17.75192,-12.23561 42.68714,-6.85624 55.69437,12.01518c13.00723,18.87141 9.16089,44.08863 -8.59103,56.32424c-17.75192,12.23561 -42.68714,6.85624 -55.69437,-12.01517z" fill="url(#color-29)" stroke-width="0" stroke-linecap="butt"/></g><g data-paper-data="{&quot;index&quot;:null}" stroke="#ff0000"><path d="M104.77064,188.64737c-4.44212,-6.48676 -14.99117,-25.37706 -14.99117,-25.37706l10.50896,7.37576l-8.95655,-16.68114l14.36522,15.00001c0,0 -4.62195,-11.20471 -5.90415,-16.73503c-1.49138,-6.43255 12.40869,-11.94757 12.40869,-11.94757l-2.03895,13.66465l2.82932,13.29041l9.2545,-11.72152l10.67368,-20.40864l-2.97309,23.10326l-1.26048,1.34581l0.6377,13.85328c0,0 4.02224,-1.47604 6.32854,-3.62333c2.89884,-2.69898 9.69692,-11.29728 9.69692,-11.29728c0,0 0.53749,8.21303 -7.1587,17.60775c-7.69619,9.39472 -24.34732,22.3143 -24.34732,22.3143c0,0 -6.09321,-5.41217 -9.07311,-9.76367z" fill="url(#color-30)" stroke-width="2" stroke-linecap="round"/><path d="M97.99333,200.71407c-19.72884,-11.6658 -26.82624,-36.16742 -15.85248,-54.72591c10.97376,-18.55849 35.86314,-24.14612 55.59198,-12.48032c19.72884,11.6658 26.82623,36.16742 15.85247,54.72591c-10.97376,18.55849 -35.86313,24.14612 -55.59197,12.48032z" fill="url(#color-31)" stroke-width="0" stroke-linecap="butt"/></g><g stroke="#ff0000"><path d="M108.02096,237.62913c0,0 -14.46397,15.3287 -24.55659,22.08379c-10.09262,6.75509 -18.21564,5.42869 -18.21564,5.42869c0,0 9.21335,-5.93791 12.17912,-8.56318c2.35954,-2.08865 4.2163,-5.94994 4.2163,-5.94994l-13.72736,-1.96965l-1.461,1.12493l-23.28224,0.733l21.34219,-8.6574l12.55876,-8.08194l-12.95593,-4.09683l-13.79753,0.71272c0,0 6.82879,-13.30395 13.08769,-11.19966c5.38102,1.80914 16.08821,7.48929 16.08821,7.48929l-13.54595,-15.74379l15.74044,10.52228l-6.32878,-11.17079c0,0 17.78587,12.32026 23.8144,17.36677c4.0441,3.38534 8.84394,9.97172 8.84394,9.97172z" fill="url(#color-32)" stroke-width="2" stroke-linecap="round"/><path d="M94.06151,276.20505c-19.52957,9.13438 -43.23326,-0.291 -52.94368,-21.05216c-9.71042,-20.76116 -1.75042,-44.99629 17.77915,-54.13066c19.52957,-9.13438 43.23326,0.291 52.94368,21.05216c9.71042,20.76116 1.75042,44.99629 -17.77915,54.13066z" fill="url(#color-33)" stroke-width="0" stroke-linecap="butt"/></g><g stroke="#ff0000"><path d="M102.08763,221.48994c0,0 -20.53691,-4.73402 -31.46648,-10.02899c-10.92957,-5.29497 -13.89027,-12.97462 -13.89027,-12.97462c0,0 9.78007,4.94924 13.54424,6.18161c2.99476,0.98047 7.26502,0.63123 7.26502,0.63123l-5.23798,-12.8407l-1.70906,-0.69217l-12.39895,-19.71969l18.25641,14.04077l13.32085,6.75241l-3.01257,-13.25007l-7.58804,-11.54563c0,0 14.93107,-0.83106 16.27843,5.63318c1.15838,5.55757 1.66824,17.66739 1.66824,17.66739l6.73935,-19.64538l-1.12467,18.90013l6.44076,-11.1066c0,0 -1.64241,21.57378 -2.95031,29.3262c-0.87738,5.20052 -4.13497,12.67093 -4.13497,12.67093z" fill="url(#color-34)" stroke-width="2" stroke-linecap="round"/><path d="M61.74577,228.94c-17.75192,-12.23561 -21.59826,-37.45283 -8.59103,-56.32424c13.00723,-18.87141 37.94244,-24.25079 55.69437,-12.01518c17.75192,12.23561 21.59826,37.45283 8.59103,56.32424c-13.00723,18.87141 -37.94244,24.25079 -55.69437,12.01518z" fill="url(#color-35)" stroke-width="0" stroke-linecap="butt"/></g><g stroke="#ff0000"><path d="M107.89108,195.41103c0,0 -16.65113,-12.91957 -24.34732,-22.3143c-7.69619,-9.39473 -7.15871,-17.60776 -7.15871,-17.60776c0,0 6.79809,8.5983 9.69692,11.29728c2.3063,2.1473 6.32854,3.62334 6.32854,3.62334l0.6377,-13.85328l-1.26048,-1.3458l-2.97309,-23.10326l10.67367,20.40864l9.2545,11.72153l2.82932,-13.29041l-2.03895,-13.66465c0,0 13.90007,5.51502 12.40869,11.94757c-1.2822,5.53032 -5.90415,16.73502 -5.90415,16.73502l14.36522,-15.00001l-8.95654,16.68113l10.50896,-7.37576c0,0 -10.54906,18.89029 -14.99117,25.37706c-2.97989,4.35149 -9.07311,9.76367 -9.07311,9.76367z" fill="url(#color-36)" stroke-width="2" stroke-linecap="round"/><path d="M68.14953,185.23375c-10.97376,-18.55849 -3.87636,-43.06011 15.85248,-54.72591c19.72884,-11.6658 44.61822,-6.07817 55.59198,12.48032c10.97376,18.55849 3.87636,43.06011 -15.85248,54.72591c-19.72884,11.6658 -44.61822,6.07817 -55.59198,-12.48032z" fill="url(#color-37)" stroke-width="0" stroke-linecap="butt"/></g><g data-paper-data="{&quot;index&quot;:null}" stroke="#ff0000"><path d="M152.98075,220.49724c6.12149,-4.93335 24.13376,-16.92016 24.13376,-16.92016l-6.53576,11.05097l15.93371,-10.22726l-13.83686,15.48874c0,0 10.81113,-5.47972 16.22492,-7.18831c6.29701,-1.98734 12.8768,11.44151 12.8768,11.44151l-13.78187,-0.9696l-13.02999,3.85479l12.40603,8.31447l21.17723,9.05344l-23.26455,-1.16655l-1.4398,-1.15195l-13.76167,1.71361c0,0 1.78451,3.89521 4.10474,6.02744c2.91634,2.68006 12.01749,8.78855 12.01749,8.78855c0,0 -8.14631,1.17486 -18.11136,-5.76705c-9.96504,-6.94191 -24.14098,-22.53737 -24.14098,-22.53737c0,0 4.92169,-6.49583 9.02814,-9.80526z" fill="url(#color-38)" stroke-width="2" stroke-linecap="round"/><path d="M140.42332,214.6793c10.09546,-20.57668 33.97059,-29.5589 53.32663,-20.06233c19.35604,9.49657 26.86323,33.87576 16.76777,54.45245c-10.09546,20.57669 -33.9706,29.55889 -53.32663,20.06233c-19.35604,-9.49657 -26.86322,-33.87576 -16.76777,-54.45245z" fill="url(#color-39)" stroke-width="0" stroke-linecap="butt"/></g><g data-paper-data="{&quot;index&quot;:null}" stroke="#ff0000"><path d="M146.28731,201.53087c-1.16327,-7.77543 -2.40353,-29.37607 -2.40353,-29.37607l6.23276,11.22465l-0.77242,-18.9178l6.37224,19.76751c0,0 0.73534,-12.09823 1.99705,-17.63325c1.46754,-6.43803 16.38053,-5.32898 16.38053,-5.32898l-7.80178,11.40228l-3.25886,13.19166l13.44432,-6.50312l18.51478,-13.69827l-12.76412,19.48531l-1.72166,0.66021l-5.47626,12.7409c0,0 4.26302,0.42873 7.27552,-0.49579c3.78647,-1.16205 13.65704,-5.92825 13.65704,-5.92825c0,0 -3.10323,7.62317 -14.12953,12.71363c-11.02631,5.09046 -31.64783,9.44113 -31.64783,9.44113c0,0 -3.11788,-7.52979 -3.89823,-12.74576z" fill="url(#color-40)" stroke-width="2" stroke-linecap="round"/><path d="M134.92073,209.42633c-12.65345,-19.11042 -8.33806,-44.25162 9.6387,-56.15444c17.97676,-11.90283 42.80745,-6.05991 55.46089,13.05051c12.65345,19.11042 8.33806,44.25162 -9.6387,56.15445c-17.97675,11.90283 -42.80744,6.05991 -55.46089,-13.05052z" fill="url(#color-41)" stroke-width="0" stroke-linecap="butt"/></g><g data-paper-data="{&quot;index&quot;:null}" stroke="#ff0000"><path d="M135.9792,178.16316c-4.32052,-6.56838 -14.51587,-25.65189 -14.51587,-25.65189l10.36974,7.57023l-8.64427,-16.84507l14.08333,15.26499c0,0 -4.41244,-11.28885 -5.5914,-16.84209c-1.3713,-6.45921 12.62908,-11.71436 12.62908,-11.71436l-2.29312,13.6243l2.58126,13.34081l9.47123,-11.54711l11.05198,-20.20628l-3.40292,23.04387l-1.28533,1.32209l0.37954,13.86275c0,0 4.04904,-1.40086 6.39493,-3.50482c2.9486,-2.64452 9.90567,-11.1147 9.90567,-11.1147c0,0 0.38441,8.22162 -7.48545,17.47136c-7.86985,9.24974 -24.75874,21.85691 -24.75874,21.85691c0,0 -5.99134,-5.52473 -8.88966,-9.93098z" fill="url(#color-42)" stroke-width="2" stroke-linecap="round"/><path d="M128.9783,190.10153c-19.50812,-12.03126 -26.14789,-36.66084 -14.83034,-55.0117c11.31754,-18.35086 36.30668,-23.47391 55.8148,-11.44264c19.50812,12.03126 26.14789,36.66084 14.83034,55.0117c-11.31754,18.35086 -36.30668,23.4739 -55.8148,11.44264z" fill="url(#color-43)" stroke-width="0" stroke-linecap="butt"/></g><g stroke="#ff0000"><path d="M73.68113,228.30249c0,0 -14.17593,15.59546 -24.14098,22.53737c-9.96504,6.94191 -18.11136,5.76705 -18.11136,5.76705c0,0 9.10115,-6.1085 12.01749,-8.78856c2.32023,-2.13224 4.10474,-6.02744 4.10474,-6.02744l-13.76167,-1.7136l-1.43979,1.15195l-23.26455,1.16655l21.17723,-9.05344l12.40603,-8.31447l-13.02999,-3.85479l-13.78187,0.9696c0,0 6.57979,-13.42884 12.8768,-11.44151c5.41379,1.70859 16.22492,7.18831 16.22492,7.18831l-13.83687,-15.48874l15.93371,10.22726l-6.53576,-11.05097c0,0 18.01227,11.98682 24.13376,16.92016c4.10645,3.30942 9.02815,9.80526 9.02815,9.80526z" fill="url(#color-44)" stroke-width="2" stroke-linecap="round"/><path d="M60.44263,267.13174c-19.35604,9.49657 -43.23118,0.51436 -53.32663,-20.06232c-10.09545,-20.57668 -2.58827,-44.95588 16.76777,-54.45244c19.35604,-9.49657 43.23118,-0.51436 53.32663,20.06232c10.09545,20.57668 2.58827,44.95588 -16.76777,54.45244z" fill="url(#color-45)" stroke-width="0" stroke-linecap="butt"/></g><g stroke="#ff0000"><path d="M67.44819,212.27662c0,0 -20.62152,-4.35066 -31.64783,-9.44113c-11.02631,-5.09046 -14.12953,-12.71363 -14.12953,-12.71363c0,0 9.87056,4.76621 13.65704,5.92825c3.0125,0.92452 7.27552,0.49579 7.27552,0.49579l-5.47625,-12.74091l-1.72166,-0.66021l-12.76412,-19.48531l18.51479,13.69827l13.44431,6.50312l-3.25886,-13.19166l-7.80179,-11.40229c0,0 14.91299,-1.10904 16.38054,5.32898c1.2617,5.53503 1.99705,17.63326 1.99705,17.63326l6.37224,-19.76751l-0.77242,18.9178l6.23276,-11.22465c0,0 -1.24027,21.60064 -2.40354,29.37607c-0.78035,5.21597 -3.89824,12.74575 -3.89824,12.74575z" fill="url(#color-46)" stroke-width="2" stroke-linecap="round"/><path d="M27.25212,220.47684c-17.97675,-11.90282 -22.29215,-37.04402 -9.6387,-56.15445c12.65345,-19.11042 37.48414,-24.95334 55.46089,-13.05051c17.97675,11.90282 22.29215,37.04402 9.6387,56.15445c-12.65345,19.11042 -37.48414,24.95334 -55.46089,13.05051z" fill="url(#color-47)" stroke-width="0" stroke-linecap="butt"/></g><g stroke="#ff0000"><path d="M72.76486,186.09414c0,0 -16.8889,-12.60717 -24.75874,-21.85691c-7.86985,-9.24974 -7.48545,-17.47135 -7.48545,-17.47135c0,0 6.95707,8.47017 9.90567,11.11469c2.3459,2.10397 6.39493,3.50482 6.39493,3.50482l0.37954,-13.86275l-1.28533,-1.32209l-3.40292,-23.04387l11.05198,20.20628l9.47123,11.54711l2.58126,-13.34081l-2.29312,-13.6243c0,0 14.00038,5.25515 12.62909,11.71436c-1.17896,5.55324 -5.59141,16.8421 -5.59141,16.8421l14.08333,-15.26499l-8.64427,16.84508l10.36974,-7.57023c0,0 -10.19536,19.08351 -14.51587,25.65189c-2.89832,4.40625 -8.88966,9.93098 -8.88966,9.93098z" fill="url(#color-48)" stroke-width="2" stroke-linecap="round"/><path d="M32.84063,176.65889c-11.31755,-18.35086 -4.67778,-42.98044 14.83034,-55.0117c19.50812,-12.03127 44.49726,-6.90822 55.8148,11.44264c11.31755,18.35086 4.67778,42.98044 -14.83034,55.0117c-19.50812,12.03127 -44.49726,6.90822 -55.8148,-11.44264z" fill="url(#color-49)" stroke-width="0" stroke-linecap="butt"/></g><path d="M112.53895,172.0251l-4.25,20.5l-8.75,7.25l-7.75,-8l-2.25,-21.5" fill="none" stroke="#6e6e6e" stroke-width="0.5" stroke-linecap="round"/><path d="M90.53895,186.5251l-3,-3.25l-0.75,-7l5,3l4.25,-5.25l12,0.25l1.5,5.5l2,-0.75l3.5,-2l-1.75,7l-3.75,1.75" fill="none" stroke="#6e6e6e" stroke-width="0.5" stroke-linecap="round"/><path d="M87.28895,176.7751l-9.25,-3.25l6.5,-9.5l3.25,-9.25l5.75,1.75l5.5,-5l-6.5,6.25l8,-7.75l3.75,6.25l-1,-1.25l5.5,-1l1.25,6.5l6.5,-0.75l-2,7.5l6.5,4.75l-5,5.25l1.25,4h-5" fill="none" stroke="#6e6e6e" stroke-width="0.5" stroke-linecap="round"/><path d="M95.28895,184.0251l-2,1" fill="none" stroke="#6e6e6e" stroke-width="0.5" stroke-linecap="round"/><path d="M92.78895,183.0251l6,2l-5.5,1.5" fill="none" stroke="#6e6e6e" stroke-width="0.5" stroke-linecap="round"/><path d="M106.53895,186.0251l-3,-0.75l-2,-0.5l5,-1.75" fill="none" stroke="#6e6e6e" stroke-width="0.5" stroke-linecap="round"/><path d="M106.53895,184.5251l-2.5,-0.25" fill="none" stroke="#6e6e6e" stroke-width="0.5" stroke-linecap="round"/><path d="M98.53895,187.5251l1,-2.25" fill="none" stroke="#6e6e6e" stroke-width="0.5" stroke-linecap="round"/><g stroke-width="2"><path d="M110.36509,159.89887l12.71111,-4.52802l23.3037,0.36225l0.79445,3.26017l1.7213,0.81504l0.54989,0.12536c0.04545,0.71652 0.11459,1.4 0.11459,1.89227c-0.00002,1.4315 0.38732,3.52597 -0.0892,4.88048c-0.34034,0.9674 -1.24738,1.61817 -1.55873,2.49407c-0.62085,0.78486 -1.10261,2.02423 -1.61581,3.23528c0.58645,-1.07889 1.24104,-2.13609 1.95149,-3.05529c0.26545,-0.86796 1.25313,-1.57864 1.58308,-2.54971c0.48265,-1.42054 0.11005,-3.51064 0.11007,-5.00483c0,-0.42731 -0.07116,-1.09576 -0.12165,-1.80705l11.78738,2.68734v34.47056c-1.2367,0.02795 -2.47372,0.04682 -3.70994,0.07467c-2.67651,0.06029 -5.33204,0.11975 -7.99941,0.35403c-1.76363,0.15491 -3.47358,0.33896 -5.18635,0.66743l-3.63815,-18.18386c1.0129,-1.35649 2.30522,-2.4189 3.2113,-3.97504c0.72898,-0.36476 0.51238,-0.60348 0.7964,-1.22724c0.03112,-0.06835 0.06257,-0.13697 0.09435,-0.20585c-0.3344,0.50729 -0.70958,0.91618 -1.1509,1.15489c-0.90834,1.43498 -2.07573,2.49756 -3.05137,3.75229l-0.5511,-2.75448c0,0 -3.21435,10.72767 -4.69446,14.39733c-1.32808,3.29274 -3.77962,6.61267 -3.77962,6.61267c0,0 -1.09632,12.02402 -0.9358,18.33716c0.18815,7.39954 1.99505,23.32058 1.99505,23.32058l-41.84074,0.36225c0,0 2.10258,-16.3244 2.01009,-23.66246c-0.08303,-6.58744 -2.53973,-18.35753 -2.53973,-18.35753c0,0 -3.48179,-3.44871 -5.06398,-7.52267c-1.39555,-3.59337 -3.93971,-15.66077 -3.93971,-15.66077l-0.70056,3.5015c-0.54295,-0.63401 -1.07088,-1.31616 -1.64084,-1.83137c-0.77404,-0.69969 -1.86624,-1.09185 -2.3034,-2.24249c-0.9548,-2.38346 -3.332,-4.29127 -4.59189,-6.53622c-0.79667,-1.51961 -0.67626,-3.05704 -0.91736,-4.70893c-0.14374,-0.98487 -0.69195,-1.91035 -0.74793,-2.91184c-0.01706,-0.58362 -0.09918,-1.14444 -0.16807,-1.70415l2.59598,-0.59184l3.575,-2.08289l24.89258,-0.36225zM145.17496,174.68093c0.42175,-0.63981 0.77861,-1.43616 1.12144,-2.24516c-0.4082,0.75096 -0.78339,1.51242 -1.12144,2.24516z" fill="#00235d" stroke="#00235d" stroke-linecap="butt"/><path d="M99.77711,240.97549v-77.33017h19.9626v77.33017z" fill="#414141" stroke="#2b2b2b" stroke-linecap="butt"/><path d="M90.73041,158.15427l7.19959,18.21074l0.63527,17.36373l-18.21074,-34.30394c0,0 2.44354,-1.0383 3.72656,-1.4288c1.79116,-0.54513 6.64932,0.15827 6.64932,0.15827z" fill="#087d00" stroke="#087d00" stroke-linecap="round"/><path d="M139.64529,161.11881l-18.09435,30.92716l-0.53989,-16.31623l12.28166,-18.846z" fill="#087d00" stroke="#087d00" stroke-linecap="round"/></g><path d="M134.10222,247.22922l-0.51066,13.01381c-1.6844,1.5102 -5.70522,2.71946 -7.43867,3.32458c-1.96218,1.128 -5.44624,2.07415 -7.87455,2.14816l-0.00396,-1.02845l-8.06173,-0.64731l-0.03016,1.08007c-0.16074,0 -0.32149,0 -0.48223,0c-3.10404,0.00001 -6.62867,-2.05635 -9.38569,-3.4196c-2.16658,-1.02082 -4.70082,-3.14537 -6.94474,-3.94411l-0.02313,-11.82175z" data-paper-data="{&quot;index&quot;:null}" fill="#00235d" stroke="#00235d" stroke-width="2" stroke-linecap="butt"/><path d="M97.73831,293.05151c-0.27649,-0.23976 -4.17175,-0.15779 -4.33557,-0.42122c-2.40201,-1.0422 -4.85976,-2.11355 -7.33202,-3.18301c-2.02988,-0.87809 -4.12364,-1.59437 -6.14652,-2.40407c0,0 4.66658,-15.27825 7.8329,-22.63737c3.40485,-7.91352 11.93265,-23.30146 11.93265,-23.30146c1.66779,1.61511 3.10941,4.48163 4.63902,6.21773c2.04088,2.40699 4.51303,5.73225 7.43636,6.99682c0.11696,0.0506 0.28756,0.12439 0.42978,0.18591c0,0 0.48815,13.01837 -2.67295,19.79991c-2.84707,6.10786 -11.78365,18.74677 -11.78365,18.74677z" data-paper-data="{&quot;index&quot;:null}" fill="#00235d" stroke="#00235d" stroke-width="2" stroke-linecap="butt"/><path d="M77.55135,195.0592c-2.45733,-0.52176 -4.48072,-0.80488 -6.82474,-2.03856c-2.66231,-0.58818 -5.10842,-1.2928 -7.68256,-2.15238c-0.80156,-0.26763 -1.68654,-0.53918 -2.59653,-0.77029v-29.56517l9.74364,-2.22139c0.06685,0.53715 0.14263,1.07572 0.15907,1.63668c0.06702,1.01726 0.60579,1.95104 0.75153,2.94962c0.24813,1.70014 0.13854,3.27009 0.95961,4.83583c1.24546,2.20414 3.67002,4.14033 4.57199,6.49351c0.48287,1.19766 1.60263,1.62696 2.39971,2.38327c0.62312,0.59127 1.19722,1.34446 1.80417,2.02565z" fill="#00235d" stroke="#00235d" stroke-width="2" stroke-linecap="butt"/><g><path d="M101.47668,238.55693l-8.83768,0.0915" fill="none" stroke="#000000" stroke-width="2" stroke-linecap="round"/><path d="M92.02242,246.05996v-7.68603h42.03037v7.68603z" fill="#3e3e3e" stroke="#000000" stroke-width="2" stroke-linecap="butt"/><path d="M119.04928,242.30845c0,0 -2.87557,5.76452 -6.42273,5.76452c-3.54718,0 -6.42273,-5.76452 -6.42273,-5.76452c0,0 2.87555,-5.76452 6.42273,-5.76452c3.54718,0 6.42273,5.76452 6.42273,5.76452z" fill="#740000" stroke="#570000" stroke-width="2" stroke-linecap="butt"/><text transform="translate(108.2591,247.52397) scale(0.30829,0.2745)" font-size="40" xml:space="preserve" fill="#000000" fill-rule="nonzero" stroke="none" stroke-width="1" stroke-linecap="butt" stroke-linejoin="miter" stroke-miterlimit="10" stroke-dasharray="" stroke-dashoffset="0" font-family="Handwriting" font-weight="normal" text-anchor="start" style="mix-blend-mode: normal"><tspan x="0" dy="0">V</tspan></text></g><path d="M95.60911,158.20496l2.76405,-13.55702" fill="none" stroke="#1b1b1b" stroke-width="2" stroke-linecap="round"/><g><g stroke-width="2" stroke-linecap="round"><g stroke="#561400"><path d="M129.11831,100.09656c0,0 1.51454,10.02406 1.47342,15.36943c-0.04652,6.04813 -1.73836,19.07218 -1.73836,19.07218c0,0 -5.78909,7.98185 -9.29546,11.39715c-3.27828,3.19313 -8.19029,8.20807 -8.19029,8.20807h-5.29872c0,0 -8.47909,-6.99193 -11.22017,-10.21392c-2.14509,-2.52144 -5.20583,-7.8017 -5.20583,-7.8017c0,0 -1.96329,-12.86166 -2.14379,-18.81771c-0.1724,-5.68883 1.08406,-16.15378 1.08406,-16.15378c0,0 5.61704,-0.14685 9.789,-0.25591c7.39377,-0.1933 30.74614,-0.80382 30.74614,-0.80382z" fill="#691900"/><path d="M91.89486,158.09852l2.27087,-13.92804" fill="none"/></g><path d="M130.34836,124.18677l-0.30277,-9.23489l-5.75288,-5.29872l-0.30278,-2.42226h-28.15886l-0.86447,3.24197l-6.25094,5.38736l-1.81671,9.68907l-7.11542,0.45418l1.36253,-6.05567l-8.32654,-2.42226l-2.27088,-9.53768l0.45418,-1.05974l4.54175,-0.15139l1.36252,-12.41412l-0.45418,-0.90835l4.39036,1.36252l2.57366,-15.74474l11.95994,2.72505l11.50577,-6.66122l5.6015,3.6334l-2.42226,3.02783l7.72097,-5.4501l0.75696,-0.60557l3.48201,8.17516l8.62933,-1.96809l3.482,10.9002l7.41819,4.54175l2.87645,-2.72506l0.60556,-0.90835l0.15139,11.95995l-7.26679,3.48201l-2.87645,6.05567l5.90428,5.29872z" fill="#000000" stroke="#000000"/></g><g fill="#ffffff" stroke="#561400" stroke-width="2" stroke-linecap="round"><path d="M112.56612,120.46696c0,0 1.34375,-2.85104 3.03166,-3.2482c1.68791,-0.39716 11.69353,-0.21655 11.69353,-0.21655c0,0 0.75578,0.8499 1.00778,1.40117c0.31238,0.68334 0.7246,2.38841 0.7246,2.38841l-0.10827,4.8723c0,0 -4.77592,0.79752 -7.49711,0.708c-2.764,-0.09091 -8.96046,-1.24938 -8.96046,-1.24938" data-paper-data="{&quot;index&quot;:null}"/><path d="M106.37907,125.16913c0,0 -6.19646,1.15846 -8.96046,1.24938c-2.7212,0.08952 -7.49711,-0.708 -7.49711,-0.708l-0.10827,-4.8723c0,0 0.41221,-1.70507 0.7246,-2.38841c0.25201,-0.55127 1.00778,-1.40117 1.00778,-1.40117c0,0 10.00562,-0.18062 11.69353,0.21655c1.6879,0.39716 3.03166,3.2482 3.03166,3.2482"/></g><g fill="#000000" stroke="#561400" stroke-width="0" stroke-linecap="butt"><path d="M97.51608,122.94178c-0.69195,0 -1.25288,-0.54017 -1.25288,-1.20647c0,-0.66631 0.56094,-1.20647 1.25288,-1.20647c0.69195,0 1.25288,0.54016 1.25288,1.20647c0,0.66631 -0.56094,1.20647 -1.25288,1.20647z"/><path d="M120.53193,122.47776c-0.69195,0 -1.25288,-0.54017 -1.25288,-1.20647c0,-0.66631 0.56092,-1.20647 1.25288,-1.20647c0.69195,0 1.25288,0.54017 1.25288,1.20647c0,0.66631 -0.56094,1.20647 -1.25288,1.20647z"/></g><path d="M108.69935,132.21053l-1.21114,-1.36252l1.66531,-5.90428" fill="none" stroke="#561400" stroke-width="2" stroke-linecap="round"/><path d="M123.98989,141.74821l-0.15139,16.65309" fill="none" stroke="#561400" stroke-width="2" stroke-linecap="round"/><path d="M123.63667,147.40016l2.87645,18.01562" fill="none" stroke="#1b1b1b" stroke-width="2" stroke-linecap="round"/><g fill="#d8c586" stroke="#b8a872" stroke-width="2" stroke-linecap="butt"><path d="M82.36494,155.79109c0,0 -4.14318,-9.98571 0,-10.8394c4.14318,-0.85368 32.27768,2.90733 52.60719,0c13.46567,-1.92573 0,10.8394 0,10.8394z"/><path d="M138.50095,157.58561c-7.52571,2.73364 23.17524,6.32863 0,10.28538c-23.17524,3.95673 -58.91625,1.00906 -63.13344,0.28905c-4.21718,-0.72001 2.8905,-10.57443 2.8905,-10.57443c0,0 69.05265,-3.20003 60.24293,0z"/><path d="M136.85089,145.16232l2.67392,9.93172l-59.47225,12.48202l-1.3732,-6.75216z"/><path d="M132.65972,143.50642c0,2.47441 -14.68471,4.76934 -24.06344,4.76934c-9.37875,0 -23.48535,-0.84969 -23.48535,-3.32408c0,-1.61457 6.72877,-2.07668 13.50852,-3.20731c3.61051,-0.60211 6.7178,-4.30801 9.97683,-4.30801c4.60765,0 10.49596,3.73846 15.29447,4.45348c4.96872,0.74038 8.76897,0.35784 8.76897,1.61658z"/></g><path d="M130.14652,148.91407l-13.17108,4.84454" fill="none" stroke="#b8a872" stroke-width="2" stroke-linecap="round"/><path d="M104.4099,150.42798l-7.11542,0.15139l-12.8683,-3.33062" fill="none" stroke="#b8a872" stroke-width="2" stroke-linecap="round"/></g><g stroke-linecap="butt"><path d="M57.75257,193.95907l-24.39117,-19.40842l7.88747,-10.63507l39.95144,29.62988c-0.70047,0.56418 -1.41457,1.08591 -2.07204,1.54577c-2.21998,1.55283 -4.25717,3.0767 -6.29625,4.8824c-2.41229,1.13165 -3.85809,2.6281 -5.74941,4.30267z" fill="#00235d" stroke="#00235d" stroke-width="2"/><g><path d="M16.64132,161.46759c-1.75204,-3.36409 -5.18434,-7.154 -2.79045,-10.38181c3.35203,-4.51972 9.76759,-5.4409 14.32953,-2.05756c2.03047,1.50589 1.63958,4.00081 2.18492,6.2716c0.67989,2.83111 -1.34634,3.14775 -3.20643,5.6558c-1.96763,2.65306 -2.70148,4.81569 -5.78576,4.84609c-2.17003,0.02139 -3.1568,-1.63855 -5.0409,-3.03588c-1.30398,-0.9671 1.01035,0.04819 0.3091,-1.29826z" fill="#ffffff" stroke="#d6d6d6" stroke-width="0.5"/><path d="M32.86784,151.25988c0,0 3.99402,2.0548 6.16839,4.53757c0.91974,1.0502 -0.04556,2.96719 0.75016,3.55734c0.82432,0.61136 1.84732,-0.33361 3.09078,0.19962c2.79457,1.19834 6.05206,3.61737 6.05206,3.61737l-11.17448,15.06711l-16.06139,-11.91188z" fill="#3e3e3e" stroke="#424242" stroke-width="2"/><path d="M30.41738,154.24424l16.06139,11.91188l-11.17448,15.06711c0,0 -3.26048,-2.415 -5.21844,-4.74138c-0.87121,-1.03515 -0.26391,-2.28839 -1.08823,-2.89974c-0.79573,-0.59015 -2.34995,0.89008 -3.62192,0.31481c-3.00706,-1.36001 -6.13279,-4.58557 -6.13279,-4.58557z" data-paper-data="{&quot;index&quot;:null}" fill="#202020" stroke="#202020" stroke-width="2"/></g></g><g stroke-linecap="butt"><path d="M161.60678,240.76923l-13.24074,-0.36225l-1.05925,-29.16042l-2.521,-12.60021c1.69909,-0.32577 3.39513,-0.50774 5.14497,-0.66144c2.65913,-0.23356 5.30639,-0.29257 7.97466,-0.35267c1.23336,-0.02777 2.46752,-0.04667 3.70136,-0.07452z" fill="#00235d" stroke="#00235d" stroke-width="2"/><g><path d="M148.85091,262.82846c0,-2.3457 -0.74546,-4.12709 0.5644,-5.85735c1.86171,-2.45921 4.03591,-1.76037 7.33899,-1.76037c3.12253,0 4.58388,-1.43887 6.45285,0.79371c1.49908,1.79072 3.73586,2.96297 3.73586,5.49092c0,5.67966 -4.56164,10.28393 -10.18871,10.28393c-4.01863,0 -5.01811,-5.0145 -6.67649,-8.42573c-0.66376,-1.36533 -1.2269,1.09837 -1.2269,-0.5251z" data-paper-data="{&quot;index&quot;:null}" fill="#ffffff" stroke="#d6d6d6" stroke-width="0.5"/><path d="M144.40231,255.25834c0,0 -0.7288,-4.43208 -0.02988,-7.65752c0.29564,-1.36434 2.41042,-1.73095 2.41042,-2.72163c0,-1.02628 -1.3684,-1.28505 -1.68084,-2.60145c-0.70219,-2.95848 -0.6997,-7.01593 -0.6997,-7.01593h18.75865v19.99653z" fill="#3e3e3e" stroke="#424242" stroke-width="2"/><path d="M148.2591,255.44878v-19.99653h18.75865c0,0 0.00251,4.05745 -0.6997,7.01593c-0.31245,1.3164 -1.68084,1.57516 -1.68084,2.60145c0,0.99069 2.11478,1.35729 2.41042,2.72163c0.69893,3.22545 -0.02988,7.65752 -0.02988,7.65752z" data-paper-data="{&quot;index&quot;:null}" fill="#202020" stroke="#202020" stroke-width="2"/></g></g><path d="M-33.33678,50.91249z" fill="url(#color-50)" stroke="none" stroke-width="0" stroke-linecap="butt"/><g><path d="M94.60604,345.52167l-13.68504,-0.24348c0,0 -4.71611,-24.59836 -4.73734,-35.44616c-0.01741,-8.89628 4.61914,-24.95485 4.61914,-24.95485c2.1785,-0.06001 4.38341,-0.23384 6.59504,-0.23384c2.65207,0 5.3087,0.12176 7.88207,-0.00616c0.27693,0.19679 0.62157,0.34896 1.01328,0.46594c0,0 1.21258,15.59464 0.95717,24.7413c-0.29982,10.73686 -2.64432,35.67725 -2.64432,35.67725z" data-paper-data="{&quot;index&quot;:null}" fill="#00235d" stroke="#00235d" stroke-width="2" stroke-linecap="butt"/><path d="M94.99827,345.83333c0,0 -1.8431,4.10049 -1.55262,6.34016c0.24384,1.88006 1.96436,3.47564 1.95061,4.82377c-0.024,2.35179 -1.23132,6.83607 -1.23132,6.83607h-17.83333l-1.33333,-7l5,-3.83333l-0.5,-7.66667z" fill="url(#color-51)" stroke="url(#color-52)" stroke-width="2.5" stroke-linecap="round"/></g><path d="M117.36508,274.30474c-3.1611,-6.78154 -2.67295,-19.7999 -2.67295,-19.7999c0.14222,-0.06152 0.31282,-0.13532 0.42978,-0.18592c2.92332,-1.26457 5.39547,-4.58982 7.43635,-6.99681c1.52961,-1.7361 2.97123,-4.60262 4.63902,-6.21773c0,0 8.52779,15.38795 11.93265,23.30147c3.16632,7.35913 7.8329,22.63737 7.8329,22.63737c-2.02288,0.80969 -4.11663,1.52598 -6.14651,2.40407c-2.47226,1.06946 -4.93001,2.14081 -7.33202,3.18301c-0.16382,0.26343 -4.05908,0.18146 -4.33558,0.42122c0,0 -8.93657,-12.63891 -11.78364,-18.74677z" data-paper-data="{&quot;index&quot;:null}" fill="#00235d" stroke="#00235d" stroke-width="2" stroke-linecap="butt"/><g data-paper-data="{&quot;index&quot;:null}"><path d="M129.63669,309.84443c-0.25542,-9.14666 0.95716,-24.7413 0.95716,-24.7413c0.39171,-0.11698 0.73635,-0.26915 1.01328,-0.46594c2.57337,0.12792 5.23,0.00616 7.88207,0.00616c2.21163,0 4.41654,0.17383 6.59504,0.23384c0,0 4.63655,16.05857 4.61914,24.95485c-0.02123,10.8478 -4.73734,35.44616 -4.73734,35.44616l-13.68504,0.24348c0,0 -2.34449,-24.94039 -2.64432,-35.67725z" data-paper-data="{&quot;index&quot;:null}" fill="#00235d" stroke="#00235d" stroke-width="2" stroke-linecap="butt"/><path d="M147.38876,345.33333l-0.5,7.66667l5,3.83333l-1.33333,7h-17.83334c0,0 -1.20732,-4.48429 -1.23132,-6.83607c-0.01376,-1.34813 1.70677,-2.94371 1.9506,-4.82377c0.29048,-2.23967 -1.55262,-6.34016 -1.55262,-6.34016z" fill="url(#color-53)" stroke="url(#color-54)" stroke-width="2.5" stroke-linecap="round"/></g><path d="M396.3029,156.875l-2.25,21.5l-7.75,8l-8.75,-7.25l-4.25,-20.5" data-paper-data="{&quot;index&quot;:null}" fill="none" stroke="#6e6e6e" stroke-width="0.5" stroke-linecap="round"/><path d="M376.3029,172.375l-3.75,-1.75l-1.75,-7l3.5,2l2,0.75l1.5,-5.5l12,-0.25l4.25,5.25l5,-3l-0.75,7l-3,3.25" data-paper-data="{&quot;index&quot;:null}" fill="none" stroke="#6e6e6e" stroke-width="0.5" stroke-linecap="round"/><path d="M390.5529,170.625l2,1" data-paper-data="{&quot;index&quot;:null}" fill="none" stroke="#6e6e6e" stroke-width="0.5" stroke-linecap="round"/><path d="M392.5529,173.125l-5.5,-1.5l6,-2" data-paper-data="{&quot;index&quot;:null}" fill="none" stroke="#6e6e6e" stroke-width="0.5" stroke-linecap="round"/><path d="M379.3029,169.625l5,1.75l-2,0.5l-3,0.75" data-paper-data="{&quot;index&quot;:null}" fill="none" stroke="#6e6e6e" stroke-width="0.5" stroke-linecap="round"/><path d="M381.8029,170.875l-2.5,0.25" data-paper-data="{&quot;index&quot;:null}" fill="none" stroke="#6e6e6e" stroke-width="0.5" stroke-linecap="round"/><path d="M387.3029,174.125l-1,-2.25" data-paper-data="{&quot;index&quot;:null}" fill="none" stroke="#6e6e6e" stroke-width="0.5" stroke-linecap="round"/><path d="M384.21565,141.78961l24.89258,0.36225l3.575,2.08289l2.59598,0.59184c-0.06889,0.55971 -0.15101,1.12053 -0.16807,1.70415c-0.05598,1.00149 -0.60419,1.92697 -0.74793,2.91184c-0.2411,1.65189 -0.12069,3.18932 -0.91736,4.70893c-1.25989,2.24495 -3.63709,4.15276 -4.59189,6.53622c-0.43716,1.15064 -1.52936,1.5428 -2.3034,2.24249c-0.56996,0.51521 -1.09789,1.19736 -1.64084,1.83137l-0.70056,-3.5015c0,0 -2.54416,12.0674 -3.93971,15.66077c-1.58219,4.07396 -5.06398,7.52267 -5.06398,7.52267c0,0 -2.4567,11.77009 -2.53973,18.35753c-0.09249,7.33806 2.01009,23.66246 2.01009,23.66246l-41.84074,-0.36225c0,0 1.8069,-15.92104 1.99505,-23.32058c0.16052,-6.31314 -0.9358,-18.33716 -0.9358,-18.33716c0,0 -2.45154,-3.31993 -3.77962,-6.61267c-1.48011,-3.66966 -4.69446,-14.39733 -4.69446,-14.39733l-0.5511,2.75448c-0.97564,-1.25473 -2.14303,-2.31731 -3.05137,-3.75229c-0.44132,-0.23871 -0.8165,-0.6476 -1.1509,-1.15489c0.03178,0.06888 0.06323,0.1375 0.09435,0.20585c0.28402,0.62376 0.06742,0.86248 0.7964,1.22724c0.90608,1.55614 2.1984,2.61855 3.2113,3.97504l-3.63815,18.18386c-1.71277,-0.32847 -3.42272,-0.51252 -5.18635,-0.66743c-2.66737,-0.23428 -5.3229,-0.29374 -7.99941,-0.35403c-1.23622,-0.02785 -2.47324,-0.04672 -3.70994,-0.07467v-34.47056l11.78738,-2.68734c-0.05049,0.71129 -0.12165,1.37974 -0.12165,1.80705c0.00002,1.49419 -0.37258,3.58429 0.11007,5.00483c0.32995,0.97107 1.31763,1.68175 1.58308,2.54971c0.71045,0.9192 1.36504,1.9764 1.95149,3.05529c-0.5132,-1.21105 -0.99496,-2.45042 -1.61581,-3.23528c-0.31135,-0.8759 -1.21839,-1.52667 -1.55873,-2.49407c-0.47652,-1.35451 -0.08918,-3.44898 -0.0892,-4.88048c0,-0.49227 0.06914,-1.17575 0.11459,-1.89227l0.54989,-0.12536l1.7213,-0.81504l0.79445,-3.26017l23.3037,-0.36225l12.71111,4.52802zM339.54544,159.03567c0.34283,0.809 0.69969,1.60535 1.12144,2.24516c-0.33805,-0.73274 -0.71324,-1.4942 -1.12144,-2.24516z" data-paper-data="{&quot;index&quot;:null}" fill="#00235d" stroke="#00235d" stroke-width="2" stroke-linecap="butt"/><path d="M392.49515,232.53452l-0.02313,11.82175c-2.24392,0.79874 -4.77816,2.92329 -6.94474,3.94411c-2.75702,1.36325 -6.28165,3.41961 -9.38569,3.4196c-0.16074,0 -0.32149,0 -0.48223,0l-0.03016,-1.08007l-8.06173,0.64731l-0.00396,1.02845c-2.42831,-0.07401 -5.91237,-1.02016 -7.87455,-2.14816c-1.73345,-0.60512 -5.75427,-1.81438 -7.43867,-3.32458l-0.51066,-13.01381z" data-paper-data="{&quot;index&quot;:null}" fill="#00235d" stroke="#00235d" stroke-width="2" stroke-linecap="butt"/><path d="M405.00461,165.23587c0.60695,-0.68119 1.18105,-1.43438 1.80417,-2.02565c0.79708,-0.75631 1.91684,-1.18561 2.39971,-2.38327c0.90197,-2.35318 3.32653,-4.28937 4.57199,-6.49351c0.82107,-1.56574 0.71148,-3.13569 0.95961,-4.83583c0.14574,-0.99858 0.68451,-1.93236 0.75153,-2.94962c0.01644,-0.56096 0.09222,-1.09953 0.15907,-1.63668l9.74364,2.22139v29.56517c-0.90999,0.23111 -1.79497,0.50266 -2.59653,0.77029c-2.57414,0.85958 -5.02025,1.5642 -7.68256,2.15238c-2.34402,1.23368 -4.36741,1.5168 -6.82474,2.03856z" data-paper-data="{&quot;index&quot;:null}" fill="#00235d" stroke="#00235d" stroke-width="2" stroke-linecap="butt"/><path d="M320.70528,189.38007c0.29804,-1.19764 0.58742,-2.39753 0.88527,-3.59471c0.6444,-2.58999 1.28313,-5.15971 2.09476,-7.7027c0.5341,-1.67342 1.08396,-3.28814 1.77479,-4.87426l11.7394,5.22564l28.21652,7.43505l-2.55334,12.99727z" data-paper-data="{&quot;index&quot;:null}" fill="#00235d" stroke="#00235d" stroke-width="1.5" stroke-linecap="butt"/><path d="M408.70982,176.75918c2.51721,-0.21205 4.59797,-0.22476 7.08211,-1.18852c2.71409,-0.22839 5.22298,-0.65 7.87903,-1.18385c0.7866,-0.15813 1.65706,-0.3145 2.5488,-0.4317l-6.14876,49.35828l-13.13917,-1.6368l2.79992,-31.04475z" data-paper-data="{&quot;index&quot;:null}" fill="#00235d" stroke="#00235d" stroke-width="2" stroke-linecap="butt"/><g data-paper-data="{&quot;index&quot;:null}"><path d="M384.36516,225.15683l8.83768,0.0915" fill="none" stroke="#000000" stroke-width="2" stroke-linecap="round"/><path d="M351.78906,232.65986v-7.68603h42.03037v7.68603z" fill="#3e3e3e" stroke="#000000" stroke-width="2" stroke-linecap="butt"/><path d="M373.2153,223.14383c3.54718,0 6.42273,5.76452 6.42273,5.76452c0,0 -2.87555,5.76452 -6.42273,5.76452c-3.54716,0 -6.42273,-5.76452 -6.42273,-5.76452c0,0 2.87555,-5.76452 6.42273,-5.76452z" fill="#740000" stroke="#570000" stroke-width="2" stroke-linecap="butt"/><text transform="translate(377.58275,234.12387) rotate(-180) scale(0.30829,-0.2745)" font-size="40" xml:space="preserve" fill="#000000" fill-rule="nonzero" stroke="none" stroke-width="1" stroke-linecap="butt" stroke-linejoin="miter" stroke-miterlimit="10" stroke-dasharray="" stroke-dashoffset="0" font-family="Handwriting" font-weight="normal" text-anchor="start" style="mix-blend-mode: normal"><tspan x="0" dy="0">V</tspan></text></g><g data-paper-data="{&quot;index&quot;:null}" stroke-linecap="butt"><path d="M410.43605,251.99128c-3.98781,-0.49678 -4.35973,-5.59637 -5.5837,-9.18644c-0.48988,-1.43692 -1.35326,0.93827 -1.15258,-0.67275c0.28997,-2.3277 -0.22956,-4.18759 1.28415,-5.74265c2.15144,-2.21021 4.22257,-1.24797 7.50032,-0.83964c3.09858,0.386 4.7266,-0.86116 6.30524,1.58532c1.26621,1.96229 3.34093,3.40205 3.02842,5.91062c-0.70211,5.63609 -5.79793,9.64115 -11.38184,8.94554z" fill="#d59768" stroke="#b7825a" stroke-width="0.5"/><path d="M404.82503,235.79513l2.47195,-19.84314l18.61477,2.31892c0,0 -0.4991,4.02664 -1.56163,6.87562c-0.47278,1.26768 -1.86266,1.3553 -1.98953,2.37371c-0.12247,0.98308 1.93077,1.60831 2.05549,2.99873c0.29483,3.2871 -0.97627,7.59509 -0.97627,7.59509z" fill="#3e3e3e" stroke="#424242" stroke-width="2"/><path d="M400.97428,235.50735c0,0 -0.17534,-4.48817 0.91696,-7.60247c0.46204,-1.31733 2.60591,-1.41968 2.72838,-2.40278c0.12687,-1.01842 -1.19904,-1.44436 -1.34635,-2.78928c-0.3311,-3.0226 0.17297,-7.04862 0.17297,-7.04862l18.61477,2.31892l-2.47194,19.84315z" data-paper-data="{&quot;index&quot;:null}" fill="#202020" stroke="#202020" stroke-width="2"/></g><path d="M375.1303,168.68804l3.89004,6.01159l14.11181,3.15329l2.18069,-7.58232c0,0 2.76744,-1.05359 4.00084,-1.383c0.98924,-0.2642 3.70495,-0.69132 3.70495,-0.69132c0,0 -1.44453,5.72547 -2.44085,8.2681c-0.87776,2.24005 -4.72658,7.44526 -4.72658,7.44526l-22.00439,-5.43716l-9.09611,-13.53328z" data-paper-data="{&quot;index&quot;:null}" fill="url(#color-55)" stroke="url(#color-56)" stroke-width="2" stroke-linecap="round"/><path d="M382.40387,160.06541l-6.52338,16.36433l-22.7282,7.07468c0,0 -2.62167,-4.40253 -3.68347,-6.61079c-1.15376,-2.3995 -2.36115,-7.76022 -2.36115,-7.76022c0,0 2.04681,0.01568 3.11933,0.20656c1.1318,0.20144 3.50319,0.97209 3.50319,0.97209l2.89373,7.33984l13.74685,-4.48451l1.97965,-8.58836z" data-paper-data="{&quot;index&quot;:null}" fill="url(#color-57)" stroke="url(#color-58)" stroke-width="2" stroke-linecap="round"/><path d="M389.67611,128.77038l2.27087,13.92804l-9.69129,5.19768l-12.71428,0.14286l-9.53806,-5.03777l-0.15139,-16.65309" data-paper-data="{&quot;index&quot;:null}" fill="#000a64" stroke="#000a64" stroke-width="2" stroke-linecap="round"/><path d="M376.11283,140.32468c-4.99147,0 -15.71429,-5.85715 -15.71429,-5.85715v-7.14285h29.14286v7.14285c0,0 -8.72257,5.85715 -13.42857,5.85715z" data-paper-data="{&quot;index&quot;:null}" fill="#000e87" stroke="#000e87" stroke-width="2" stroke-linecap="butt"/><path d="M353.70171,92.82007c0.14658,-1.43035 3.33149,-4.49875 7.85025,-6.28215c5.14177,-2.02928 11.82632,-2.68956 14.45094,-2.62094c1.72749,0.04517 8.31073,0.04881 13.08928,2.0546c4.20311,1.76425 6.75536,5.41698 6.90546,7.3074c0.23522,2.96244 0.41804,6.22416 0.3451,8.63098c-0.1805,5.95605 -2.14379,18.81771 -2.14379,18.81771c0,0 -3.06074,5.28026 -5.20583,7.8017c-2.74108,3.22199 -11.22017,10.21392 -11.22017,10.21392h-5.29872c0,0 -4.91201,-5.01494 -8.19029,-8.20807c-3.50637,-3.4153 -9.29546,-11.39715 -9.29546,-11.39715c0,0 -1.69184,-13.02405 -1.73836,-19.07218c-0.01549,-2.01338 0.18973,-4.69055 0.45159,-7.24581z" data-paper-data="{&quot;index&quot;:null}" fill="#000a64" stroke="#5a64b8" stroke-width="2" stroke-linecap="round"/><g data-paper-data="{&quot;index&quot;:null}" fill="#ffffff" stroke="#5a64b8" stroke-width="2" stroke-linecap="round"><path d="M371.27573,107.5197c0,0 -1.34375,2.85104 -3.03166,3.2482c-1.68791,0.39716 -11.69353,0.21655 -11.69353,0.21655c0,0 -0.75578,-0.8499 -1.00778,-1.40117c-0.31238,-0.68334 -0.7246,-2.38841 -0.7246,-2.38841l0.10827,-4.8723c0,0 4.15092,0.70248 6.87211,0.792c2.764,0.09091 10.71046,3.12438 10.71046,3.12438" data-paper-data="{&quot;index&quot;:null}"/><path d="M376.58778,106.44253c0,0 8.19646,-3.28346 10.96046,-3.37438c2.7212,-0.08952 6.37211,-0.792 6.37211,-0.792l0.10827,4.8723c0,0 -0.41221,1.70507 -0.7246,2.38841c-0.25201,0.55127 -1.00778,1.40117 -1.00778,1.40117c0,0 -10.00562,0.18062 -11.69353,-0.21655c-1.6879,-0.39716 -3.03166,-3.2482 -3.03166,-3.2482"/></g><g data-paper-data="{&quot;index&quot;:null}" fill="#000000" stroke="#561400" stroke-width="0" stroke-linecap="butt"><path d="M385.07286,106.33521c0,-0.66631 0.56093,-1.20647 1.25288,-1.20647c0.69194,0 1.25288,0.54016 1.25288,1.20647c0,0.6663 -0.56093,1.20647 -1.25288,1.20647c-0.69194,0 -1.25288,-0.54016 -1.25288,-1.20647z"/><path d="M362.05701,105.87119c0,-0.6663 0.56093,-1.20647 1.25288,-1.20647c0.69196,0 1.25288,0.54016 1.25288,1.20647c0,0.6663 -0.56093,1.20647 -1.25288,1.20647c-0.69194,0 -1.25288,-0.54016 -1.25288,-1.20647z"/></g><path d="M374.68834,109.54363l1.66531,5.90428l-1.21114,1.36252" data-paper-data="{&quot;index&quot;:null}" fill="none" stroke="#5a64b8" stroke-width="2" stroke-linecap="round"/><path d="M352.26592,247.24108c0.19592,0.04985 0.40478,0.09587 0.61461,0.20105c2.20296,1.10424 4.24121,2.35434 6.60076,3.18022c2.04247,1.16606 5.56281,2.08521 8.08032,2.18829l-0.1644,42.734c-1.81393,0.15509 -3.6323,0.41501 -5.42735,0.59347c-2.58435,0.25694 -5.16991,0.46547 -7.75911,0.6652z" data-paper-data="{&quot;index&quot;:null}" fill="#00235d" stroke="#00235d" stroke-width="2" stroke-linecap="butt"/><path d="M375.92128,241.66481c0.15495,0.00125 0.34082,0.00275 0.46825,0.00377c3.18501,0.02564 6.79073,-2.01585 9.63067,-3.39191c2.10103,-0.96923 4.57873,-3.00791 6.75721,-3.81061l-0.50041,50.00803c-2.17753,-0.07752 -4.38211,-0.26913 -6.5937,-0.28693c-2.69357,-0.02167 -5.37464,-0.03575 -7.99294,-0.05394c-0.25636,0.17468 -0.56708,0.31213 -0.91691,0.4196z" data-paper-data="{&quot;index&quot;:null}" fill="#00235d" stroke="#00235d" stroke-width="2" stroke-linecap="butt"/><path d="M376.88198,284.3697c0.39171,-0.11698 0.73635,-0.26915 1.01328,-0.46594c2.57337,0.12792 5.23,0.00616 7.88207,0.00616c2.21163,0 4.41654,0.17383 6.59504,0.23384l-0.1182,60.40101l-13.68504,0.24348z" data-paper-data="{&quot;index&quot;:null}" fill="#00235d" stroke="#00235d" stroke-width="2" stroke-linecap="butt"/><path d="M354.22569,296.94662c2.59679,-0.16245 5.18993,-0.33204 7.78185,-0.54104c1.78195,-0.1437 3.58729,-0.35327 5.3882,-0.47896l-0.23081,48.66163l-10.64392,-0.19749z" data-paper-data="{&quot;index&quot;:null}" fill="#00235d" stroke="#00235d" stroke-width="2" stroke-linecap="butt"/><path d="M361.29003,211.09199l4.83702,-5.27966l-0.50538,-14.45098l-7.88716,-0.19917c0,0 -1.71711,-2.41254 -2.34676,-3.52309c-0.50501,-0.8907 -1.60283,-3.41108 -1.60283,-3.41108c0,0 5.90471,-0.04521 8.61638,0.27808c2.38896,0.28482 8.39621,2.69741 8.39621,2.69741l0.28456,22.6644l-10.80369,12.21348z" data-paper-data="{&quot;index&quot;:null}" fill="url(#color-59)" stroke="url(#color-60)" stroke-width="2" stroke-linecap="round"/><path d="M389.8386,222.33138l-10.80369,-12.21348l0.28456,-22.66441c0,0 6.00725,-2.41258 8.39621,-2.6974c2.71167,-0.32329 8.61638,-0.27808 8.61638,-0.27808c0,0 -1.09782,2.52038 -1.60283,3.41108c-0.62965,1.11055 -2.34676,3.52309 -2.34676,3.52309l-7.88716,0.19917l-0.50538,14.45098l4.83702,5.27966z" data-paper-data="{&quot;index&quot;:null}" fill="url(#color-61)" stroke="url(#color-62)" stroke-width="2" stroke-linecap="round"/><path d="M421.66781,244.57563c0,0 -5.02339,1.26827 -7.63898,1.37483c-2.6771,0.10907 -8.24338,-0.72778 -8.24338,-0.72778l-0.23529,-5.35294l-1.76471,-0.88235l0.47059,-2l16.05882,1.88235l2,2.64706z" data-paper-data="{&quot;index&quot;:null}" fill="#000000" stroke="#000000" stroke-width="0.5" stroke-linecap="round"/><path d="M390.12159,345.35714l3.28571,2.74812c0,0 0.26764,4.26955 -0.61144,5.7368c-1.00799,1.68242 -5.10285,3.8008 -5.10285,3.8008c0,0 -6.05406,-1.63261 -7.5981,-2.98529c-1.3927,-1.22009 -1.25904,-4.77411 -1.25904,-4.77411l1,-4.20301" data-paper-data="{&quot;index&quot;:null}" fill="#000000" stroke="#000000" stroke-width="0.5" stroke-linecap="round"/><path d="M367.44218,345.25188l1,4.20301c0,0 0.13366,3.55401 -1.25904,4.7741c-1.54405,1.35267 -7.5981,2.98529 -7.5981,2.98529c0,0 -4.09486,-2.11838 -5.10285,-3.80079c-0.87908,-1.46725 -0.61144,-5.7368 -0.61144,-5.7368l3.28571,-2.74812" data-paper-data="{&quot;index&quot;:null}" fill="#000000" stroke="#000000" stroke-width="0.5" stroke-linecap="round"/><g><path d="M429.17466,155.11007l-14.70736,27.4119l-13.37349,-8.97224l-29.10607,66.05175l3.34407,-27.68855l13.02393,-65.20547l18.41013,13.44798l7.93018,-14.816l11.23685,-69.03285z" data-paper-data="{&quot;index&quot;:null}" fill="#ffea00" stroke="#ffe42b" stroke-width="2.5" stroke-linecap="round"/><g data-paper-data="{&quot;index&quot;:null}" stroke="none" stroke-width="0" stroke-linecap="butt"><path d="M378.38621,189.65531c1.56781,0.42145 -0.95761,0.3257 0.18859,1.32114c2.86376,2.48708 7.44688,4.75406 6.40365,8.63492c-1.46079,5.43416 -7.0914,8.64414 -12.57634,7.1697c-2.44129,-0.65626 -2.99268,-3.12066 -4.33284,-5.03322c-1.67085,-2.38448 0.09806,-3.4222 0.90866,-6.43766c0.85747,-3.18984 0.74701,-5.47092 3.60521,-6.63039c2.01097,-0.81578 3.53778,0.36657 5.80306,0.97552z" data-paper-data="{&quot;index&quot;:null}" fill="#d59768"/><path d="M367.36072,201.50954l-19.31098,-5.1911l4.86975,-18.11552c0,0 3.91899,1.05091 6.59376,2.49704c1.19017,0.64347 1.08483,2.03213 2.07592,2.29856c0.95672,0.25719 1.85975,-1.68993 3.25407,-1.62124c3.2963,0.16237 7.38724,2.01675 7.38724,2.01675z" fill="#3e3e3e"/><path d="M366.54341,205.28355c0,0 -4.46932,-0.44675 -7.40275,-1.95904c-1.24082,-0.63967 -1.04586,-2.77712 -2.00258,-3.03432c-0.99111,-0.26642 -1.59622,0.98789 -2.94861,0.94788c-3.03934,-0.08988 -6.95704,-1.14562 -6.95704,-1.14562l4.86975,-18.11554l19.31098,5.1911z" data-paper-data="{&quot;index&quot;:null}" fill="#202020"/></g><path d="M369.09813,206.18655l-1.75988,-2.81242l3.96765,-15.6744l2.03633,0.27351l0.1951,1.96333l4.91716,2.12859c0,0 -1.203,5.49877 -2.25949,7.961c-1.03223,2.40566 -4.00838,6.64658 -4.00838,6.64658z" data-paper-data="{&quot;index&quot;:null}" fill="#000000" stroke="#000000" stroke-width="0.5" stroke-linecap="round"/></g><text transform="translate(96.5,-39.4686) scale(1.39654,1.39654)" font-size="40" xml:space="preserve" fill="url(#color-63)" fill-rule="nonzero" stroke="none" stroke-width="1" stroke-linecap="butt" stroke-linejoin="miter" stroke-miterlimit="10" stroke-dasharray="" stroke-dashoffset="0" font-family="Marker" font-weight="normal" text-anchor="start" style="mix-blend-mode: normal"><tspan x="0" dy="0">HERO 69</tspan></text><path d="M82.50578,-28.03225l232.98843,3.06449" fill="none" stroke="url(#color-64)" stroke-width="6.5" stroke-linecap="round"/></g></g></svg>