<svg version="1.1" xmlns="http://www.w3.org/2000/svg" xmlns:xlink="http://www.w3.org/1999/xlink" width="578.58772" height="381.63619" viewBox="0,0,578.58772,381.63619"><defs><linearGradient x1="279.63593" y1="-17.36274" x2="279.63593" y2="364.27345" gradientUnits="userSpaceOnUse" id="color-1"><stop offset="0" stop-color="#66f9ff"/><stop offset="1" stop-color="#66a8ff"/></linearGradient></defs><g transform="translate(9.65793,17.36274)"><g data-paper-data="{&quot;isPaintingLayer&quot;:true}" fill-rule="nonzero" stroke-linejoin="miter" stroke-miterlimit="10" stroke-dasharray="" stroke-dashoffset="0" style="mix-blend-mode: normal"><path d="M-9.65793,364.27345v-381.63619h578.58772v381.63619z" fill="url(#color-1)" stroke="none" stroke-width="1" stroke-linecap="butt"/><path d="M236.29748,166.66759l0.2824,6.77771l7.62492,-2.25924l55.91608,-31.3469l-0.2824,-8.7518l3.95366,8.75454l2.82404,2.25924l-0.84721,4.23332l-60.15215,37.55979l-1.97683,38.41528l18.07389,33.88854l-34.17094,30.49968l-7.90733,-11.29618l22.87476,-22.59236l-11.57858,-16.09705h6.77771l-15.81465,0.56481l3.67126,0.2824l-19.76831,50.26799l-15.53225,-3.38885l26.82842,-59.86975l-3.67126,-38.41528l-19.2035,26.82842l-3.38885,12.7082l-1.97683,-2.82404l-3.10645,-0.2824l-5.93049,-9.88416l6.2129,-7.34252l22.87476,-29.65247l12.99061,-0.56481l-0.2824,-7.34252" fill="#000000" stroke="#000000" stroke-width="2" stroke-linecap="round"/><path d="M237.35271,166.86814c-2.84845,1.91702 -6.16813,3.35003 -9.7124,3.35003c-3.48271,0 -6.74858,-1.72865 -9.56358,-3.58439c-5.74502,-3.78731 -9.61213,-10.21507 -9.61213,-18.34261c0,-7.04611 2.90648,-13.8162 7.4233,-17.82772c3.24611,-2.88297 7.32395,-4.09928 11.75241,-4.09928c4.58461,0 8.79344,0.83927 12.09268,3.90834c4.32199,4.02049 7.08303,11.15111 7.08303,18.01866c0,8.05716 -3.80043,14.76584 -9.46331,18.57698z" fill="#828282" stroke="#6b7d7d" stroke-width="2" stroke-linecap="butt"/><path d="M211.29926,146.07157c0,0 4.56808,-14.37083 11.3306,-13.78045c6.76252,0.59038 7.96204,15.46473 7.96204,15.46473c0,0 1.74714,-6.11066 2.50373,-8.60461c0.56417,-1.85968 0.96133,-2.369 1.63041,-4.10403c1.76313,-4.5721 2.0071,0.98609 3.40247,2.41679c2.23047,2.28694 8.69372,9.06693 8.69372,9.06693c0,0 0.3787,4.69093 -0.62986,7.07703c-1.07923,2.55332 -2.64024,7.15285 -5.6479,7.77523c-3.00766,0.62239 -7.28707,-9.16121 -8.92556,-11.2962c-1.72556,-2.24846 -1.18011,-1.87179 -1.18011,-1.87179c0,0 -3.08336,10.60309 -10.25878,9.79944c-7.17543,-0.80365 -8.88074,-11.94306 -8.88074,-11.94306z" data-paper-data="{&quot;index&quot;:null}" fill="#6b7d7d" stroke="#828282" stroke-width="2" stroke-linecap="round"/><path d="M221.0987,151.43065c-3.38255,0 -6.12465,-3.01631 -6.12465,-6.73711c0,-3.72081 2.7421,-6.73711 6.12465,-6.73711c3.38255,0 6.12465,3.01631 6.12465,6.73711c0,3.72081 -2.7421,6.73711 -6.12465,6.73711z" data-paper-data="{&quot;index&quot;:null}" fill="#d8ffff" stroke="#828282" stroke-width="2" stroke-linecap="butt"/><path d="M238.96815,154.90716c-3.38254,0 -6.12465,-3.01631 -6.12465,-6.73711c0,-3.72081 2.7421,-6.73711 6.12465,-6.73711c3.38254,0 6.12464,3.01631 6.12464,6.73711c0,3.72081 -2.74209,6.73711 -6.12464,6.73711z" data-paper-data="{&quot;index&quot;:null}" fill="#d8ffff" stroke="#828282" stroke-width="2" stroke-linecap="butt"/><path d="M218.30256,145.53986l3.83514,-2.83467" fill="none" stroke="#7affff" stroke-width="2" stroke-linecap="round"/><path d="M222.97143,145.20637l-2.66792,2.16769" fill="none" stroke="#7affff" stroke-width="2" stroke-linecap="round"/><path d="M235.97757,149.04151l3.3349,-3.33491" fill="none" stroke="#7affff" stroke-width="2" stroke-linecap="round"/><path d="M237.81176,149.54175l2.50118,-2.50118" fill="none" stroke="#7affff" stroke-width="2" stroke-linecap="round"/><path d="M218.49963,166.38306c0,0 -3.4398,-13.80724 -3.91618,-20.17882c-0.39922,-5.33963 1.24826,-15.50467 1.24826,-15.50467" fill="none" stroke="#6b7d7d" stroke-width="2" stroke-linecap="round"/><path d="M227.67062,169.88471c0,0 1.62959,-17.46837 2.32163,-24.79243c0.63743,-6.74616 1.68026,-17.56088 1.68026,-17.56088" fill="none" stroke="#6b7d7d" stroke-width="2" stroke-linecap="round"/><path d="M241.34374,131.70004l1.50071,11.00519" fill="none" stroke="#6b7d7d" stroke-width="2" stroke-linecap="round"/><path d="M236.67487,166.71655l1.50071,-7.67028" fill="none" stroke="#6b7d7d" stroke-width="2" stroke-linecap="round"/><path d="M234.00746,126.69984c0,0 -0.66798,13.49261 -0.89498,20.27734c-0.24185,7.2286 -1.76716,22.1603 -1.76716,22.1603" fill="none" stroke="#6b7d7d" stroke-width="2" stroke-linecap="round"/><path d="M224.37677,134.15676c0,0 0.07953,-2.53273 0.20459,-3.70831c0.13515,-1.27041 0.57839,-3.65173 0.57839,-3.65173" fill="none" stroke="#6b7d7d" stroke-width="2" stroke-linecap="round"/><path d="M222.41932,168.11315c0,0 -0.98117,-4.56828 -0.92706,-6.57054c0.04994,-1.84808 -0.24742,-6.34866 -0.24742,-6.34866" fill="none" stroke="#6b7d7d" stroke-width="2" stroke-linecap="round"/><path d="M211.22266,158.02616c0,0 -1.05319,-7.64301 -0.71577,-11.61423c0.34112,-4.01472 2.75153,-12.34503 2.75153,-12.34503" fill="none" stroke="#6b7d7d" stroke-width="2" stroke-linecap="round"/><path d="M226.92698,287.78369c0,0 2.21665,5.16739 2.19604,7.55816c-0.02327,2.69922 -2.32865,7.82438 -2.32865,7.82438l-11.80212,-19.7586l3.3152,-7.02823z" fill="#000000" stroke="#000000" stroke-width="2" stroke-linecap="round"/><path d="M204.62187,288.93786l-4.75154,6.14893l-22.96449,-1.52467c0,0 3.51595,-4.38408 5.90927,-5.63241c2.11983,-1.10568 7.73,-1.48167 7.73,-1.48167z" data-paper-data="{&quot;index&quot;:null}" fill="#000000" stroke="#000000" stroke-width="2" stroke-linecap="round"/><path d="M235.4283,230.05779l-6.01733,-6.4802l-3.05495,5.92475l3.51782,-6.4802l13.97872,-0.55545l-27.03169,1.20347l10.64604,-38.8812l10.27574,-12.49753l-10.18317,12.31238l-8.05396,-10.36832" fill="none" stroke="#414141" stroke-width="2" stroke-linecap="round"/><g stroke-width="1" stroke-linecap="butt"><path d="M293.08812,120.90015c0,0 -35.33513,-60.3398 -44.41165,-75.83925c-4.01257,-6.85204 -1.0054,-19.3159 -1.0054,-19.3159c0,0 12.45104,3.41149 16.46361,10.26353c9.07651,15.49944 44.41165,75.83925 44.41165,75.83925z" fill="#878787" stroke="#787878"/><g><path d="M320.62941,151.09698c-3.96393,2.32128 -8.6877,1.62389 -10.55084,-1.55769c-1.86314,-3.18157 -0.16011,-7.64252 3.80382,-9.96381c3.96393,-2.32128 8.6877,-1.62389 10.55084,1.55769c1.86314,3.18157 0.16011,7.64252 -3.80382,9.96381z" fill="#887d00" stroke="#a99b00"/><path d="M310.63582,148.32519l-16.25922,-27.76495l12.27702,-7.18945l16.25922,27.76495z" fill="#873b01" stroke="#5f2a01"/></g></g></g></g></svg>