<svg version="1.1" xmlns="http://www.w3.org/2000/svg" xmlns:xlink="http://www.w3.org/1999/xlink" width="601" height="465" viewBox="0,0,601,465"><g transform="translate(67.5,32.08333)"><g data-paper-data="{&quot;isPaintingLayer&quot;:true}" fill-rule="nonzero" stroke-linejoin="miter" stroke-miterlimit="10" stroke-dasharray="" stroke-dashoffset="0" style="mix-blend-mode: normal"><path d="M-67.5,432.91667v-465h601v465z" fill="#000000" stroke="none" stroke-width="none" stroke-linecap="butt"/><g><path d="M174.16888,42.60465l0.71982,10.43743l41.0299,-10.79734l36.35105,-34.91141l12.5969,14.75637l-40.66999,35.27132l-37.43079,7.55814l8.27796,71.26246l96.45626,113.37209l-17.63566,15.11628l-87.81838,-107.61351l-15.8361,1.43965l-29.87265,23.39424l57.94574,64.06423l1.79956,4.67885l-15.47619,15.8361l-83.85936,-88.89812l51.82724,-38.51052l-19.43522,-67.66334l-45.70875,66.2237l-12.5969,-13.31672l17.27575,-26.27353l35.27132,-39.95017l24.83389,-1.07973l-0.35991,-12.5969l10.43743,4.13898z" fill="#0058dc" stroke="#003687" stroke-width="2" stroke-linecap="round"/><path d="M153.25546,138.52104c0,0 10.34354,-50.79501 11.96187,-58.68178c0.44054,-2.14693 29.91639,58.14191 29.91639,58.14191c0,0 -24.55558,-48.6647 -28.13139,-55.75131c-0.84241,-1.6695 -1.5613,-3.09421 -1.5613,-3.09421l21.05482,-2.69934l-49.66777,5.39867" fill="none" stroke="#878787" stroke-width="2" stroke-linecap="round"/><text transform="translate(147.25551,79.44187) rotate(-7.53337) scale(0.29575,0.29575)" font-size="40" xml:space="preserve" fill="#878787" fill-rule="nonzero" stroke="none" stroke-width="1" stroke-linecap="butt" stroke-linejoin="miter" stroke-miterlimit="10" stroke-dasharray="" stroke-dashoffset="0" font-family="&quot;ヒラギノ角ゴ Pro W3&quot;, &quot;Hiragino Kaku Gothic Pro&quot;, Osaka, &quot;メイリオ&quot;, Meiryo, &quot;ＭＳ Ｐゴシック&quot;, &quot;MS PGothic&quot;" font-weight="normal" text-anchor="start" style="mix-blend-mode: normal"><tspan x="0" dy="0">hydris</tspan></text></g><g stroke="#003687" stroke-width="2" stroke-linecap="butt"><path d="M188.5,18.83333c0,-15.74012 -12.31217,-28.5 -27.5,-28.5c-15.18783,0 -27.5,12.75988 -27.5,28.5c0,15.74012 12.6455,32.83333 27.83333,32.83333c15.18783,0 27.16667,-17.09322 27.16667,-32.83333z" fill="#0058dc"/><path d="M135.5,29v-19.66667h51.33333v19.66667z" fill="#003687"/></g></g></g></svg>