<svg version="1.1" xmlns="http://www.w3.org/2000/svg" xmlns:xlink="http://www.w3.org/1999/xlink" width="621" height="485.25" viewBox="0,0,621,485.25"><g transform="translate(59.25,104.25)"><g data-paper-data="{&quot;isPaintingLayer&quot;:true}" fill-rule="nonzero" stroke-linejoin="miter" stroke-miterlimit="10" stroke-dasharray="" stroke-dashoffset="0" style="mix-blend-mode: normal"><path d="M-59,379v-483h620.5v483z" fill="#01004e" stroke="#000000" stroke-width="0.5" stroke-linecap="butt"/><path d="M53.5,377v-314h107v314z" fill="#313131" stroke="#313131" stroke-width="2" stroke-linecap="butt"/><path d="M158.5,293v-314h107v314z" fill="#313131" stroke="#313131" stroke-width="2" stroke-linecap="butt"/><path d="M261.5,378v-314h107v314z" fill="#313131" stroke="#313131" stroke-width="2" stroke-linecap="butt"/><path d="M158.5,378v-314h107v314z" fill="#313131" stroke="#313131" stroke-width="2" stroke-linecap="butt"/><path d="M-12.5,378v-314h107v314z" fill="#313131" stroke="#313131" stroke-width="2" stroke-linecap="butt"/><path d="M363.5,380v-316h115v316z" fill="#313131" stroke="#313131" stroke-width="2" stroke-linecap="butt"/><text transform="translate(200.5,46) scale(0.5,0.5)" font-size="40" xml:space="preserve" fill="#ff0000" fill-rule="nonzero" stroke="none" stroke-width="1" stroke-linecap="butt" stroke-linejoin="miter" stroke-miterlimit="10" stroke-dasharray="" stroke-dashoffset="0" font-family="Pixel" font-weight="normal" text-anchor="start" style="mix-blend-mode: normal"><tspan x="0" dy="0">J</tspan></text><text transform="translate(201.5,88) scale(0.5,0.5)" font-size="40" xml:space="preserve" fill="#ff0000" fill-rule="nonzero" stroke="none" stroke-width="1" stroke-linecap="butt" stroke-linejoin="miter" stroke-miterlimit="10" stroke-dasharray="" stroke-dashoffset="0" font-family="Pixel" font-weight="normal" text-anchor="start" style="mix-blend-mode: normal"><tspan x="0" dy="0">A</tspan></text><text transform="translate(200.5,118) scale(0.5,0.5)" font-size="40" xml:space="preserve" fill="#ff0000" fill-rule="nonzero" stroke="none" stroke-width="1" stroke-linecap="butt" stroke-linejoin="miter" stroke-miterlimit="10" stroke-dasharray="" stroke-dashoffset="0" font-family="Pixel" font-weight="normal" text-anchor="start" style="mix-blend-mode: normal"><tspan x="0" dy="0">Y</tspan></text><text transform="translate(167.5,143) scale(0.5,0.5)" font-size="40" xml:space="preserve" fill="#ff0000" fill-rule="nonzero" stroke="none" stroke-width="1" stroke-linecap="butt" stroke-linejoin="miter" stroke-miterlimit="10" stroke-dasharray="" stroke-dashoffset="0" font-family="Sans Serif" font-weight="normal" text-anchor="start" style="mix-blend-mode: normal"><tspan x="0" dy="0">Tech inc</tspan></text><path d="M69,271c-11.32184,0 -20.5,-43.65224 -20.5,-97.5c0,-53.84776 9.17816,-97.5 20.5,-97.5c11.32184,0 20.5,43.65224 20.5,97.5c0,53.84776 -9.17816,97.5 -20.5,97.5z" fill="#ff0000" stroke="#ff0000" stroke-width="0.5" stroke-linecap="butt"/><path d="M389,280c-11.32183,0 -20.5,-43.65223 -20.5,-97.5c0,-53.84777 9.17817,-97.5 20.5,-97.5c11.32183,0 20.5,43.65223 20.5,97.5c0,53.84777 -9.17817,97.5 -20.5,97.5z" fill="#ff0000" stroke="#ff0000" stroke-width="0.5" stroke-linecap="butt"/><path d="M333.3664,173.54745l-1.42645,63.47707l-11.17386,0.23774l1.42645,-45.64643l-9.98516,-0.47548l-0.95097,46.35966l-16.40419,-0.23775l0.47548,-63.00159z" fill="#2100ff" stroke="#000000" stroke-width="2" stroke-linecap="round"/><path d="M318.15093,117.20263l0.47549,4.04161l1.90194,1.42645l8.32097,0.23774c0,0 7.7909,-2.86749 12.54022,-4.6155c6.24675,-2.29915 24.95274,12.65001 24.95274,12.65001l-11.43316,19.26246c0,0 -8.64829,-19.12001 -15.21985,-16.2794c-3.32519,1.43733 -7.51157,3.24694 -7.51157,3.24694l1.66419,36.3745l-39.46514,0.23774l-0.23775,-36.84998l-30.43096,8.55871l-3.56613,-13.31355l38.98967,-9.98516h7.36999l4.04161,-1.18871l0.47549,-4.04161" fill="#005fff" stroke="#000000" stroke-width="2" stroke-linecap="round"/><path d="M326.51944,97.42251c0,0 2.27746,8.46526 -0.42794,12.55277c-2.7054,4.08751 -7.02803,7.97413 -12.69541,7.2749c-5.66738,-0.69922 -7.42746,-4.76495 -9.27193,-9.98516c-1.84447,-5.22021 -1.11133,-7.90299 1.71174,-11.41161c2.82308,-3.50862 8.46455,-5.3037 11.54928,-5.06969c0.20161,0.01529 3.45824,1.37043 5.67857,3.01659c2.24645,1.66552 3.45569,3.62219 3.45569,3.62219z" fill="#0047ff" stroke="#000000" stroke-width="2" stroke-linecap="round"/><path d="M369.31383,148.17912c-3.43862,2.36847 -7.91073,1.84281 -9.98872,-1.17409c-2.078,-3.01691 -0.97499,-7.38261 2.46363,-9.75108c3.43862,-2.36847 7.91073,-1.84281 9.98872,1.17409c2.078,3.01691 0.97499,7.38261 -2.46363,9.75108z" fill="#2100ff" stroke="#000000" stroke-width="2" stroke-linecap="butt"/><path d="M255.33953,146.92036c-3.38757,0 -6.13374,-2.93776 -6.13374,-6.56168c0,-3.62391 2.74617,-6.56168 6.13374,-6.56168c3.38757,0 6.13374,2.93776 6.13374,6.56168c0,3.62391 -2.74617,6.56168 -6.13374,6.56168z" fill="#2100ff" stroke="#000000" stroke-width="2" stroke-linecap="butt"/><path d="M325.37828,110.83115l-19.68503,0.28529c0,0 -2.0908,-3.16773 -2.42506,-4.37479c-0.47268,-1.70691 -0.14255,-4.89714 -0.14255,-4.89714l23.25115,-0.14265c0,0 1.08788,2.66761 0.92033,4.19948c-0.16526,1.51095 -1.91884,4.92981 -1.91884,4.92981z" fill="#000000" stroke="#000000" stroke-width="2" stroke-linecap="round"/><path d="M305.69325,112.18627l18.9718,-0.85587c0,0 -5.09602,6.18147 -9.55722,6.27638c-4.46121,0.09492 -9.41458,-5.42051 -9.41458,-5.42051z" fill="#2100ff" stroke="#000000" stroke-width="2" stroke-linecap="round"/><text transform="translate(311.52065,147.47904) scale(0.35661,0.35661)" font-size="40" xml:space="preserve" fill="#000000" fill-rule="nonzero" stroke="none" stroke-width="1" stroke-linecap="butt" stroke-linejoin="miter" stroke-miterlimit="10" stroke-dasharray="" stroke-dashoffset="0" font-family="Sans Serif" font-weight="normal" text-anchor="start" style="mix-blend-mode: normal"><tspan x="0" dy="0">L</tspan></text><path d="M293.05789,136.98062l-28.23714,7.24029l15.20461,-13.03253l19.9108,2.17209l0.36202,27.87512l-6.15424,9.41238z" fill="#000000" stroke="#000000" stroke-width="0.5" stroke-linecap="round"/><path d="M333.1875,171.68l-7.60231,-9.41238v-29.6852l13.39454,-9.77439c0,0 6.58088,2.62743 8.50089,5.40079c2.34039,3.38056 4.16962,14.51002 4.16962,14.51002c0,0 -5.6373,-12.12962 -10.28313,-10.20492c-3.41925,1.41654 -8.90364,3.68865 -8.90364,3.68865z" data-paper-data="{&quot;index&quot;:null}" fill="#000000" stroke="#000000" stroke-width="0.5" stroke-linecap="round"/></g></g></svg>