<svg version="1.1" xmlns="http://www.w3.org/2000/svg" xmlns:xlink="http://www.w3.org/1999/xlink" width="604.5" height="414.5" viewBox="0,0,604.5,414.5"><defs><linearGradient x1="237.5" y1="-25" x2="237.5" y2="389" gradientUnits="userSpaceOnUse" id="color-1"><stop offset="0" stop-color="#ff00ed"/><stop offset="1" stop-color="#8b00ff"/></linearGradient></defs><g transform="translate(64.75,25.25)"><g data-paper-data="{&quot;isPaintingLayer&quot;:true}" fill-rule="nonzero" stroke-linejoin="miter" stroke-miterlimit="10" stroke-dasharray="" stroke-dashoffset="0" style="mix-blend-mode: normal"><path d="M-64.5,389v-414h604v414z" fill="url(#color-1)" stroke="#fe00c5" stroke-width="0.5" stroke-linecap="butt"/><path d="M266.61494,151.4934c-0.23874,-5.27516 -2.0327,-44.9135 -2.27144,-50.18866c5.16424,0.37594 9.47557,1.0884 9.52067,2.08496c0.03624,0.80065 0.07513,1.65993 0.11182,2.47078c0.03166,0.69953 0.06169,1.36302 0.08697,1.92172c0.05654,1.24931 1.69583,37.47017 1.77264,39.16749c0.09924,2.19279 0.18637,4.11796 0.18637,4.11796z" data-paper-data="{&quot;index&quot;:null}" fill="#000000" stroke="none" stroke-width="0" stroke-linecap="butt"/><path d="M235.7791,101.08941c5.3981,0 13.37403,0 21.22673,0c2.53933,0 5.06578,0.04752 7.48799,0.13368c0.03035,9.76636 0.56659,81.86198 0.84435,91.62823h-13.36418c-0.73929,-0.08813 -1.80349,-0.14984 -3.33494,-0.14134c-1.33078,0.00738 -2.27934,0.06369 -2.95531,0.14134h-23.93107c0,-9.54474 0,-81.42281 0,-90.96755c4.95569,-0.50385 10.00376,-0.79436 14.02644,-0.79436z" fill="#000000" stroke="none" stroke-width="0" stroke-linecap="butt"/><path d="M202.27854,144.1395c0,0 0.7372,-1.78057 1.57687,-3.80865c0.64994,-1.56982 14.51984,-35.07003 14.99824,-36.22551c0.21394,-0.51673 0.468,-1.13039 0.73587,-1.77737c0.3105,-0.74995 0.63954,-1.54468 0.94612,-2.28519c0.38161,-0.9217 4.67801,-0.12417 9.66187,1.28009c-2.02,4.87893 -17.19852,41.53992 -19.21852,46.41885z" fill="#000000" stroke="none" stroke-width="0" stroke-linecap="butt"/><path d="M221.29594,212.2799l0.77778,-19.66666c0,0 19.24279,-0.74007 27.0926,-0.67936c6.03407,0.04667 16.00859,1.0127 16.00859,1.0127l1,19.33333h-18.98201c0,0 -2.17484,-11.14286 -3.52381,-11.14286c-0.75409,0 -3.43666,11.5873 -3.43666,11.5873z" fill="#000000" stroke="none" stroke-width="0" stroke-linecap="butt"/><path d="M189.46085,173.28091c0,0 0.58364,-1.35409 1.24842,-2.89639c0.51457,-1.19383 11.49546,-26.66999 11.87421,-27.54871c0.16937,-0.39298 0.37052,-0.85963 0.5826,-1.35165c0.24583,-0.57031 0.50633,-1.17469 0.74906,-1.73784c0.30212,-0.70094 4.50229,0.35404 9.40874,1.96141c-1.59925,3.71031 -13.6162,31.5902 -15.21543,35.30051z" fill="#000000" stroke="none" stroke-width="0" stroke-linecap="butt"/><path d="M267.94415,180.86333c-0.18267,-4.03617 -1.55527,-34.36455 -1.73794,-38.40072c5.15777,0.23304 9.45947,0.73277 9.49398,1.49526c0.02772,0.6126 0.05748,1.27006 0.08556,1.89046c0.02422,0.53523 0.0472,1.04288 0.06655,1.47036c0.04326,0.95588 1.29752,28.66946 1.3563,29.96812c0.07593,1.67776 0.1426,3.15077 0.1426,3.15077z" data-paper-data="{&quot;index&quot;:null}" fill="#000000" stroke="none" stroke-width="0" stroke-linecap="butt"/><path d="M188.19427,188.37453c-4.20958,-1.81445 -6.2008,-6.58283 -4.44752,-10.65052c1.75327,-4.06768 6.58712,-5.8943 10.7967,-4.07986c4.20958,1.81445 6.2008,6.58283 4.44753,10.65052c-1.75327,4.06768 -6.58713,5.89429 -10.7967,4.07986z" fill="#660062" stroke="none" stroke-width="0" stroke-linecap="butt"/><path d="M272.60686,195.42456c-4.57928,0.20725 -8.45386,-3.21185 -8.65412,-7.63677c-0.20027,-4.42492 3.34962,-8.18003 7.9289,-8.38728c4.57928,-0.20725 8.45386,3.21185 8.65412,7.63677c0.20027,4.42492 -3.34962,8.18003 -7.9289,8.38728z" fill="#660062" stroke="none" stroke-width="0" stroke-linecap="butt"/><path d="M221.53718,316.89721v-53.38023c6.41758,-0.01156 12.83557,-0.02818 19.25357,-0.03814c-0.06236,23.73696 -0.05129,47.03581 0.51989,53.41837z" fill="#660062" stroke="none" stroke-width="0" stroke-linecap="butt"/><path d="M221.32195,212.03542l19.1269,0.00836c0.31243,6.23913 0.20183,28.572 0.12508,51.69913c-6.42318,0.00712 -12.84635,0.02089 -19.26911,0.02961z" fill="#000000" stroke="none" stroke-width="0" stroke-linecap="butt"/><path d="M236.42454,273.73837c0.10773,0.16251 0.1973,0.33438 0.26908,0.51241l0.95054,2.24061l-0.09355,0.05241c0.11822,0.22689 0.22118,0.46456 0.30514,0.7156c0.80194,2.39774 -0.45332,5.12898 -0.35711,7.69537l-0.03892,0.11365l0.03664,0.00184l-0.14766,3.88042c-0.02533,0.79404 -0.3484,1.56925 -0.94128,2.08834c-1.05123,0.92039 -2.55266,0.68714 -3.35352,-0.52098c-0.01671,-0.02521 -0.03298,-0.05065 -0.04882,-0.0763c-0.33778,0.32114 -0.72928,0.57808 -1.12499,0.77577c-1.37573,0.68729 -2.89484,2.09001 -4.30573,1.50435c-1.34504,-0.55833 -1.65058,-2.71049 -2.2254,-4.21542c-1.56135,-4.08774 -0.54167,-8.00435 0.44302,-11.99593l-0.02795,0.03134c0,0 0.22069,-1.87622 1.65042,-2.30467c0.29418,-1.52088 0.655,-3.02672 1.09606,-4.51206l1.30605,-1.8297c0,0 2.2495,-1.96953 3.96326,0.6157c1.2435,1.87586 0.40036,3.42754 -0.15599,4.13786c-0.02194,0.07905 -0.04362,0.1582 -0.06505,0.23743c0.98865,-0.50007 2.18231,-0.17905 2.86577,0.85196z" fill="#660062" stroke="none" stroke-width="0.5" stroke-linecap="butt"/><path d="M246.21,316.89721c0.57117,-6.38256 0.58225,-29.68141 0.51988,-53.41837c6.418,0.00996 12.83599,0.02658 19.25357,0.03814v53.38023z" data-paper-data="{&quot;index&quot;:null}" fill="#660062" stroke="none" stroke-width="0" stroke-linecap="butt"/><path d="M266.21583,263.77252c-6.42277,-0.00873 -12.84593,-0.02249 -19.26911,-0.02961c-0.07675,-23.12714 -0.18736,-45.46 0.12508,-51.69913l19.1269,-0.00836z" data-paper-data="{&quot;index&quot;:null}" fill="#000000" stroke="none" stroke-width="0" stroke-linecap="butt"/><path d="M254.2952,273.55308c-0.02143,-0.07923 -0.0431,-0.15838 -0.06505,-0.23743c-0.55635,-0.71031 -1.39949,-2.262 -0.15598,-4.13786c1.71375,-2.58524 3.96325,-0.6157 3.96325,-0.6157l1.30605,1.8297c0.44106,1.48534 0.80188,2.99118 1.09606,4.51206c1.42973,0.42845 1.65042,2.30467 1.65042,2.30467l-0.02795,-0.03134c0.98469,3.99158 2.00437,7.90819 0.44302,11.99593c-0.57482,1.50493 -0.88035,3.65709 -2.2254,4.21542c-1.41089,0.58566 -2.92999,-0.81705 -4.30572,-1.50435c-0.39571,-0.19769 -0.78722,-0.45463 -1.125,-0.77577c-0.01584,0.02564 -0.03211,0.05109 -0.04882,0.0763c-0.80086,1.20812 -2.3023,1.44137 -3.35352,0.52098c-0.59289,-0.51909 -0.91595,-1.2943 -0.94128,-2.08834l-0.14766,-3.88042l0.03664,-0.00184l-0.03893,-0.11365c0.09621,-2.56639 -1.15905,-5.29762 -0.35711,-7.69537c0.08396,-0.25104 0.18692,-0.48871 0.30515,-0.7156l-0.09355,-0.05241l0.95054,-2.24061c0.07178,-0.17802 0.16134,-0.3499 0.26907,-0.51241c0.68345,-1.03101 1.87712,-1.35202 2.86577,-0.85196z" data-paper-data="{&quot;index&quot;:null}" fill="#660062" stroke="none" stroke-width="0.5" stroke-linecap="butt"/><path d="M216.83525,76.54284c0,-14.70473 11.82813,-26.62527 26.41888,-26.62527c14.59074,0 26.41888,11.92054 26.41888,26.62527c0,14.70473 -11.82813,29.51484 -26.41888,29.51484c-14.59074,0 -26.41888,-14.81011 -26.41888,-29.51484z" fill="#3e3e3e" stroke="#660062" stroke-width="1" stroke-linecap="butt"/><path d="M240.45238,78.81117l-1.28571,4.8555c0,0 -6.05357,-1.42272 -8.9683,-2.17653c-2.77261,-0.71705 -8.11503,-2.24157 -8.11503,-2.24157z" fill="none" stroke="#660062" stroke-width="1.5" stroke-linecap="round"/><path d="M263.40476,78.20095c0,0 -6.93598,2.1592 -10.05324,3.06542c-2.71063,0.788 -7.60152,2.06697 -7.60152,2.06697l-0.71429,-4.56978z" data-paper-data="{&quot;index&quot;:null}" fill="none" stroke="#660062" stroke-width="1.5" stroke-linecap="round"/><path d="M217.16667,73.66667h21.66667l3.66667,3.33333l5.33333,-4l21.33333,-0.33333" fill="none" stroke="#660062" stroke-width="1.5" stroke-linecap="round"/><g fill="none" stroke="#ff00c5" stroke-width="3.5"><path d="M217.41104,198.25965c0,-27.76357 -20.546,-50.27038 -45.89077,-50.27038c-25.34477,0 -45.89077,22.50682 -45.89077,50.27038c0,27.76357 20.546,50.27038 45.89077,50.27038c25.34477,0 45.89077,-22.50682 45.89077,-50.27038z" stroke-linecap="butt"/><path d="M166.37898,218.06313l1.52334,29.70523" stroke-linecap="round"/><path d="M126.01034,201.68717l23.23101,-1.52334" stroke-linecap="round"/><path d="M196.08421,195.97463l21.32683,-1.14251" stroke-linecap="round"/><path d="M168.28316,148.3701v28.94355" stroke-linecap="round"/><path d="M173.61487,214.25477c0,0 -16.53578,-5.0843 -17.51847,-13.7101c-0.98269,-8.62581 5.33493,-15.0368 14.09094,-16.37596c8.75601,-1.33915 15.58808,3.09254 18.28014,11.42509c2.69205,8.33255 -3.12409,12.39045 -10.28258,13.32927c-7.15848,0.93882 -10.3934,-3.97014 -12.94843,-10.28258c-2.55503,-6.31244 6.47422,-5.71254 6.47422,-5.71254c0,0 7.48918,1.01138 7.99756,4.57003c0.50838,3.55866 -7.23589,0.76167 -7.23589,0.76167" stroke-linecap="round"/></g></g></g></svg>