<svg version="1.1" xmlns="http://www.w3.org/2000/svg" xmlns:xlink="http://www.w3.org/1999/xlink" width="635.5" height="469.49636" viewBox="0,0,635.5,469.49636"><g transform="translate(35.26501,83.76877)"><g data-paper-data="{&quot;isPaintingLayer&quot;:true}" fill-rule="nonzero" stroke-linejoin="miter" stroke-miterlimit="10" stroke-dasharray="" stroke-dashoffset="0" style="mix-blend-mode: normal"><path d="M-35.03003,383.24024v-467.00901h635.13514v467.00901z" fill="#002c73" stroke="none" stroke-width="0" stroke-linecap="butt"/><path d="M285.98926,294.22618c-7.37943,0.16853 -14.75946,0.33204 -22.13934,0.50218c-0.64354,-23.11834 -1.30689,-45.44172 -1.09775,-51.68767l21.97503,-0.53622z" data-paper-data="{&quot;index&quot;:null}" fill="#000000" stroke="none" stroke-width="0" stroke-linecap="butt"/><g><path d="M254.40977,137.47618c5.3981,0 13.37403,0 21.22673,0c2.53933,0 5.06578,0.04752 7.48799,0.13368c0.03035,9.76636 0.56659,81.86198 0.84435,91.62823h-13.36418c-0.73929,-0.08813 -1.80349,-0.14984 -3.33494,-0.14134c-1.33078,0.00738 -2.27934,0.06369 -2.95531,0.14134h-23.93107c0,-9.54474 0,-81.42281 0,-90.96755c4.95569,-0.50385 10.00376,-0.79436 14.02644,-0.79436z" fill="#ff6300" stroke="none" stroke-width="0" stroke-linecap="butt"/><text transform="translate(253.82502,180.42889) scale(0.5,0.5)" font-size="40" xml:space="preserve" fill="#000000" fill-rule="nonzero" stroke="none" stroke-width="1" stroke-linecap="butt" stroke-linejoin="miter" stroke-miterlimit="10" stroke-dasharray="" stroke-dashoffset="0" font-family="&quot;ヒラギノ角ゴ Pro W3&quot;, &quot;Hiragino Kaku Gothic Pro&quot;, Osaka, &quot;メイリオ&quot;, Meiryo, &quot;ＭＳ Ｐゴシック&quot;, &quot;MS PGothic&quot;" font-weight="normal" text-anchor="start" style="mix-blend-mode: normal"><tspan x="0" dy="0">D</tspan></text><path d="M263.24294,165.21533l-1.6904,1.56965" fill="none" stroke="#000000" stroke-width="2" stroke-linecap="round"/><path d="M264.93334,174.39176l3.13931,0.60371" fill="none" stroke="#000000" stroke-width="2" stroke-linecap="round"/></g><path d="M240.72357,242.45819l21.9724,0.63478c0.18112,6.24683 -0.58237,28.56701 -1.3296,51.68223c-7.37904,-0.20325 -14.75826,-0.39985 -22.13686,-0.60148z" fill="#000000" stroke="none" stroke-width="0" stroke-linecap="butt"/><path d="M240.8155,248.66668v-19.66666h43.68452v19.66666z" fill="#ff6300" stroke="none" stroke-width="0" stroke-linecap="butt"/><path d="M262.60839,144.55001c-13.83011,0 -25.04162,-14.77669 -25.04162,-28.46567c0,-13.68898 11.21152,-24.78609 25.04162,-24.78609c13.83011,0 25.04162,11.09711 25.04162,24.78609c0,13.68898 -11.21152,28.46567 -25.04162,28.46567z" fill="#ff6300" stroke="#ae4300" stroke-width="0.5" stroke-linecap="butt"/><path d="M224.98848,188.00662c0,0 0.10662,-1.92563 0.22805,-4.11895c0.09399,-1.69772 2.09991,-37.92726 2.1691,-39.17688c0.03094,-0.55883 0.06768,-1.22248 0.10642,-1.92218c0.0449,-0.81105 0.09249,-1.67053 0.13683,-2.47137c0.05519,-0.9968 6.07699,-1.73358 13.29386,-2.13867c-0.29214,5.27642 -2.48732,44.92426 -2.77946,50.20068z" fill="#ff6300" stroke="none" stroke-width="0" stroke-linecap="butt"/><path d="M330.82014,152.04781c0,0 -1.92845,-0.03355 -4.12497,-0.07176c-1.70021,-0.02956 -37.98272,-0.66069 -39.23416,-0.68245c-0.55965,-0.00973 -1.22427,-0.02129 -1.92499,-0.03348c-0.81223,-0.01413 -1.67297,-0.0291 -2.47499,-0.04305c-0.99826,-0.01736 -1.96208,-5.78377 -2.63956,-12.71168c5.28414,0.09191 44.98995,0.78258 50.27408,0.87449z" data-paper-data="{&quot;index&quot;:null}" fill="#ff6300" stroke="none" stroke-width="0" stroke-linecap="butt"/><path d="M262.51849,143.8439l-1.6904,-52.64375" fill="none" stroke="#000000" stroke-width="1.5" stroke-linecap="round"/><path d="M278.93947,97.84098l-31.75529,39.96579" fill="none" stroke="#000000" stroke-width="1.5" stroke-linecap="round"/><path d="M281.95804,132.97707l-41.65618,-28.85747" fill="none" stroke="#000000" stroke-width="1.5" stroke-linecap="round"/><path d="M286.42551,123.55915l-47.33108,0.96594c0,0 -1.23395,-4.29732 -1.32817,-7.12381c-0.09422,-2.8265 0.8452,-7.3653 0.8452,-7.3653l47.93479,-0.48297c0,0 1.23379,4.60109 1.20743,7.60678c-0.02637,3.00569 -1.32817,6.39936 -1.32817,6.39936z" fill="#ae4300" stroke="#ae4300" stroke-width="0.5" stroke-linecap="round"/><g fill="#000000" stroke="none" stroke-linecap="butt"><path d="M239.71669,340.78399v-53.38023c7.3754,-0.01156 14.75126,-0.02818 22.12714,-0.03814c-0.07167,23.73696 -0.05894,47.03581 0.59748,53.41837z" stroke-width="0"/><path d="M258.87501,280.12501c0,0.2043 -0.02228,0.4034 -0.06454,0.595l-0.48886,2.44432l-0.11729,-0.02346c-0.02942,0.26282 -0.07932,0.52358 -0.1547,0.78175c-0.71994,2.46582 -3.52263,3.76417 -4.98993,5.87263l-0.10445,0.06329l0.03238,0.02698l-2.48656,2.98387c-0.50435,0.61399 -1.26947,1.00563 -2.12605,1.00563c-1.51878,0 -2.75,-1.23122 -2.75,-2.75c0,-0.03169 0.00054,-0.06326 0.0016,-0.09469c-0.5034,0.0202 -1.01702,-0.04808 -1.49857,-0.16642c-1.67417,-0.41143 -3.91296,-0.35361 -4.84785,-1.8021c-0.89126,-1.38089 0.13366,-3.30564 0.52017,-4.90308c1.04986,-4.33904 4.35552,-6.74437 7.67464,-9.23371l-0.04454,0.00546c0,0 1.33875,-1.33875 2.90543,-0.68382c1.1906,-1.00491 2.43301,-1.95145 3.73634,-2.8258l2.30278,-0.54584c0,0 3.25,0 3.25,3.25c0,2.35821 -1.71112,3.0053 -2.65018,3.18285c-0.06797,0.0476 -0.13575,0.09546 -0.20335,0.14356c1.20685,0.29077 2.10353,1.37746 2.10353,2.67358z" stroke-width="0.5"/></g><g fill="#000000" stroke="none" stroke-linecap="butt"><path d="M262.89202,342.78399c0.65642,-6.38256 0.66915,-29.68141 0.59748,-53.41837c7.37588,0.00996 14.75174,0.02658 22.12714,0.03814v53.38023z" data-paper-data="{&quot;index&quot;:null}" stroke-width="0"/><path d="M268.56185,279.45142c-0.06759,-0.04811 -0.13537,-0.09596 -0.20335,-0.14356c-0.93905,-0.17756 -2.65018,-0.82465 -2.65018,-3.18286c0,-3.25 3.25,-3.25 3.25,-3.25l2.30277,0.54584c1.30333,0.87435 2.54574,1.82089 3.73634,2.8258c1.56669,-0.65492 2.90543,0.68382 2.90543,0.68382l-0.04455,-0.00545c3.31912,2.48934 6.62479,4.89467 7.67465,9.23371c0.38651,1.59744 1.41142,3.52218 0.52016,4.90308c-0.93489,1.44849 -3.17367,1.39068 -4.84785,1.80211c-0.48154,0.11834 -0.99517,0.18661 -1.49856,0.16641c0.00106,0.03143 0.0016,0.063 0.0016,0.0947c0,1.51878 -1.23122,2.75 -2.75,2.75c-0.85659,0 -1.62171,-0.39164 -2.12606,-1.00563l-2.48656,-2.98387l0.03238,-0.02698l-0.10444,-0.06329c-1.4673,-2.10847 -4.26999,-3.40681 -4.98993,-5.87263c-0.07538,-0.25817 -0.12528,-0.51893 -0.1547,-0.78175l-0.11729,0.02346l-0.48887,-2.44432c-0.04226,-0.1916 -0.06454,-0.3907 -0.06454,-0.595c0,-1.29612 0.89667,-2.38281 2.10352,-2.67359z" data-paper-data="{&quot;index&quot;:null}" stroke-width="0.5"/></g><g fill="#000000" stroke="none" stroke-width="0" stroke-linecap="butt"><path d="M242.33594,219.57883c0,0 -0.70811,-1.29461 -1.51465,-2.76918c-0.62431,-1.14138 -13.94689,-25.49861 -14.40641,-26.33873c-0.2055,-0.3757 -0.44954,-0.82187 -0.70684,-1.29228c-0.29823,-0.54527 -0.6143,-1.1231 -0.90881,-1.66151c-0.36656,-0.67015 4.46229,-4.28642 10.44772,-8.31285c1.94028,3.54735 16.51987,30.20272 18.46015,33.75007z"/><path d="M255.17017,229.59562c-3.9866,2.2627 -8.99082,0.97416 -11.17725,-2.87805c-2.18644,-3.85221 -0.72712,-8.80932 3.25946,-11.07203c3.9866,-2.2627 8.99082,-0.97416 11.17725,2.87805c2.18644,3.85221 0.72712,8.80932 -3.25946,11.07203z"/></g><g data-paper-data="{&quot;index&quot;:null}" fill="#000000" stroke="none" stroke-width="0" stroke-linecap="butt"><path d="M361.85004,151.78085c0,0 -1.47573,0.00598 -3.15658,0.01281c-1.30106,0.00528 -29.06578,0.11804 -30.02342,0.12194c-0.42827,0.00173 -0.93686,0.0038 -1.47307,0.00598c-0.62155,0.00252 -1.28022,0.00519 -1.89395,0.00769c-0.7639,0.0031 -1.63808,-5.74217 -2.32086,-12.65453c4.04362,-0.01642 34.42796,-0.13982 38.47158,-0.15625z" data-paper-data="{&quot;index&quot;:null}"/><path d="M368.57753,153.53277c-4.42859,0.08714 -8.09178,-3.55753 -8.18196,-8.14061c-0.09018,-4.58308 3.42679,-8.36904 7.85539,-8.45617c4.42859,-0.08714 8.09178,3.55753 8.18196,8.14061c0.09018,4.58308 -3.42679,8.36904 -7.85539,8.45617z"/></g><path d="M251.98499,226.47759l-4,124" fill="none" stroke="#333333" stroke-width="7.5" stroke-linecap="round"/><path d="M-33.01501,383.47759v-41h631v41z" fill="#545454" stroke="#565656" stroke-width="4.5" stroke-linecap="butt"/></g></g></svg>