<svg version="1.1" xmlns="http://www.w3.org/2000/svg" xmlns:xlink="http://www.w3.org/1999/xlink" width="724.00901" height="978.85834" viewBox="0,0,724.00901,978.85834"><g transform="translate(124.00901,292.47748)"><g data-paper-data="{&quot;isPaintingLayer&quot;:true}" fill-rule="nonzero" stroke-linecap="butt" stroke-linejoin="miter" stroke-miterlimit="10" stroke-dasharray="" stroke-dashoffset="0" style="mix-blend-mode: normal"><path d="M-123.003,686.38086v-635.78026h723.003v635.78026z" fill="#00205c" stroke="none" stroke-width="none"/><path d="M-124.00901,343.30279v-635.78026h723.00301v635.78026z" fill="#00205c" stroke="none" stroke-width="none"/><g><path d="M240.21276,639.43713h-76.04476l-1.54667,-179.41202c2.45909,1.08714 4.80177,3.0749 7.18372,3.78281c6.29521,1.87092 13.80573,3.51969 20.54809,3.80677c13.03008,0.13897 25.95962,3.84581 39.06529,3.84581c3.5981,0 7.1962,0 10.79429,0z" fill="#000000" stroke="#000000" stroke-width="0.5"/><path d="M269.78573,635.63489l-1.79276,-164.93488c10.33551,0 20.67098,0 31.00649,0c12.92445,-0.00962 26.86156,-2.60073 39.46023,-5.30854c3.70106,-0.79546 7.44573,-1.69119 11.17307,-2.7243v176.76992z" fill="#000000" stroke="#000000" stroke-width="0.5"/><path d="M240.21276,279.13928v190.4201c-3.5981,0 -7.1962,0 -10.79429,0c-13.08693,0 -25.99598,-3.77814 -39.01248,-3.98509c-6.59004,-0.28973 -13.85561,-2.0115 -20.00392,-3.84645c-2.71541,-0.81041 -5.11435,-2.94395 -7.79751,-4.0662l-2.22009,-266.90827c5.85092,5.77807 12.74438,11.08147 19.31016,15.64621c8.28115,5.68176 16.18658,13.6519 23.09103,20.89387c8.90282,9.17685 14.91877,20.71619 23.73524,29.85373c6.07107,6.28039 11.23672,14.1552 15.94426,21.99207z" fill="#000000" stroke="#000000" stroke-width="0.5"/><path d="M319.53166,218.71552l0.07236,0.93653c-7.37212,6.41681 -16.62396,9.33765 -22.24784,18.14226c-6.33974,6.5349 -10.73736,19.21241 -17.68083,24.00992c-3.6019,5.47066 -9.96814,11.25824 -13.3835,17.33505h-21.59523c-4.95511,-8.29702 -10.39402,-16.70194 -16.83143,-23.38528c-8.80807,-9.12879 -14.88505,-20.6361 -23.73524,-29.85372c-7.13573,-7.32004 -14.95002,-15.27873 -23.38075,-21.14006c-6.81182,-4.6736 -13.95452,-10.24889 -19.8868,-16.26685l177.31409,-3.6754c-1.08269,1.6677 -2.12633,3.33342 -3.12286,4.98469c-5.06637,8.4064 -13.6149,18.52891 -15.50347,28.28185c0,0 -0.03761,0.19487 0.0054,0.42711c-0.02387,0.11946 -0.02388,0.20395 -0.02388,0.20395z" fill="#000000" stroke="#000000" stroke-width="0.5"/><path d="M266.01638,282.27931c2.69998,-6.7238 10.36118,-12.99844 14.15828,-19.08187c6.97281,-4.81781 11.485,-17.56983 17.80675,-24.15398c5.85507,-9.04618 15.86408,-11.05151 22.53404,-18.63739l0.07235,-1.69055c0,0 0,-0.08886 -0.02574,-0.21323c0.00509,-0.02 0.0073,-0.03141 0.0073,-0.03141c1.81763,-9.45358 10.33034,-19.47913 15.25116,-27.62349c1.21386,-2.01187 2.49814,-4.04547 3.83805,-6.07769l9.97415,-0.20672v275.80224c-3.85532,1.12485 -7.73474,2.09336 -11.57253,2.94825c-12.45579,2.77457 -26.28137,5.46827 -39.06073,5.45785c-10.3424,0 -20.68478,0 -31.02718,0z" fill="#000000" stroke="#000000" stroke-width="0.5"/><path d="M395.87554,180.58755c-12.13762,2.40405 -24.27523,4.80809 -36.41286,7.21209c-9.02541,1.78762 -18.05081,3.57525 -27.07623,5.36283l-44.46139,-241.12375c1.57777,-0.22178 3.15612,-0.44812 4.73542,-0.67892c13.17745,-1.92583 26.35495,-3.85167 39.5324,-5.77747c6.61707,-0.96706 13.19358,-2.04933 19.75666,-3.2149z" fill="#000000" stroke="#000000" stroke-width="0.5"/><path d="M161.38191,186.99988c-7.0979,-1.71234 -14.19573,-3.42464 -21.29363,-5.13698c-12.96133,-3.12685 -25.92268,-6.25369 -38.884,-9.38054c-0.92581,-0.22334 -1.85161,-0.44669 -2.77743,-0.67003l51.68063,-230.10954c6.42529,1.68522 12.83035,3.45178 19.22765,5.33994c12.79895,3.77764 25.59787,7.55528 38.39682,11.33292c1.56374,0.46151 3.12476,0.9269 4.68338,1.39634z" fill="#000000" stroke="#000000" stroke-width="0.5"/><path d="M422.04513,322.5108l-63.48909,12.57495l-25.81271,-139.98793c9.02541,-1.78762 18.05082,-3.57524 27.07623,-5.36283c12.13762,-2.40405 24.27523,-4.80809 36.41285,-7.21209z" fill="#000000" stroke="#000000" stroke-width="0.5"/><path d="M128.62602,332.84676l-62.95506,-15.18754l32.32496,-143.92786c0.92581,0.22334 1.85161,0.44669 2.77742,0.67002c12.96133,3.12685 25.92267,6.25369 38.88399,9.38054c7.0979,1.71234 14.19574,3.42464 21.29364,5.13698z" fill="#000000" stroke="#000000" stroke-width="0.5"/><path d="M159.09836,192.4443v-252.20358c0,0 65.07169,-11.82203 96.32335,-11.82203c32.09644,0 93.78854,11.82203 93.78854,11.82203v252.20358zM265.87787,74.2239c0.52498,0 0.95056,-0.4411 0.95056,-0.98516c0,-0.54411 -0.42557,-0.98516 -0.95056,-0.98516c-0.52498,0 -0.95057,0.4411 -0.95057,0.98516c0,0.54411 0.42558,0.98516 0.95057,0.98516z" fill="#000000" stroke="#000000" stroke-width="0.5"/><path d="M152.5366,-174.81401c0,-59.07602 44.98131,-106.96657 100.46858,-106.96657c55.48727,0 100.46858,47.8906 100.46858,106.96657c0,59.07602 -44.98131,120.96216 -100.46858,120.96216c-55.48728,0 -100.46858,-61.88618 -100.46858,-120.96215z" fill="#000000" stroke="#000000" stroke-width="3"/><path d="M151.15131,-168.81586c0,-13.24479 7.03281,-41.9869 7.03281,-41.9869h185.86681c0,0 8.03748,27.04094 8.03748,40.98717c0,12.12245 0.89002,31.95051 -8.03748,37.98812c-10.75798,7.27554 -141.86967,16.39202 -180.35474,2.56921c-6.67643,-2.398 -12.54484,-37.62425 -12.54484,-39.55764z" fill="#580000" stroke="#580000" stroke-width="3"/></g><path d="M300.04565,-50.17287c0.42073,2.30012 0.8414,4.60019 1.26212,6.90025c0.31286,1.71029 0.62569,3.42063 0.93851,5.13096l-44.08762,8.0644c-0.03816,-0.29882 -0.07715,-0.5978 -0.11686,-0.89698c-0.33187,-2.49611 -0.66372,-4.99227 -0.99558,-7.48843c-0.16666,-1.25344 -0.35438,-2.49942 -0.55732,-3.74291z" fill="#af0000" stroke="#af0000" stroke-width="0.5"/><path d="M188.74454,-40.38853c0.29322,-1.34743 0.58648,-2.69488 0.87969,-4.04227c0.53548,-2.46051 1.0709,-4.92102 1.60641,-7.38155c0.03825,-0.17575 0.07651,-0.35152 0.11476,-0.52725l42.14811,9.17254c-0.29014,1.22006 -0.59511,2.43659 -0.92238,3.65194c-0.65471,2.43151 -1.30943,4.863 -1.96416,7.2945c-0.07999,0.29708 -0.16064,0.59363 -0.24213,0.88974z" fill="#af0000" stroke="#af0000" stroke-width="0.5"/><path d="M162.7247,-49.38905l3.74552,-11.64315l25.68346,8.26214c-0.05512,0.17122 -0.11019,0.34241 -0.16525,0.51368c-0.77112,2.39712 -1.54226,4.79428 -2.31342,7.1914c-0.42225,1.31269 -0.84459,2.62542 -1.26685,3.93811z" fill="#af0000" stroke="#af0000" stroke-width="0.5"/><path d="M225.81031,0.4569l0.57742,-46.04169c0,0 12.33896,-2.0038 18.2519,-1.92963c6.07279,0.07615 17.71815,2.38074 17.71815,2.38074l-0.57741,46.0417zM246.28415,-20.87166c0.09933,0.00125 0.18085,-0.07824 0.18213,-0.1776c0.00125,-0.09933 -0.07825,-0.18085 -0.1776,-0.18213c-0.09933,-0.00125 -0.18084,0.07824 -0.18213,0.1776c-0.00125,0.09933 0.07825,0.18084 0.1776,0.18213z" fill="#af0000" stroke="#af0000" stroke-width="0.5"/><g stroke="#9d0000" stroke-width="3"><path d="M228.31621,-59.09332c-0.74529,-9.68516 6.02497,-18.10401 15.12179,-18.80402c9.0968,-0.7 17.07542,6.58394 17.82071,16.2691c0.74529,9.68516 -5.84842,20.39851 -14.94522,21.09852c-9.0968,0.7 -17.25198,-8.87844 -17.99728,-18.5636z" fill="#ad0000"/><path d="M228.228,-58.09732c-0.1671,-2.1714 0.62327,-6.97224 0.62327,-6.97224c0,0 10.45338,-5.60961 14.93822,-5.95472c5.47398,-0.42123 15.53357,3.60986 15.53357,3.60986c0,0 1.65885,4.33182 1.83478,6.61822c0.15295,1.98742 0.54899,5.22689 -0.83845,6.32934c-0.8498,0.67526 -6.79109,-3.19219 -13.27994,-2.46276c-6.27753,0.70567 -13.06754,6.03487 -16.25578,5.15929c-1.1248,-0.3089 -2.53128,-6.01002 -2.55568,-6.32699z" fill="#9a0000"/></g><path d="M430.17617,-43.64599c0.42073,2.30012 0.8414,4.60019 1.26212,6.90025c0.31286,1.71029 0.62569,3.42063 0.93851,5.13096l-44.08762,8.0644c-0.03816,-0.29882 -0.07716,-0.5978 -0.11686,-0.89698c-0.33187,-2.49611 -0.66372,-4.99227 -0.99558,-7.48843c-0.16665,-1.25344 -0.35438,-2.49941 -0.55732,-3.7429z" fill="#00fbfb" stroke="#00fbfb" stroke-width="0.5"/><path d="M318.87506,-33.86168c0.29322,-1.34743 0.58648,-2.69488 0.8797,-4.04227c0.53547,-2.46051 1.0709,-4.92101 1.60641,-7.38155c0.03825,-0.17575 0.07651,-0.35152 0.11476,-0.52725l42.14811,9.17253c-0.29014,1.22006 -0.59511,2.43659 -0.92238,3.65194c-0.65472,2.43151 -1.30942,4.863 -1.96416,7.2945c-0.07999,0.29708 -0.16065,0.59363 -0.24213,0.88974z" fill="#00fbfb" stroke="#00fbfb" stroke-width="0.5"/><path d="M292.85522,-42.8622l3.74552,-11.64314l25.68346,8.26214c-0.05512,0.17122 -0.11019,0.34241 -0.16525,0.51368c-0.77112,2.39712 -1.54226,4.79427 -2.31342,7.1914c-0.42225,1.31269 -0.84459,2.62542 -1.26685,3.93811z" fill="#00fbfb" stroke="#00fbfb" stroke-width="0.5"/><path d="M355.94083,6.98379l0.57742,-46.0417c0,0 12.33896,-2.0038 18.2519,-1.92963c6.0728,0.07615 17.71815,2.38074 17.71815,2.38074l-0.57741,46.0417zM376.41467,-14.34478c0.09934,0.00125 0.18085,-0.07824 0.18213,-0.1776c0.00124,-0.09933 -0.07825,-0.18085 -0.1776,-0.18213c-0.09934,-0.00125 -0.18084,0.07824 -0.18213,0.1776c-0.00124,0.09933 0.07825,0.18084 0.1776,0.18213z" fill="#00fbfb" stroke="#00fbfb" stroke-width="0.5"/><g stroke-width="3"><path d="M358.44672,-52.56646c-0.74529,-9.68516 6.02497,-18.104 15.12179,-18.80402c9.0968,-0.7 17.07542,6.58394 17.82071,16.2691c0.74529,9.68516 -5.84842,20.39851 -14.94523,21.09852c-9.0968,0.7 -17.25198,-8.87844 -17.99727,-18.5636z" fill="#00fbfb" stroke="#00fbfb"/><path d="M358.35851,-51.57047c-0.1671,-2.1714 0.62328,-6.97224 0.62328,-6.97224c0,0 10.55403,-6.62596 15.77766,-7.02793c4.9148,-0.3782 14.69412,4.68307 14.69412,4.68307c0,0 1.65885,4.33182 1.83478,6.61822c0.15295,1.98742 0.54899,5.22689 -0.83845,6.32934c-0.86042,0.6837 -6.94046,-3.93469 -13.5236,-3.20681c-6.20879,0.68649 -12.86509,6.76761 -16.01212,5.90334c-1.1248,-0.3089 -2.53128,-6.01002 -2.55568,-6.327z" fill="#009191" stroke="#009191"/></g><path d="M183.46631,-40.13384c0.42073,2.30012 0.8414,4.60019 1.26213,6.90025c0.31286,1.71029 0.62569,3.42063 0.93851,5.13096l-44.08762,8.0644c-0.03816,-0.29882 -0.07715,-0.5978 -0.11686,-0.89698c-0.33187,-2.49611 -0.66372,-4.99227 -0.99558,-7.48843c-0.16666,-1.25344 -0.35438,-2.49942 -0.55732,-3.74291z" fill="#03a900" stroke="#03a900" stroke-width="0.5"/><path d="M72.16521,-30.3495c0.29323,-1.34743 0.58649,-2.69488 0.8797,-4.04227c0.53547,-2.46051 1.0709,-4.92102 1.60641,-7.38155c0.03825,-0.17575 0.07652,-0.35152 0.11476,-0.52725l42.14812,9.17254c-0.29014,1.22006 -0.59511,2.43659 -0.92238,3.65194c-0.65471,2.43151 -1.30942,4.863 -1.96416,7.2945c-0.07999,0.29708 -0.16065,0.59363 -0.24213,0.88974z" fill="#03a900" stroke="#03a900" stroke-width="0.5"/><path d="M46.14537,-39.35002l3.74552,-11.64315l25.68346,8.26214c-0.05512,0.17122 -0.11019,0.34241 -0.16525,0.51368c-0.77112,2.39712 -1.54227,4.79428 -2.31342,7.1914c-0.42225,1.31269 -0.84459,2.62542 -1.26684,3.93811z" fill="#03a900" stroke="#03a900" stroke-width="0.5"/><path d="M109.23098,10.49593l0.57742,-46.04169c0,0 12.33896,-2.0038 18.2519,-1.92963c6.07279,0.07615 17.71815,2.38074 17.71815,2.38074l-0.57741,46.0417zM129.70482,-10.83263c0.09934,0.00125 0.18085,-0.07824 0.18213,-0.1776c0.00124,-0.09933 -0.07825,-0.18085 -0.1776,-0.18213c-0.09934,-0.00125 -0.18084,0.07824 -0.18213,0.1776c-0.00124,0.09933 0.07825,0.18084 0.1776,0.18213z" fill="#03a900" stroke="#03a900" stroke-width="0.5"/><g stroke-width="3"><path d="M111.73687,-49.05429c-0.74529,-9.68516 6.02497,-18.10401 15.12179,-18.80402c9.09681,-0.7 17.07541,6.58394 17.8207,16.2691c0.74529,9.68516 -5.84842,20.39851 -14.94522,21.09852c-9.09681,0.7 -17.25197,-8.87844 -17.99728,-18.5636z" fill="#03a900" stroke="#03a900"/><path d="M111.64866,-48.0583c-0.16709,-2.1714 0.62328,-6.97224 0.62328,-6.97224c0,0 10.5021,-5.49481 15.78067,-5.901c4.84073,-0.37251 14.69112,3.55615 14.69112,3.55615c0,0 1.65885,4.33182 1.83478,6.61822c0.15295,1.98742 0.54899,5.22689 -0.83845,6.32934c-0.83903,0.66669 -7.02686,-3.99238 -13.41901,-3.26192c-6.34548,0.72513 -12.88669,6.8455 -16.1167,5.95844c-1.12481,-0.3089 -2.53128,-6.01002 -2.55568,-6.32699z" fill="#026400" stroke="#026400"/></g><path d="M170.87989,111.82994c-1.40711,0.42213 -2.51077,0.28072 -3.36441,-0.11708c-1.68199,0.46243 -3.5688,0.97268 -5.11647,0.92495c-0.85963,1.2504 -2.3002,2.07031 -3.93228,2.07031c-2.6336,0 -4.76854,-2.13494 -4.76854,-4.76854c0,-0.35427 0.03863,-0.6995 0.11192,-1.03173l0.64996,-3.24979c0.31228,-1.53705 0.3691,-3.34672 0.45028,-5.17366c-0.17464,0.23343 -0.3654,0.45295 -0.58101,0.65122l-0.80609,1.88089c-0.7047,1.75329 -2.42093,2.99113 -4.42627,2.99113c-2.6336,0 -4.76854,-2.13494 -4.76854,-4.76854c0,-0.39106 0.04708,-0.77113 0.13587,-1.13484l0.63202,-2.8441c0.71106,-3.88707 1.69962,-7.63984 2.8249,-11.40453c-2.23244,-0.39729 -3.92742,-2.34801 -3.92742,-4.6946c0,-0.56633 0.09872,-1.1096 0.27991,-1.61354l0.67106,-2.01319c-0.17488,0.01944 -0.35261,0.02941 -0.53268,0.02941c-2.6336,0 -4.76854,-2.13494 -4.76854,-4.76854c0,-0.47256 0.06875,-0.92906 0.19676,-1.36006l0.97516,-3.5756l0.02097,0.00572l-0.0048,-0.0636c0.29938,-0.99795 0.57408,-2.00327 0.84842,-3.00866c-2.2899,-0.3489 -4.04433,-2.32651 -4.04433,-4.71391c0,-0.43626 0.05859,-0.85883 0.16831,-1.26028l0.18019,-0.72078c-2.28263,-0.35517 -4.02948,-2.32939 -4.02948,-4.71161c0,-0.80091 0.19746,-1.55571 0.54633,-2.21836l0.70433,-1.40867l-0.05903,0.02214c-0.54924,0.22074 -1.14907,0.3422 -1.77725,0.3422c-2.6336,0 -4.76854,-2.13494 -4.76854,-4.76854c0,-1.0537 0.34176,-2.02756 0.92047,-2.81681l1.63138,-2.28394c0.73825,-1.05259 1.30977,-1.90714 1.87953,-2.70897c-1.84918,0.33059 -3.57831,0.61483 -3.86874,0.52763c-0.31346,-0.09412 -0.61885,-0.20625 -0.91759,-0.33325l-0.04867,0.19468l-2.5803,-0.64508c-2.12353,-0.4819 -3.70877,-2.38101 -3.70877,-4.65036c0,-1.48533 0.67911,-2.81205 1.74377,-3.6866l1.97983,-1.64985l0.04418,0.05302l0.09435,-0.16415c0.13127,-0.09382 0.25658,-0.18362 0.37657,-0.26977c-0.57937,-0.09322 -1.16275,-0.18065 -1.75158,-0.26135c-1.59143,-0.21809 -3.41894,0.07918 -4.74816,-0.8227c-0.16179,-0.10978 -0.31941,-0.22435 -0.4733,-0.34323l-0.06431,0.15005l-2.24142,-0.96061c-1.75329,-0.7047 -2.99113,-2.42093 -2.99113,-4.42627c0,-0.95709 0.28197,-1.84833 0.76736,-2.59517c-0.33944,0.00112 -0.67889,0.00176 -1.01834,0.00176c0,0 -4.76854,0 -4.76854,-4.76854c0,-4.76854 4.76854,-4.76854 4.76854,-4.76854c8.14322,0 16.2645,-0.30466 24.35049,0.70608l2.61431,0.32679c2.38479,0.26304 4.23983,2.28467 4.23983,4.73956c0,1.7347 -0.92628,3.25308 -2.31123,4.08747l-2.60707,1.62941l-0.05797,-0.09274c-0.08808,0.08816 -0.1775,0.17514 -0.26835,0.26082l0.67014,0.08377c2.38479,0.26304 4.23983,2.28467 4.23983,4.73957c0,1.12458 -0.38929,2.15825 -1.04047,2.97358c1.78549,0.21951 3.5156,0.57434 4.1025,2.03892c1.12415,2.80527 -0.46124,5.94908 -2.64285,8.88274c1.94288,1.54469 2.64768,3.28181 2.66374,5.08386c0.56595,0.05367 1.10316,0.22313 1.59541,0.55254c2.64027,1.76684 2.53693,4.75158 1.60694,7.69859c2.73391,2.28934 2.78877,5.9561 2.0132,9.61882c5.90761,1.47261 5.22325,7.21854 3.71986,12.03687c0.88345,0.74276 1.49353,1.80023 1.6575,2.99973l0.65801,4.27705l-0.18507,0.02848c0.08967,0.31869 0.16795,0.64093 0.23284,0.96733c0.10587,0.53258 0.05778,1.06247 -0.06951,1.59043c0.29451,-0.00354 0.59281,0.0428 0.89531,0.14904c3.28857,1.15501 4.72003,5.37797 5.8253,8.68359c0.69854,2.08915 -0.36646,4.37735 -0.61696,6.57897c0.40092,0.30308 0.7805,0.66316 1.14119,1.05774c0.71672,-0.43079 1.55598,-0.67854 2.45311,-0.67854c2.19468,0 4.04307,1.48263 4.59822,3.50093l0.97312,3.24373c0,0 1.37023,4.56744 -3.19721,5.93766z" fill="#03a900" stroke="none" stroke-width="0.5"/><path d="M237.69288,105.73402c-0.8626,-1.09318 -1.58839,-2.24511 -1.88173,-3.58271c-0.47579,-2.16961 -0.32254,-3.21272 0.11838,-3.56263c-0.92794,-1.97586 -2.2594,-4.05576 -1.39061,-5.88964c1.14335,-2.41342 2.12668,-3.96049 2.95819,-4.87263c-0.43555,-1.22985 -0.64983,-2.45401 -0.21185,-3.62286c0.25926,-0.6919 0.83295,-1.18024 1.55092,-1.50756c-1.18949,-1.87009 -1.90596,-3.66188 -0.40931,-4.95065c-1.01977,-0.72325 -1.94362,-1.68969 -2.2584,-2.8551c-0.55749,-2.06392 -0.95585,-4.44311 -0.36166,-6.48894c-0.50079,-0.75458 -0.7925,-1.65995 -0.7925,-2.63345c0,-1.80099 0.99842,-3.3688 2.47197,-4.18009c-0.52961,-1.69183 -0.85037,-3.42817 -0.40766,-5.07321c0.0505,-0.18762 0.11883,-0.36823 0.2028,-0.54178c-1.46603,-0.87939 -2.78119,-1.8772 -2.90875,-3.41245c-0.1095,-1.31796 0.63389,-2.42569 1.62298,-3.44713c-1.38973,-0.83328 -2.31988,-2.35435 -2.31988,-4.09267c0,-1.48533 0.67912,-2.81205 1.74378,-3.6866l0.51901,-0.43251c-1.54204,-0.78994 -2.59741,-2.39509 -2.59741,-4.24674c0,-1.7347 0.92628,-3.25308 2.31123,-4.08746l2.07066,-1.29416c-1.92847,-2.24129 -3.36181,-4.99213 -3.3538,-5.13708c0.0369,-0.6672 0.28498,-1.24803 0.66917,-1.76904c-1.77689,-0.69334 -3.0358,-2.42163 -3.0358,-4.44397c0,-0.51674 0.08219,-1.01427 0.23422,-1.48026c-0.8975,-0.81091 -1.48508,-1.95839 -1.56373,-3.24344c-2.11409,-0.4888 -3.69001,-2.3834 -3.69001,-4.64605c0,-0.67572 0.14055,-1.31862 0.394,-1.90104c-1.37013,-0.46198 -3.07108,-1.60901 -3.07108,-4.457c0,-4.76854 4.76854,-4.76854 4.76854,-4.76854c7.57714,0 15.28148,-1.0596 22.79346,-1.99859l0.2963,0.14623v-0.15543h2.67707v0c2.6336,0 4.76854,2.13494 4.76854,4.76854c0,1.26212 -0.49034,2.40971 -1.2909,3.26268h0.53797v0c2.6336,0 4.76854,2.13494 4.76854,4.76854c0,2.45488 -1.85505,4.47651 -4.23983,4.73957l-2.6143,0.32678l-0.01293,-0.10338c-0.09327,0.04503 -0.18734,0.08872 -0.28224,0.131c-0.06945,0.03094 -0.14125,0.05895 -0.21524,0.08426c-0.06212,1.89977 -1.23548,3.51847 -2.89109,4.22712l-1.56318,0.71053c0.35599,2.34704 -0.61678,4.57069 -2.2,6.21064c1.19289,0.71943 2.14899,1.58616 2.22057,2.84976c0.12058,2.12875 -0.49572,3.73981 -1.50834,5.02043c1.54252,0.78978 2.59829,2.39518 2.59829,4.24719c0,1.48533 -0.67912,2.81206 -1.74378,3.68661l-1.81471,1.51226c0.87845,2.24247 -0.05032,4.93758 -1.12109,7.25268c1.3756,1.21539 2.6057,2.58272 2.67177,4.28017c0.07535,1.93609 -1.66912,3.42912 -3.22845,4.80844c0.93576,0.8718 1.75027,1.88269 1.55038,3.0067c-0.105,0.59045 -0.32,1.13445 -0.60795,1.64765c0.79537,0.85199 1.28212,1.99581 1.28212,3.25331c0,1.80551 -1.00344,3.37666 -2.48305,4.18618l-0.59401,0.33943c1.05556,1.22034 2.14311,2.45445 2.40429,3.99189c0.19852,1.16866 -1.6369,1.80462 -2.02115,2.92602c-0.10965,0.31999 0.79561,-0.24656 1.0147,0.01115c1.21013,1.42344 3.24343,2.8723 3.01286,4.72634c-0.20358,1.637 -1.08299,3.14327 -2.2151,4.44677c1.01079,2.94096 0.08858,7.69559 -0.534,8.4969c-0.50178,0.64584 -1.17367,1.14202 -1.93511,1.51084c0.17592,0.76945 0.31972,1.56854 0.43557,2.32199c1.88888,0.63427 3.24963,2.41898 3.24963,4.52154c0,2.6336 -2.13494,4.76854 -4.76854,4.76854h-3.01171c0,0 -4.67158,0 -4.76705,-4.62386z" fill="#af0000" stroke="none" stroke-width="0.5"/><path d="M314.74987,117.23282c-0.93519,-4.67594 3.74074,-5.61112 3.74074,-5.61112l3.81166,-0.73866c0.98709,0.00176 1.97985,0.11104 2.96126,0.00526c0.81174,-0.08749 2.55676,-0.64378 3.94589,-0.91734c-0.09899,-0.21853 -0.20885,-0.42906 -0.35463,-0.61043c-3.23448,-4.02434 -11.84951,-4.72771 -7.06618,-13.06714c0.63282,-1.10329 1.80036,-1.6695 3.08356,-2.0894l-1.00262,-0.66841c-1.31469,-0.84905 -2.18496,-2.32725 -2.18496,-4.00869c0,-2.4752 1.88586,-4.50993 4.29912,-4.74573l2.83055,-0.3145c0.4495,-0.08288 0.89717,-0.17842 1.34519,-0.27156c-0.04279,-0.04796 -0.08513,-0.09635 -0.12703,-0.14518l-0.02672,0.03054l-2.65679,-2.32468c-1.00987,-0.87437 -1.64872,-2.16581 -1.64872,-3.60645c0,-2.37981 1.74332,-4.35246 4.02257,-4.71053l-1.95663,-1.95663c-0.86293,-0.86293 -1.39668,-2.05508 -1.39668,-3.37187c0,-2.45488 1.85505,-4.47651 4.23984,-4.73957l2.54156,-0.3177c0.3497,-0.05863 1.96997,-0.33478 3.71235,-0.62015c-1.27757,-1.82198 -2.39872,-3.7471 -1.82861,-5.68976c0.96039,-3.2726 8.82046,-3.93876 11.9771,-4.62739c0.22945,-0.05005 0.56114,-0.16623 0.93721,-0.29451c-1.31322,-1.84629 -2.45902,-3.81437 -1.87139,-5.78638c0.65894,-2.2113 3.38245,-3.15424 6.18616,-3.59571c-0.08331,-0.35299 -0.1274,-0.72113 -0.1274,-1.09957c0,-1.39164 0.59613,-2.64404 1.54696,-3.51578c-0.75396,-0.84339 -1.21232,-1.95663 -1.21232,-3.17691c0,-2.31085 1.64374,-4.23777 3.82578,-4.67536l2.67081,-0.59352c-0.71231,-0.83321 -1.14245,-1.91486 -1.14245,-3.09698c0,-0.56551 0.09843,-1.10803 0.27912,-1.61135c-1.73477,-0.71335 -2.95619,-2.42007 -2.95619,-4.41206c0,-2.31085 1.64374,-4.23778 3.82578,-4.67537l0.97863,-0.21748c-1.37995,-0.44856 -3.13124,-1.58709 -3.13124,-4.47692c0,-4.76854 4.76854,-4.76854 4.76854,-4.76854c6.75311,0 13.55286,-0.29753 20.27644,0.36452l0.05433,0.03988l0.00412,-0.03293l2.61431,0.32678c1.65598,0.18266 3.05653,1.21328 3.7579,2.64809h1.06754v0c2.6336,0 4.76854,2.13494 4.76854,4.76854c0,2.41246 -1.79146,4.40649 -4.11664,4.72435l-4.1282,0.63511c-1.0304,0.58756 -2.20407,0.80162 -3.4032,0.94677c0.98869,0.60662 1.73922,1.5636 2.07875,2.6981l1.89098,0.34382c2.26686,0.36862 3.99733,2.33547 3.99733,4.7065c0,1.48533 -0.67911,2.81206 -1.74377,3.68661l-1.97983,1.64985l-0.16979,-0.20373c-0.22639,0.2761 -0.4666,0.54105 -0.72395,0.79223c-1.03849,1.01355 -5.67683,1.24839 -7.15757,1.47044c-0.72571,0.10882 -1.45021,0.22516 -2.17382,0.34686c0.15794,0.26208 0.26924,0.53267 0.32619,0.81163c1.31391,6.4353 -2.98187,8.34649 -7.84355,8.85445c-0.94109,1.7576 -2.7167,3.32506 -4.21022,4.5673c-0.14755,0.12273 -2.2534,0.58608 -4.52658,0.98034c0.01011,0.10042 0.0144,0.20202 0.0125,0.30472c-0.14852,8.00713 -5.57991,8.27981 -10.86454,9.80019c-0.02407,0.00693 -0.13403,0.03679 -0.3079,0.08271c1.26134,2.46437 1.83511,5.47133 1.43009,6.34882c-1.06082,2.29831 -5.33246,3.31559 -9.36321,3.8959c1.54778,2.54246 2.7754,5.46286 2.63154,5.98661c-0.4516,1.64414 -1.45742,2.69041 -2.71581,3.37348c1.25475,1.72008 2.1894,3.38899 2.18339,3.78202c-0.0686,4.48097 -2.24199,6.48025 -5.10203,7.52777c0.63726,0.72201 1.0895,1.51202 1.08025,2.4369c-0.03634,3.637 -2.09285,5.79318 -4.70558,6.87452c0.57457,0.44925 1.11859,0.93219 1.57057,1.49821c2.03727,2.55135 4.97922,7.77661 3.45343,11.30271c-2.30055,5.31658 -11.47326,5.90598 -16.30969,5.9143l-2.88104,0.59987c0,0 -4.67594,0.93519 -5.61112,-3.74075z" fill="#00fbfb" stroke="none" stroke-width="0.5"/><path d="M350.56941,71.48228c0,-1.10888 0.89892,-2.00781 2.00781,-2.00781c1.10888,0 2.00781,0.89892 2.00781,2.00781c0,1.10888 -0.89892,2.00781 -2.00781,2.00781c-1.10888,0 -2.00781,-0.89892 -2.00781,-2.00781z" fill="#00fbfb" stroke="none" stroke-width="0.5"/><path d="M293.28967,11.18782c0,-1.10888 0.89892,-2.00781 2.00781,-2.00781c1.10888,0 2.00781,0.89892 2.00781,2.00781c0,1.10888 -0.89892,2.00781 -2.00781,2.00781c-1.10888,0 -2.00781,-0.89892 -2.00781,-2.00781z" fill="#00fbfb" stroke="none" stroke-width="0.5"/><path d="M323.4369,24.75407c0,-1.10888 0.89892,-2.00781 2.00781,-2.00781c1.10888,0 2.00781,0.89892 2.00781,2.00781c0,1.10888 -0.89892,2.00781 -2.00781,2.00781c-1.10888,0 -2.00781,-0.89892 -2.00781,-2.00781z" fill="#00fbfb" stroke="none" stroke-width="0.5"/><path d="M306.85592,72.98964c0,-1.10888 0.89892,-2.00781 2.00781,-2.00781c1.10888,0 2.00781,0.89892 2.00781,2.00781c0,1.10888 -0.89892,2.00781 -2.00781,2.00781c-1.10888,0 -2.00781,-0.89892 -2.00781,-2.00781z" fill="#00fbfb" stroke="none" stroke-width="0.5"/><path d="M386.74608,59.42338c0,-1.10888 0.89892,-2.00781 2.00781,-2.00781c1.10888,0 2.00781,0.89892 2.00781,2.00781c0,1.10888 -0.89892,2.00781 -2.00781,2.00781c-1.10888,0 -2.00781,-0.89892 -2.00781,-2.00781z" fill="#00fbfb" stroke="none" stroke-width="0.5"/><path d="M397.29761,3.65101c0,-1.10888 0.89892,-2.00781 2.00781,-2.00781c1.10888,0 2.00781,0.89892 2.00781,2.00781c0,1.10888 -0.89892,2.00781 -2.00781,2.00781c-1.10888,0 -2.00781,-0.89892 -2.00781,-2.00781z" fill="#00fbfb" stroke="none" stroke-width="0.5"/><path d="M397.29761,69.97491c0,-1.10888 0.89892,-2.00781 2.00781,-2.00781c1.10888,0 2.00781,0.89892 2.00781,2.00781c0,1.10888 -0.89892,2.00781 -2.00781,2.00781c-1.10888,0 -2.00781,-0.89892 -2.00781,-2.00781z" fill="#00fbfb" stroke="none" stroke-width="0.5"/><path d="M362.6283,76.00436c0,-1.10888 0.89892,-2.00781 2.00781,-2.00781c1.10888,0 2.00781,0.89892 2.00781,2.00781c0,1.10888 -0.89892,2.00781 -2.00781,2.00781c-1.10888,0 -2.00781,-0.89892 -2.00781,-2.00781z" fill="#00fbfb" stroke="none" stroke-width="0.5"/><path d="M344.53996,29.27615c0,-1.10888 0.89892,-2.00781 2.00781,-2.00781c1.10888,0 2.00781,0.89892 2.00781,2.00781c0,1.10888 -0.89892,2.00781 -2.00781,2.00781c-1.10888,0 -2.00781,-0.89892 -2.00781,-2.00781z" fill="#00fbfb" stroke="none" stroke-width="0.5"/><path d="M314.39273,3.65101c0,-1.10888 0.89892,-2.00781 2.00781,-2.00781c1.10888,0 2.00781,0.89892 2.00781,2.00781c0,1.10888 -0.89892,2.00781 -2.00781,2.00781c-1.10888,0 -2.00781,-0.89892 -2.00781,-2.00781z" fill="#00fbfb" stroke="none" stroke-width="0.5"/><path d="M311.37801,35.3056c0,-1.10888 0.89892,-2.00781 2.00781,-2.00781c1.10888,0 2.00781,0.89892 2.00781,2.00781c0,1.10888 -0.89892,2.00781 -2.00781,2.00781c-1.10888,0 -2.00781,-0.89892 -2.00781,-2.00781z" fill="#00fbfb" stroke="none" stroke-width="0.5"/><path d="M223.95104,44.34977c0,-1.10888 0.89892,-2.00781 2.00781,-2.00781c1.10888,0 2.00781,0.89892 2.00781,2.00781c0,1.10888 -0.89892,2.00781 -2.00781,2.00781c-1.10888,0 -2.00781,-0.89892 -2.00781,-2.00781z" fill="#af0000" stroke="none" stroke-width="0.5"/><path d="M211.89215,44.34977c0,-1.10888 0.89892,-2.00781 2.00781,-2.00781c1.10888,0 2.00781,0.89892 2.00781,2.00781c0,1.10888 -0.89892,2.00781 -2.00781,2.00781c-1.10888,0 -2.00781,-0.89892 -2.00781,-2.00781z" fill="#af0000" stroke="none" stroke-width="0.5"/><path d="M196.81854,21.73935c0,-1.10888 0.89892,-2.00781 2.00781,-2.00781c1.10888,0 2.00781,0.89892 2.00781,2.00781c0,1.10888 -0.89892,2.00781 -2.00781,2.00781c-1.10888,0 -2.00781,-0.89892 -2.00781,-2.00781z" fill="#af0000" stroke="none" stroke-width="0.5"/><path d="M198.3259,80.52645c0,-1.10888 0.89892,-2.00781 2.00781,-2.00781c1.10888,0 2.00781,0.89892 2.00781,2.00781c0,1.10888 -0.89892,2.00781 -2.00781,2.00781c-1.10888,0 -2.00781,-0.89892 -2.00781,-2.00781z" fill="#af0000" stroke="none" stroke-width="0.5"/><path d="M263.14244,47.36449c0,-1.10888 0.89892,-2.00781 2.00781,-2.00781c1.10888,0 2.00781,0.89892 2.00781,2.00781c0,1.10888 -0.89892,2.00781 -2.00781,2.00781c-1.10888,0 -2.00781,-0.89892 -2.00781,-2.00781z" fill="#af0000" stroke="none" stroke-width="0.5"/><path d="M296.30439,82.03381c0,-1.10888 0.89892,-2.00781 2.00781,-2.00781c1.10888,0 2.00781,0.89892 2.00781,2.00781c0,1.10888 -0.89892,2.00781 -2.00781,2.00781c-1.10888,0 -2.00781,-0.89892 -2.00781,-2.00781z" fill="#af0000" stroke="none" stroke-width="0.5"/><path d="M276.70869,83.54117c0,-1.10888 0.89892,-2.00781 2.00781,-2.00781c1.10888,0 2.00781,0.89892 2.00781,2.00781c0,1.10888 -0.89892,2.00781 -2.00781,2.00781c-1.10888,0 -2.00781,-0.89892 -2.00781,-2.00781z" fill="#af0000" stroke="none" stroke-width="0.5"/><path d="M278.21606,62.43811c0,-1.10888 0.89892,-2.00781 2.00781,-2.00781c1.10888,0 2.00781,0.89892 2.00781,2.00781c0,1.10888 -0.89892,2.00781 -2.00781,2.00781c-1.10888,0 -2.00781,-0.89892 -2.00781,-2.00781z" fill="#af0000" stroke="none" stroke-width="0.5"/><path d="M300.82648,12.69518c0,-1.10888 0.89892,-2.00781 2.00781,-2.00781c1.10888,0 2.00781,0.89892 2.00781,2.00781c0,1.10888 -0.89892,2.00781 -2.00781,2.00781c-1.10888,0 -2.00781,-0.89892 -2.00781,-2.00781z" fill="#af0000" stroke="none" stroke-width="0.5"/><path d="M272.18661,-2.37844c0,-1.10888 0.89892,-2.00781 2.00781,-2.00781c1.10888,0 2.00781,0.89892 2.00781,2.00781c0,1.10888 -0.89892,2.00781 -2.00781,2.00781c-1.10888,0 -2.00781,-0.89892 -2.00781,-2.00781z" fill="#af0000" stroke="none" stroke-width="0.5"/><path d="M174.20811,2.14365c0,-1.10888 0.89892,-2.00781 2.00781,-2.00781c1.10888,0 2.00781,0.89892 2.00781,2.00781c0,1.10888 -0.89892,2.00781 -2.00781,2.00781c-1.10888,0 -2.00781,-0.89892 -2.00781,-2.00781z" fill="#af0000" stroke="none" stroke-width="0.5"/><path d="M85.27378,71.48228c0,-1.10888 0.89892,-2.00781 2.00781,-2.00781c1.10888,0 2.00781,0.89892 2.00781,2.00781c0,1.10888 -0.89892,2.00781 -2.00781,2.00781c-1.10888,0 -2.00781,-0.89892 -2.00781,-2.00781z" fill="#03a900" stroke="none" stroke-width="0.5"/><path d="M58.14128,72.98964c0,-1.10888 0.89892,-2.00781 2.00781,-2.00781c1.10888,0 2.00781,0.89892 2.00781,2.00781c0,1.10888 -0.89892,2.00781 -2.00781,2.00781c-1.10888,0 -2.00781,-0.89892 -2.00781,-2.00781z" fill="#03a900" stroke="none" stroke-width="0.5"/><path d="M73.21489,12.69518c0,-1.10888 0.89892,-2.00781 2.00781,-2.00781c1.10888,0 2.00781,0.89892 2.00781,2.00781c0,1.10888 -0.89892,2.00781 -2.00781,2.00781c-1.10888,0 -2.00781,-0.89892 -2.00781,-2.00781z" fill="#03a900" stroke="none" stroke-width="0.5"/><path d="M92.81059,54.9013c0,-1.10888 0.89892,-2.00781 2.00781,-2.00781c1.10888,0 2.00781,0.89892 2.00781,2.00781c0,1.10888 -0.89892,2.00781 -2.00781,2.00781c-1.10888,0 -2.00781,-0.89892 -2.00781,-2.00781z" fill="#03a900" stroke="none" stroke-width="0.5"/><path d="M91.30323,79.01908c0,-1.10888 0.89892,-2.00781 2.00781,-2.00781c1.10888,0 2.00781,0.89892 2.00781,2.00781c0,1.10888 -0.89892,2.00781 -2.00781,2.00781c-1.10888,0 -2.00781,-0.89892 -2.00781,-2.00781z" fill="#03a900" stroke="none" stroke-width="0.5"/><path d="M122.95782,79.01908c0,-1.10888 0.89892,-2.00781 2.00781,-2.00781c1.10888,0 2.00781,0.89892 2.00781,2.00781c0,1.10888 -0.89892,2.00781 -2.00781,2.00781c-1.10888,0 -2.00781,-0.89892 -2.00781,-2.00781z" fill="#03a900" stroke="none" stroke-width="0.5"/><path d="M113.91365,115.19576c0,-1.10888 0.89892,-2.00781 2.00781,-2.00781c1.10888,0 2.00781,0.89892 2.00781,2.00781c0,1.10888 -0.89892,2.00781 -2.00781,2.00781c-1.10888,0 -2.00781,-0.89892 -2.00781,-2.00781z" fill="#03a900" stroke="none" stroke-width="0.5"/><path d="M178.7302,35.3056c0,-1.10888 0.89892,-2.00781 2.00781,-2.00781c1.10888,0 2.00781,0.89892 2.00781,2.00781c0,1.10888 -0.89892,2.00781 -2.00781,2.00781c-1.10888,0 -2.00781,-0.89892 -2.00781,-2.00781z" fill="#03a900" stroke="none" stroke-width="0.5"/><path d="M217.9216,95.60006c0,-1.10888 0.89892,-2.00781 2.00781,-2.00781c1.10888,0 2.00781,0.89892 2.00781,2.00781c0,1.10888 -0.89892,2.00781 -2.00781,2.00781c-1.10888,0 -2.00781,-0.89892 -2.00781,-2.00781z" fill="#03a900" stroke="none" stroke-width="0.5"/><text transform="translate(180.896,99.97731) scale(4.30332,4.30332)" font-size="40" xml:space="preserve" fill="#c30000" fill-rule="nonzero" stroke="none" stroke-width="1" stroke-linecap="butt" stroke-linejoin="miter" stroke-miterlimit="10" stroke-dasharray="" stroke-dashoffset="0" font-family="Serif" font-weight="normal" text-anchor="start" style="mix-blend-mode: normal"><tspan x="0" dy="0">V</tspan></text></g></g></svg>