<svg version="1.1" xmlns="http://www.w3.org/2000/svg" xmlns:xlink="http://www.w3.org/1999/xlink" width="510" height="405.88315" viewBox="0,0,510,405.88315"><g transform="translate(12,9.63315)"><g data-paper-data="{&quot;isPaintingLayer&quot;:true}" fill-rule="nonzero" stroke-width="2" stroke-linejoin="miter" stroke-miterlimit="10" stroke-dasharray="" stroke-dashoffset="0" style="mix-blend-mode: normal"><path d="M-11,395.25v-85h508v85z" fill="#1b0000" stroke="#000000" stroke-linecap="butt"/><path d="M-9.5,312.36685v-321h115v321z" fill="#1b0000" stroke="#000000" stroke-linecap="butt"/><path d="M78.5,309.36685v-317.43343h416v317.43343z" fill="#1b0000" stroke="#000000" stroke-linecap="butt"/><path d="M192.5,257.83334l-2,89l-15.66666,0.33333l2,-64l-14,-0.66666l-1.33334,65l-23,-0.33334l0.66666,-88.33333z" fill="#575757" stroke="#575757" stroke-linecap="round"/><path d="M171.16667,178.83334l0.66667,5.66666l2.66666,2l11.66666,0.33334l4.66667,20.00001l2.33333,51l-55.33333,0.33333l-0.33334,-51.66666l-42.66666,12l-5,-18.66666l54.66666,-14h10.33334l5.66666,-1.66667l0.66666,-5.66666" fill="#000000" stroke="#000000" stroke-linecap="round"/><path d="M249.05,200.8c-5.85422,0 -10.6,-4.16375 -10.6,-9.3c0,-5.13625 4.74578,-9.3 10.6,-9.3c5.85422,0 10.6,4.16375 10.6,9.3c0,5.13625 -4.74578,9.3 -10.6,9.3z" fill="#575757" stroke="#000000" stroke-linecap="butt"/><path d="M83.1,220.5c-4.74965,0 -8.6,-4.11898 -8.6,-9.2c0,-5.08102 3.85035,-9.2 8.6,-9.2c4.74965,0 8.6,4.11898 8.6,9.2c0,5.08102 -3.85035,9.2 -8.6,9.2z" fill="#575757" stroke="#000000" stroke-linecap="butt"/><path d="M143.1,177.9v-38.8h46.8v38.8z" fill="#ffea00" stroke="#000000" stroke-linecap="butt"/><path d="M160.025,139.25v20.25l-16.5,5l0.5,-23.75" fill="#ffffff" stroke="#d5f100" stroke-linecap="round"/><path d="M189.775,139.75l0.5,23.75l-16.5,-5v-20.25" data-paper-data="{&quot;index&quot;:null}" fill="#ffffff" stroke="#d5f100" stroke-linecap="round"/><path d="M187.025,186.25l50.75,1.75c0,0 -1.08156,3.62373 0.25,6.75c1.33156,3.12627 7.25,6 7.25,6l-55.25,5.75" fill="#000000" stroke="#000000" stroke-linecap="round"/></g></g></svg>