<svg version="1.1" xmlns="http://www.w3.org/2000/svg" xmlns:xlink="http://www.w3.org/1999/xlink" width="783.5" height="532" viewBox="0,0,783.5,532"><g transform="translate(300,87)"><g data-paper-data="{&quot;isPaintingLayer&quot;:true}" fill-rule="nonzero" stroke-linejoin="miter" stroke-miterlimit="10" stroke-dasharray="" stroke-dashoffset="0" style="mix-blend-mode: normal"><path d="M-116,444v-107h598.5v107z" fill="#939393" stroke="#000000" stroke-width="2" stroke-linecap="butt"/><path d="M-119.5,334v-420h600v420z" fill="#00d7d3" stroke="#00d7d3" stroke-width="2" stroke-linecap="butt"/><path d="M308,136c-33.96551,0 -61.5,-26.86292 -61.5,-60c0,-33.13708 27.53449,-60 61.5,-60c33.96551,0 61.5,26.86292 61.5,60c0,33.13708 -27.53449,60 -61.5,60z" fill="#ffc944" stroke="#ffc944" stroke-width="2" stroke-linecap="butt"/><path d="M197.31131,165.21271l49.84021,-51.96107l24.53717,23.53566l-49.84021,51.96107z" fill="#ffc944" stroke="#ffc944" stroke-width="2" stroke-linecap="butt"/><path d="M156.97153,92.25658l68.3052,-22.7684l10.75175,32.25523l-68.3052,22.7684z" fill="#ffc944" stroke="#ffc944" stroke-width="2" stroke-linecap="butt"/><path d="M165.2529,4.65209l70.76487,13.27908l-6.27067,33.41674l-70.76487,-13.27908z" fill="#ffc944" stroke="#ffc944" stroke-width="2" stroke-linecap="butt"/><path d="M281.34085,215.64389l15.07153,-70.40489l33.24676,7.11711l-15.07153,70.40489z" fill="#ffc944" stroke="#ffc944" stroke-width="2" stroke-linecap="butt"/><path d="M384.107,213.41525l-39.60732,-60.12704l28.39332,-18.70346l39.60732,60.12704z" fill="#ffc944" stroke="#ffc944" stroke-width="2" stroke-linecap="butt"/><path d="M458.66525,128.77352l-70.0966,-16.44587l7.76611,-33.10117l70.0966,16.44587z" fill="#ffc944" stroke="#ffc944" stroke-width="2" stroke-linecap="butt"/><path d="M443.21911,11.28112l-62.85427,35.11895l-16.58395,-29.68118l62.85427,-35.11895z" fill="#ffc944" stroke="#ffc944" stroke-width="2" stroke-linecap="butt"/><path d="M366.80793,-77.52973l-15.403,70.33312l-33.21286,-7.27365l15.403,-70.33312z" fill="#ffc944" stroke="#ffc944" stroke-width="2" stroke-linecap="butt"/><path d="M231.97363,-67.88831l43.97455,57.01087l-26.9218,20.76576l-43.97455,-57.01087z" fill="#ffc944" stroke="#ffc944" stroke-width="2" stroke-linecap="butt"/><path d="M80.92696,318.22325l41.08933,8.75229l-1.596,5.88333l-29.4846,-6.50368l-1.87393,5.17069l30.02329,6.34455l-2.72495,8.56324l-40.92887,-8.19417z" fill="#cfcfcf" stroke="#cfcfcf" stroke-width="2" stroke-linecap="round"/><path d="M41.87206,319.08815l2.70491,0.26061l1.22637,-0.81643l1.45846,-4.3289c0,0 -1.12503,-7.7425 -1.62729,-11.19911c-0.43301,-2.97998 15.50131,-11.78222 15.50131,-11.78222l10.43605,7.87297c0,0 -15.34707,0.94745 -14.61857,4.32765c0.7965,3.69572 0.11376,10.83604 0.11376,10.83604l23.93439,3.71539l-6.02868,20.70352l-24.02035,-4.52259l0.80234,17.02038l-9.22361,0.18913l-0.38973,-21.68369l1.15473,-3.86072l-0.14041,-2.26708l-2.55591,-0.75877" fill="#cfcfcf" stroke="#cfcfcf" stroke-width="2" stroke-linecap="round"/><path d="M30.30973,312.20991c0,0 5.86628,-0.12548 8.10268,1.80719c2.23639,1.93268 4.08865,4.6872 2.74561,7.56784c-1.34304,2.88064 -4.26491,3.28992 -7.95138,3.59781c-3.68647,0.3079 -5.31763,-0.41448 -7.15883,-2.3358c-1.8412,-1.92132 -2.12558,-5.10294 -1.48997,-6.68935c0.04154,-0.10368 1.43376,-1.63875 2.85301,-2.59426c1.43595,-0.96675 2.89887,-1.35345 2.89887,-1.35345z" fill="#cfcfcf" stroke="#cfcfcf" stroke-width="2" stroke-linecap="round"/><path d="M72.72964,292.98792c-0.6542,2.18724 -3.1173,3.58585 -5.50149,3.12387c-2.38419,-0.46198 -3.78662,-2.60959 -3.13243,-4.79684c0.6542,-2.18724 3.1173,-3.58585 5.50149,-3.12387c2.38419,0.46198 3.78662,2.60959 3.13243,4.79684z" fill="#cfcfcf" stroke="#000000" stroke-width="2" stroke-linecap="butt"/><path d="M51.37196,355.73915c-0.53077,1.77456 -2.87302,2.84264 -5.23158,2.38563c-2.35855,-0.45701 -3.84027,-2.26605 -3.3095,-4.04061c0.53077,-1.77456 2.87302,-2.84264 5.23158,-2.38563c2.35855,0.45701 3.84027,2.26605 3.3095,4.04061z" fill="#cfcfcf" stroke="#cfcfcf" stroke-width="2" stroke-linecap="butt"/><path d="M38.85769,314.49865l-2.89858,10.34784c0,0 -2.38924,0.69577 -3.22721,0.71865c-1.18497,0.03235 -3.20955,-0.5429 -3.20955,-0.5429l3.55016,-12.19794c0,0 1.90661,-0.23346 2.87735,0.04748c0.95748,0.27712 2.90783,1.62687 2.90783,1.62687z" fill="#000000" stroke="#cfcfcf" stroke-width="2" stroke-linecap="round"/><text transform="translate(62.69467,327.73439) rotate(-73.34846) scale(0.19499,0.23525) skewX(6.84963)" font-size="40" xml:space="preserve" fill="#5dff00" fill-rule="nonzero" stroke="none" stroke-width="1" stroke-linecap="butt" stroke-linejoin="miter" stroke-miterlimit="10" stroke-dasharray="" stroke-dashoffset="0" font-family="Sans Serif" font-weight="normal" text-anchor="start" style="mix-blend-mode: normal"><tspan x="0" dy="0">c</tspan></text><path d="M36.65539,324.98141l2.41548,-10.04618c0,0 3.22464,3.44905 2.58744,5.798c-0.63721,2.34894 -5.00292,4.24818 -5.00292,4.24818z" fill="#29ff00" stroke="#000000" stroke-width="2" stroke-linecap="round"/><path d="M406.61338,379.56265l-41.51086,6.46407l-0.60525,-6.06584l29.86664,-4.42984l-0.09161,-5.49903l-30.31326,4.77048l-0.50537,-8.97212l41.16205,-6.92838z" fill="#cfcfcf" stroke="#cfcfcf" stroke-width="2" stroke-linecap="round"/><path d="M442.79635,364.83764l-2.62021,0.72037l-0.85494,1.19984l0.17984,4.56444c0,0 3.81015,6.83336 5.51117,9.88408c1.46647,2.63006 -10.28525,16.53254 -10.28525,16.53254l-12.55645,-3.63736c0,0 14.00201,-6.35405 12.11682,-9.25277c-2.06115,-3.1693 -3.96762,-10.08418 -3.96762,-10.08418l-23.68719,5.05731l-1.74459,-21.49273l24.05514,-4.33374l-6.81473,-15.61719l8.55074,-3.46346l8.09095,20.1214l0.2968,4.01877l0.93905,2.06823l2.6585,-0.20182" fill="#cfcfcf" stroke="#cfcfcf" stroke-width="2" stroke-linecap="round"/><path d="M456.05069,367.14423c0,0 -5.43648,2.20765 -8.21476,1.19876c-2.77828,-1.00889 -5.4905,-2.92256 -5.26211,-6.09268c0.22839,-3.17013 2.81261,-4.59372 6.14736,-6.19504c3.33475,-1.60132 5.11626,-1.50763 7.52123,-0.36852c2.40498,1.1391 3.80444,4.01053 3.77585,5.71929c-0.00187,0.11168 -0.75568,2.04209 -1.74128,3.44061c-0.9972,1.41497 -2.22629,2.29759 -2.22629,2.29759z" fill="#cfcfcf" stroke="#cfcfcf" stroke-width="2" stroke-linecap="round"/><path d="M423.26499,400.22038c-0.16815,-2.27678 1.63489,-4.46128 4.02719,-4.87922c2.3923,-0.41794 4.46796,1.08895 4.63611,3.36574c0.16815,2.27678 -1.63488,4.46128 -4.02718,4.87921c-2.3923,0.41794 -4.46796,-1.08895 -4.63612,-3.36574z" fill="#cfcfcf" stroke="#cfcfcf" stroke-width="2" stroke-linecap="butt"/><path d="M420.8598,333.97777c-0.13642,-1.8472 1.67147,-3.67981 4.03806,-4.09325c2.36658,-0.41344 4.39566,0.74885 4.53209,2.59605c0.13642,1.8472 -1.67147,3.67981 -4.03806,4.09325c-2.36658,0.41344 -4.39566,-0.74885 -4.53209,-2.59605z" fill="#cfcfcf" stroke="#cfcfcf" stroke-width="2" stroke-linecap="butt"/><path d="M447.24828,368.05172l-0.97906,-10.70145c0,0 1.98447,-1.50148 2.75928,-1.82146c1.09565,-0.45248 3.19231,-0.63643 3.19231,-0.63643l1.02952,12.66229c0,0 -1.69826,0.89755 -2.70539,0.98095c-0.99337,0.08226 -3.29666,-0.48389 -3.29666,-0.48389z" fill="#000000" stroke="#000000" stroke-width="2" stroke-linecap="round"/><text transform="translate(420.25961,364.17894) rotate(85.77663) scale(0.19499,0.23525) skewX(6.85145)" font-size="40" xml:space="preserve" fill="#5dff00" fill-rule="nonzero" stroke="none" stroke-width="1" stroke-linecap="butt" stroke-linejoin="miter" stroke-miterlimit="10" stroke-dasharray="" stroke-dashoffset="0" font-family="Sans Serif" font-weight="normal" text-anchor="start" style="mix-blend-mode: normal"><tspan x="0" dy="0">c</tspan></text><path d="M445.57057,357.47232l1.32295,10.24744c0,0 -4.24201,-2.07357 -4.48366,-4.49538c-0.24165,-2.42181 3.1607,-5.75206 3.1607,-5.75206z" fill="#cfcfcf" stroke="#000000" stroke-width="2" stroke-linecap="round"/><path d="M251.13119,394.94236l10.74674,42.63175l-10.55342,1.58494l-8.55004,-32.75694l-5.78668,-1.76125l-12.24425,33.33945l-11.56163,-5.50111c0,0 10.58646,-7.83731 11.53272,-14.30139c1.20641,-8.24119 4.11675,-28.12207 4.11675,-28.12207z" fill="#cfcfcf" stroke="#cfcfcf" stroke-width="2" stroke-linecap="round"/><path d="M247.93853,352.09733l-0.1309,2.98581l0.96712,1.30007l4.83825,1.35327c0,0 8.43913,-1.68025 12.20674,-2.43039c3.2481,-0.6467 13.83078,16.34878 13.83078,16.34878l-8.04774,11.91421c0,0 -1.9219,-16.80156 -5.5926,-15.80732c-4.01334,1.08704 -11.89488,0.7472 -11.89488,0.7472l-2.70626,26.50093l-23.08525,-5.43252l3.58788,-26.64168l-18.64771,1.85861l-0.73738,-10.11959l23.7932,-1.67323l4.30661,1.04657l2.48191,-0.2844l0.68659,-2.85077" fill="#cfcfcf" stroke="#cfcfcf" stroke-width="2" stroke-linecap="round"/><path d="M254.82906,339.00323c0,0 0.4747,6.43584 -1.51957,9.0031c-1.99427,2.56726 -4.91325,4.7598 -8.15423,3.45013c-3.24098,-1.30967 -3.85829,-4.4953 -4.40815,-8.52653c-0.54986,-4.03123 0.14986,-5.86426 2.15435,-7.9968c2.00449,-2.13255 5.48259,-2.6276 7.26147,-2.02059c0.11626,0.03967 1.88221,1.48061 3.01316,2.98454c1.14425,1.52161 1.65298,3.10617 1.65298,3.10617z" fill="#cfcfcf" stroke="#cfcfcf" stroke-width="2" stroke-linecap="round"/><path d="M278.37688,384.48997c-2.43986,-0.59292 -4.11741,-3.21788 -3.74692,-5.863c0.37048,-2.64513 2.64871,-4.30877 5.08857,-3.71586c2.43986,0.59292 4.11741,3.21787 3.74692,5.863c-0.37048,2.64513 -2.64871,4.30878 -5.08857,3.71586z" fill="#cfcfcf" stroke="#000000" stroke-width="2" stroke-linecap="butt"/><path d="M208.22961,364.63592c-1.9795,-0.48105 -3.2871,-2.99225 -2.9206,-5.60894c0.3665,-2.61669 2.26832,-4.34796 4.24782,-3.86691c1.9795,0.48105 3.2871,2.99225 2.9206,5.60894c-0.3665,2.61669 -2.26832,4.34796 -4.24782,3.86691z" fill="#cfcfcf" stroke="#000000" stroke-width="2" stroke-linecap="butt"/><path d="M252.80616,348.52304l-11.53167,-2.58934c0,0 -0.90138,-2.5842 -0.97463,-3.50323c-0.10358,-1.29961 0.41197,-3.55628 0.41197,-3.55628l13.60109,3.19874c0,0 0.36591,2.08066 0.11308,3.16297c-0.24938,1.06753 -1.61983,3.28714 -1.61983,3.28714z" fill="#000000" stroke="#000000" stroke-width="2" stroke-linecap="round"/><text transform="translate(239.63795,375.46369) rotate(13.65878) scale(0.21445,0.25873) skewX(6.84952)" font-size="40" xml:space="preserve" fill="#5dff00" fill-rule="nonzero" stroke="none" stroke-width="1" stroke-linecap="butt" stroke-linejoin="miter" stroke-miterlimit="10" stroke-dasharray="" stroke-dashoffset="0" font-family="Sans Serif" font-weight="normal" text-anchor="start" style="mix-blend-mode: normal"><tspan x="0" dy="0">c</tspan></text><path d="M241.16629,346.70618l11.1726,2.07607c0,0 -3.60298,3.73975 -6.21946,3.17478c-2.61648,-0.56497 -4.95314,-5.25085 -4.95314,-5.25085z" fill="#cfcfcf" stroke="#000000" stroke-width="2" stroke-linecap="round"/><path d="M-300,432c0,-1.38071 1.11929,-2.5 2.5,-2.5c1.38071,0 2.5,1.11929 2.5,2.5c0,1.38071 -1.11929,2.5 -2.5,2.5c-1.38071,0 -2.5,-1.11929 -2.5,-2.5z" fill="#ce0000" stroke="none" stroke-width="0.5" stroke-linecap="butt"/><path d="M36,321c0,-2.5 2.5,-2.5 2.5,-2.5l1.79057,0.12829c3.19869,1.10794 5.87362,0.74584 9.20943,0.87171c0.68356,0.02579 1.41893,0.46975 2.04329,0.1903c0.86055,-0.38516 1.09379,-1.73986 2,-2c1.58119,-0.45391 3.40594,-0.59723 4.93516,0.00913c4.91364,1.94834 2.55858,6.61552 5.78931,9.5328c0,0 0.7047,0.7047 0.7793,1.66918c0.29779,-0.32486 0.60832,-0.62377 0.93545,-0.88817c0.24149,-0.19518 0.47411,-0.345 0.69847,-0.46189l0.42907,-1.28722c0.31417,-1.02156 1.26534,-1.76412 2.38994,-1.76412c0.43434,0 0.84281,0.11076 1.1987,0.30558c0.1933,-0.72245 0.29019,-1.48628 0.67467,-2.11991c0.42351,-0.69796 1.48729,-0.89548 1.81693,-1.64238c0.48352,-1.09557 -0.06963,-2.43665 0.28159,-3.58152l-1.76246,-0.09007c0,0 -2.37171,-0.79057 -1.58114,-3.16228c0.79057,-2.37171 3.16228,-1.58114 3.16228,-1.58114l4.23754,1.90993c0.16643,1.57357 0.93606,6.67729 0.28159,8.41848c-0.37683,1.00256 -1.63601,1.43683 -2.18307,2.35762c-1.14488,1.92702 -1.82828,4.37738 -3.62663,5.68415v0.00153h-0.0021c-0.03493,0.02535 -0.07027,0.05027 -0.10605,0.07474c0.01143,0.21535 0.01226,0.43187 0.00088,0.64972c-0.06885,1.31793 -1.05688,2.41158 -2.01316,3.40639c0.07639,0.24958 0.12043,0.53734 0.12043,0.86915c0,1.57431 -0.99138,2.15724 -1.72555,2.37309c-0.11026,0.44611 -0.24067,0.91617 -0.40274,1.41748c0,0 -0.79057,2.37171 -3.16228,1.58114c-0.43437,-0.14479 -0.76267,-0.34261 -1.00918,-0.56919c-0.18949,0.64061 -0.17996,1.39543 0.10945,2.24077c0.73184,2.13769 6.56799,1.69418 7.71841,3.49493c1.81573,2.84217 0.2983,9.29934 -0.6564,12.25235l-3.25367,2.4455c0,0 -2.23607,1.11803 -3.3541,-1.11803c-1.11803,-2.23607 1.11803,-3.3541 1.11803,-3.3541l0.74633,0.4455c0.57624,-1.66365 0.72161,-3.45522 0.87171,-5.20943c0.07337,-0.85744 0.8512,-1.76575 0.47189,-2.53822c-0.25928,-0.52803 -1.19212,0.05399 -1.76246,-0.09007c-2.6091,-0.65898 -5.33511,-1.58877 -6.51913,-4.415c-0.11176,-0.26676 -0.20286,-0.54674 -0.27431,-0.83716c-0.35872,0.35872 -0.64822,0.64822 -0.64822,0.64822c-0.45241,0.45241 -1.07741,0.73223 -1.76777,0.73223c-1.38071,0 -2.5,-1.11929 -2.5,-2.5c0,-0.52532 0.16203,-1.0128 0.43883,-1.41519l1.98104,-2.97156l0.08764,0.05843c0.07004,-0.14846 0.14475,-0.29501 0.22472,-0.43945c0.58212,-1.05146 2.14865,-1.15168 3,-2c1.26305,-1.25856 2.29747,-3.06309 3.39959,-4.758c-1.31754,0.37558 -2.39959,-0.70647 -2.39959,-0.70647c-0.81214,-0.86271 -1.94452,-1.51022 -2.43642,-2.58812c-0.84983,-1.86224 0.04767,-4.94596 -1.77427,-5.87907c-1.42848,-0.7316 -2.35208,1.74705 -3.06484,2.00913c-1.2393,0.4557 -2.63677,0.15419 -3.95671,0.1903c-3.86119,0.10562 -7.10256,0.06403 -10.79057,-1.12829l-0.20943,0.12829c0,0 -2.5,0 -2.5,-2.5z" fill="#ce0000" stroke="none" stroke-width="0.5" stroke-linecap="butt"/><path d="M389.91503,403.06664c0.69249,-0.55121 1.36321,-1.24775 2.03022,-2.00668c-0.05914,-1.322 1.168,-2.1401 1.168,-2.1401c0.35012,-0.20969 0.73555,-0.37701 1.10993,-0.55759c0.58996,-0.68691 1.19248,-1.3502 1.81928,-1.93616c0.54577,-2.01461 -0.26598,-5.28705 -0.01018,-6.82658c0.06424,-0.3866 2.1846,-6.66421 2.34109,-6.91387c1.89985,-3.03084 6.46796,-5.16336 9.66833,-6.75207c-0.04752,-1.14429 -0.3356,-2.3824 0.33167,-3.24793c1.14849,-1.48974 3.26196,-1.87493 4.87181,-2.84795c1.19128,-0.72003 2.21101,-1.7867 3.53036,-2.23045c0.10013,-0.03368 0.20143,-0.05998 0.30373,-0.08016c-0.04056,-0.17706 -0.07298,-0.35355 -0.07927,-0.52711c-0.02214,-0.61148 0.18513,-4.69411 -0.33431,-5.30138c-0.50027,-0.58487 -1.56645,-0.12777 -2.26407,-0.45284c-1.08939,-0.50761 -2,-1.33333 -3,-2c-0.66585,-0.24921 -1.28726,-0.77823 -1.99756,-0.74763c-1.34227,0.05782 -2.56063,1.01712 -3.90406,1.00184c-3.39914,-0.03866 -7.56248,-2.05226 -10.79057,-3.12829l-2.94531,-0.98177c-1.02156,-0.31417 -1.76412,-1.26534 -1.76412,-2.38994c0,-0.88153 0.45626,-1.6565 1.14551,-2.10163l2.96774,-1.97849l0.01509,0.02263c0.08949,-0.06469 0.18055,-0.12751 0.27329,-0.18829c2.57918,-1.69053 6.15875,-0.88803 9.02959,-2.01423c0.91329,-0.35827 1.19172,-1.70998 2.11208,-2.04968c1.23874,-0.45722 2.63659,-0.16195 3.95671,-0.1903c6.21856,-0.13356 8.63102,2.58171 12.76777,6.73223c1.91243,1.9188 3.352,3.10299 4.51852,5.75638c1.08862,2.4762 3.52845,9.88625 1.74182,12.47316c-0.40556,0.58722 -6.53057,2.82129 -7.62765,3.00594c-0.11538,0.01942 -0.23194,0.02766 -0.34929,0.02795c-0.3955,0.34588 -0.80285,0.68634 -1.11781,1.08931c-1.6688,2.1351 -3.43218,4.40778 -5.83498,5.66082c-0.53449,0.27873 -1.076,0.54407 -1.61982,0.80494c-0.42364,1.09506 -0.81797,2.19712 -1.01084,3.34973c-0.50665,3.02781 1.31245,8.06646 -0.26353,10.77919c-0.3431,0.59058 -6.64358,4.92316 -7.47973,5.21309c-0.87206,0.30238 -1.8959,-0.38602 -2.76775,-0.08303c-0.12713,0.04418 -0.23487,0.11532 -0.3299,0.20437c-0.18224,0.34488 -0.39393,0.67987 -0.64005,1.00342c-0.13432,0.17659 -0.28263,0.33874 -0.44177,0.48972c-1.21559,1.29529 -2.5184,2.50691 -3.77723,3.76056c-1.34574,1.3402 -2.79271,2.59595 -4.26604,3.81101c0.00026,1.89404 -0.00816,4.78871 -0.0686,4.9956c-1.48915,5.09764 -5.724,8.34215 -9.47641,11.73532c-1.28045,0.04441 -5.02883,-0.23303 -6.64238,0.81693c-0.79023,0.51422 -1.17913,1.53625 -2,2c-3.12772,1.76703 -11.40496,2.72599 -13.64613,-1.22514c-0.82492,-1.4543 1.51015,-3.00993 1.93907,-4.62595c1.35677,-5.11177 -1.47899,-10.96207 2.40596,-15.79302c1.1103,-1.38066 4.51417,-3.12892 6.33418,-3.91237c6.07972,-2.61711 10.11347,-3.07014 16.65258,-3.07014c0,0 2.5,0 2.5,2.5c0,0.6584 -0.1734,1.14341 -0.42886,1.50068c0.24645,0.00477 0.46789,0.0343 0.66686,0.08352c0.23433,-0.17284 0.46057,-0.34525 0.67703,-0.51755z" fill="#ce0000" stroke="none" stroke-width="0.5" stroke-linecap="butt"/><path d="M210.5,410.5c-0.25369,0 -0.48164,-0.02574 -0.68645,-0.07201c-0.68811,0.19182 -1.42079,0.33511 -1.99922,0.69863c-0.63643,0.39998 -1.03104,1.09409 -1.54656,1.64114l-2.76777,0.73223c0,0 -2.5,0 -2.5,-2.5c0,-2.22781 1.98525,-2.47036 2.41755,-2.49677c0.54006,-0.60934 1.06958,-1.2328 1.76812,-1.62985c0.66961,-0.3806 1.81688,0.27555 2.28622,-0.33515c0.43693,-0.56852 -0.58841,-1.41943 -0.40502,-2.11261c0.41518,-1.56923 1.48765,-2.88879 2.12342,-4.38233c0.12455,-0.2926 0.23381,-0.59089 0.33187,-0.89332c0.18358,-1.0393 0.41135,-2.06928 0.75301,-3.0733c0.25163,-1.14099 0.5349,-2.2689 1.04932,-3.30842c0.43191,-0.8728 1.54793,-1.24748 2.04887,-2.08258c0.54224,-0.90393 0.44721,-2.10249 1,-3c2.92041,-4.74157 8.55309,-7.61164 12.35886,-11.45344c0,0 0.54032,-0.54032 1.32224,-0.7248c-0.08215,-0.46111 -0.29286,-2.39978 1.83919,-2.93279c2.42536,-0.60634 3.0317,1.81902 3.0317,1.81902c0.55002,2.24032 1.84039,5.88824 0.96737,8.3308c-0.57681,1.61383 -1.58687,3.13216 -2.87525,4.26231c-0.91303,0.80089 -2.3348,0.71192 -3.41911,1.25902c-2.146,1.0828 -3.85152,2.92212 -6,4c-2.26992,1.1388 -4.51622,1.62481 -5.97175,4.06854c-0.35514,0.59625 -0.63402,1.22516 -0.85894,1.87668c-0.21501,1.09242 -0.38849,2.20173 -0.75352,3.24094c-0.33847,2.15511 -0.5006,4.37327 -1.14246,6.35863l0.12829,0.20943c0,0 0,2.5 -2.5,2.5zM225.40162,383.75421c2.08475,-1.03243 2.98825,0.08831 3.70565,-2.47867c0.03845,-0.13758 0.05814,-0.30535 0.06251,-0.49584c-1.19402,1.03229 -2.55247,2.02751 -3.9119,3.04721c0.04769,-0.02462 0.0956,-0.04885 0.14374,-0.07269z" fill="#ce0000" stroke="none" stroke-width="0.5" stroke-linecap="butt"/><path d="M49.09991,354.21112l-1.50087,66.78861l-11.75679,0.25014l1.50087,-48.02776l-10.50607,-0.50028l-1.00058,48.7782l-17.25998,-0.25015l0.50028,-66.28832z" fill="#575757" stroke="#575757" stroke-width="2" stroke-linecap="round"/><path d="M33.09066,294.92685l0.50029,4.25245l2.00115,1.50087l8.75506,0.25015l3.50203,15.00868l1.75101,38.27212l-41.524,0.25014l-0.25015,-38.77241c0,0 -6.4171,5.62398 -9.90025,8.67662c-3.89227,3.41121 7.14866,13.08596 7.14866,13.08596l-14.25824,3.25188c0,0 -8.89199,-16.11696 -5.14319,-22.94063c3.6705,-6.68114 27.40605,-17.5828 27.40605,-17.5828h7.75449l4.25245,-1.25073l0.50028,-4.25245" fill="#000000" stroke="#000000" stroke-width="2" stroke-linecap="round"/><path d="M1.5224,352.4601c-3.5643,0 -6.45373,-3.09102 -6.45373,-6.90399c0,-3.81297 2.88943,-6.90399 6.45373,-6.90399c3.5643,0 6.45373,3.09102 6.45373,6.90399c0,3.81297 -2.88943,6.90399 -6.45373,6.90399z" fill="#575757" stroke="#000000" stroke-width="2" stroke-linecap="butt"/><path d="M44.99128,300.49256l38.08452,1.31326c0,0 -0.81164,2.71937 0.18761,5.06543c0.99925,2.34606 5.44065,4.5026 5.44065,4.5026l-41.46147,4.31499" fill="#000000" stroke="#000000" stroke-width="2" stroke-linecap="round"/><path d="M29.75646,297.45198c-13.14369,0 -23.79875,-11.25535 -23.79875,-25.13953c0,-13.88418 10.65506,-25.13953 23.79875,-25.13953c13.14369,0 23.79875,11.25535 23.79875,25.13953c0,13.88418 -10.65506,25.13953 -23.79875,25.13953z" fill="#888888" stroke="none" stroke-width="NaN" stroke-linecap="butt"/><path d="M17.71581,280.62762c-5.35797,0 -9.70147,-4.55537 -9.70147,-10.1747c0,-5.61933 4.3435,-10.1747 9.70147,-10.1747c2.25066,0 5.70824,-0.02777 7.35415,1.32104c2.27238,1.86219 2.34731,5.59478 2.34731,8.85366c0,5.61933 -4.3435,10.1747 -9.70147,10.1747z" fill="#5e5e5e" stroke="none" stroke-width="0" stroke-linecap="butt"/><path d="M49.74082,270.3245c0,5.61934 -4.3435,10.1747 -9.70147,10.1747c-5.35797,0 -9.70147,-4.55537 -9.70147,-10.1747c0,-3.03084 -0.39955,-5.75216 1.60522,-7.61615c1.71218,-1.59195 5.62813,-2.55856 8.09624,-2.55856c5.35797,0 9.70147,4.55537 9.70147,10.1747z" fill="#5e5e5e" stroke="none" stroke-width="0" stroke-linecap="butt"/><path d="M23.81387,275.08394v-11.36457h8.86991v11.36457z" fill="#5e5e5e" stroke="none" stroke-width="0" stroke-linecap="butt"/><path d="M25.75416,270.72289c0,3.7863 -3.47479,6.8557 -7.76117,6.8557c-4.28637,0 -7.76117,-3.0694 -7.76117,-6.8557c0,-3.7863 2.36606,-5.46978 6.65243,-5.46978c2.15774,0 4.94138,-1.43967 6.34808,-0.18414c1.38771,1.23858 2.52183,3.77363 2.52183,5.65392z" fill="#ffffff" stroke="none" stroke-width="0" stroke-linecap="butt"/><path d="M40.30635,277.30141c-4.05676,0 -7.3454,-3.28865 -7.3454,-7.3454c0,-4.05676 3.28865,-7.3454 7.3454,-7.3454c4.05676,0 7.3454,3.28865 7.3454,7.3454c0,4.05676 -3.28865,7.3454 -7.3454,7.3454z" fill="#ffffff" stroke="none" stroke-width="0" stroke-linecap="butt"/><path d="M89.22944,318.04755v-36.31119h6.09806v36.31119z" fill="#9e9e9e" stroke="none" stroke-width="0" stroke-linecap="butt"/><path d="M84.79449,383.18594l-0.55437,-65.41558h15.52234v66.52431l-7.48399,14.13642z" fill="#9e9e9e" stroke="none" stroke-width="0" stroke-linecap="butt"/><path d="M91.96288,311.56014c-4.3932,0 -7.9546,-3.12462 -7.9546,-6.97903c0,-3.85442 3.56139,-6.97903 7.9546,-6.97903c4.3932,0 7.9546,3.12462 7.9546,6.97903c0,3.85442 -3.56139,6.97903 -7.9546,6.97903z" fill="#575757" stroke="#000000" stroke-width="2" stroke-linecap="butt"/><path d="M92.27847,397.11808l0.27719,-69.29616" fill="none" stroke="#7a7a7a" stroke-width="2" stroke-linecap="round"/><path d="M105.02897,319.50639l-26.60972,-0.27719" fill="none" stroke="#7a7a7a" stroke-width="4.5" stroke-linecap="round"/><path d="M81.33986,282.2641l18.84856,-0.19634" fill="none" stroke="#7a7a7a" stroke-width="4.5" stroke-linecap="round"/></g></g></svg>