<svg version="1.1" xmlns="http://www.w3.org/2000/svg" xmlns:xlink="http://www.w3.org/1999/xlink" width="578.58772" height="387.68755" viewBox="0,0,578.58772,387.68755"><defs><linearGradient x1="284.63593" y1="-12.36273" x2="284.63593" y2="369.27346" gradientUnits="userSpaceOnUse" id="color-1"><stop offset="0" stop-color="#a80000"/><stop offset="1" stop-color="#ff6666"/></linearGradient></defs><g transform="translate(4.65793,18.4141)"><g data-paper-data="{&quot;isPaintingLayer&quot;:true}" fill-rule="nonzero" stroke-linejoin="miter" stroke-miterlimit="10" stroke-dasharray="" stroke-dashoffset="0" style="mix-blend-mode: normal"><g><g><path d="M-4.65793,369.27346v-381.63619h578.58772v381.63619z" fill="url(#color-1)" stroke="none" stroke-width="1" stroke-linecap="butt"/><path d="M151.28823,284.09516l152.56408,-265.18238" fill="none" stroke="#ffffff" stroke-width="1.5" stroke-linecap="round"/><path d="M236.85409,11.91477l-146.59283,274.62961" fill="none" stroke="#860000" stroke-width="3.5" stroke-linecap="round"/><path d="M124.58996,19.33719l-100.20269,232.87849" fill="none" stroke="#860000" stroke-width="3.5" stroke-linecap="round"/><path d="M55.99583,258.5876l136.68203,-276.25169" fill="none" stroke="#ffffff" stroke-width="1.5" stroke-linecap="round"/></g><path d="M389.94154,52.73809l-126.18117,290.40226" fill="none" stroke="#860000" stroke-width="3.5" stroke-linecap="round"/><path d="M461.38235,107.47845l-88.14126,218.96144" fill="none" stroke="#860000" stroke-width="3.5" stroke-linecap="round"/><path d="M334.65389,297.57086l110.69319,-230.04932" fill="none" stroke="#ffffff" stroke-width="1.5" stroke-linecap="round"/></g><g stroke-width="2" stroke-linecap="round"><path d="M221.00756,154.25285l0.39755,9.54139l10.73406,-3.18047l78.71648,-44.12894l5.16825,0.00386l3.97557,3.18047l-1.19267,5.9595l-84.67985,52.87521l-2.7829,54.07953l25.44372,47.70696l-48.10452,42.93626l-11.13163,-15.90232l32.20219,-31.80464l-16.29987,-22.6608h9.54139l-22.26325,0.79512l5.16825,0.39755l-27.82906,70.76531l-21.86569,-4.77069l37.768,-84.2823l-5.16825,-54.07953l-27.03393,37.768l-7.5536,13.91453l-4.37314,-0.39755l-8.34871,-13.91453l8.74628,-10.33651l32.20219,-41.74359l18.28767,-0.79512l-0.39755,-10.33651" fill="#000000" stroke="#000000"/><path d="M207.81614,324.75537c0,0 3.12051,7.27445 3.0915,10.64008c-0.03276,3.79986 -3.27818,11.01486 -3.27818,11.01486l-16.61456,-27.81539l4.66701,-9.89407z" fill="#000000" stroke="#000000"/><path d="M176.41588,326.38016l-6.68903,8.65623l-32.32851,-2.14637c0,0 4.94961,-6.17173 8.31884,-7.92908c2.98421,-1.55653 10.882,-2.08584 10.882,-2.08584z" data-paper-data="{&quot;index&quot;:null}" fill="#000000" stroke="#000000"/><path d="M219.78396,243.4911l-8.47096,-9.12258l-4.30064,8.34064l4.95225,-9.12257l19.67869,-0.78194l-38.05416,1.6942l14.98708,-54.73544l14.46578,-17.59353l-14.33547,17.33289l-11.33805,-14.59612" fill="none" stroke="#414141"/></g><g stroke-width="2"><path d="M222.90187,157.60646c-4.05066,2.72612 -8.77144,4.76394 -13.81161,4.76394c-4.95262,0 -9.59688,-2.45825 -13.59997,-5.09722c-8.16976,-5.38578 -13.66902,-14.52643 -13.66902,-26.08428c0,-10.01999 4.13319,-19.64745 10.55638,-25.35207c4.61616,-4.09975 10.41509,-5.82942 16.71262,-5.82942c6.51958,0 12.50479,1.19349 17.19651,5.55789c6.14612,5.71737 10.07249,15.85753 10.07249,25.62359c0,11.45776 -5.40444,20.9979 -13.45739,26.41757z" fill="#828282" stroke="#6b7d7d" stroke-linecap="butt"/><path d="M185.85233,128.03251c0,0 6.49608,-20.43617 16.11278,-19.59662c9.6167,0.83956 11.32249,21.99176 11.32249,21.99176c0,0 2.48453,-8.68972 3.56045,-12.23626c0.80228,-2.64458 1.36707,-3.36886 2.31854,-5.83617c2.50727,-6.50179 2.85422,1.40228 4.83852,3.43682c3.17186,3.25216 12.36298,12.89371 12.36298,12.89371c0,0 0.53853,6.67078 -0.8957,10.06396c-1.53473,3.63097 -3.75458,10.17177 -8.03165,11.05683c-4.27707,0.88507 -10.36264,-13.02778 -12.69267,-16.06386c-2.45385,-3.19744 -1.67818,-2.6618 -1.67818,-2.6618c0,0 -4.38472,15.07822 -14.58859,13.93538c-10.20389,-1.14284 -12.62893,-16.98374 -12.62893,-16.98374z" data-paper-data="{&quot;index&quot;:null}" fill="#6b7d7d" stroke="#828282" stroke-linecap="round"/><path d="M199.78771,135.65344c-4.81019,0 -8.70961,-4.28938 -8.70961,-9.58057c0,-5.29121 3.89942,-9.58057 8.70961,-9.58057c4.81019,0 8.70962,4.28937 8.70962,9.58057c0,5.29121 -3.89943,9.58057 -8.70962,9.58057z" data-paper-data="{&quot;index&quot;:null}" fill="#d8ffff" stroke="#828282" stroke-linecap="butt"/><path d="M225.19913,140.59725c-4.81017,0 -8.70962,-4.28938 -8.70962,-9.58057c0,-5.29121 3.89943,-9.58057 8.70962,-9.58057c4.81017,0 8.7096,4.28937 8.7096,9.58057c0,5.29121 -3.89941,9.58057 -8.7096,9.58057z" data-paper-data="{&quot;index&quot;:null}" fill="#d8ffff" stroke="#828282" stroke-linecap="butt"/><path d="M201.26523,123.24532l-5.4538,4.03107" fill="none" stroke="#7affff" stroke-linecap="round"/><path d="M202.45085,126.80215l-3.79394,3.08258" fill="none" stroke="#7affff" stroke-linecap="round"/><path d="M220.94634,132.25594l4.74242,-4.74244" fill="none" stroke="#7affff" stroke-linecap="round"/><path d="M223.55467,132.96731l3.55683,-3.55682" fill="none" stroke="#7affff" stroke-linecap="round"/><path d="M196.09168,156.91665c0,0 -4.8916,-19.63471 -5.56904,-28.69548c-0.56771,-7.59327 1.7751,-22.04856 1.7751,-22.04856" fill="none" stroke="#6b7d7d" stroke-linecap="round"/><path d="M209.13337,161.89621c0,0 2.31738,-24.84106 3.3015,-35.2563c0.90646,-9.59344 2.38943,-24.97261 2.38943,-24.97261" fill="none" stroke="#6b7d7d" stroke-linecap="round"/><path d="M228.57735,107.59535l2.1341,15.65003" fill="none" stroke="#6b7d7d" stroke-linecap="round"/><path d="M224.07205,146.4833l-2.1341,10.90759" fill="none" stroke="#6b7d7d" stroke-linecap="round"/><path d="M218.14473,100.48477c0,0 -0.9499,19.18728 -1.27271,28.83557c-0.34393,10.27949 -2.513,31.51326 -2.513,31.51326" fill="none" stroke="#6b7d7d" stroke-linecap="round"/><path d="M204.44932,111.08895c0,0 0.1131,-3.60169 0.29094,-5.27343c0.19219,-1.8066 0.82251,-5.19298 0.82251,-5.19298" fill="none" stroke="#6b7d7d" stroke-linecap="round"/><path d="M201.66571,159.37694c0,0 -1.39528,-6.49636 -1.31833,-9.34369c0.07102,-2.62808 -0.35185,-9.02817 -0.35185,-9.02817" fill="none" stroke="#6b7d7d" stroke-linecap="round"/><path d="M185.7434,145.03264c0,0 -1.4977,-10.86881 -1.01787,-16.51612c0.48509,-5.70917 3.91284,-17.55536 3.91284,-17.55536" fill="none" stroke="#6b7d7d" stroke-linecap="round"/></g><path d="M331.88593,115.80468c0,-5.66092 -4.70101,-10.25 -10.5,-10.25c-5.79899,0 -10.5,4.58908 -10.5,10.25c0,5.66092 4.70101,10.25 10.5,10.25c5.79899,0 10.5,-4.58908 10.5,-10.25z" fill="#000000" stroke="#000000" stroke-width="2" stroke-linecap="butt"/><path d="M154.38593,229.80468c0,-5.66092 -4.70101,-10.25 -10.5,-10.25c-5.79899,0 -10.5,4.58908 -10.5,10.25c0,1.42193 0.2966,2.77623 0.8327,4.00717c0.66455,1.52587 1.64772,3.51037 2.88182,4.72408c1.73384,1.70519 3.96299,2.37589 6.49976,2.37589c2.49397,0 4.83771,-1.50734 6.69915,-3.10586c2.46678,-2.11837 4.08657,-4.77496 4.08657,-8.00128z" fill="#000000" stroke="#000000" stroke-width="2" stroke-linecap="butt"/></g></g></svg>