<svg version="1.1" xmlns="http://www.w3.org/2000/svg" xmlns:xlink="http://www.w3.org/1999/xlink" width="181.95183" height="206.55089" viewBox="0,0,181.95183,206.55089"><defs><linearGradient x1="213.08199" y1="65.28888" x2="246.46217" y2="65.28888" gradientUnits="userSpaceOnUse" id="color-1"><stop offset="0" stop-color="#000000"/><stop offset="1" stop-color="#ffffff"/></linearGradient><linearGradient x1="170.58439" y1="97.25887" x2="204.47583" y2="97.25887" gradientUnits="userSpaceOnUse" id="color-2"><stop offset="0" stop-color="#c6c771"/><stop offset="1" stop-color="#9966ff"/></linearGradient><linearGradient x1="251.59013" y1="85.59095" x2="284.4815" y2="85.59095" gradientUnits="userSpaceOnUse" id="color-3"><stop offset="0" stop-color="#c6c771"/><stop offset="1" stop-color="#9966ff"/></linearGradient></defs><g transform="translate(-136.5,-43.96342)"><g data-paper-data="{&quot;isPaintingLayer&quot;:true}" fill-rule="nonzero" stroke-width="2" stroke-linejoin="miter" stroke-miterlimit="10" stroke-dasharray="" stroke-dashoffset="0" style="mix-blend-mode: normal"><path d="M255.5,159.83334l-2,89l-15.66666,0.33333l2,-64l-14,-0.66666l-1.33334,65l-23,-0.33334l0.66666,-88.33333z" fill="#000000" stroke="#000000" stroke-linecap="round"/><path d="M234.16667,80.83333l0.66667,5.66667l2.66667,2l11.66667,0.33333l48,-17.66667l8.33333,15.33333l-51.66667,22.33333l2.33333,51l-55.33333,0.33333l-0.33334,-51.66666l-42.66667,12l-5,-18.66667l54.66667,-14h10.33333l5.66667,-1.66667l0.66667,-5.66667" fill="#0015ff" stroke="#000000" stroke-linecap="round"/><path d="M245.5,54.3c0,0 3.19319,11.86898 -0.6,17.6c-3.79319,5.73102 -9.85387,11.18037 -17.8,10.2c-7.94613,-0.98037 -10.4139,-6.68084 -13,-14c-2.5861,-7.31916 -1.55818,-11.08063 2.4,-16c3.95818,-4.91937 11.86799,-7.43622 16.19303,-7.10812c0.28267,0.02144 4.84873,1.92146 7.96181,4.22951c3.1497,2.3352 4.84516,5.07861 4.84516,5.07861z" fill="#003aff" stroke="#000000" stroke-linecap="round"/><path d="M146.1,122.5c-4.74965,0 -8.6,-4.11898 -8.6,-9.2c0,-5.08102 3.85035,-9.2 8.6,-9.2c4.74965,0 8.6,4.11898 8.6,9.2c0,5.08102 -3.85035,9.2 -8.6,9.2z" fill="#000000" stroke="#000000" stroke-linecap="butt"/><path d="M244.1,71.5l-27.6,0.4c0,0 -2.6019,-2.58041 -3.21485,-4.79383c-0.58582,-2.11548 0.28156,-8.4284 0.28156,-8.4284l32.26664,0.02224c0,0 0.82564,5.0872 0.58477,7.28944c-0.22467,2.0541 -2.31813,5.51056 -2.31813,5.51056z" fill="url(#color-1)" stroke="#000000" stroke-linecap="round"/><path d="M217.03234,88.25819l14.2233,25.55749l5.77821,-24.89077l12.33426,0.44448l-10.77859,32.4469l15.66785,37.11391l-11.66755,-0.44448l-11.22307,-32.00242l-12.00091,32.4469l-17.668,0.66672l20.44599,-35.78048l-19.33479,-34.33593l4.77814,-1.44455z" fill="#c6c771" stroke="#000000" stroke-linecap="round"/><path d="M202.5868,90.36946l1.88903,4.0003l-33.89145,9.77852l1.00008,-6.88941z" fill="url(#color-2)" stroke="#c6c771" stroke-linecap="round"/><path d="M253.47916,93.36932l-1.88903,-4.0003l32.89137,-11.55643l-0.44448,5.6671z" data-paper-data="{&quot;index&quot;:null}" fill="url(#color-3)" stroke="#c6c771" stroke-linecap="round"/><path d="M202.14233,198.8221v-38.11399h52.67064l-0.33336,37.89175c0,0 -2.4872,-14.82455 -5.99081,-14.46313c-2.90275,0.29944 -6.27436,0.5732 -8.89921,0.5732c-3.20387,0 -8.38932,-0.14608 -13.89359,-0.34154c-3.87877,-0.13774 -10.69385,-1.53397 -14.30742,0.75879c-6.7513,4.28361 -9.24626,13.69493 -9.24626,13.69493z" fill="#0015ff" stroke="#000000" stroke-linecap="butt"/><path d="M313.58083,83.72875c-4.01843,2.53208 -9.47187,1.09987 -12.1806,-3.19891c-2.70873,-4.29878 -1.64701,-9.83629 2.37142,-12.36836c4.01843,-2.53208 9.47187,-1.09987 12.1806,3.19891c2.70873,4.29878 1.64701,9.83629 -2.37142,12.36836z" fill="#000000" stroke="#000000" stroke-linecap="butt"/></g></g></svg>