<svg version="1.1" xmlns="http://www.w3.org/2000/svg" xmlns:xlink="http://www.w3.org/1999/xlink" width="105.40741" height="264.59117" viewBox="0,0,105.40741,264.59117"><g transform="translate(-175.13643,-52.30603)"><g data-paper-data="{&quot;isPaintingLayer&quot;:true}" fill-rule="nonzero" stroke-linecap="butt" stroke-linejoin="miter" stroke-miterlimit="10" stroke-dasharray="" stroke-dashoffset="0" style="mix-blend-mode: normal"><path d="M266.61494,151.49339c-0.23874,-5.27516 -2.0327,-44.9135 -2.27144,-50.18866c5.16424,0.37594 9.47557,1.0884 9.52067,2.08496c0.03624,0.80065 0.07513,1.65993 0.11182,2.47078c0.03166,0.69953 0.06169,1.36302 0.08697,1.92172c0.05654,1.24931 1.69583,37.47017 1.77264,39.16749c0.09924,2.19279 0.18637,4.11796 0.18637,4.11796z" data-paper-data="{&quot;index&quot;:null}" fill="#003da4" stroke="none" stroke-width="0"/><path d="M235.7791,101.0894c5.3981,0 13.37403,0 21.22673,0c2.53933,0 5.06578,0.04752 7.48799,0.13368c0.03035,9.76636 0.56659,81.86198 0.84435,91.62823h-13.36418c-0.73929,-0.08813 -1.80349,-0.14984 -3.33494,-0.14134c-1.33078,0.00738 -2.27934,0.06369 -2.95531,0.14134h-23.93107c0,-9.54474 0,-81.42281 0,-90.96755c4.95569,-0.50385 10.00376,-0.79436 14.02644,-0.79436z" fill="#003da4" stroke="none" stroke-width="0"/><path d="M195.86348,145.33877c0,0 0.81611,-1.74581 1.74567,-3.7343c0.71951,-1.53918 16.07416,-34.38538 16.60377,-35.5183c0.23684,-0.50664 0.5181,-1.10832 0.81464,-1.74268c0.34373,-0.73531 0.708,-1.51453 1.0474,-2.24058c0.42246,-0.90371 4.67889,0.08522 9.59493,1.71103c-2.23624,4.78368 -19.03959,40.72896 -21.27583,45.51264z" data-paper-data="{&quot;index&quot;:null}" fill="#003da4" stroke="none" stroke-width="0"/><path d="M221.18483,212.27989v-19.66666h45.43452v19.66666c0,0 -10.60417,0 -19.09312,0c-1.57626,0 -2.50817,-11.14286 -3.85714,-11.14286c-0.75409,0 -2.45994,11.14286 -3.10333,11.14286c-7.02751,0 -19.38093,0 -19.38093,0z" fill="#003da4" stroke="none" stroke-width="0"/><path d="M267.94415,180.86332c-0.18267,-4.03617 -1.55527,-34.36455 -1.73794,-38.40072c5.15777,0.23304 9.45947,0.73277 9.49398,1.49526c0.02772,0.6126 0.05748,1.27006 0.08556,1.89046c0.02422,0.53523 0.0472,1.04288 0.06655,1.47036c0.04326,0.95588 1.29752,28.66946 1.3563,29.96812c0.07593,1.67776 0.1426,3.15077 0.1426,3.15077z" data-paper-data="{&quot;index&quot;:null}" fill="#003da4" stroke="none" stroke-width="0"/><path d="M272.60686,195.42455c-4.57928,0.20725 -8.45386,-3.21185 -8.65412,-7.63677c-0.20027,-4.42492 3.34962,-8.18003 7.9289,-8.38728c4.57928,-0.20725 8.45386,3.21185 8.65412,7.63677c0.20027,4.42492 -3.34962,8.18003 -7.9289,8.38728z" fill="#ffffff" stroke="none" stroke-width="0"/><path d="M221.53718,316.8972v-53.38023c6.41758,-0.01156 12.83557,-0.02818 19.25357,-0.03814c-0.06236,23.73696 -0.05129,47.03581 0.51989,53.41837z" fill="#003da4" stroke="none" stroke-width="0"/><path d="M221.32195,212.03541l19.1269,0.00836c0.31243,6.23913 0.20183,28.572 0.12508,51.69913c-6.42318,0.00712 -12.84635,0.02089 -19.26911,0.02961z" fill="#003da4" stroke="none" stroke-width="0"/><path d="M233.09121,254.73836c0.10773,0.16251 0.1973,0.33438 0.26908,0.51241l0.95054,2.24061l-0.09355,0.05241c0.11822,0.22689 0.22118,0.46456 0.30514,0.7156c0.80194,2.39774 -0.45332,5.12898 -0.35711,7.69537l-0.03892,0.11365l0.03664,0.00184l-0.14766,3.88042c-0.02533,0.79404 -0.3484,1.56925 -0.94128,2.08834c-1.05123,0.92039 -2.55266,0.68714 -3.35352,-0.52098c-0.01671,-0.02521 -0.03298,-0.05065 -0.04882,-0.0763c-0.33778,0.32114 -0.72928,0.57808 -1.12499,0.77577c-1.37573,0.68729 -2.89484,2.09001 -4.30573,1.50435c-1.34504,-0.55833 -1.65058,-2.71049 -2.2254,-4.21542c-1.56135,-4.08774 -0.54167,-8.00435 0.44302,-11.99593l-0.02795,0.03134c0,0 0.22069,-1.87622 1.65042,-2.30467c0.29418,-1.52088 0.655,-3.02672 1.09606,-4.51206l1.30605,-1.8297c0,0 2.2495,-1.96953 3.96326,0.6157c1.2435,1.87586 0.40036,3.42754 -0.15599,4.13786c-0.02194,0.07905 -0.04362,0.1582 -0.06505,0.23743c0.98865,-0.50007 2.18231,-0.17905 2.86577,0.85196z" fill="#003da4" stroke="none" stroke-width="0.5"/><path d="M246.21,316.8972c0.57117,-6.38256 0.58225,-29.68141 0.51988,-53.41837c6.418,0.00996 12.83599,0.02658 19.25357,0.03814v53.38023z" data-paper-data="{&quot;index&quot;:null}" fill="#003da4" stroke="none" stroke-width="0"/><path d="M266.21583,263.77252c-6.42277,-0.00873 -12.84593,-0.02249 -19.26911,-0.02961c-0.07675,-23.12714 -0.18736,-45.46 0.12508,-51.69913l19.1269,-0.00836z" data-paper-data="{&quot;index&quot;:null}" fill="#003da4" stroke="none" stroke-width="0"/><path d="M257.2952,253.88641c-0.02143,-0.07923 -0.0431,-0.15838 -0.06505,-0.23743c-0.55635,-0.71031 -1.39949,-2.262 -0.15598,-4.13786c1.71375,-2.58524 3.96325,-0.6157 3.96325,-0.6157l1.30605,1.8297c0.44106,1.48534 0.80188,2.99118 1.09606,4.51206c1.42973,0.42845 1.65042,2.30467 1.65042,2.30467l-0.02795,-0.03134c0.98469,3.99158 2.00437,7.90819 0.44302,11.99593c-0.57482,1.50493 -0.88035,3.65709 -2.2254,4.21542c-1.41089,0.58566 -2.92999,-0.81705 -4.30572,-1.50435c-0.39571,-0.19769 -0.78722,-0.45463 -1.125,-0.77577c-0.01584,0.02564 -0.03211,0.05109 -0.04882,0.0763c-0.80086,1.20812 -2.3023,1.44137 -3.35352,0.52098c-0.59289,-0.51909 -0.91595,-1.2943 -0.94128,-2.08834l-0.14766,-3.88042l0.03664,-0.00184l-0.03893,-0.11365c0.09621,-2.56639 -1.15905,-5.29762 -0.35711,-7.69537c0.08396,-0.25104 0.18692,-0.48871 0.30515,-0.7156l-0.09355,-0.05241l0.95054,-2.24061c0.07178,-0.17802 0.16134,-0.3499 0.26907,-0.51241c0.68345,-1.03101 1.87712,-1.35202 2.86577,-0.85196z" data-paper-data="{&quot;index&quot;:null}" fill="#003da4" stroke="none" stroke-width="0.5"/><g data-paper-data="{&quot;index&quot;:null}" stroke="none" stroke-width="0"><path d="M181.4595,176.2536c1.71087,-3.66018 14.56656,-31.16339 16.27742,-34.82357c4.46087,2.59951 8.03967,5.03809 7.71646,5.72955c-0.25968,0.55554 -0.53836,1.15175 -0.80133,1.71436c-0.22688,0.48537 -0.44205,0.94573 -0.62326,1.33339c-0.40519,0.86685 -12.1525,25.99881 -12.70299,27.17651c-0.71117,1.52148 -1.33556,2.85726 -1.33556,2.85726z" fill="#003da4"/><path d="M179.99282,191.71307c-4.15269,-1.94108 -5.99862,-6.76759 -4.12297,-10.78032c1.87566,-4.01272 6.76259,-5.69212 10.9153,-3.75105c4.1527,1.94108 5.99862,6.76759 4.12297,10.78032c-1.87565,4.01272 -6.76258,5.69212 -10.91529,3.75105z" fill="#ffffff"/></g><g stroke-width="2"><path d="M241.79423,105.11476c-13.58179,0 -24.59201,-13.16939 -24.59201,-26.91682c0,-13.74743 11.01022,-24.89191 24.59201,-24.89191c13.58179,0 24.59201,11.14449 24.59201,24.89191c0,13.74743 -11.01022,26.91682 -24.59201,26.91682z" fill="#003da4" stroke="#002c78"/><path d="M220.42731,89.45911c0,0 -1.99934,-7.45565 -1.99934,-10.99643c0,-3.30779 1.99934,-9.59688 1.99934,-9.59688h42.58617c0,0 3.92205,5.92237 3.78684,9.40425c-0.13124,3.3795 -4.58657,11.18906 -4.58657,11.18906z" fill="#ffffff" stroke="#ffffff"/></g><text transform="translate(221.25,156.10018) scale(1.85273,1.85273)" font-size="40" xml:space="preserve" fill="#ffffff" fill-rule="nonzero" stroke="none" stroke-width="1" stroke-linecap="butt" stroke-linejoin="miter" stroke-miterlimit="10" stroke-dasharray="" stroke-dashoffset="0" font-family="&quot;ヒラギノ角ゴ Pro W3&quot;, &quot;Hiragino Kaku Gothic Pro&quot;, Osaka, &quot;メイリオ&quot;, Meiryo, &quot;ＭＳ Ｐゴシック&quot;, &quot;MS PGothic&quot;" font-weight="normal" text-anchor="start" style="mix-blend-mode: normal"><tspan x="0" dy="0">X</tspan></text></g></g></svg>